<svg width="857" height="699" viewBox="0 0 857 699" fill="none" xmlns="http://www.w3.org/2000/svg"><path opacity=".2" d="M319.25 270.781l39.436-.267 119.054-67.485a1.87 1.87 0 00.948-1.631 1.877 1.877 0 00-.948-1.632l-38.623-22.641.146 24.08-120.013 69.576z" fill="#A7CDD1"/><path d="M317.278 104.952L187.13 180.081a2.099 2.099 0 00-1.034 1.812 2.104 2.104 0 001.034 1.811l130.148 75.143a4.183 4.183 0 004.182 0l130.135-75.143a2.09 2.09 0 000-3.623L321.46 104.952a4.184 4.184 0 00-4.182 0z" fill="url(#paint0_linear)"/><path d="M452.661 181.893a2.047 2.047 0 01-1.052 1.811l-130.135 75.143a4.204 4.204 0 01-2.091.56v11.134a4.213 4.213 0 002.091-.559l130.135-75.13a2.087 2.087 0 001.052-1.811v-11.148z" fill="url(#paint1_linear)"/><path d="M317.278 258.847L187.13 183.704a2.069 2.069 0 01-1.039-1.811v11.148a2.107 2.107 0 001.039 1.811l130.148 75.13c.636.367 1.357.56 2.091.559v-11.134a4.163 4.163 0 01-2.091-.56z" fill="url(#paint2_linear)"/><path d="M306.441 218.78l-8.937 5.159 1.826 1.054 3.459-1.997 8.481 4.896 2.017-1.165-8.481-4.896 3.46-1.997-1.825-1.054zm13.768 4.189c1.958-1.131 2.017-2.491 1.472-3.298l-2.267.714c.265.493.118 1.071-.824 1.615-1.355.782-2.768.748-3.858.272l5.786-3.34c-.191-.162-.412-.289-.647-.425-2.135-1.233-5.227-1.403-7.671.008-2.341 1.352-2.194 3.238.029 4.522 2.356 1.36 5.595 1.309 7.98-.068zm-6.699-1.403c-.751-.552-.809-1.436.324-2.09 1.163-.672 2.606-.655 3.607-.179l-3.931 2.269zm7.255-6.482l-1.105-.638-1.943 1.122 7.45 4.301 1.943-1.122-3.239-1.87c-2.002-1.156-1.87-2.082-.029-2.856l-1.826-1.054c-1.325.578-1.678 1.36-1.251 2.117zm5.664-3.271l-1.104-.637-1.943 1.122 7.449 4.301 1.944-1.122-3.239-1.87c-2.002-1.156-1.87-2.083-.03-2.856l-1.825-1.054c-1.325.578-1.679 1.36-1.252 2.116zm13.081.014c1.045-.604 1.428-1.335 1.281-2.032l.912.527 1.959-1.13-7.45-4.301-1.958 1.13.898.519c-1.207-.085-2.459.144-3.504.748-2.061 1.19-2.017 3.085.25 4.394 2.253 1.3 5.551 1.334 7.612.145zm-1.399-1.199c-1.222.706-3.003.68-4.299-.068-1.281-.739-1.31-1.759-.088-2.465 1.178-.68 3.018-.705 4.299.034 1.295.748 1.266 1.819.088 2.499zm2.025-8.784c-.707-.408-.795-.85-.177-1.207a3.696 3.696 0 011.119-.425l-1.089-1.173a6.524 6.524 0 00-2.003.782c-1.737 1.003-1.516 2.15.207 3.145l.677.391-1.428.824 1.707.986 1.429-.824 5.741 3.314 1.944-1.122-5.742-3.314 2.253-1.301-1.708-.986-2.253 1.301-.677-.391zm14.765 1.097c2.297-1.326 2.267-3.281.044-4.564-2.238-1.292-5.609-1.3-7.906.025-2.297 1.326-2.297 3.281-.059 4.573 2.223 1.284 5.624 1.292 7.921-.034zm-1.767-1.02c-1.251.723-3.018.672-4.254-.042-1.237-.714-1.326-1.734-.074-2.457 1.237-.714 3.018-.671 4.255.043 1.236.714 1.31 1.742.073 2.456zm2.611-7.032l-1.104-.637-1.943 1.122 7.45 4.3 1.943-1.122-3.239-1.869c-2.002-1.156-1.87-2.083-.029-2.856l-1.826-1.054c-1.325.578-1.678 1.36-1.252 2.116zm11.319-8.047c-1.193.689-1.531 1.462-1.399 2.1-1.163-.145-2.311.042-3.357.646-.986.569-1.266 1.257-1.119 1.903l-.883-.51-1.943 1.122 7.449 4.301 1.944-1.122-3.74-2.159c-1.31-.756-1.546-1.538-.5-2.142 1.001-.578 2.12-.391 3.224.247l4.019 2.32 1.958-1.13-3.798-2.193c-1.266-.731-1.517-1.487-.471-2.091 1.016-.586 2.135-.416 3.254.23l4.019 2.32 1.943-1.122-4.431-2.558c-2.076-1.199-4.388-1.19-6.169-.162z" fill="#000"/><g clip-path="url(#clip0)" fill-rule="evenodd" clip-rule="evenodd" fill="#7B42BC"><path d="M236.739 181.091l12.121-1.876 8.875 5.123-12.123 1.876-8.873-5.123zM249.703 178.728l8.875 5.124 3.246-6.997-8.873-5.123-3.248 6.996zM223.262 183.154l8.872 5.122 12.121-1.874-8.872-5.122-12.121 1.874zM255.457 191.897l12.121-1.874-8.814-5.088-.059-.034-12.12 1.874 8.872 5.122z"/></g><path opacity=".2" d="M135.25 375.041l39.436-.266L293.74 307.29a1.877 1.877 0 000-3.263l-38.623-22.642.146 24.08-120.013 69.576z" fill="#A7CDD1"/><path d="M133.278 209.212L3.13 284.342a2.106 2.106 0 00-.757 2.854c.181.317.442.582.757.768l130.148 75.143a4.184 4.184 0 004.182 0l130.135-75.143a2.09 2.09 0 000-3.622l-130.135-75.13a4.183 4.183 0 00-4.182 0z" fill="url(#paint3_linear)"/><path d="M268.661 286.153a2.045 2.045 0 01-1.052 1.812l-130.135 75.143a4.213 4.213 0 01-2.091.559v11.134a4.213 4.213 0 002.091-.559l130.135-75.13a2.087 2.087 0 001.052-1.811v-11.148z" fill="url(#paint4_linear)"/><path d="M133.278 363.108L3.13 287.965a2.073 2.073 0 01-1.039-1.812v11.148a2.1 2.1 0 001.039 1.811l130.148 75.13c.636.367 1.357.56 2.091.559v-11.134a4.172 4.172 0 01-2.091-.559z" fill="url(#paint5_linear)"/><path d="M129.743 330.962c2.724-1.573 2.798-3.536 1.62-4.76l-2.459.842c.677.782.471 1.938-1.089 2.838-2.032 1.173-4.962.978-6.817-.093-1.855-1.071-2.135-2.728-.103-3.901 1.56-.901 3.592-1.003 4.932-.621l1.487-1.419c-2.105-.672-5.551-.655-8.333.952-3.062 1.768-3.062 4.436-.03 6.187 3.048 1.76 7.686 1.768 10.792-.025zm6.219-3.828l1.943-1.122-10.747-6.205-1.944 1.122 10.748 6.205zm7.593-4.146c2.297-1.325 2.267-3.28.044-4.564-2.238-1.292-5.609-1.3-7.906.026-2.297 1.326-2.297 3.281-.059 4.572 2.223 1.284 5.624 1.292 7.921-.034zm-1.767-1.019c-1.251.722-3.018.671-4.255-.043-1.237-.714-1.325-1.734-.073-2.456 1.236-.714 3.018-.672 4.254.042 1.237.714 1.311 1.743.074 2.457zm4.82-9.582l3.666 2.116c1.325.765 1.487 1.657.382 2.295-1.074.62-2.326.493-3.46-.162l-3.975-2.294-1.943 1.121 4.343 2.508c2.002 1.156 4.299 1.343 6.257.212 1.075-.62 1.399-1.368 1.237-2.04l.942.544 1.944-1.122-7.45-4.3-1.943 1.122zm6.185-7.379l4.196 2.422c-1.207-.085-2.459.145-3.504.748-2.061 1.19-2.017 3.086.25 4.394 2.253 1.301 5.551 1.335 7.612.145 1.045-.603 1.428-1.334 1.281-2.031l.913.527 1.958-1.131-10.748-6.204-1.958 1.13zm7.155 6.511c-1.222.705-3.003.679-4.299-.068-1.28-.74-1.31-1.76-.088-2.465 1.178-.68 3.018-.706 4.299.034 1.296.748 1.266 1.819.088 2.499zm13.995-6.312l2.326-1.342-6.375-.723c.957-1.13.471-2.329-.883-3.111-1.634-.943-4.653-1.19-6.891.102l-5.02 2.899 10.306 5.949 2.002-1.156-3.607-2.082 2.194-1.267 5.948.731zm-13.03-2.286l2.959-1.708c.957-.553 2.356-.527 3.181-.051.854.493.912 1.292-.133 1.895l-2.886 1.666-3.121-1.802zm14.392-7.102l3.666 2.117c1.325.765 1.487 1.657.383 2.295-1.075.62-2.326.493-3.46-.162l-3.975-2.295-1.943 1.122 4.343 2.508c2.002 1.155 4.299 1.342 6.257.212 1.075-.62 1.399-1.368 1.237-2.04l.942.544 1.944-1.122-7.45-4.301-1.944 1.122zm7.997-4.854c-1.075.62-1.399 1.368-1.252 2.048l-.942-.544-1.943 1.122 7.45 4.301 1.943-1.122-3.681-2.125c-1.31-.756-1.457-1.657-.368-2.286 1.075-.621 2.312-.502 3.445.153l3.99 2.303 1.944-1.122-4.358-2.515c-1.988-1.148-4.285-1.335-6.228-.213z" fill="#000"/><path d="M100.934 314.5l-3.409 1.967 7.275 4.2 1.413-.816-2.224-1.284 1.933-1.116c1.673-.966 1.289-2.244.063-2.951-1.206-.696-3.451-.924-5.051 0zm3.679 2.243l-1.892 1.092-2.494-1.44 1.954-1.128c.696-.402 1.787-.336 2.432.036.634.366.769.996 0 1.44zm8.316-2.281l-5.965-3.444-1.424.822 7.275 4.2 5.051-2.916-1.31-.756-3.627 2.094zm4.312-9.376l4.271 2.466c1.07.617 1.268 1.391.125 2.051-1.133.654-2.474.54-3.544-.078l-4.272-2.465-1.444.833 4.292 2.478a6.272 6.272 0 006.277-.012c2.027-1.17 1.871-2.556.021-3.623l-4.292-2.478-1.434.828zm14.4-4.582l-3.71 2.142 1.226.708 2.234-1.29c.78.594.759 1.446-.467 2.154-1.632.942-3.7.792-5.009.036-1.31-.756-1.466-1.95-.042-2.772 1.122-.648 2.307-.744 3.419-.522l.946-.978c-1.673-.438-3.918-.306-5.716.732-2.162 1.248-2.183 3.144-.042 4.38 2.152 1.242 5.436 1.242 7.67-.048 2.182-1.26 2.276-2.934.218-4.122l-.727-.42zm6.285 1.039l1.445-.834-7.275-4.2-1.444.834 7.274 4.2zm1.544-9.291l4.719 2.724-8.377-.612-1.174.678 7.275 4.2 1.423-.822-4.728-2.73 8.387.618 1.174-.678-7.275-4.2-1.424.822z" fill="#727274"/><path d="M63.513 280.818l.94-.542v-3.091l-1.006-.731c-5.869.211-11.133 2.157-13.921 5.145-2.789 2.989-2.706 6.597.218 9.543.176-.243.487-.445.883-.575l4.47-3.6s-.178-.418-.008-.483c-.234-2.884 3.468-5.374 8.443-5.677l-.019.011z" fill="#EA4335"/><path d="M72.999 277.717c-2.881-.953-6.181-1.4-9.495-1.285v4.337c2.882-.167 5.738.438 7.748 1.643l.667.385c1.846-1.066 4.84-1.066 6.687 0 1.846 1.066 1.846 2.795 0 3.861l-6.687 3.86.01.775 4.01 2.316h1.333l6.687-3.861c3.864-2.196 4.78-5.594 2.257-8.365-2.524-2.77-7.893-4.26-13.217-3.666z" fill="#4285F4"/><path d="M70.538 297.453l6.687-3.861-5.353-3.09-6.687 3.86a5.845 5.845 0 01-1.681.624l-.648.71-.02 3.101.705.678c2.653-.214 5.111-.924 6.997-2.022z" fill="#34A853"/><path d="M53.172 287.428c-3.692 2.157-4.603 5.429-2.268 8.146 2.334 2.717 7.4 4.277 12.609 3.885v-4.479c-1.968.429-4.19.056-5.452-.915-1.262-.971-1.262-2.306 0-3.277 1.263-.971 3.484-1.344 5.452-.915v-4.479c-3.808-.292-7.634.46-10.34 2.034z" fill="#FBBC05"/><path opacity=".2" d="M697.562 697.793l39.436-.267 119.054-67.484a1.885 1.885 0 00.948-1.632 1.87 1.87 0 00-.948-1.631l-38.623-22.642.146 24.08-120.013 69.576z" fill="#A7CDD1"/><path d="M695.59 531.964l-130.149 75.13a2.109 2.109 0 00-1.033 1.811 2.102 2.102 0 001.033 1.811l130.149 75.143a4.183 4.183 0 004.182 0l130.135-75.143a2.09 2.09 0 000-3.622l-130.135-75.13a4.183 4.183 0 00-4.182 0z" fill="url(#paint6_linear)"/><path d="M830.973 608.905a2.045 2.045 0 01-1.052 1.811l-130.135 75.143a4.204 4.204 0 01-2.091.56v11.134a4.213 4.213 0 002.091-.559l130.135-75.13a2.095 2.095 0 001.052-1.811v-11.148z" fill="url(#paint7_linear)"/><path d="M695.59 685.859l-130.148-75.143a2.069 2.069 0 01-1.039-1.811v11.148a2.107 2.107 0 001.039 1.811l130.148 75.13c.636.367 1.357.56 2.091.559v-11.134a4.163 4.163 0 01-2.091-.56z" fill="url(#paint8_linear)"/><path d="M693.645 654.163l2.459-1.419-10.188-.816-.442-4.947-2.562 1.479.648 5.389-4.991-2.882-2.017 1.165 10.306 5.949 2.017-1.164-2.635-1.521-.162-1.845 7.567.612zm.782-9.052l3.666 2.116c1.325.765 1.487 1.657.383 2.295-1.075.62-2.327.493-3.46-.162l-3.975-2.295-1.944 1.122 4.343 2.508c2.003 1.156 4.299 1.343 6.258.212 1.074-.62 1.398-1.368 1.236-2.04l.943.544 1.943-1.122-7.45-4.3-1.943 1.122zm8.011-4.863c-1.06.612-1.443 1.326-1.31 2.031l-4.196-2.422-1.944 1.122 10.748 6.204 1.943-1.122-.912-.527c1.222.077 2.473-.136 3.533-.748 2.061-1.19 1.988-3.085-.265-4.385-2.267-1.309-5.536-1.343-7.597-.153zm5.786 3.731c-1.178.68-3.033.697-4.328-.051-1.281-.739-1.237-1.802-.059-2.482 1.222-.705 2.989-.688 4.269.051 1.296.748 1.34 1.777.118 2.482zm10.8-4.229c1.958-1.13 2.017-2.49 1.472-3.298l-2.267.714c.265.493.118 1.071-.825 1.615-1.354.782-2.768.748-3.857.272l5.786-3.34c-.191-.162-.412-.289-.648-.425-2.135-1.232-5.226-1.402-7.67.009-2.341 1.351-2.194 3.238.029 4.521 2.356 1.36 5.595 1.309 7.98-.068zm-6.699-1.402c-.751-.553-.81-1.437.324-2.091 1.163-.672 2.606-.655 3.607-.179l-3.931 2.27zm7.254-6.483l-1.104-.637-1.943 1.122 7.449 4.3 1.944-1.122-3.239-1.87c-2.003-1.155-1.87-2.082-.03-2.855l-1.825-1.054c-1.325.578-1.679 1.36-1.252 2.116zm6.754-5.412c-1.074.62-1.398 1.368-1.251 2.048l-.942-.544-1.944 1.122 7.45 4.301 1.944-1.122-3.681-2.125c-1.31-.756-1.458-1.657-.368-2.286 1.075-.621 2.311-.502 3.445.153l3.99 2.303 1.943-1.122-4.358-2.516c-1.987-1.147-4.284-1.334-6.228-.212zm16.227-.29c1.958-1.131 2.017-2.491 1.472-3.298l-2.267.714c.265.493.118 1.071-.824 1.615-1.355.782-2.768.748-3.858.272l5.786-3.341c-.191-.161-.412-.288-.648-.424-2.134-1.233-5.226-1.403-7.67.008-2.341 1.351-2.194 3.238.029 4.522 2.356 1.36 5.595 1.309 7.98-.068zm-6.699-1.403c-.751-.552-.81-1.436.324-2.091 1.163-.671 2.606-.654 3.607-.178l-3.931 2.269zm13.885-5.075c-.147.255-.339.434-.677.629-.619.357-1.252.332-1.855-.017l-3.195-1.844 2.179-1.258-1.708-.986-2.179 1.258-2.415-1.394-1.958 1.131 2.415 1.394-1.252.722 1.708.986 1.252-.723 3.194 1.845c1.605.926 3.446 1.088 5.153.102.619-.357 1.031-.731 1.384-1.207l-2.046-.638zm7.062-1.748c1.958-1.13 2.017-2.49 1.473-3.298l-2.268.714c.265.493.118 1.071-.824 1.615-1.355.782-2.768.748-3.858.272l5.787-3.34c-.192-.162-.413-.289-.648-.425-2.135-1.232-5.227-1.402-7.671.008-2.341 1.352-2.194 3.239.03 4.522 2.355 1.36 5.594 1.309 7.979-.068zm-6.699-1.402c-.75-.553-.809-1.437.324-2.091 1.163-.672 2.606-.655 3.607-.179l-3.931 2.27zm14.793-3.27c1.899-1.097 2.194-2.457.795-3.264-1.34-.773-2.768-.476-4.211-.017l-2.385.765c-.53.17-.913.187-1.207.017-.354-.204-.221-.654.383-1.003.78-.45 1.722-.535 2.458-.416l1.222-1.284c-1.59-.374-3.577-.11-5.182.816-1.634.944-2.002 2.295-.751 3.017 1.06.612 2.459.519 3.828.085l2.459-.773c.706-.221 1.192-.264 1.56-.051.412.238.28.722-.471 1.156-.986.569-2.223.671-3.18.408l-1.237 1.309c1.576.484 4.078.297 5.919-.765z" fill="#000"/><path d="M663.935 641.499l-3.409 1.968 7.275 4.2 1.413-.816-2.224-1.284 1.933-1.116c1.673-.966 1.289-2.244.062-2.952-1.205-.696-3.45-.924-5.05 0zm3.679 2.244l-1.892 1.092-2.494-1.44 1.954-1.128c.696-.402 1.787-.336 2.432.036.634.366.769.996 0 1.44zm8.316-2.281l-5.965-3.444-1.424.822 7.275 4.2 5.051-2.916-1.31-.756-3.627 2.094zm4.311-9.376l4.272 2.465c1.07.618 1.268 1.392.124 2.052-1.132.654-2.473.54-3.544-.078l-4.271-2.466-1.444.834 4.292 2.478a6.272 6.272 0 006.277-.012c2.026-1.17 1.87-2.556.021-3.624l-4.293-2.477-1.434.828zm14.401-4.582l-3.711 2.142 1.227.708 2.234-1.29c.78.594.759 1.446-.468 2.154-1.631.942-3.699.792-5.009.036-1.309-.756-1.465-1.95-.041-2.772 1.122-.648 2.307-.744 3.419-.522l.946-.978c-1.674-.438-3.918-.306-5.716.732-2.162 1.248-2.183 3.144-.042 4.38 2.151 1.242 5.435 1.242 7.67-.048 2.182-1.26 2.276-2.934.218-4.122l-.727-.42zm6.285 1.039l1.445-.834-7.275-4.2-1.445.834 7.275 4.2zm1.544-9.291l4.718 2.724-8.376-.612-1.174.678 7.274 4.2 1.424-.822-4.728-2.73 8.386.618 1.175-.678-7.275-4.2-1.424.822z" fill="#727274"/><path d="M611.361 600.842a1.764 1.764 0 00-.579.566l-5.447 9.14a1.015 1.015 0 00-.136.739c.051.25.199.49.433.704l9.039 8.249c.208.19.479.354.798.484.319.129.679.22 1.058.268.093.012.186.022.28.028l16.717 1.148c.432.029.87.003 1.279-.079.41-.081.781-.215 1.087-.392l11.808-6.82c.305-.176.538-.39.679-.626a1.02 1.02 0 00.137-.739l-1.991-9.65c-.052-.25-.2-.49-.434-.704a2.758 2.758 0 00-.917-.53l-14.293-5.215a4.495 4.495 0 00-1.219-.251 4.95 4.95 0 00-1.28.079l-15.831 3.147a3.465 3.465 0 00-1.188.454z" fill="#326CE5"/><path d="M615.435 603.072c-.352.203-.313.555.086.785l.019.01c.054.031.117.071.166.097.238.128.464.201.705.307.508.231.929.422 1.251.64a.4.4 0 01.13.314l.26.167c-.35.239-.676.496-.971.769-1.27 1.176-1.824 2.5-1.733 3.804l-.397.037c-.098.074-.177.161-.416.196-.481.052-1.011.045-1.65.039-.3-.007-.553-.033-.874-.021-.073.003-.178.011-.257.015a1.523 1.523 0 00-.615.158c-.202.109-.312.263-.278.425.062.289.561.496 1.116.463l.016-.001c.077-.004.173-.008.241-.014.318-.025.554-.081.843-.122.621-.082 1.136-.149 1.627-.155.204.005.409.104.503.143l.39-.01c.587 1.6 2.156 3.09 4.569 4.137l-.188.2c.023.094.069.236.009.321-.222.25-.553.485-.95.77-.191.131-.382.229-.561.381-.039.034-.089.084-.13.122l-.004.004-.007.007c-.282.27-.171.613.254.768.425.156 1.002.066 1.297-.2l.008-.006.008-.009c.041-.038.094-.083.127-.117.159-.16.229-.302.348-.459.267-.333.487-.609.777-.834.131-.088.381-.117.498-.135l.229-.188c2.662.799 5.635.97 8.357.583l.167.231c.152.039.347.099.425.179.204.261.337.582.482.944.061.17.079.319.178.497.023.043.066.105.093.149.194.301.726.469 1.195.377.472-.093.701-.415.513-.72l-.001-.001-.001-.001c-.027-.043-.059-.102-.086-.141-.121-.174-.272-.296-.413-.45-.264-.347-.625-.662-.675-.959-.014-.082.06-.159.138-.238l-.123-.237c2.057-.519 3.867-1.384 5.136-2.559.29-.268.54-.544.757-.825l.386.066c.145-.042.283-.1.527-.072.476.075.953.213 1.53.38.268.081.48.167.781.237.069.016.171.035.246.051.529.109 1.088-.023 1.249-.296.16-.271-.132-.578-.654-.69-.075-.016-.184-.04-.258-.053-.309-.057-.565-.067-.86-.102-.626-.083-1.146-.153-1.597-.27-.221-.068-.265-.163-.335-.25-.052-.002-.263-.065-.368-.09.699-1.631.302-3.36-1.046-4.843.096-.04.265-.108.321-.129.031-.093.035-.192.221-.284.391-.167.869-.294 1.444-.448.273-.069.52-.109.797-.2.059-.02.136-.051.201-.075l.016-.004.011-.005c.461-.17.617-.504.347-.749s-.863-.309-1.331-.146c-.068.024-.167.056-.23.081-.264.103-.434.214-.661.324-.493.23-.9.42-1.333.548-.187.047-.444.008-.557-.004l-.334.105c-.852-.646-1.913-1.218-3.17-1.677a17.935 17.935 0 00-4.011-.937c.005-.073.017-.21.019-.25-.106-.073-.238-.139-.249-.282.011-.283.127-.58.268-.939.072-.167.169-.304.214-.488.01-.041.017-.102.025-.147.056-.32-.303-.609-.803-.644-.5-.036-.952.194-1.008.515-.008.045-.022.106-.026.148-.021.185.022.332.034.505.011.369.024.676-.065.954-.05.113-.257.203-.344.248l-.066.242c-2.86-.057-5.686.483-7.895 1.546a17.275 17.275 0 01-.305-.16c-.164.002-.334.019-.534-.067-.377-.186-.707-.43-1.108-.723-.182-.139-.309-.27-.531-.407-.051-.032-.13-.074-.186-.106-.399-.231-1.008-.253-1.36-.05h0zm4.248 3.373l3.223 2.079-.007.012c.293.184.29.466-.012.641a1.062 1.062 0 01-.44.127l-.003.005-4.722.436c-.004-.974.448-1.956 1.401-2.839.174-.161.362-.314.56-.461zm1.596-.921c1.631-.732 3.641-1.118 5.695-1.118l-.751 2.709-.014.003c-.061.243-.446.414-.876.383a1.143 1.143 0 01-.454-.121l-.004.001-3.596-1.857zm-3.276 5.531l4.786-.125.011.009c.426-.014.807.167.86.415.022.102-.015.2-.095.281l.008.008-2.261 2.397c-1.687-.786-2.816-1.844-3.309-2.985zm11.243-6.489c.987.14 1.955.374 2.868.708.901.329 1.677.729 2.319 1.179l-4.17 1.313-.017-.007c-.369.12-.846.05-1.08-.163-.095-.087-.135-.184-.126-.278l-.008-.004.214-2.748h0zm-3.665 4.956l1.024-.592 1.45.102.786.718-.468.791-1.376.271-1.243-.453-.173-.837zm6.067-.29a.75.75 0 01.139-.069l-.001-.008 3.889-1.583c.907 1.084 1.185 2.316.751 3.499l-4.463-1.09-.001-.006c-.399-.094-.61-.352-.472-.586a.484.484 0 01.158-.157h0zm-5.556 3.223c.257-.144.663-.171.985-.053.151.055.26.133.322.221l.022.002 1.87 2.55c-1.971.237-4.088.11-6.029-.425l2.717-2.227.013.001a.735.735 0 01.1-.069h0zm4.155-.808a.954.954 0 01.32-.119c.166-.033.338-.032.496-.004l.012-.007 4.612.791a5.605 5.605 0 01-.463.481c-.952.881-2.275 1.544-3.783 1.965l-1.369-2.657.003-.001c-.088-.163-.015-.333.172-.449z" fill="#fff" stroke="#fff" stroke-width=".219"/><path d="M611.361 600.842a1.764 1.764 0 00-.579.566l-5.447 9.14a1.015 1.015 0 00-.136.739c.051.25.199.49.433.704l9.039 8.249c.208.19.479.354.798.484.319.129.679.22 1.058.268.093.012.186.022.28.028l16.717 1.148c.432.029.87.003 1.279-.079.41-.081.781-.215 1.087-.392l11.808-6.82c.305-.176.538-.39.679-.626a1.02 1.02 0 00.137-.739l-1.991-9.65c-.052-.25-.2-.49-.434-.704a2.758 2.758 0 00-.917-.53l-14.293-5.215a4.495 4.495 0 00-1.219-.251 4.95 4.95 0 00-1.28.079l-15.831 3.147a3.465 3.465 0 00-1.188.454z" fill="#326CE5"/><path d="M615.435 603.072c-.352.203-.313.555.086.785l.019.01c.054.031.117.071.166.097.238.128.464.201.705.307.508.231.929.422 1.251.64a.4.4 0 01.13.314l.26.167c-.35.239-.676.496-.971.769-1.27 1.176-1.824 2.5-1.733 3.804l-.397.037c-.098.074-.177.161-.416.196-.481.052-1.011.045-1.65.039-.3-.007-.553-.033-.874-.021-.073.003-.178.011-.257.015a1.523 1.523 0 00-.615.158c-.202.109-.312.263-.278.425.062.289.561.496 1.116.463l.016-.001c.077-.004.173-.008.241-.014.318-.025.554-.081.843-.122.621-.082 1.136-.149 1.627-.155.204.005.409.104.503.143l.39-.01c.587 1.6 2.156 3.09 4.569 4.137l-.188.2c.023.094.069.236.009.321-.222.25-.553.485-.95.77-.191.131-.382.229-.561.381-.039.034-.089.084-.13.122l-.004.004-.007.007c-.282.27-.171.613.254.768.425.156 1.002.066 1.297-.2l.008-.006.008-.009c.041-.038.094-.083.127-.117.159-.16.229-.302.348-.459.267-.333.487-.609.777-.834.131-.088.381-.117.498-.135l.229-.188c2.662.799 5.635.97 8.357.583l.167.231c.152.039.347.099.425.179.204.261.337.582.482.944.061.17.079.319.178.497.023.043.066.105.093.149.194.301.726.469 1.195.377.472-.093.701-.415.513-.72l-.001-.001-.001-.001c-.027-.043-.059-.102-.086-.141-.121-.174-.272-.296-.413-.45-.264-.347-.625-.662-.675-.959-.014-.082.06-.159.138-.238l-.123-.237c2.057-.519 3.867-1.384 5.136-2.559.29-.268.54-.544.757-.825l.386.066c.145-.042.283-.1.527-.072.476.075.953.213 1.53.38.268.081.48.167.781.237.069.016.171.035.246.051.529.109 1.088-.023 1.249-.296.16-.271-.132-.578-.654-.69-.075-.016-.184-.04-.258-.053-.309-.057-.565-.067-.86-.102-.626-.083-1.146-.153-1.597-.27-.221-.068-.265-.163-.335-.25-.052-.002-.263-.065-.368-.09.699-1.631.302-3.36-1.046-4.843.096-.04.265-.108.321-.129.031-.093.035-.192.221-.284.391-.167.869-.294 1.444-.448.273-.069.52-.109.797-.2.059-.02.136-.051.201-.075l.016-.004.011-.005c.461-.17.617-.504.347-.749s-.863-.309-1.331-.146c-.068.024-.167.056-.23.081-.264.103-.434.214-.661.324-.493.23-.9.42-1.333.548-.187.047-.444.008-.557-.004l-.334.105c-.852-.646-1.913-1.218-3.17-1.677a17.935 17.935 0 00-4.011-.937c.005-.073.017-.21.019-.25-.106-.073-.238-.139-.249-.282.011-.283.127-.58.268-.939.072-.167.169-.304.214-.488.01-.041.017-.102.025-.147.056-.32-.303-.609-.803-.644-.5-.036-.952.194-1.008.515-.008.045-.022.106-.026.148-.021.185.022.332.034.505.011.369.024.676-.065.954-.05.113-.257.203-.344.248l-.066.242c-2.86-.057-5.686.483-7.895 1.546a17.275 17.275 0 01-.305-.16c-.164.002-.334.019-.534-.067-.377-.186-.707-.43-1.108-.723-.182-.139-.309-.27-.531-.407-.051-.032-.13-.074-.186-.106-.399-.231-1.008-.253-1.36-.05h0zm4.248 3.373l3.223 2.079-.007.012c.293.184.29.466-.012.641a1.062 1.062 0 01-.44.127l-.003.005-4.722.436c-.004-.974.448-1.956 1.401-2.839.174-.161.362-.314.56-.461zm1.596-.921c1.631-.732 3.641-1.118 5.695-1.118l-.751 2.709-.014.003c-.061.243-.446.414-.876.383a1.143 1.143 0 01-.454-.121l-.004.001-3.596-1.857zm-3.276 5.531l4.786-.125.011.009c.426-.014.807.167.86.415.022.102-.015.2-.095.281l.008.008-2.261 2.397c-1.687-.786-2.816-1.844-3.309-2.985zm11.243-6.489c.987.14 1.955.374 2.868.708.901.329 1.677.729 2.319 1.179l-4.17 1.313-.017-.007c-.369.12-.846.05-1.08-.163-.095-.087-.135-.184-.126-.278l-.008-.004.214-2.748h0zm-3.665 4.956l1.024-.592 1.45.102.786.718-.468.791-1.376.271-1.243-.453-.173-.837zm6.067-.29a.75.75 0 01.139-.069l-.001-.008 3.889-1.583c.907 1.084 1.185 2.316.751 3.499l-4.463-1.09-.001-.006c-.399-.094-.61-.352-.472-.586a.484.484 0 01.158-.157h0zm-5.556 3.223c.257-.144.663-.171.985-.053.151.055.26.133.322.221l.022.002 1.87 2.55c-1.971.237-4.088.11-6.029-.425l2.717-2.227.013.001a.735.735 0 01.1-.069h0zm4.155-.808a.954.954 0 01.32-.119c.166-.033.338-.032.496-.004l.012-.007 4.612.791a5.605 5.605 0 01-.463.481c-.952.881-2.275 1.544-3.783 1.965l-1.369-2.657.003-.001c-.088-.163-.015-.333.172-.449z" fill="#fff" stroke="#fff" stroke-width=".219"/><path opacity=".15" d="M136.25 167.041l39.436-.267L294.74 99.29a1.874 1.874 0 00.694-2.575 1.874 1.874 0 00-.694-.688l-38.623-22.642.146 24.08-120.013 69.576z" fill="#A7CDD1"/><path d="M134.278 1.212L4.13 76.342a2.104 2.104 0 000 3.622l130.148 75.143a4.184 4.184 0 004.182 0l130.135-75.143a2.095 2.095 0 001.046-1.811 2.087 2.087 0 00-1.046-1.811L138.46 1.212a4.183 4.183 0 00-4.182 0z" fill="url(#paint9_linear)"/><path d="M269.661 78.153a2.048 2.048 0 01-1.052 1.812l-130.135 75.143a4.213 4.213 0 01-2.091.559v11.134a4.213 4.213 0 002.091-.559l130.135-75.13a2.086 2.086 0 001.052-1.811V78.153z" fill="url(#paint10_linear)"/><path d="M134.278 155.108L4.13 79.965a2.064 2.064 0 01-1.039-1.812v11.148a2.104 2.104 0 001.039 1.811l130.148 75.13c.636.367 1.357.56 2.091.559v-11.134a4.172 4.172 0 01-2.091-.559z" fill="url(#paint11_linear)"/><path d="M122.086 115.822l6.684 3.859-11.866-.867-1.664.961 10.306 5.949 2.017-1.164-6.699-3.868 11.881.876 1.664-.96-10.306-5.95-2.017 1.164zm17.983 1.756c2.297-1.326 2.267-3.281.044-4.564-2.238-1.292-5.609-1.301-7.906.025-2.297 1.326-2.297 3.281-.059 4.573 2.223 1.284 5.624 1.292 7.921-.034zm-1.767-1.02c-1.251.723-3.018.672-4.255-.042-1.236-.714-1.325-1.734-.073-2.457 1.236-.714 3.018-.671 4.255.043 1.236.714 1.31 1.742.073 2.456zm8.265-11.809c-1.193.689-1.531 1.462-1.399 2.1-1.163-.145-2.311.042-3.357.646-.986.569-1.266 1.258-1.119 1.904l-.883-.51-1.943 1.122 7.449 4.3 1.944-1.122-3.74-2.158c-1.31-.757-1.546-1.539-.5-2.142 1.001-.578 2.12-.391 3.224.246l4.019 2.321 1.958-1.131-3.798-2.193c-1.266-.731-1.517-1.487-.471-2.091 1.016-.586 2.135-.416 3.253.23l4.02 2.32 1.943-1.122-4.431-2.558c-2.076-1.198-4.388-1.19-6.169-.162zm15.866-.082c1.046-.603 1.428-1.334 1.281-2.031l.913.527 1.958-1.131-7.45-4.3-1.958 1.13.898.519c-1.207-.085-2.458.144-3.504.747-2.061 1.19-2.017 3.086.251 4.395 2.252 1.3 5.55 1.334 7.611.144zm-1.398-1.198c-1.222.705-3.004.68-4.299-.068-1.281-.74-1.311-1.76-.089-2.465 1.178-.68 3.018-.706 4.299.034 1.296.748 1.267 1.819.089 2.499zm2.334-11.989l4.196 2.422c-1.208-.085-2.459.145-3.504.748-2.062 1.19-2.017 3.086.25 4.394 2.253 1.301 5.55 1.335 7.612.145 1.045-.603 1.428-1.334 1.281-2.031l.912.527 1.958-1.13-10.747-6.206-1.958 1.131zm7.155 6.51c-1.222.706-3.003.68-4.299-.067-1.281-.74-1.31-1.76-.088-2.465 1.177-.68 3.018-.706 4.299.034 1.295.748 1.266 1.819.088 2.498z" fill="#000"/><g clip-path="url(#clip1)"><path d="M53.16 72.58l-4.95 10.665 13.524 7.808 18.475-2.858 4.95-10.666-13.524-7.808L53.16 72.58zm20.091 5.572l-1.317 2.842-5.823.992 4.31 2.488-1.297 3.344-9.01-5.202L61.203 80l5.959-1.064-4.4-2.54 1.494-3.446 8.994 5.203z" fill="#00CA8E"/></g><path opacity=".2" d="M317.103 479.471l39.436-.266 119.054-67.485a1.877 1.877 0 000-3.263l-38.623-22.642.146 24.08-120.013 69.576z" fill="#A7CDD1"/><path d="M315.131 313.642l-130.148 75.13a2.104 2.104 0 000 3.622l130.148 75.143a4.184 4.184 0 004.182 0l130.135-75.143a2.09 2.09 0 000-3.622l-130.135-75.13a4.183 4.183 0 00-4.182 0z" fill="url(#paint12_linear)"/><path d="M450.514 390.583a2.045 2.045 0 01-1.052 1.812l-130.135 75.143a4.213 4.213 0 01-2.091.559v11.134a4.203 4.203 0 002.091-.559l130.135-75.13a2.082 2.082 0 001.052-1.811v-11.148z" fill="url(#paint13_linear)"/><path d="M315.131 467.538l-130.148-75.143a2.065 2.065 0 01-1.039-1.812v11.148a2.101 2.101 0 001.039 1.811l130.148 75.13c.636.367 1.357.56 2.091.559v-11.134a4.172 4.172 0 01-2.091-.559z" fill="url(#paint14_linear)"/><path d="M313.922 433.811l2.106-1.215-14.267-3.664-2.62 1.513 6.36 8.228 2.091-1.207-1.384-1.785 4.637-2.677 3.077.807zm-8.833.459l-2.709-3.468 6.007 1.564-3.298 1.904zm12.539-4.468l-.663-4.921-1.236-.714-6.434 3.714 1.605.927 3.857-2.227.662 4.938 1.237.714 6.655-3.842-1.62-.935-4.063 2.346zm4.938-9.582l3.666 2.116c1.325.765 1.487 1.658.382 2.295-1.074.621-2.326.493-3.459-.161l-3.976-2.295-1.943 1.122 4.343 2.507c2.003 1.156 4.299 1.343 6.257.213 1.075-.621 1.399-1.369 1.237-2.04l.942.544 1.944-1.122-7.45-4.301-1.943 1.122zm6.907-2.713l-1.104-.637-1.944 1.122 7.45 4.301 1.943-1.122-3.239-1.87c-2.002-1.156-1.87-2.083-.029-2.856l-1.826-1.054c-1.325.578-1.678 1.36-1.251 2.116zm13.448-.199c1.958-1.13 2.017-2.49 1.472-3.298l-2.267.714c.265.493.118 1.071-.824 1.615-1.355.782-2.768.748-3.858.272l5.786-3.34c-.191-.162-.412-.289-.647-.425-2.135-1.233-5.227-1.402-7.671.008-2.341 1.352-2.194 3.239.029 4.522 2.356 1.36 5.595 1.309 7.98-.068zm-6.699-1.402c-.751-.553-.809-1.437.324-2.091 1.163-.672 2.606-.655 3.607-.179l-3.931 2.27z" fill="#000"/><path d="M283.934 421.499l-3.409 1.968 7.275 4.2 1.413-.816-2.224-1.284 1.933-1.116c1.673-.966 1.289-2.244.063-2.952-1.206-.695-3.451-.923-5.051 0zm3.679 2.244l-1.892 1.092-2.494-1.44 1.954-1.128c.696-.402 1.787-.336 2.432.036.634.366.769.996 0 1.44zm8.316-2.281l-5.965-3.444-1.424.822 7.275 4.2 5.051-2.916-1.31-.756-3.627 2.094zm4.312-9.376l4.271 2.465c1.07.618 1.268 1.392.125 2.052-1.133.654-2.474.54-3.544-.078l-4.272-2.466-1.444.834 4.292 2.478a6.272 6.272 0 006.277-.012c2.027-1.17 1.871-2.556.021-3.623l-4.292-2.478-1.434.828zm14.4-4.582l-3.71 2.142 1.226.708 2.234-1.29c.78.594.759 1.446-.467 2.154-1.632.942-3.7.792-5.009.036-1.31-.756-1.466-1.95-.042-2.772 1.122-.648 2.307-.744 3.419-.522l.946-.978c-1.673-.438-3.918-.306-5.716.732-2.162 1.248-2.183 3.144-.042 4.38 2.152 1.242 5.436 1.242 7.67-.048 2.182-1.26 2.276-2.934.218-4.122l-.727-.42zm6.285 1.039l1.445-.834-7.275-4.2-1.444.834 7.274 4.2zm1.544-9.291l4.719 2.724-8.377-.612-1.174.678 7.275 4.2 1.423-.822-4.728-2.73 8.387.618 1.174-.678-7.275-4.2-1.424.822z" fill="#727274"/><path d="M230.738 384.706l-12.521 7.229 12.521 7.229 12.521-7.229-12.521-7.229z" fill="#F25022"/><path d="M244.562 376.726l-12.521 7.229 12.521 7.228 12.521-7.228-12.521-7.229z" fill="#7FBA00"/><path d="M244.562 392.687l-12.521 7.229 12.521 7.228 12.521-7.228-12.521-7.229z" fill="#00A4EF"/><path d="M258.385 384.707l-12.521 7.228 12.521 7.229 12.521-7.229-12.521-7.228z" fill="#FFB900"/><path opacity=".2" d="M500.251 375.041l39.436-.266 119.054-67.485a1.885 1.885 0 00.948-1.632 1.88 1.88 0 00-.948-1.631l-38.624-22.642.147 24.08-120.013 69.576z" fill="#A7CDD1"/><path d="M498.278 209.212l-130.148 75.13a2.104 2.104 0 000 3.622l130.148 75.143a4.184 4.184 0 004.182 0l130.136-75.143a2.09 2.09 0 000-3.622l-130.136-75.13a4.178 4.178 0 00-4.182 0z" fill="url(#paint15_linear)"/><path d="M633.662 286.153a2.055 2.055 0 01-1.053 1.812l-130.135 75.143a4.213 4.213 0 01-2.091.559v11.134a4.213 4.213 0 002.091-.559l130.135-75.13a2.09 2.09 0 001.053-1.811v-11.148z" fill="url(#paint16_linear)"/><path d="M498.279 363.108L368.13 287.965a2.065 2.065 0 01-1.038-1.812v11.148a2.102 2.102 0 001.038 1.811l130.149 75.13a4.17 4.17 0 002.091.559v-11.134a4.17 4.17 0 01-2.091-.559z" fill="url(#paint17_linear)"/><path d="M483.716 325.191l-4.475 2.584 10.306 5.949 4.475-2.584c3.033-1.751 2.753-4.105-.221-5.822-3.032-1.751-7.081-1.861-10.085-.127zm8.436 4.921l-2.429 1.402-6.669-3.85 2.429-1.402c1.767-1.02 4.284-.927 6.243.204 1.987 1.147 2.193 2.626.426 3.646zm12.032-4.6c2.297-1.326 2.268-3.281.045-4.564-2.238-1.292-5.61-1.301-7.907.025-2.296 1.326-2.296 3.281-.058 4.573 2.223 1.283 5.624 1.292 7.92-.034zm-1.766-1.02c-1.252.722-3.018.671-4.255-.043-1.237-.714-1.325-1.734-.074-2.456 1.237-.714 3.018-.671 4.255.042 1.237.714 1.31 1.743.074 2.457zm10.723-4.151c2.046-1.181 2.032-2.669 1.193-3.493l-2.312.756c.457.451.339 1.182-.633 1.743-1.237.714-3.077.569-4.24-.102-1.178-.68-1.399-1.726-.162-2.44.972-.561 2.282-.603 3.062-.34l1.296-1.343c-1.414-.476-4.019-.501-6.081.689-2.267 1.309-2.252 3.255-.029 4.539 2.238 1.292 5.624 1.309 7.906-.009zm9.735-5.858l2.208-1.275-7.391-.629-.353-3.501-2.267 1.309.397 3.323-6.375-3.68-1.943 1.122 10.747 6.204 1.944-1.122-1.899-1.096-.104-1.063 5.036.408zm6.586-3.564c1.958-1.13 2.017-2.49 1.472-3.298l-2.267.714c.265.493.118 1.071-.825 1.615-1.354.782-2.768.748-3.857.272l5.786-3.34c-.191-.162-.412-.289-.648-.425-2.135-1.232-5.226-1.402-7.67.008-2.341 1.352-2.194 3.239.029 4.522 2.356 1.36 5.595 1.309 7.98-.068zm-6.699-1.402c-.751-.553-.81-1.437.324-2.091 1.163-.672 2.606-.655 3.607-.179l-3.931 2.27zm7.254-6.483l-1.104-.637-1.943 1.121 7.449 4.301 1.944-1.122-3.239-1.87c-2.003-1.156-1.87-2.082-.03-2.855l-1.825-1.054c-1.325.578-1.679 1.36-1.252 2.116z" fill="#000"/><path d="M464.934 317.5l-3.408 1.967 7.274 4.2 1.414-.816-2.224-1.284 1.933-1.116c1.673-.966 1.288-2.244.062-2.951-1.205-.696-3.45-.924-5.051 0zm3.679 2.243l-1.891 1.092-2.494-1.44 1.953-1.128c.697-.402 1.788-.336 2.432.036.634.366.769.996 0 1.44zm8.317-2.281l-5.965-3.444-1.424.822 7.275 4.2 5.05-2.916-1.309-.756-3.627 2.094zm4.311-9.376l4.271 2.466c1.071.617 1.268 1.391.125 2.051-1.133.654-2.473.54-3.544-.078l-4.271-2.465-1.445.833 4.292 2.478a6.274 6.274 0 006.278-.012c2.026-1.17 1.87-2.556.02-3.623l-4.292-2.478-1.434.828zm14.4-4.582l-3.71 2.142 1.226.708 2.235-1.29c.779.594.758 1.446-.468 2.154-1.631.942-3.7.792-5.009.036-1.309-.756-1.465-1.95-.042-2.772 1.123-.648 2.308-.744 3.42-.522l.945-.978c-1.673-.438-3.918-.306-5.716.732-2.161 1.248-2.182 3.144-.041 4.38 2.151 1.242 5.435 1.242 7.669-.048 2.183-1.26 2.276-2.934.219-4.122l-.728-.42zm6.286 1.039l1.445-.834-7.275-4.2-1.445.834 7.275 4.2zm1.544-9.291l4.718 2.724-8.376-.612-1.175.678 7.275 4.2 1.424-.822-4.729-2.73 8.387.618 1.174-.678-7.274-4.2-1.424.822z" fill="#727274"/><path d="M443.19 272.234c-.176.011-1.784.141-3.716 1.257a10.9 10.9 0 00-1.392.954c-2.937-1.264-6.306-.762-6.457-.739l-.819.126.152.482c.234.628.651 1.229 1.234 1.777 1.117 1.045 2.702 1.717 4.62 1.966-.397.807-1.714 1.709-1.994 1.884l-23.839 13.762c-.622.36-.624.942-.005 1.304 2.061 1.221 4.49 2.215 7.17 2.933 2.975.769 5.783.98 8.343.623 2.872-.399 6.389-1.71 9.669-3.603a27.437 27.437 0 004.018-2.782c1.653-1.384 2.894-2.917 3.671-4.537.621-1.346.862-2.741.714-4.132-.25-2.324-1.506-4.348-2.785-6.053l.333-.192c2.068-1.194 2.512-2.406 2.52-3.211.024-.525-.151-1.046-.512-1.527l-.286-.335-.639.043z" fill="#2496ED"/><path d="M412.515 292.036l3.195-1.844c.154-.089.154-.234 0-.322l-2.846-1.643a.614.614 0 00-.559-.001l-3.195 1.844c-.154.089-.154.233 0 .322l.002.001 2.845 1.643a.616.616 0 00.558 0zM416.919 289.493l3.195-1.844c.154-.089.154-.233 0-.322l-2.846-1.643a.616.616 0 00-.558-.001l-.001.001-3.195 1.844c-.155.089-.155.234 0 .324l2.846 1.642a.619.619 0 00.559-.001zM421.369 286.924l3.194-1.844c.154-.089.154-.233 0-.322l-2.845-1.642a.613.613 0 00-.558-.002l-.002.001-3.194 1.844c-.154.089-.154.233 0 .322l.001.001 2.846 1.642a.616.616 0 00.558 0zM425.771 284.383l3.194-1.844c.155-.089.155-.233.002-.323l-2.846-1.642a.617.617 0 00-.561 0l-3.194 1.844c-.154.089-.154.233 0 .322l.001.001 2.846 1.642a.616.616 0 00.558 0zM412.813 287.123l3.195-1.844c.153-.09.153-.234-.002-.323l-2.845-1.643a.616.616 0 00-.558 0l-3.194 1.845c-.155.089-.155.233-.002.323l2.845 1.642a.623.623 0 00.561 0zM417.263 284.555l3.195-1.844c.153-.09.153-.234-.002-.323l-2.845-1.643a.616.616 0 00-.558 0l-3.195 1.844c-.154.089-.154.233 0 .322l2.846 1.643a.622.622 0 00.559.001zM421.665 282.013l3.195-1.844c.154-.09.154-.234 0-.324l-2.846-1.642a.619.619 0 00-.559 0l-3.194 1.845c-.155.089-.154.233 0 .322l2.845 1.642c.154.089.404.09.559.001zM417.56 279.643l3.195-1.844c.154-.089.155-.233.001-.323l-2.847-1.644a.622.622 0 00-.559.001l-3.195 1.845c-.154.088-.154.233 0 .322l2.847 1.643a.616.616 0 00.558 0zM430.272 281.785l3.194-1.844c.155-.09.155-.234.002-.323l-2.846-1.643a.617.617 0 00-.561 0l-3.194 1.844c-.154.089-.154.233 0 .322l.001.001 2.846 1.643a.616.616 0 00.558 0z" fill="#2496ED"/><path opacity=".15" d="M501.251 167.041l39.436-.267L659.741 99.29a1.882 1.882 0 00.948-1.632 1.883 1.883 0 00-.948-1.631l-38.624-22.642.147 24.08-120.013 69.576z" fill="#A7CDD1"/><path d="M499.278 1.212L369.13 76.342a2.101 2.101 0 00-.757 2.853c.181.318.442.583.757.77l130.148 75.142a4.183 4.183 0 004.182 0l130.136-75.143a2.088 2.088 0 000-3.623L503.46 1.212a4.177 4.177 0 00-4.182 0z" fill="url(#paint18_linear)"/><path d="M634.662 78.153a2.059 2.059 0 01-1.053 1.812l-130.135 75.143a4.213 4.213 0 01-2.091.559v11.134a4.213 4.213 0 002.091-.559l130.135-75.13a2.09 2.09 0 001.053-1.811V78.153z" fill="url(#paint19_linear)"/><path d="M499.279 155.108L369.13 79.965a2.07 2.07 0 01-1.038-1.812v11.148a2.099 2.099 0 001.038 1.811l130.149 75.13a4.17 4.17 0 002.091.559v-11.134a4.17 4.17 0 01-2.091-.559z" fill="url(#paint20_linear)"/><path d="M490.709 123.489l-8.451-4.879-2.017 1.165 10.306 5.949 7.155-4.131-1.855-1.07-5.138 2.966zm11.55-4.288c1.045-.604 1.428-1.335 1.28-2.032l.913.527 1.958-1.13-7.449-4.301-1.959 1.131.899.518c-1.208-.085-2.459.145-3.504.748-2.062 1.19-2.017 3.085.25 4.394 2.252 1.301 5.55 1.335 7.612.145zm-1.399-1.199c-1.222.706-3.004.68-4.299-.068-1.281-.739-1.311-1.759-.089-2.464 1.178-.68 3.019-.706 4.3.034 1.295.748 1.266 1.818.088 2.498zm8.709-12.099c-1.193.689-1.531 1.462-1.399 2.1-1.163-.145-2.311.042-3.357.646-.986.569-1.266 1.257-1.119 1.903l-.883-.51-1.943 1.122 7.449 4.301 1.944-1.122-3.74-2.159c-1.31-.756-1.546-1.538-.5-2.142 1.001-.578 2.12-.391 3.224.247l4.019 2.32 1.958-1.13-3.798-2.193c-1.266-.731-1.517-1.487-.471-2.091 1.016-.586 2.135-.416 3.253.23l4.02 2.32 1.943-1.122-4.431-2.558c-2.076-1.199-4.388-1.19-6.169-.162zm9.138-5.275c-1.06.612-1.443 1.326-1.31 2.031l-4.196-2.422-1.944 1.122 10.748 6.204 1.943-1.122-.912-.527c1.222.077 2.473-.136 3.533-.748 2.061-1.19 1.988-3.085-.265-4.385-2.267-1.31-5.536-1.343-7.597-.153zm5.786 3.731c-1.178.68-3.033.697-4.328-.051-1.281-.739-1.237-1.802-.059-2.482 1.222-.705 2.988-.688 4.269.051 1.296.748 1.34 1.776.118 2.482zm1.878-11.725l4.196 2.422c-1.208-.085-2.459.145-3.504.748-2.062 1.19-2.017 3.085.25 4.394 2.253 1.301 5.55 1.335 7.612.145 1.045-.604 1.428-1.335 1.28-2.032l.913.527 1.958-1.13-10.747-6.205-1.958 1.13zm7.155 6.51c-1.222.706-3.003.68-4.299-.068-1.281-.74-1.31-1.76-.088-2.465 1.177-.68 3.018-.705 4.299.034 1.295.748 1.266 1.82.088 2.5zm10.888-4.28c1.045-.603 1.428-1.334 1.281-2.03l.913.526 1.958-1.13-7.45-4.301-1.958 1.13.898.519c-1.207-.085-2.459.144-3.504.748-2.061 1.19-2.017 3.085.25 4.394 2.253 1.3 5.551 1.335 7.612.145zm-1.399-1.198c-1.222.706-3.003.68-4.299-.068-1.281-.74-1.31-1.76-.088-2.465 1.178-.68 3.018-.705 4.299.034 1.295.748 1.266 1.82.088 2.5z" fill="#000"/><path d="M466.934 107.499l-3.408 1.968 7.274 4.2 1.414-.816-2.224-1.284 1.933-1.116c1.673-.966 1.288-2.244.062-2.952-1.205-.695-3.45-.923-5.051 0zm3.679 2.244l-1.891 1.092-2.494-1.44 1.953-1.128c.697-.402 1.788-.336 2.432.036.634.366.769.996 0 1.44zm8.317-2.281l-5.965-3.444-1.424.822 7.275 4.2 5.05-2.916-1.309-.756-3.627 2.094zm4.311-9.376l4.271 2.465c1.071.618 1.268 1.392.125 2.052-1.133.654-2.473.54-3.544-.078l-4.271-2.466-1.445.834 4.292 2.478a6.274 6.274 0 006.278-.012c2.026-1.17 1.87-2.556.02-3.623l-4.292-2.478-1.434.828zm14.4-4.582l-3.71 2.142 1.226.708 2.235-1.29c.779.594.758 1.446-.468 2.154-1.631.942-3.7.792-5.009.036-1.309-.756-1.465-1.95-.042-2.772 1.123-.648 2.308-.744 3.42-.522l.945-.978c-1.673-.438-3.918-.306-5.716.732-2.161 1.248-2.182 3.144-.041 4.38 2.151 1.242 5.435 1.242 7.669-.048 2.183-1.26 2.276-2.934.219-4.122l-.728-.42zm6.286 1.04l1.445-.835-7.275-4.2-1.445.834 7.275 4.2zm1.544-9.292l4.718 2.724-8.376-.612-1.175.678 7.275 4.2 1.424-.822-4.729-2.73 8.387.618 1.174-.678-7.274-4.2-1.424.822z" fill="#727274"/><path d="M424.363 80.754c.413.24.793.407 1.117.504.335.091.714.182 1.16.26.145.02.257.058.335.104.112.064.157.167.125.315l-.23.675a.415.415 0 01-.188.225c-.112.064-.278.096-.49.102a8.28 8.28 0 01-.925-.073 19.069 19.069 0 01-1.004-.182c.162 1.094-.412 2.02-1.723 2.776a6.008 6.008 0 01-3.026.817c-1.081.005-2.074-.248-2.968-.765-.951-.548-1.389-1.186-1.293-1.913.096-.726.705-1.413 1.849-2.074.377-.218.8-.423 1.267-.628.466-.205.978-.397 1.523-.595l-.817-.471c-.849-.49-1.62-.73-2.31-.732-.702.005-1.47.255-2.325.748a5.515 5.515 0 00-1.054.777c-.31.295-.587.597-.819.912-.1.147-.188.25-.244.308a.653.653 0 01-.144.122c-.155.09-.345.07-.58-.066l-.548-.316c-.178-.103-.29-.194-.313-.27-.023-.078-.001-.18.076-.316.187-.34.486-.707.896-1.098.399-.398.909-.77 1.52-1.123 1.322-.763 2.59-1.146 3.816-1.157 1.214-.004 2.442.346 3.672 1.056l3.623 2.091.022-.013zm-2.81 3.585c.367-.212.677-.469.943-.777.266-.308.375-.655.339-1.022a1.075 1.075 0 00-.338-.631 4.448 4.448 0 00-.861-.626l-.47-.271c-.4.14-.812.3-1.212.48-.4.18-.766.365-1.111.564-.744.43-1.143.828-1.207 1.213-.065.386.182.734.741 1.057.526.303 1.051.452 1.597.447.546.007 1.068-.14 1.579-.434zm10.126-4.452c-.2.116-.367.173-.534.18-.156.012-.39-.033-.669-.118l-11.253-3.483c-.29-.09-.469-.155-.547-.2-.179-.103-.191-.213-.013-.315l1.088-.628c.211-.122.389-.186.545-.186.156-.013.379.04.658.123l9.268 3.196-5.67-5.273c-.168-.16-.246-.283-.225-.373.022-.09.133-.206.333-.321l.888-.513c.211-.122.389-.186.556-.192.156-.013.39.033.647.13l9.246 3.311-5.57-5.433c-.157-.168-.224-.297-.214-.38.022-.09.122-.2.322-.315l1.032-.596a.529.529 0 01.558 0c.056.033.1.072.156.117.056.045.124.11.202.206l5.967 6.535c.157.168.224.296.202.386-.021.09-.121.2-.31.308l-.955.552c-.211.122-.389.186-.556.192a1.72 1.72 0 01-.658-.137l-8.933-3.17 5.49 5.145c.168.161.247.284.236.38-.01.097-.132.206-.332.321l-.955.551zm14.572-8.064c-.577.334-1.222.628-1.911.871-.69.243-1.268.41-1.725.48-.278.044-.512.05-.657.017a1.395 1.395 0 01-.38-.142l-.57-.329c-.235-.136-.258-.251-.091-.348.067-.038.144-.07.233-.096.089-.025.234-.057.39-.095.545-.121 1.09-.281 1.613-.48a10.213 10.213 0 001.456-.685c.699-.404 1.12-.79 1.252-1.15.132-.36-.026-.681-.485-.946a2.193 2.193 0 00-1.082-.279c-.413-.007-.98.102-1.703.312l-2.114.64c-1.068.32-2.047.446-2.917.367-.859-.072-1.595-.28-2.177-.615-.469-.272-.783-.568-.941-.89a1.402 1.402 0 01-.117-.99c.076-.342.263-.67.573-1.003.311-.334.721-.636 1.21-.918.244-.14.511-.282.789-.404.288-.128.566-.237.844-.345.278-.096.545-.186.812-.263.267-.076.49-.127.668-.153.245-.038.445-.05.613-.03.156.013.312.064.469.155l.525.303c.235.136.269.258.102.354-.088.051-.277.109-.556.166a8.772 8.772 0 00-2.568.98c-.633.365-1.032.712-1.164 1.033-.132.321.015.611.473.876.313.18.693.271 1.127.266.435-.006 1.058-.12 1.837-.35l2.08-.62c1.057-.314 1.992-.44 2.795-.374.802.065 1.494.273 2.076.608.481.278.817.587 1.008.916.18.334.249.682.173 1.036-.065.36-.274.713-.606 1.073-.344.379-.787.725-1.354 1.052z" fill="#252F3E"/><path fill-rule="evenodd" clip-rule="evenodd" d="M453.784 73.749c-.936 3.677-4.802 7.575-9.367 10.21-6.397 3.692-14.542 5.645-22.854 5.873-.657.018-.771-.406-.114-.502 7.459-1.13 14.934-3.522 20.942-6.99 4.053-2.34 7.657-5.402 10.011-8.774.331-.514 1.535-.422 1.382.183z" fill="#F90"/><path fill-rule="evenodd" clip-rule="evenodd" d="M453.562 71.863c-1.071-.08-3.378 1.615-4.421 2.385-.311.23-.68.082-.592-.24.612-2.057 4.468-3.793 5.36-3.74.903.06 3.847 2.35 3.547 4.433-.043.322-.466.411-.668.14-.662-.895-2.167-2.905-3.226-2.978z" fill="#F90"/><path opacity=".2" d="M501.251 588.632l39.436-.266 119.054-67.485a1.885 1.885 0 00.948-1.632 1.883 1.883 0 00-.948-1.631l-38.624-22.642.147 24.08-120.013 69.576z" fill="#A7CDD1"/><path d="M499.278 422.803l-130.148 75.13a2.099 2.099 0 00-1.033 1.811 2.107 2.107 0 001.033 1.812l130.148 75.143a4.183 4.183 0 004.182 0l130.136-75.143a2.1 2.1 0 001.046-1.812 2.09 2.09 0 00-1.046-1.811l-130.136-75.13a4.178 4.178 0 00-4.182 0z" fill="url(#paint21_linear)"/><path d="M634.662 499.745a2.06 2.06 0 01-1.053 1.811l-130.135 75.143a4.203 4.203 0 01-2.091.559v11.135a4.204 4.204 0 002.091-.56l130.135-75.129a2.093 2.093 0 001.053-1.812v-11.147z" fill="url(#paint22_linear)"/><path d="M499.279 576.699L369.13 501.556a2.065 2.065 0 01-1.038-1.811v11.147a2.117 2.117 0 001.038 1.812l130.149 75.129a4.17 4.17 0 002.091.56v-11.135a4.17 4.17 0 01-2.091-.559z" fill="url(#paint23_linear)"/><path d="M489.663 538.034l-1.825-1.054-7.597 4.386 10.306 5.949 7.582-4.377-1.826-1.054-5.609 3.239-2.533-1.462 4.874-2.814-1.767-1.02-4.873 2.814-2.356-1.36 5.624-3.247zm15.081 1.323c2.724-1.572 2.797-3.536 1.62-4.76l-2.459.842c.677.782.471 1.938-1.09 2.839-2.031 1.173-4.961.977-6.816-.094-1.855-1.071-2.135-2.728-.103-3.901 1.56-.901 3.592-1.003 4.932-.62l1.487-1.42c-2.105-.671-5.551-.654-8.333.952-3.063 1.768-3.063 4.437-.03 6.188 3.048 1.759 7.686 1.768 10.792-.026zm10.492-6.057c2.473-1.428 2.694-3.204.927-4.224-1.678-.969-3.533-.663-5.594-.034l-3.386 1.003c-.884.272-1.502.272-1.959.008-.603-.348-.471-1.019.545-1.606 1.163-.671 2.694-.892 3.961-.654l1.325-1.394c-1.988-.502-4.859-.255-7.082 1.028-2.15 1.241-2.356 2.924-.736 3.842 1.31.773 3.165.705 4.947.17l3.46-1.046c1.31-.382 2.046-.382 2.591-.068.677.391.545 1.182-.663 1.879-1.487.858-3.386.969-4.873.586l-1.34 1.454c2.179.595 5.359.51 7.877-.944z" fill="#000"/><path d="M468.934 531.499l-3.408 1.968 7.274 4.2 1.414-.816-2.224-1.284 1.933-1.116c1.673-.966 1.288-2.244.062-2.952-1.205-.696-3.45-.924-5.051 0zm3.679 2.244l-1.891 1.092-2.494-1.44 1.953-1.128c.697-.402 1.788-.336 2.432.036.634.366.769.996 0 1.44zm8.317-2.281l-5.965-3.444-1.424.822 7.275 4.2 5.05-2.916-1.309-.756-3.627 2.094zm4.311-9.376l4.271 2.465c1.071.618 1.268 1.392.125 2.052-1.133.654-2.473.54-3.544-.078l-4.271-2.466-1.445.834 4.292 2.478a6.274 6.274 0 006.278-.012c2.026-1.17 1.87-2.556.02-3.624l-4.292-2.477-1.434.828zm14.4-4.582l-3.71 2.142 1.226.708 2.235-1.29c.779.594.758 1.446-.468 2.154-1.631.942-3.7.792-5.009.036-1.309-.756-1.465-1.95-.042-2.772 1.123-.648 2.308-.744 3.42-.522l.945-.978c-1.673-.438-3.918-.306-5.716.732-2.161 1.248-2.182 3.144-.041 4.38 2.151 1.242 5.435 1.242 7.669-.048 2.183-1.26 2.276-2.934.219-4.122l-.728-.42zm6.286 1.039l1.445-.834-7.275-4.2-1.445.834 7.275 4.2zm1.544-9.291l4.718 2.724-8.376-.612-1.175.678 7.275 4.2 1.424-.822-4.729-2.73 8.387.618 1.174-.678-7.274-4.2-1.424.822z" fill="#727274"/><path d="M424.363 502.346c.413.238.793.406 1.117.503.335.091.714.182 1.16.26.145.02.257.058.335.104.112.064.157.167.125.315l-.23.675a.413.413 0 01-.188.225c-.112.064-.279.096-.49.102a8.301 8.301 0 01-.925-.073 18.46 18.46 0 01-1.004-.182c.162 1.094-.412 2.019-1.723 2.776a6.011 6.011 0 01-3.026.817c-1.081.005-2.074-.248-2.968-.764-.951-.549-1.389-1.187-1.293-1.914.096-.726.705-1.413 1.849-2.074.377-.218.8-.423 1.266-.628.467-.205.979-.397 1.524-.595l-.817-.471c-.849-.491-1.62-.73-2.311-.732-.701.005-1.469.255-2.324.748a5.513 5.513 0 00-1.054.777c-.31.295-.587.597-.819.912-.1.147-.188.25-.244.308a.656.656 0 01-.144.122c-.155.09-.345.07-.58-.066l-.548-.316c-.178-.103-.29-.193-.313-.271-.023-.077-.001-.18.076-.315.187-.34.486-.706.896-1.098.399-.398.909-.77 1.52-1.123 1.322-.763 2.59-1.146 3.816-1.157 1.214-.004 2.442.346 3.672 1.056l3.622 2.091.023-.012zm-2.81 3.584c.367-.212.677-.469.943-.777.266-.308.375-.655.339-1.022a1.074 1.074 0 00-.338-.631 4.444 4.444 0 00-.861-.626l-.47-.271c-.4.141-.812.301-1.212.48-.4.18-.766.365-1.111.564-.744.43-1.143.828-1.207 1.214-.065.385.182.733.741 1.056.526.303 1.051.452 1.597.447.546.008 1.068-.139 1.579-.434zm10.126-4.451c-.2.115-.367.172-.534.179-.156.012-.39-.033-.669-.118l-11.253-3.482c-.29-.091-.469-.156-.547-.201-.179-.103-.191-.213-.013-.315l1.088-.628c.211-.122.389-.186.545-.186.156-.012.379.039.658.124l9.268 3.196-5.67-5.274c-.168-.161-.246-.283-.225-.373.022-.09.133-.206.333-.321l.888-.513c.211-.122.389-.186.556-.192.156-.013.39.033.647.13l9.246 3.312-5.57-5.434c-.157-.168-.224-.297-.214-.38.022-.09.122-.199.322-.315l1.032-.596a.527.527 0 01.558.001c.056.032.1.071.156.116.056.045.124.11.202.206l5.967 6.535c.156.168.224.296.202.386-.021.09-.121.2-.31.309l-.955.551c-.211.122-.389.186-.556.192a1.714 1.714 0 01-.658-.137l-8.933-3.169 5.49 5.144c.168.161.247.284.236.38-.01.097-.132.206-.332.321l-.955.552zm14.572-8.065c-.577.334-1.222.628-1.911.871-.69.244-1.268.41-1.725.48-.278.044-.512.05-.657.018a1.415 1.415 0 01-.38-.143l-.57-.329c-.235-.135-.258-.251-.091-.347a.995.995 0 01.233-.096c.089-.026.234-.058.39-.096.545-.121 1.09-.281 1.613-.48a10.22 10.22 0 001.456-.685c.699-.404 1.12-.789 1.252-1.149.132-.36-.026-.682-.485-.947a2.198 2.198 0 00-1.082-.278c-.413-.008-.98.101-1.703.311l-2.114.64c-1.068.319-2.048.446-2.917.367-.859-.072-1.595-.28-2.177-.615-.469-.271-.783-.568-.941-.89a1.401 1.401 0 01-.117-.991c.076-.341.263-.668.573-1.002.311-.334.721-.636 1.21-.918.244-.141.511-.282.788-.404.289-.128.567-.236.845-.345a15.5 15.5 0 01.812-.262c.267-.077.49-.128.668-.154.245-.038.445-.05.613-.03.156.013.312.064.469.155l.525.303c.235.136.269.258.102.354-.088.052-.278.109-.556.166a8.762 8.762 0 00-2.568.98c-.633.365-1.032.712-1.164 1.033-.132.321.015.611.473.876.313.181.693.271 1.127.266.435-.006 1.058-.12 1.837-.35l2.08-.62c1.057-.314 1.992-.44 2.795-.374.802.065 1.494.273 2.076.608.481.278.817.587 1.008.916.18.335.249.682.173 1.036-.065.36-.274.713-.606 1.073-.344.379-.787.725-1.354 1.052z" fill="#252F3E"/><path fill-rule="evenodd" clip-rule="evenodd" d="M453.784 495.34c-.936 3.677-4.803 7.575-9.367 10.21-6.397 3.693-14.542 5.645-22.854 5.873-.657.018-.771-.406-.114-.502 7.459-1.13 14.934-3.521 20.942-6.99 4.053-2.34 7.657-5.402 10.011-8.774.331-.514 1.535-.422 1.382.183z" fill="#F90"/><path fill-rule="evenodd" clip-rule="evenodd" d="M453.562 493.454c-1.071-.079-3.378 1.615-4.421 2.385-.311.231-.68.082-.592-.239.612-2.058 4.468-3.794 5.36-3.74.903.059 3.847 2.349 3.547 4.432-.043.322-.466.411-.668.141-.662-.896-2.167-2.906-3.226-2.979z" fill="#F90"/><path opacity=".5" d="M136.411 471.818L17.933 540.207a.985.985 0 000 1.696l121.045 69.814a2.552 2.552 0 002.552 0l121.044-69.814a.988.988 0 00.486-.848.982.982 0 00-.486-.848l-118.478-68.389a7.7 7.7 0 00-7.685 0z" fill="#C9F0F2"/><path d="M5.904 490.495a2.107 2.107 0 00-.381.388l.598.452a1.412 1.412 0 00-.174.304l-.694-.284a2.107 2.107 0 00-.139.526l.744.097a1.352 1.352 0 000 .35l-.744.097c.024.18.07.357.14.526l.693-.285a1.359 1.359 0 00.174.304l-.598.453c.11.145.238.275.381.388l.462-.591a1.489 1.489 0 00.145.099l1.295.747-.375.65 2.603 1.502.375-.649 2.603 1.503-.375.649 2.603 1.503.375-.649 2.603 1.502-.375.65 2.603 1.503.375-.65 2.603 1.503-.375.65 2.603 1.503.375-.65 2.603 1.503-.375.649 2.603 1.503.375-.649 2.603 1.503-.375.649 2.603 1.503.375-.649 2.603 1.502-.375.65 2.603 1.503.375-.65 2.603 1.503-.375.65 2.602 1.502.376-.649 2.602 1.503-.375.649 2.603 1.503.376-.649 2.602 1.503-.374.649 2.602 1.503.375-.65 2.603 1.503-.375.65 2.603 1.503.375-.65 2.603 1.503-.375.65 2.603 1.502.375-.649 2.603 1.503-.375.649 2.603 1.503.375-.649 2.603 1.502-.375.65 2.603 1.503.375-.65 2.603 1.503-.375.65 2.603 1.503.375-.65 2.603 1.503-.375.649 2.603 1.503.375-.649 2.603 1.503-.375.649 2.603 1.503.375-.65 2.603 1.503-.375.65 2.603 1.503.375-.65 2.603 1.503-.375.65 2.603 1.502.375-.649 2.603 1.503-.375.649 2.603 1.503.375-.649 2.603 1.502-.375.65 2.603 1.503.375-.65 2.603 1.503-.375.65 2.603 1.503.375-.65 2.603 1.503-.375.649 2.603 1.503.375-.649 2.603 1.503-.375.649 2.603 1.503.375-.65 2.603 1.503-.375.65 2.602 1.503.375-.65 1.302.752c.13.075.265.141.403.198l-.287.693c.337.14.692.235 1.054.283l.098-.744a3.348 3.348 0 00.896 0l.098.744a4.182 4.182 0 001.054-.283l-.287-.693c.138-.057.273-.123.403-.198l1.301-.752.375.65 2.603-1.503-.375-.65 2.603-1.502.375.649 2.602-1.503-.375-.649 2.603-1.503.375.649 2.603-1.503-.375-.649 2.602-1.503.376.65 2.602-1.503-.375-.65 2.603-1.503.375.65 2.603-1.503-.375-.65 2.602-1.502.375.649 2.603-1.503-.375-.649 2.603-1.503.375.649 2.602-1.502-.375-.65 2.603-1.503.375.65 2.603-1.503-.375-.65 2.603-1.503.375.65 2.602-1.503-.375-.649 2.603-1.503.375.649 2.603-1.503-.375-.649 2.602-1.503.375.65 2.603-1.503-.375-.65 2.603-1.503.375.65 2.602-1.503-.375-.65 2.603-1.502.375.649 2.603-1.503-.375-.649 2.603-1.503.375.649 2.602-1.503-.375-.649 2.603-1.503.375.65 2.603-1.503-.375-.65 2.602-1.503.375.65 2.603-1.503-.375-.649 2.603-1.503.375.649 2.603-1.503-.376-.649 2.603-1.503.375.649 2.603-1.502-.375-.65 2.603-1.503.375.65 2.602-1.503-.375-.65 2.603-1.502.375.649 2.603-1.503-.375-.649 2.602-1.503.375.649 2.603-1.503-.375-.649 2.603-1.503.375.65 2.603-1.503-.375-.65 2.602-1.503.375.65 2.603-1.503-.375-.65 2.603-1.502.375.649 2.602-1.503-.375-.649 2.603-1.503.375.649 2.603-1.502-.375-.65 1.301-.751v-.001c.051-.029.1-.061.146-.097l.457.595c.145-.111.275-.241.386-.386l-.595-.457a1.48 1.48 0 00.055-.076l.043-.069c.029-.051.055-.104.077-.158l.693.287c.07-.169.118-.346.141-.527l-.743-.098a1.275 1.275 0 000-.35l.743-.098a2.062 2.062 0 00-.141-.528l-.693.287a1.424 1.424 0 00-.175-.303l.595-.457a2.106 2.106 0 00-.386-.386l-.457.596a1.328 1.328 0 00-.146-.098h0l-1.301-.751.375-.65-2.603-1.502-.375.649-2.603-1.502.375-.65-2.602-1.503-.375.65-2.603-1.503.375-.649-2.603-1.503-.375.65-2.602-1.503.375-.649-2.603-1.503-.375.65-2.603-1.503.375-.65-2.603-1.502-.375.649-2.602-1.502.375-.65-2.603-1.502-.375.649-2.603-1.502.375-.65-2.602-1.503-.375.65-2.603-1.503.375-.649-2.603-1.503-.375.65-2.602-1.503.375-.649-2.603-1.503-.375.65-2.603-1.503.375-.649-2.603-1.503-.375.649-2.602-1.502.375-.65-2.603-1.502-.375.649-2.603-1.502.375-.65-2.602-1.502-.375.649-2.603-1.503.375-.649-2.603-1.503-.375.65-2.602-1.503.374-.649-2.602-1.503-.375.65-2.603-1.503.375-.649-2.603-1.503-.375.65-2.602-1.503.375-.65-2.603-1.502-.375.649-2.603-1.502.375-.65-2.602-1.502-.375.649-2.603-1.502.375-.65-2.603-1.503-.375.65-2.603-1.503.375-.649-2.602-1.503-.375.65-2.603-1.503.375-.649-2.603-1.503-.375.65-2.602-1.503.375-.65-2.603-1.502-.375.649-2.603-1.502.375-.65-2.602-1.502-.375.649-2.603-1.502.375-.65-2.603-1.503-.375.65-2.603-1.503.375-.649-2.602-1.503-.375.65-2.603-1.503.375-.649-2.603-1.503-.375.65-1.301-.752.375-.649-.375.649a3.418 3.418 0 00-.403-.198l.287-.693a4.182 4.182 0 00-1.054-.283l-.098.744a3.348 3.348 0 00-.896 0l-.098-.744a4.182 4.182 0 00-1.054.283l.287.693a3.418 3.418 0 00-.403.198l-.375-.649.375.649-1.302.752-.375-.65-2.602 1.503.374.649-2.602 1.503-.375-.65-2.603 1.503.375.649-2.603 1.503-.375-.65-2.603 1.503.375.65-2.603 1.502-.375-.649-2.603 1.502.375.65-2.603 1.502-.375-.649-2.603 1.502.375.65-2.603 1.503-.375-.65-2.603 1.503.375.649-2.603 1.503-.375-.65-2.603 1.503.375.649-2.603 1.503-.375-.65-2.603 1.503.375.65-2.603 1.502-.375-.649-2.603 1.502.375.65-2.603 1.502-.375-.649-2.603 1.502.375.65-2.603 1.503-.375-.65-2.603 1.503.375.649-2.603 1.503-.375-.65-2.603 1.503.375.649-2.603 1.503-.375-.65-2.603 1.503.375.649-2.603 1.503-.375-.649-2.603 1.502.375.65-2.603 1.502-.375-.649-2.603 1.502.375.65-2.603 1.502-.375-.649-2.602 1.503.374.649-2.603 1.503-.374-.65-2.604 1.503.375.649-2.603 1.503-.374-.65-2.603 1.503.375.649-2.603 1.503-.375-.65-2.603 1.503.375.65-2.603 1.502-.375-.649-2.603 1.502.375.65-2.603 1.502-.375-.649-2.603 1.502.375.65-2.603 1.503-.375-.65-2.603 1.503.375.649-2.603 1.503-.375-.65-2.603 1.503.375.649-2.603 1.503-.375-.65-2.603 1.503.375.65-2.603 1.502-.375-.649-2.603 1.502.375.65-1.295.747-.003.002c-.05.029-.097.062-.142.097l-.462-.591z" fill="#D7F8FA" fill-opacity=".3" stroke="#62D4DC" stroke-width="1.5" stroke-dasharray="3 3"/><path d="M109.757 516.488l2.496 5.4-9.374-1.43-2.953 1.705 13.508 1.947 4.897 2.827 2.648-1.529-4.896-2.827-3.392-7.787-2.934 1.694zm20.523 3.859c2.972-1.716 2.934-4.246.057-5.907-2.896-1.672-7.259-1.683-10.232.033-2.972 1.716-2.972 4.246-.076 5.918 2.877 1.661 7.278 1.672 10.251-.044zm-2.287-1.32c-1.619.935-3.906.869-5.506-.055-1.601-.924-1.715-2.244-.095-3.179 1.6-.924 3.906-.869 5.506.055s1.696 2.255.095 3.179zm6.237-12.4l4.744 2.739c1.715.99 1.925 2.145.496 2.97-1.391.803-3.011.638-4.478-.209l-5.144-2.97-2.515 1.452 5.621 3.245c2.591 1.495 5.563 1.737 8.097.274 1.391-.802 1.81-1.77 1.601-2.639l1.219.704 2.515-1.452-9.641-5.566-2.515 1.452zm8.939-3.51l-1.429-.825-2.515 1.452 9.641 5.565 2.515-1.452-4.192-2.419c-2.591-1.496-2.42-2.695-.038-3.696l-2.363-1.364c-1.714.748-2.172 1.76-1.619 2.739zm-15.047 26.767l-6.249 3.607 13.337 7.7 2.591-1.496-4.077-2.354 3.544-2.046c3.067-1.771 2.362-4.113.114-5.411-2.21-1.276-6.325-1.694-9.26 0zm6.745 4.113l-3.467 2.002-4.573-2.64 3.582-2.067c1.276-.737 3.277-.616 4.458.066 1.162.671 1.41 1.825 0 2.639zm12.847-.024l2.515-1.452-13.909-8.03-2.515 1.452 13.909 8.03zm2.147-12.371l4.745 2.738c1.714.99 1.924 2.145.495 2.97-1.391.803-3.01.638-4.478-.209l-5.144-2.97-2.515 1.452 5.621 3.245c2.591 1.496 5.563 1.738 8.097.275 1.391-.803 1.81-1.771 1.601-2.64l1.219.704 2.515-1.452-9.641-5.565-2.515 1.452zm12.216-7.053l1.124.649c-1.619-.099-3.163.22-4.439.957-2.763 1.595-2.763 3.905.133 5.577 2.744 1.584 6.897 1.672 9.66.077 1.277-.737 1.829-1.628 1.658-2.563l1.162.671c1.41.836 1.715 1.936.133 2.849-1.219.704-2.477.902-3.753.737l-1.41 1.716c2.248.374 4.82.143 7.183-1.221 3.01-1.738 3.048-3.982.362-5.533l-9.298-5.367-2.515 1.451zm4.649 5.698c-1.601.924-3.773.946-5.335.044-1.562-.902-1.524-2.156.076-3.08 1.544-.891 3.754-.913 5.297-.022 1.562.902 1.505 2.167-.038 3.058zm.259-10.093c.839-.484.858-1.243.02-1.727-.801-.462-2.115-.451-2.954.033-.838.484-.857 1.243-.057 1.705.839.484 2.153.473 2.991-.011zm9.698 7.094l2.535-1.462-9.641-5.566-2.534 1.463 9.64 5.565zm.756-11.875c-1.391.803-1.81 1.771-1.619 2.651l-1.22-.704-2.515 1.452 9.641 5.565 2.515-1.452-4.763-2.749c-1.696-.979-1.886-2.145-.476-2.959 1.391-.803 2.991-.649 4.458.198l5.163 2.981 2.515-1.452-5.639-3.256c-2.572-1.485-5.545-1.727-8.06-.275z" fill="#62D4DC"/><path d="M271.133 492.547a2.08 2.08 0 01-.294.268l.45.601a3.03 3.03 0 01-.309.201l-.006.003-1.291.746-.375-.65-2.603 1.503.375.649-2.603 1.503-.375-.649-2.602 1.503.375.649-2.603 1.503-.375-.65-2.603 1.503.375.65-2.603 1.503-.375-.65-2.602 1.503.375.65-2.603 1.502-.375-.649-2.603 1.503.375.649-2.602 1.503-.375-.649-2.603 1.502.375.65-2.603 1.503-.375-.65-2.602 1.503.375.65-2.603 1.503-.375-.65-2.603 1.503.375.649-2.603 1.503-.375-.649-2.602 1.503.375.649-2.603 1.503-.375-.649-2.603 1.502.375.65-2.602 1.503-.375-.65-2.603 1.503.375.65-2.603 1.502-.375-.649-2.602 1.503.375.649-2.603 1.503-.375-.649-2.603 1.503.375.649-2.603 1.503-.375-.65-2.602 1.503.375.65-2.603 1.503-.375-.65-2.603 1.503.375.649-2.602 1.503-.375-.649-2.603 1.503.375.649-2.603 1.503-.375-.649-2.603 1.502.375.65-2.602 1.503-.375-.65-2.603 1.503.375.65-2.603 1.503-.375-.65-2.602 1.503.375.649-2.603 1.503-.375-.649-2.603 1.503.375.649-2.602 1.503-.375-.65-2.603 1.503.375.65-2.603 1.503-.375-.65-2.603 1.503.375.65-2.602 1.502-.375-.649-2.603 1.503.375.649-2.603 1.503-.375-.649-2.602 1.502.375.65-2.603 1.503-.375-.65-2.603 1.503.375.65-1.301.751-.001.001a5.168 5.168 0 01-.579.284l-.286-.693a4.234 4.234 0 01-1.054.282l.004.036h.2v1.392h-.75v2.783h.75v2.784h-.75v2.783h.75v1.324c.291-.053.576-.137.85-.25l-.286-.693c.138-.057.272-.123.402-.198l131.034-86.045zm0 0h.246l.282.219v2.568h-.75v2.787h.75v2.786h-.75v1.393c0 .058-.004.117-.012.175l.744.099a2.055 2.055 0 01-.143.528l-.692-.288a1.487 1.487 0 01-.176.303l.593.458a2.086 2.086 0 01-.388.386l-.454-.597a1.287 1.287 0 01-.147.097l-.002.002-1.301.751.375.649-2.603 1.503-.375-.649-2.603 1.502.375.65-2.602 1.502-.375-.649-2.603 1.502.375.65-2.603 1.502-.375-.649-2.603 1.503.375.649-2.602 1.503-.375-.65-2.603 1.503.375.649-2.603 1.503-.375-.65-2.602 1.503.375.649-2.603 1.503-.375-.65-2.603 1.503.375.65-2.602 1.502-.375-.649-2.603 1.502.375.65-2.603 1.502-.375-.649-2.603 1.502.375.65-2.602 1.503-.375-.65-2.603 1.503.375.649-2.603 1.503-.375-.65-2.602 1.503.375.649-2.603 1.503-.375-.65-2.603 1.503.375.65-2.603 1.502-.374-.649-2.603 1.502.375.65-2.603 1.502-.375-.649-2.603 1.502.375.65-2.602 1.503-.375-.65-2.603 1.503.375.649-2.603 1.503-.375-.65-2.602 1.503.375.649-2.603 1.503-.375-.65-2.603 1.503.375.649-2.603 1.503-.375-.649-2.602 1.502.375.65-2.603 1.502-.375-.649-2.603 1.502.375.65-2.602 1.502-.375-.649-2.603 1.503.375.649-2.603 1.503-.375-.65-2.602 1.503.375.649-2.603 1.503-.375-.65-2.603 1.503.375.649-2.603 1.503-.375-.65-2.602 1.503.375.65-2.603 1.502-.375-.649-2.603 1.502.375.65-2.602 1.502-.375-.649-2.603 1.502.375.65-2.603 1.503-.375-.65-1.3.751 131.033-86.045zM5.902 492.813a2.067 2.067 0 01-.287-.266H5.36l-.27.206v2.581h.75v2.787h-.75v2.786h.75v1.393c0 .059.004.117.012.175l-.744.098c.024.181.071.358.14.526l.694-.285a1.345 1.345 0 00.175.304l-.597.454c.11.145.24.275.383.387l.46-.592c.046.035.094.068.144.097l1.298.75-.375.649 2.603 1.503.375-.649 2.603 1.502-.375.65 2.603 1.502.375-.649 2.603 1.502-.375.65 2.603 1.502.375-.649 2.603 1.503-.375.649 2.603 1.503.375-.65 2.603 1.503-.375.649 2.603 1.503.375-.65 2.603 1.503-.375.649 2.603 1.503.375-.65 2.603 1.503-.375.65 2.603 1.502.375-.649 2.603 1.502-.375.65 2.603 1.502.375-.649 2.603 1.502-.375.65 2.603 1.503.375-.65 2.603 1.503-.375.649 2.603 1.503.375-.65 2.603 1.503-.375.649 2.603 1.503.375-.65 2.603 1.503-.375.65 2.603 1.502.375-.649 2.603 1.502-.375.65 2.603 1.502.375-.649 2.603 1.502-.375.65 2.603 1.503.375-.65 2.602 1.503-.374.649 2.603 1.503.374-.65 2.603 1.503-.374.649 2.603 1.503.375-.65 2.602 1.503-.374.649 2.602 1.503.375-.649 2.603 1.502-.375.65 2.603 1.502.375-.649 2.603 1.502-.375.65 2.603 1.502.375-.649 2.603 1.502-.375.65 2.603 1.503.375-.65 2.603 1.503-.375.649 2.603 1.503.375-.65 2.603 1.503-.375.649 2.603 1.503.375-.65 2.603 1.503-.375.65 2.603 1.502.375-.649 2.603 1.502-.375.65 2.603 1.502.375-.649 2.603 1.502-.375.65 2.603 1.503.375-.65 1.301.751.001.001c.13.075.264.141.402.198l-.287.693c.274.113.559.197.85.25v-1.325h.75v-2.783h-.75v-2.784h.75v-2.783h-.75v-1.392h.2l.005-.035a4.188 4.188 0 01-1.055-.282l-.287.693a5.1 5.1 0 01-.579-.286l-1.301-.751.375-.65-2.603-1.503-.375.65-2.603-1.503.375-.65-2.603-1.502-.375.649-2.603-1.503.375-.649-2.603-1.503-.375.649-2.603-1.502.375-.65-2.603-1.503-.375.65-2.603-1.503.375-.65-2.603-1.503-.375.65-2.603-1.503.375-.649-2.603-1.503-.375.649-2.603-1.503.375-.649-2.603-1.503-.375.65-2.603-1.503.375-.65-2.603-1.503-.375.65-2.603-1.503.375-.65-2.602-1.502-.376.649-2.602-1.503.375-.649-2.603-1.503-.376.649-2.602-1.503.375-.649-2.603-1.503-.375.65-2.603-1.503.375-.65-2.603-1.503-.375.65-2.603-1.503.375-.649-2.603-1.503-.375.649-2.603-1.503.375-.649-2.603-1.503-.375.649-2.603-1.502.375-.65-2.603-1.503-.375.65-2.603-1.503.375-.65-2.603-1.502-.375.649-2.603-1.503.375-.649-2.603-1.503-.375.649-2.603-1.503.375-.649-2.603-1.503-.375.65-2.603-1.503.375-.65-2.603-1.503-.375.65-2.603-1.503.375-.65-2.603-1.502-.375.649-2.603-1.503.375-.649-2.603-1.503-.375.649-2.603-1.502.375-.65-2.603-1.503-.375.65-2.603-1.503.375-.65-2.603-1.503-.375.65-2.603-1.503.375-.649-2.603-1.503-.375.649-2.603-1.503.375-.649-2.603-1.503-.375.65-1.3-.751a2.843 2.843 0 01-.31-.206l.456-.596z" stroke="#62D4DC" stroke-width="1.5" stroke-dasharray="3 3"/><path clip-rule="evenodd" d="M55.843 481.045l18.28-3.517c1.55-.301 3.26-.069 4.417.598l14.517 8.38c1.155.668 1.556 1.656 1.036 2.55l-6.094 10.553c-.428.743-1.438 1.327-2.726 1.574l-18.28 3.518c-1.555.296-3.267.057-4.417-.616l-14.501-8.372c-1.156-.667-1.557-1.655-1.036-2.55l6.093-10.552c.43-.738 1.433-1.318 2.711-1.566z" stroke="#62D4DC" stroke-width="2" stroke-linecap="round" stroke-linejoin="round"/><path d="M46.917 494.482l22.118-4.256 7.373-12.769M86.948 500.567l-17.913-10.341" stroke="#62D4DC" stroke-width="2" stroke-linecap="round" stroke-linejoin="round"/><path d="M100.934 109.499l-3.409 1.968 7.275 4.2 1.413-.816-2.224-1.284 1.933-1.116c1.673-.966 1.289-2.244.063-2.952-1.206-.695-3.451-.923-5.051 0zm3.679 2.244l-1.892 1.092-2.494-1.44 1.954-1.128c.696-.402 1.787-.336 2.432.036.634.366.769.996 0 1.44zm8.316-2.281l-5.965-3.444-1.424.822 7.275 4.2 5.051-2.916-1.31-.756-3.627 2.094zm4.312-9.376l4.271 2.465c1.07.618 1.268 1.392.125 2.052-1.133.654-2.474.54-3.544-.078l-4.272-2.466-1.444.834 4.292 2.478a6.272 6.272 0 006.277-.012c2.027-1.17 1.871-2.556.021-3.623l-4.292-2.478-1.434.828zm14.4-4.582l-3.71 2.142 1.226.708 2.234-1.29c.78.594.759 1.446-.467 2.154-1.632.942-3.7.792-5.009.036-1.31-.756-1.466-1.95-.042-2.772 1.122-.648 2.307-.744 3.419-.522l.946-.978c-1.673-.438-3.918-.306-5.716.732-2.162 1.248-2.183 3.144-.042 4.38 2.152 1.242 5.436 1.242 7.67-.048 2.182-1.26 2.276-2.934.218-4.122l-.727-.42zm6.285 1.04l1.445-.835-7.275-4.2-1.444.834 7.274 4.2zm1.544-9.292l4.719 2.724-8.377-.612-1.174.678 7.275 4.2 1.423-.822-4.728-2.73 8.387.618 1.174-.678-7.275-4.2-1.424.822zM283.934 212.499l-3.409 1.968 7.275 4.2 1.413-.816-2.224-1.284 1.933-1.116c1.674-.966 1.289-2.244.063-2.952-1.206-.695-3.45-.923-5.051 0zm3.679 2.244l-1.891 1.092-2.495-1.44 1.954-1.128c.696-.402 1.788-.336 2.432.036.634.366.769.996 0 1.44zm8.317-2.281l-5.966-3.444-1.423.822 7.274 4.2 5.051-2.916-1.309-.756-3.627 2.094zm4.311-9.376l4.271 2.465c1.071.618 1.268 1.392.125 2.052-1.133.654-2.474.54-3.544-.078l-4.271-2.465-1.445.833 4.292 2.478a6.272 6.272 0 006.277-.012c2.027-1.17 1.871-2.556.021-3.623l-4.292-2.478-1.434.828zm14.4-4.582l-3.71 2.142 1.226.708 2.235-1.29c.779.594.758 1.446-.468 2.154-1.632.942-3.7.792-5.009.036-1.31-.756-1.466-1.95-.042-2.772 1.123-.648 2.307-.744 3.419-.522l.946-.978c-1.673-.438-3.918-.306-5.716.732-2.162 1.248-2.182 3.144-.041 4.38 2.151 1.242 5.435 1.242 7.669-.048 2.183-1.26 2.276-2.934.218-4.122l-.727-.42zm6.286 1.039l1.444-.834-7.275-4.2-1.444.834 7.275 4.2zm1.544-9.291l4.718 2.724-8.377-.612-1.174.678 7.275 4.2 1.424-.822-4.729-2.73 8.387.618 1.174-.678-7.275-4.2-1.423.822z" fill="#727274"/><defs><linearGradient id="paint0_linear" x1="76111.5" y1="20544.8" x2="129458" y2="20544.8" gradientUnits="userSpaceOnUse"><stop stop-color="#FAFAFA"/><stop offset=".68" stop-color="#FAFAFA"/><stop offset="1" stop-color="#EFEFF0"/></linearGradient><linearGradient id="paint1_linear" x1="51620.9" y1="14821.2" x2="64958.1" y2="14821.2" gradientUnits="userSpaceOnUse"><stop stop-color="#C0C0C2"/><stop offset="1" stop-color="#DBDBDC"/></linearGradient><linearGradient id="paint2_linear" x1="38150.4" y1="14821.2" x2="51487.6" y2="14821.2" gradientUnits="userSpaceOnUse"><stop offset=".01" stop-color="#EFEFF0"/><stop offset=".48" stop-color="#E7E7E8"/><stop offset="1" stop-color="#D8D8D9"/></linearGradient><linearGradient id="paint3_linear" x1="75927.5" y1="20649.1" x2="129274" y2="20649.1" gradientUnits="userSpaceOnUse"><stop stop-color="#FAFAFA"/><stop offset=".68" stop-color="#FAFAFA"/><stop offset="1" stop-color="#EFEFF0"/></linearGradient><linearGradient id="paint4_linear" x1="51436.9" y1="14925.5" x2="64774.1" y2="14925.5" gradientUnits="userSpaceOnUse"><stop stop-color="#C0C0C2"/><stop offset="1" stop-color="#DBDBDC"/></linearGradient><linearGradient id="paint5_linear" x1="37966.4" y1="14925.5" x2="51303.6" y2="14925.5" gradientUnits="userSpaceOnUse"><stop offset=".01" stop-color="#EFEFF0"/><stop offset=".48" stop-color="#E7E7E8"/><stop offset="1" stop-color="#D8D8D9"/></linearGradient><linearGradient id="paint6_linear" x1="76489.8" y1="20971.8" x2="129836" y2="20971.8" gradientUnits="userSpaceOnUse"><stop stop-color="#FAFAFA"/><stop offset=".68" stop-color="#FAFAFA"/><stop offset="1" stop-color="#EFEFF0"/></linearGradient><linearGradient id="paint7_linear" x1="51999.2" y1="15248.2" x2="65336.4" y2="15248.2" gradientUnits="userSpaceOnUse"><stop stop-color="#C0C0C2"/><stop offset="1" stop-color="#DBDBDC"/></linearGradient><linearGradient id="paint8_linear" x1="38528.8" y1="15248.2" x2="51865.9" y2="15248.2" gradientUnits="userSpaceOnUse"><stop offset=".01" stop-color="#EFEFF0"/><stop offset=".48" stop-color="#E7E7E8"/><stop offset="1" stop-color="#D8D8D9"/></linearGradient><linearGradient id="paint9_linear" x1="75928.5" y1="20441.1" x2="129275" y2="20441.1" gradientUnits="userSpaceOnUse"><stop stop-color="#FAFAFA"/><stop offset=".68" stop-color="#FAFAFA"/><stop offset="1" stop-color="#EFEFF0"/></linearGradient><linearGradient id="paint10_linear" x1="51437.9" y1="14717.5" x2="64775.1" y2="14717.5" gradientUnits="userSpaceOnUse"><stop stop-color="#C0C0C2"/><stop offset="1" stop-color="#DBDBDC"/></linearGradient><linearGradient id="paint11_linear" x1="37967.4" y1="14717.5" x2="51304.6" y2="14717.5" gradientUnits="userSpaceOnUse"><stop offset=".01" stop-color="#EFEFF0"/><stop offset=".48" stop-color="#E7E7E8"/><stop offset="1" stop-color="#D8D8D9"/></linearGradient><linearGradient id="paint12_linear" x1="76109.3" y1="20753.5" x2="129456" y2="20753.5" gradientUnits="userSpaceOnUse"><stop stop-color="#FAFAFA"/><stop offset=".68" stop-color="#FAFAFA"/><stop offset="1" stop-color="#EFEFF0"/></linearGradient><linearGradient id="paint13_linear" x1="51618.8" y1="15029.9" x2="64955.9" y2="15029.9" gradientUnits="userSpaceOnUse"><stop stop-color="#C0C0C2"/><stop offset="1" stop-color="#DBDBDC"/></linearGradient><linearGradient id="paint14_linear" x1="38148.3" y1="15029.9" x2="51485.5" y2="15029.9" gradientUnits="userSpaceOnUse"><stop offset=".01" stop-color="#EFEFF0"/><stop offset=".48" stop-color="#E7E7E8"/><stop offset="1" stop-color="#D8D8D9"/></linearGradient><linearGradient id="paint15_linear" x1="76292.5" y1="20649.1" x2="129639" y2="20649.1" gradientUnits="userSpaceOnUse"><stop stop-color="#FAFAFA"/><stop offset=".68" stop-color="#FAFAFA"/><stop offset="1" stop-color="#EFEFF0"/></linearGradient><linearGradient id="paint16_linear" x1="51801.9" y1="14925.5" x2="65139.1" y2="14925.5" gradientUnits="userSpaceOnUse"><stop stop-color="#C0C0C2"/><stop offset="1" stop-color="#DBDBDC"/></linearGradient><linearGradient id="paint17_linear" x1="38331.4" y1="14925.5" x2="51668.6" y2="14925.5" gradientUnits="userSpaceOnUse"><stop offset=".01" stop-color="#EFEFF0"/><stop offset=".48" stop-color="#E7E7E8"/><stop offset="1" stop-color="#D8D8D9"/></linearGradient><linearGradient id="paint18_linear" x1="76293.5" y1="20441.1" x2="129640" y2="20441.1" gradientUnits="userSpaceOnUse"><stop stop-color="#FAFAFA"/><stop offset=".68" stop-color="#FAFAFA"/><stop offset="1" stop-color="#EFEFF0"/></linearGradient><linearGradient id="paint19_linear" x1="51802.9" y1="14717.5" x2="65140.1" y2="14717.5" gradientUnits="userSpaceOnUse"><stop stop-color="#C0C0C2"/><stop offset="1" stop-color="#DBDBDC"/></linearGradient><linearGradient id="paint20_linear" x1="38332.4" y1="14717.5" x2="51669.6" y2="14717.5" gradientUnits="userSpaceOnUse"><stop offset=".01" stop-color="#EFEFF0"/><stop offset=".48" stop-color="#E7E7E8"/><stop offset="1" stop-color="#D8D8D9"/></linearGradient><linearGradient id="paint21_linear" x1="76293.5" y1="20862.6" x2="129640" y2="20862.6" gradientUnits="userSpaceOnUse"><stop stop-color="#FAFAFA"/><stop offset=".68" stop-color="#FAFAFA"/><stop offset="1" stop-color="#EFEFF0"/></linearGradient><linearGradient id="paint22_linear" x1="51802.9" y1="15139.1" x2="65140.1" y2="15139.1" gradientUnits="userSpaceOnUse"><stop stop-color="#C0C0C2"/><stop offset="1" stop-color="#DBDBDC"/></linearGradient><linearGradient id="paint23_linear" x1="38332.4" y1="15139.1" x2="51669.6" y2="15139.1" gradientUnits="userSpaceOnUse"><stop offset=".01" stop-color="#EFEFF0"/><stop offset=".48" stop-color="#E7E7E8"/><stop offset="1" stop-color="#D8D8D9"/></linearGradient><clipPath id="clip0"><path fill="#fff" transform="scale(1.22477 .70706) rotate(-45 402.568 -82.783)" d="M0 0h38.773v38.773H0z"/></clipPath><clipPath id="clip1"><path fill="#fff" transform="scale(1.22477 .70706) rotate(-45 150.753 24.218)" d="M0 0h38.773v38.773H0z"/></clipPath></defs></svg>