<?xml version="1.0" encoding="UTF-8"?>
<svg width="65px" height="60px" viewBox="0 0 65 60" version="1.1" xmlns="http://www.w3.org/2000/svg" xmlns:xlink="http://www.w3.org/1999/xlink">
    <!-- Generator: Sketch 58 (84663) - https://sketch.com -->
    <title>amazon_ecs-icon</title>
    <desc>Created with Sketch.</desc>
    <g id="Page-1" stroke="none" stroke-width="1" fill="none" fill-rule="evenodd">
        <g id="amazon_ecs-icon" transform="translate(0.000000, -1.000000)" fill-rule="nonzero">
            <path d="M4.066176,56.939358 L17.57136,32.057886 L4.066176,5.180574 L0.639984,6.877038 L0.639984,55.242894 L4.066176,56.939358 Z M36.86448,17.654574 L14.477808,13.895742 L19.533936,6.777246 L42.153456,16.822974 L36.86448,17.654574 Z M37.130592,44.365566 L10.58592,48.72315 L16.141008,56.37387 L42.153456,45.130638 L37.130592,44.365566 Z" id="Shape" fill="#9D5125"></path>
            <polygon id="Path" fill="#F58534" points="12.049536 7.010094 12.049536 55.076574 4.066176 56.939358 4.066176 5.180574"></polygon>
            <path d="M12.049536,60.931038 L7.858272,58.835406 L7.858272,3.284526 L12.049536,1.188894 L19.933104,34.41963 L12.049536,60.931038 Z M42.153456,16.822974 L36.831216,17.654574 L36.831216,44.299038 L42.153456,45.130638 L47.01,31.59219 L42.153456,16.822974 Z" id="Shape" fill="#9D5125"></path>
            <g id="Group" transform="translate(12.049536, 0.956046)" fill="#F58534">
                <polygon id="Path" points="8.14968 2.561328 8.14968 57.679776 0 59.974992 0 0.232848"></polygon>
                <path d="M35.659008,49.896 L35.659008,43.143408 L0,49.762944 L0,59.974992 L35.659008,49.896 Z M35.725536,10.378368 L35.725536,16.931376 L0,10.14552 L0,0.232848 L35.725536,10.378368 Z" id="Shape"></path>
                <polygon id="Path" points="30.10392 51.459408 30.10392 8.781696 35.825328 10.345104 35.825328 49.896"></polygon>
            </g>
            <polygon id="Path" fill="#6B3B19" points="59.384208 13.696158 64.63992 25.837518 49.305216 26.569326 43.883184 26.203422"></polygon>
            <polygon id="Path" fill="#9D5125" points="43.883184 16.224222 43.883184 26.203422 59.384208 25.305294 59.384208 13.696158"></polygon>
            <polygon id="Path" fill="#6B3B19" points="36.69816 25.704462 29.280288 25.205502 45.01416 9.371838 52.99752 24.673278"></polygon>
            <g id="Group" transform="translate(29.014176, 9.272046)" fill="#9D5125">
                <path d="M0.266112,3.758832 L0.266112,15.933456 L15.999984,14.602896 L15.999984,0.099792 L0.266112,3.758832 Z M14.869008,36.856512 L14.869008,26.877312 L35.625744,27.209952 L30.370032,39.351312 L14.869008,36.856512 Z" id="Shape"></path>
                <polygon id="Path" points="0.266112 40.016592 0.266112 27.841968 23.983344 28.374192 15.999984 43.675632"></polygon>
            </g>
            <path d="M36.69816,36.615054 L29.280288,37.114014 L45.01416,38.444574 L52.99752,37.646238 L36.69816,36.615054 Z M59.384208,37.014222 L64.63992,36.481998 L49.305216,35.783454 L43.883184,36.149358 L59.384208,37.014222 Z" id="Shape" fill="#FCBF92"></path>
            <path d="M59.384208,13.696158 L59.384208,25.305294 L64.63992,25.837518 L64.63992,15.259566 L59.384208,13.696158 Z M52.99752,11.766846 L52.99752,24.673278 L45.01416,23.874942 L45.01416,9.371838 L52.99752,11.766846 Z M59.384208,48.623358 L59.384208,37.014222 L64.63992,36.481998 L64.63992,47.05995 L59.384208,48.623358 Z M52.99752,50.55267 L52.99752,37.646238 L45.01416,38.444574 L45.01416,52.947678 L52.99752,50.55267 Z" id="Shape" fill="#F58534"></path>
        </g>
    </g>
</svg>