<svg width="30" height="31" viewBox="0 0 30 31" fill="none" xmlns="http://www.w3.org/2000/svg">
<path d="M24.1077 18.9701C27.3485 18.9701 30 16.2581 30 12.9751C30 10.1203 28.085 7.83651 25.4335 7.12282C25.1389 3.55436 22.0454 0.699585 18.51 0.699585C16.3003 0.699585 14.238 1.8415 12.9122 3.41162C12.0284 2.69793 10.8499 2.26971 9.52411 2.26971C6.43062 2.26971 3.92637 4.69627 3.92637 7.69378C3.92637 8.12199 3.92637 8.55021 4.07368 8.97842C2.15867 9.97759 0.832886 11.8332 0.832886 13.8315C0.832886 16.6863 3.18983 18.9701 6.13601 18.9701H24.1077Z" fill="#83B5FC"/>
<path d="M18.8039 10.5483L15.5631 5.26697L12.4696 10.5483H14.5319V15.5441H16.7416V10.5483H18.8039Z" fill="white"/>
<path d="M23.0745 30.3893H7.90171C7.45978 30.3893 7.16516 30.1038 7.16516 29.6756V13.9743C7.16516 13.5461 7.45978 13.2606 7.90171 13.2606H23.0745C23.5165 13.2606 23.8111 13.5461 23.8111 13.9743V29.6756C23.6638 30.1038 23.3691 30.3893 23.0745 30.3893Z" fill="#8A21D6"/>
<path d="M21.0137 28.6772H9.81827C9.52365 28.6772 9.37634 28.3917 9.37634 28.249V16.5444C9.37634 16.2589 9.67096 16.1162 9.81827 16.1162H21.0137C21.3084 16.1162 21.4557 16.4017 21.4557 16.5444V28.249C21.603 28.3917 21.3084 28.6772 21.0137 28.6772Z" fill="white"/>
<path d="M12.9129 16.9722H10.5559V27.6776H12.9129V16.9722Z" fill="#8A21D6"/>
<path d="M16.7443 16.9723H14.3873V27.6777H16.7443V16.9723Z" fill="#8A21D6"/>
<path d="M20.424 16.9722H18.067V27.6776H20.424V16.9722Z" fill="#8A21D6"/>
</svg>
