<svg width="35" height="30" viewBox="0 0 35 30" fill="none" xmlns="http://www.w3.org/2000/svg">
<path d="M10.8061 0.31543C9.7749 0.31543 8.74374 0.886384 8.1545 1.74282L1.23099 13.3046C0.641754 14.1611 0.641754 15.303 1.23099 16.1594L8.1545 27.864C8.74374 28.7204 9.62759 29.4341 10.8061 29.4341H24.5058C25.5369 29.4341 26.5681 28.8631 27.1573 27.864L34.0809 16.3021C34.3755 15.8739 34.5228 15.303 34.5228 14.8748C34.5228 14.3038 34.3755 13.8756 34.0809 13.4474L27.1573 1.88556C26.5681 1.02913 25.6843 0.458171 24.5058 0.458171H10.8061V0.31543Z" fill="#4285F4"/>
<path d="M31.8755 20.0135L27.1616 28.0068C26.5724 28.8633 25.6885 29.577 24.5101 29.577H19.2069L11.5469 22.1546L13.7565 15.1604L11.5469 8.02344L13.9038 9.59356L16.9973 12.5911L15.5242 8.02344L26.4251 15.1604L31.8755 20.0135Z" fill="black" fill-opacity="0.07"/>
<path d="M11.6914 7.88005L14.0483 9.45017L15.816 15.1597L14.0483 20.5838L11.6914 22.1539L13.901 15.017L11.6914 7.88005ZM17.5837 10.3066L18.7622 13.8751H23.0342L17.5837 10.3066ZM26.5696 14.8742L15.6687 22.0112L17.8784 14.8742L15.6687 7.7373L26.5696 14.8742Z" fill="white"/>
</svg>
