<svg width="40" height="29" viewBox="0 0 40 29" fill="none" xmlns="http://www.w3.org/2000/svg">
<path d="M39.2328 11.0478C39.1253 10.9625 38.1221 10.205 36.0065 10.205C35.4478 10.2074 34.8903 10.2553 34.3395 10.3483C33.93 7.54167 31.6096 6.17331 31.5056 6.11192L30.9375 5.7843L30.5638 6.32347C30.0959 7.04775 29.7543 7.84616 29.5538 8.68478C29.175 10.2869 29.4054 11.7917 30.2192 13.0781C29.2365 13.6258 27.66 13.7606 27.341 13.7725H1.24032C0.558581 13.7734 0.00537988 14.3244 0.00166452 15.006C-0.0287793 17.2926 0.358616 19.5655 1.14478 21.7129C2.04389 24.0708 3.38153 25.8077 5.12182 26.8706C7.07194 28.0649 10.2403 28.7473 13.8317 28.7473C15.4541 28.7524 17.0735 28.6056 18.6686 28.3089C20.886 27.9017 23.0197 27.1267 24.9814 26.0158C26.5978 25.0797 28.0525 23.8889 29.2894 22.4892C31.3573 20.1483 32.5891 17.5413 33.5053 15.2244C33.6281 15.2244 33.751 15.2244 33.8704 15.2244C36.1344 15.2244 37.5267 14.3184 38.2944 13.5592C38.8047 13.075 39.203 12.4851 39.4615 11.8309L39.6236 11.3566L39.2328 11.0478Z" fill="#2496ED"/>
<path d="M3.6617 13.032H7.1593C7.32799 13.032 7.46468 12.8953 7.46468 12.7266V9.61118C7.46562 9.44249 7.32965 9.30502 7.16102 9.30408C7.16047 9.30408 7.15986 9.30408 7.1593 9.30408H3.6617C3.49302 9.30408 3.35632 9.44082 3.35632 9.60946C3.35632 9.61001 3.35632 9.61062 3.35632 9.61118V12.7266C3.35632 12.8953 3.49302 13.032 3.6617 13.032Z" fill="#2496ED"/>
<path d="M8.483 13.032H11.9806C12.1493 13.032 12.286 12.8953 12.286 12.7266V9.61118C12.2869 9.44249 12.1509 9.30502 11.9823 9.30408C11.9817 9.30408 11.9811 9.30408 11.9805 9.30408H8.48294C8.31331 9.30408 8.17584 9.44155 8.17584 9.61118V12.7266C8.17684 12.8956 8.31403 13.032 8.483 13.032Z" fill="#2496ED"/>
<path d="M13.3562 13.0317H16.8538C17.0225 13.0317 17.1592 12.8949 17.1592 12.7263V9.61081C17.1601 9.44212 17.0242 9.30465 16.8555 9.30371C16.8549 9.30371 16.8543 9.30371 16.8538 9.30371H13.3562C13.1875 9.30371 13.0508 9.44046 13.0508 9.60909C13.0508 9.60965 13.0508 9.61026 13.0508 9.61081V12.7262C13.0508 12.8949 13.1876 13.0317 13.3562 13.0317Z" fill="#2496ED"/>
<path d="M18.1726 13.0317H21.6702C21.8391 13.0317 21.9763 12.8952 21.9773 12.7263V9.61081C21.9773 9.44118 21.8398 9.30371 21.6702 9.30371H18.1726C18.0039 9.30371 17.8672 9.44046 17.8672 9.60909C17.8672 9.60965 17.8672 9.61026 17.8672 9.61081V12.7262C17.8672 12.8949 18.0039 13.0317 18.1726 13.0317Z" fill="#2496ED"/>
<path d="M8.48294 8.53673H11.9805C12.1494 8.53579 12.2859 8.39854 12.2859 8.22963V5.11422C12.2859 4.94553 12.1492 4.80884 11.9805 4.80884H8.48294C8.31403 4.80884 8.17678 4.94525 8.17584 5.11422V8.22963C8.17678 8.39887 8.3137 8.53579 8.48294 8.53673Z" fill="#2496ED"/>
<path d="M13.3562 8.53649H16.8538C17.0227 8.53554 17.1591 8.3983 17.1591 8.22939V5.11397C17.1591 4.94529 17.0224 4.80859 16.8538 4.80859H13.3562C13.1875 4.80859 13.0508 4.94534 13.0508 5.11397V8.22939C13.0508 8.3983 13.1873 8.53554 13.3562 8.53649Z" fill="#2496ED"/>
<path d="M18.1726 8.53649H21.6702C21.8394 8.53554 21.9763 8.39863 21.9773 8.22939V5.11397C21.9763 4.94501 21.8391 4.80859 21.6702 4.80859H18.1726C18.0039 4.80859 17.8672 4.94534 17.8672 5.11397V8.22939C17.8672 8.3983 18.0037 8.53554 18.1726 8.53649Z" fill="#2496ED"/>
<path d="M18.1726 4.04241H21.6702C21.8391 4.04241 21.9763 3.90594 21.9773 3.73703V0.619834C21.9763 0.450868 21.8391 0.314453 21.6702 0.314453H18.1726C18.0039 0.314453 17.8672 0.451145 17.8672 0.619834V3.73697C17.8672 3.90566 18.0039 4.04241 18.1726 4.04241Z" fill="#2496ED"/>
<path d="M23.1024 13.032H26.6C26.769 13.032 26.9062 12.8956 26.9071 12.7266V9.61118C26.9071 9.44155 26.7697 9.30408 26.6 9.30408H23.1024C22.9338 9.30408 22.7971 9.44082 22.7971 9.60946C22.7971 9.61001 22.7971 9.61062 22.7971 9.61118V12.7266C22.7971 12.8953 22.9338 13.032 23.1024 13.032Z" fill="#2496ED"/>
</svg>
