<svg width="31" height="36" viewBox="0 0 31 36" fill="none" xmlns="http://www.w3.org/2000/svg">
<path d="M5.6773 28.1886L2.28918 28.9023V7.34875L5.6773 8.06245V28.1886Z" fill="#F68536"/>
<path d="M9.94756 29.4728L5.6756 30.6147V5.63542L9.94756 6.77733V29.4728ZM15.398 30.7574L9.94756 32.7557V3.63708L15.398 5.63542V30.7574ZM30.1289 28.1881L15.398 35.325V0.925049L30.1289 8.06198V28.1881Z" fill="#F68536"/>
<path d="M12.4528 2.35231L15.3989 0.924927V35.4677L12.4528 34.0403V2.35231ZM7.59159 4.63613L9.80122 3.49422V32.6129L7.59159 31.471V4.63613ZM3.76156 6.49173L5.52928 5.6353V30.6145L3.76156 29.7581V6.49173ZM2.14118 7.34816L0.668091 8.06185V28.3307L2.14118 29.0444V7.34816Z" fill="#9D5025"/>
</svg>
