<svg width="57" height="22" viewBox="0 0 57 22" fill="none" xmlns="http://www.w3.org/2000/svg">
<path d="M4.40867 6.78103C4.28907 6.78103 4.28906 6.78103 4.28906 6.66118L4.88709 5.94211C4.88709 5.82227 5.1263 5.82227 5.24591 5.82227H15.0535C15.1731 5.82227 15.1731 5.94211 15.1731 5.94211L14.6947 6.66118C14.6947 6.78103 14.4555 6.78103 14.4555 6.78103H4.40867Z" fill="#2DBCAF"/>
<path d="M0.350063 9.29933C0.230458 9.29933 0.230469 9.29933 0.230469 9.17949L0.828496 8.46042C0.828496 8.34058 1.06769 8.34058 1.1873 8.34058H13.7459C13.8655 8.34058 13.8655 8.46042 13.8655 8.46042L13.6263 9.17949C13.6263 9.29933 13.5067 9.29933 13.3871 9.29933H0.350063Z" fill="#2DBCAF"/>
<path d="M6.92819 11.8142C6.80858 11.8142 6.80859 11.6944 6.80859 11.6944L7.1674 10.9753C7.1674 10.8555 7.28702 10.8555 7.40663 10.8555H12.9085C13.0281 10.8555 13.0281 10.9753 13.0281 11.0952V11.8142C13.0281 11.9341 12.9085 12.0539 12.7889 12.0539L6.92819 11.8142Z" fill="#2DBCAF"/>
<path d="M35.3844 6.30163C33.71 6.78101 32.5139 7.0207 30.7198 7.50008C30.361 7.61992 30.2414 7.61992 29.8826 7.26039C29.5238 6.78101 29.165 6.54132 28.5669 6.18179C26.8925 5.34287 25.218 5.58256 23.5435 6.54132C21.6298 7.73977 20.673 9.53744 20.7926 11.8145C20.7926 13.9717 22.3475 15.7694 24.5003 16.1289C26.414 16.3686 27.9689 15.7694 29.165 14.3312C29.4042 13.9717 29.6434 13.732 29.8826 13.3725C28.9257 13.3725 27.6101 13.3725 24.62 13.3725C24.0219 13.3725 23.9023 13.0129 24.1415 12.5336C24.5004 11.6946 25.0984 10.2565 25.5768 9.53744C25.6964 9.41759 25.816 9.05806 26.2944 9.05806C27.7297 9.05806 32.8727 9.05806 36.2217 9.05806C36.2217 9.77713 36.2217 10.4962 36.1021 11.3351C35.7433 13.3725 35.0256 15.1701 33.8296 16.7281C31.7963 19.3647 29.2846 20.9227 26.0552 21.4021C23.4239 21.7616 20.9122 21.2822 18.6397 19.6044C16.6064 18.0464 15.4104 16.0091 15.1711 13.4923C14.8123 10.4962 15.6496 7.85961 17.4436 5.46272C19.3573 2.94598 21.9886 1.26815 25.0984 0.668925C27.7297 0.189545 30.1218 0.54908 32.3943 1.98722C33.8296 2.94598 34.906 4.26427 35.6237 5.82225C35.8629 6.06194 35.7433 6.18179 35.3844 6.30163Z" fill="#2DBCAF"/>
<path d="M44.4768 21.5222C41.9651 21.5222 39.6926 20.8032 37.7789 19.1253C36.1044 17.6872 35.1476 15.8895 34.7887 13.8522C34.3103 10.7362 35.1475 7.97977 37.0612 5.58288C39.0945 2.94629 41.4866 1.628 44.716 1.02877C47.4669 0.549394 50.0982 0.789083 52.4903 2.46691C54.6432 3.90505 55.9589 5.94241 56.3177 8.579C56.7961 12.2942 55.7197 15.2903 53.208 17.9269C51.4139 19.7246 49.1414 20.923 46.6297 21.4024C46.0316 21.4024 45.1944 21.4024 44.4768 21.5222ZM51.0551 10.3767C51.0551 10.0171 51.0551 9.77744 50.9355 9.41791C50.4571 6.66148 47.9453 5.1035 45.314 5.70272C42.8023 6.30195 41.1278 7.85993 40.5298 10.4965C40.0514 12.6537 41.1278 14.8109 43.0415 15.6498C44.5964 16.3689 46.0317 16.2491 47.4669 15.53C49.7394 14.5712 50.9355 12.7736 51.0551 10.3767Z" fill="#2DBCAF"/>
</svg>
