<svg width="39" height="37" viewBox="0 0 39 37" fill="none" xmlns="http://www.w3.org/2000/svg">
<path d="M28.2032 12.8108C28.2032 12.8108 28.2032 12.668 28.2032 12.8108L28.9398 8.24315L32.4752 11.6689L28.7925 13.239C28.6451 12.9535 28.4978 12.9535 28.2032 12.8108ZM33.5063 12.5253L37.3364 16.2365C38.0729 16.9502 38.5148 17.3784 38.6622 17.8066V17.9494L29.529 14.2382H29.3817C29.3817 14.2382 29.3817 14.2382 29.529 14.2382L33.5063 12.5253ZM38.5148 19.234C38.3675 19.6622 37.9256 19.9477 37.3364 20.6614L33.0644 24.8008L27.4667 23.6589H27.3194C27.3194 23.2307 27.0247 22.8025 26.7301 22.517C26.7301 22.517 26.7301 22.517 26.7301 22.3743L27.7613 16.0938V15.951C28.2032 15.951 28.6451 15.6656 28.9398 15.3801C28.9398 15.3801 28.9398 15.3801 29.0871 15.3801L38.5148 19.234ZM32.0333 25.8L24.9624 32.6514L26.1409 25.3718C26.4355 25.229 26.5828 25.0863 26.8774 24.9436C26.8774 24.9436 26.8774 24.9436 27.0247 24.9436L32.0333 25.8ZM23.342 34.0788L22.6055 34.7925L13.767 22.3743C13.767 22.3743 13.767 22.2315 13.9143 22.2315L23.7839 24.2299C23.7839 24.2299 23.784 24.2299 23.9313 24.2299C24.0786 24.8008 24.3732 25.0863 24.9624 25.3718C24.9624 25.3718 24.9624 25.3718 24.9624 25.5145C24.6678 26.0855 23.6366 32.366 23.342 34.0788ZM21.7216 35.649C21.1324 36.2199 20.8378 36.5054 20.3959 36.6481C19.9539 36.7909 19.6593 36.7909 19.2174 36.6481C18.7754 36.5054 18.3335 36.0772 17.597 35.3635L8.75845 26.7992L11.1154 23.3734C11.1154 23.3734 11.1154 23.3734 11.2627 23.3734C11.8519 23.5162 12.2939 23.5162 12.8831 23.2307C12.8831 23.2307 12.8831 23.2307 13.0304 23.2307L21.7216 35.649ZM7.72729 25.9427L5.66497 23.9444L9.6423 22.2315L9.78961 22.3743L7.72729 25.9427ZM4.78112 23.088L2.12955 20.5187C1.68763 20.0905 1.39301 19.805 1.0984 19.5195L8.90576 21.0896H9.05306C9.05306 21.0896 9.05307 21.0896 8.90576 21.2324L4.78112 23.088ZM0.803772 18.3776C0.803772 18.2349 0.80377 18.0921 0.951079 17.9494C1.09839 17.5212 1.54032 17.0929 2.27686 16.3793L5.51766 13.239C6.99075 15.3801 8.61115 17.5212 10.0842 19.6622V19.805C9.93692 19.9477 9.78961 20.0905 9.6423 20.3759L0.803772 18.3776ZM6.40151 12.2398L10.8208 7.95767C11.2627 8.10041 12.7358 8.81411 14.0616 9.24232C15.0927 9.67054 15.9766 10.0988 16.2712 10.2415C16.1239 10.8124 16.2712 11.5261 16.8604 11.9544C16.8604 11.9544 16.8604 11.9544 16.8604 12.0971L12.2939 18.8058C12.2939 18.8058 12.2939 18.8058 12.1466 18.8058C11.9993 18.8058 11.8519 18.8058 11.5573 18.8058C11.41 18.8058 11.2627 18.8058 10.9681 18.8058L6.40151 12.2398ZM11.7046 6.95851L17.4497 1.3917C18.1862 0.678008 18.6281 0.249793 19.0701 0.107054C19.512 -0.0356846 19.8066 -0.0356846 20.2485 0.107054C20.6905 0.249793 21.1324 0.678008 21.8689 1.3917L23.0474 2.53361L18.9228 8.67137C18.9228 8.67137 18.9228 8.67137 18.7755 8.67137C18.1862 8.52863 17.4497 8.67137 16.8604 8.95685C16.8604 8.95685 16.8604 8.95685 16.7131 8.95685C16.5658 8.95685 12.2939 7.24398 11.7046 6.95851ZM24.0786 3.53278L27.9086 7.24398L27.0247 12.668C26.8774 12.668 26.5828 12.8108 26.4355 12.9535L20.5432 10.6697H20.3959C20.3959 10.3842 20.2485 10.0988 20.1012 9.81328V9.67054L24.0786 3.53278ZM20.2485 11.6689L25.699 13.81C25.699 13.81 25.699 13.81 25.8463 13.81C25.8463 13.9527 25.8463 13.9527 25.8463 14.0954V14.2382C25.8463 14.2382 25.8463 14.2382 25.699 14.2382C24.8151 14.5237 13.767 19.234 13.767 19.234C13.767 19.234 13.767 19.234 13.767 19.0913L18.1862 12.3826C18.1862 12.3826 18.1862 12.2398 18.3335 12.2398C18.4808 12.2398 18.4808 12.2398 18.6281 12.2398C19.0701 12.668 19.8066 12.3826 20.2485 11.6689C20.1012 11.8116 20.1012 11.8116 20.2485 11.6689C20.1012 11.6689 20.2485 11.6689 20.2485 11.6689ZM14.0616 20.5187L26.1409 15.5228L26.2882 15.6656L25.257 21.8033V21.9461C24.6678 21.9461 24.2259 22.2315 23.9313 22.8025L14.2089 20.8041C14.2089 21.0896 14.0616 20.5187 14.0616 20.5187Z" fill="url(#paint0_radial)"/>
<defs>
<radialGradient id="paint0_radial" cx="0" cy="0" r="1" gradientUnits="userSpaceOnUse" gradientTransform="translate(19.5537 -0.00462138) rotate(90) scale(36.7111 43.6453)">
<stop stop-color="#20C6B7"/>
<stop offset="1" stop-color="#4D9ABF"/>
</radialGradient>
</defs>
</svg>
