<svg width="59" height="36" viewBox="0 0 59 36" fill="none" xmlns="http://www.w3.org/2000/svg">
<path d="M14.2717 9.37481H25.2754V10.2137H15.3482V16.8052H24.6774V17.6441H15.3482V24.8348H25.395V25.6737H14.3913V9.37481H14.2717ZM26.2323 9.37481H27.4283L32.5713 16.5655L37.834 9.37481L45.0103 0.266602L33.289 17.4044L39.3889 25.7935H38.1928L32.691 18.1235L27.1891 25.7935H25.9931L32.0929 17.4044L26.2323 9.37481ZM39.7477 10.3336V9.49465H52.1866V10.3336H46.4456V25.7935H45.4887V10.3336H39.7477ZM0.636719 9.37481H1.83277L19.1756 35.2613L11.9992 25.6737L1.59357 10.5733V25.6737H0.636719V9.37481ZM52.067 24.7149C51.8278 24.7149 51.7082 24.5951 51.7082 24.3554C51.7082 24.1157 51.8278 23.9959 52.067 23.9959C52.3062 23.9959 52.4258 24.1157 52.4258 24.3554C52.4258 24.4753 52.3062 24.7149 52.067 24.7149ZM53.1435 23.7562H53.6219C53.6219 23.9959 53.8611 24.2356 54.1003 24.2356C54.4591 24.2356 54.6983 23.9959 54.6983 23.6363V21.1196H55.2964V23.6363C55.2964 24.3554 54.9376 24.7149 54.2199 24.7149C53.5023 24.7149 53.1435 24.3554 53.1435 23.7562ZM56.014 23.6363H56.612C56.612 23.9959 56.9708 24.2356 57.4493 24.2356C57.9277 24.2356 58.1669 23.9959 58.1669 23.6363C58.1669 23.3967 57.9277 23.157 57.4493 23.0371L56.9709 22.9173C56.3728 22.7974 56.014 22.4379 56.014 21.9585C56.014 21.3593 56.4924 20.8799 57.3297 20.8799C58.0473 20.8799 58.5257 21.2395 58.6453 21.8387H58.1669C58.1669 21.4791 57.8081 21.3593 57.4493 21.3593C56.9708 21.3593 56.7316 21.599 56.7316 21.8387C56.7316 22.0784 56.9709 22.1982 57.3297 22.318L57.6885 22.4379C58.4061 22.5577 58.7649 22.9173 58.7649 23.3967C58.7649 24.1157 58.2865 24.4753 57.4493 24.4753C56.4924 24.7149 56.014 24.3554 56.014 23.6363Z" fill="black"/>
</svg>
