<svg width="84" height="24" viewBox="0 0 84 24" fill="none" xmlns="http://www.w3.org/2000/svg">
<path fill-rule="evenodd" clip-rule="evenodd" d="M44.3177 0.351562C44.1981 0.351562 44.1981 0.351562 44.1981 0.351562C44.0785 0.471407 44.0785 0.471407 44.0785 0.711097V9.57961C44.0785 9.69946 44.0785 9.69946 43.9589 9.8193C43.8393 9.8193 43.8393 9.8193 43.7197 9.8193L42.2845 8.98039C42.0452 8.86055 41.806 8.86055 41.5668 8.98039L35.8257 12.336C35.5865 12.4559 35.4669 12.6956 35.4669 12.9353V19.6466C35.4669 19.8863 35.5865 20.126 35.8257 20.2458L41.5668 23.6015C41.806 23.7213 42.0452 23.7213 42.2845 23.6015L48.0255 20.2458C48.2647 20.126 48.3843 19.8863 48.3843 19.6466V2.8683C48.3843 2.62861 48.2647 2.38892 48.0255 2.26908L44.557 0.351562C44.4373 0.351562 44.3177 0.351562 44.3177 0.351562ZM7.00083 8.62086C6.88122 8.62086 6.76161 8.62086 6.64201 8.7407L0.900941 12.0964C0.66173 12.2162 0.54213 12.4559 0.54213 12.6956V21.6839C0.54213 21.8038 0.661733 21.9236 0.661733 22.0435C0.781339 22.1633 0.900948 22.1633 1.02055 22.0435L4.48911 20.126C4.72832 20.0061 4.84793 19.7664 4.84793 19.5267V15.3322C4.84793 15.0925 4.96754 14.8528 5.20675 14.7329L6.64201 13.894C6.76161 13.7742 6.88122 13.7742 7.00083 13.7742C7.12043 13.7742 7.24004 13.7742 7.35964 13.894L8.79491 14.7329C9.03412 14.8528 9.15372 15.0925 9.15372 15.3322V19.5267C9.15372 19.7664 9.27333 20.0061 9.51254 20.126L12.9811 22.0435C13.1007 22.1633 13.2203 22.1633 13.3399 22.0435C13.4595 21.9236 13.4595 21.9236 13.4595 21.6839V12.6956C13.4595 12.4559 13.3399 12.2162 13.1007 12.0964L7.35964 8.7407C7.35964 8.7407 7.24004 8.62086 7.00083 8.62086ZM59.0292 8.7407C58.9096 8.7407 58.79 8.7407 58.6704 8.86055L52.9293 12.2162C52.6901 12.336 52.5705 12.5757 52.5705 12.8154V19.5267C52.5705 19.7664 52.6901 20.0061 52.9293 20.126L58.6704 23.3618C58.9096 23.4816 59.1488 23.4816 59.3881 23.3618L62.8566 21.4443C62.9762 21.3244 63.0958 21.3244 63.0958 21.0847C63.0958 20.9649 62.9762 20.845 62.9762 20.7252L57.1155 17.3695C56.9959 17.2497 56.8763 17.1298 56.8763 17.01V14.9726C56.8763 14.8528 56.9959 14.7329 57.1155 14.6131L58.9096 13.5345C59.0292 13.4146 59.1488 13.4146 59.2684 13.5345L61.0625 14.6131C61.1821 14.7329 61.1821 14.7329 61.1821 14.9726V16.6505C61.1821 16.7703 61.3017 16.8902 61.3017 17.01C61.4213 17.1298 61.5409 17.1298 61.6605 17.01L65.1291 14.9726C65.3683 14.8528 65.4879 14.6131 65.4879 14.3734V12.8154C65.4879 12.5757 65.3683 12.336 65.1291 12.2162L59.3881 8.86055C59.2684 8.7407 59.1488 8.7407 59.0292 8.7407ZM41.806 13.7742L43.8393 14.9726L43.9589 15.0925V17.3695C43.9589 17.4894 43.9589 17.4894 43.8393 17.4894L41.806 18.6878H41.6864L39.6531 17.4894L39.5335 17.3695V15.0925C39.5335 14.9726 39.5335 14.9726 39.6531 14.9726L41.806 13.7742C41.6864 13.7742 41.6864 13.7742 41.806 13.7742Z" fill="black"/>
<path fill-rule="evenodd" clip-rule="evenodd" d="M76.3689 8.62109C76.1297 8.62109 76.0101 8.62109 75.7709 8.74094L70.2691 11.8569C69.9102 12.0966 69.671 12.4561 69.671 12.8157V19.1674C69.671 19.527 69.9102 20.0064 70.2691 20.1262L71.8239 20.9651C72.5416 21.3246 72.7808 21.3246 73.1396 21.3246C74.216 21.3246 74.6945 20.7254 74.6945 19.6468V13.4149C74.6945 13.295 74.5749 13.295 74.5749 13.295H73.8572C73.7376 13.295 73.7376 13.4149 73.7376 13.4149V19.6468C73.7376 20.1262 73.2592 20.6056 72.422 20.246L70.9867 19.4071L70.8671 19.2873V12.9355C70.8671 12.8157 70.8671 12.8157 70.9867 12.8157L76.4885 9.6997H76.6081L82.11 12.8157L82.2296 12.9355V19.2873C82.2296 19.4071 82.2296 19.4071 82.11 19.4071L76.6081 22.5231H76.4885L75.0533 21.6842H74.9337C74.5749 21.9239 74.4552 21.9239 74.0964 22.0437C73.9768 22.0437 73.8572 22.1636 74.0964 22.2834L75.8905 23.362C76.0101 23.4819 76.2493 23.4819 76.4885 23.4819C76.7277 23.4819 76.8474 23.4819 77.0866 23.362L82.5884 20.246C82.9472 20.0064 83.1864 19.6468 83.1864 19.2873V12.9355C83.1864 12.576 82.9472 12.0966 82.5884 11.9768L77.0866 8.86078C76.8474 8.62109 76.6082 8.62109 76.3689 8.62109Z" fill="#83CD29"/>
<path fill-rule="evenodd" clip-rule="evenodd" d="M24.4609 8.74109C24.3413 8.74109 24.2217 8.74109 24.1021 8.86093L18.3611 12.2166C18.1219 12.3364 18.0023 12.5761 18.0023 12.8158V19.5271C18.0023 19.7668 18.1219 20.0065 18.3611 20.1263L24.1021 23.482C24.3413 23.6018 24.5805 23.6018 24.8198 23.482L30.5608 20.1263C30.8 20.0065 30.9196 19.7668 30.9196 19.5271V12.8158C30.9196 12.5761 30.8 12.3364 30.5608 12.2166L24.8198 8.86093C24.7002 8.74109 24.5805 8.74109 24.4609 8.74109Z" fill="#83CD29"/>
<path fill-rule="evenodd" clip-rule="evenodd" d="M77.9234 13.0557C76.3686 13.0557 75.4117 13.7747 75.4117 14.8533C75.4117 16.0518 76.3686 16.4113 77.8038 16.5312C79.5979 16.651 79.7175 17.0105 79.7175 17.3701C79.7175 17.9693 79.2391 18.209 78.043 18.209C76.6078 18.209 76.249 17.8495 76.1294 17.1304C76.1294 17.0105 76.0098 17.0105 76.0098 17.0105H75.4117C75.2921 17.0105 75.2921 17.1304 75.2921 17.1304C75.2921 18.0891 75.7706 19.1678 78.1627 19.1678C79.8371 19.1678 80.9136 18.4487 80.9136 17.2502C80.9136 16.0518 80.0763 15.6923 78.4019 15.5724C76.7274 15.3327 76.4882 15.2129 76.4882 14.8533C76.4882 14.4938 76.6078 14.1343 77.9234 14.1343C78.9999 14.1343 79.4783 14.374 79.5979 15.093C79.5979 15.2129 79.7175 15.2129 79.7175 15.2129H80.4351H80.5547V15.093C80.4351 13.6549 79.5979 13.0557 77.9234 13.0557Z" fill="#83CD29"/>
<path fill-rule="evenodd" clip-rule="evenodd" d="M59.0287 14.7327L57.8327 15.4517L57.7131 15.5716V16.8899C57.7131 16.8899 57.7131 17.0097 57.8327 17.0097L58.9091 17.6089H59.0287L60.1051 17.0097L60.2248 16.8899V15.5716C60.2248 15.5716 60.2248 15.4517 60.1051 15.4517L59.0287 14.7327C59.1483 14.7327 59.0287 14.7327 59.0287 14.7327Z" fill="#83CD29"/>
</svg>
