<svg width="34" height="37" viewBox="0 0 34 37" fill="none" xmlns="http://www.w3.org/2000/svg">
<path d="M16.9841 5.70898H21.698L24.3496 7.85006L30.9785 12.275V21.9812C30.9785 21.9812 26.2646 25.9779 24.0549 27.548C21.8453 29.1181 16.1003 31.8301 15.6583 31.5447C15.2164 31.2592 9.91328 28.4044 9.91328 28.4044L0.632812 23.694C0.632812 23.694 4.61015 15.7007 4.75746 14.1306C4.90477 12.7032 8.73481 8.84923 8.73481 8.84923L16.9841 5.70898Z" fill="white"/>
<path d="M16.8368 0L0.632812 9.13527L11.5337 15.273L13.7433 13.9884L19.1937 16.9859V10.8481L24.3495 7.85062V13.9884L33.3354 9.13527L16.8368 0Z" fill="var(--nomad, #60dea9)"/>
<path d="M24.35 13.9882V19.9833L20.078 22.4098L16.9846 20.5542V36.2555H17.1319L33.3358 27.2629V9.13513H33.0412L24.35 13.9882Z" fill="#60dea9"/>
<path d="M14.7745 19.4123V25.4073L9.91328 28.4048V16.2721L11.8283 15.2729L0.780119 9.13513H0.632812V27.2629L16.9841 36.2555V20.5542L14.7745 19.4123Z" fill="var(--nomad, #60dea9)"/>
</svg>
