<svg width="32" height="38" viewBox="0 0 32 38" fill="none" xmlns="http://www.w3.org/2000/svg">
<path d="M15.8673 0C14.5516 0 13.236 0.119845 12.1595 0.359534C8.93017 0.958759 8.33213 2.15721 8.33213 4.43426V7.43038H16.1065V8.38914H5.46161C3.18911 8.38914 1.27542 9.70743 0.557786 12.344C-0.159846 15.3401 -0.159846 17.1378 0.557786 20.2538C1.15581 22.5308 2.4715 24.2087 4.6244 24.2087H7.25569V20.6133C7.25569 18.0966 9.5282 15.8195 12.1595 15.8195H19.9339C22.0868 15.8195 23.7612 14.0218 23.7612 11.8646V4.31441C23.7612 2.15721 21.9671 0.599224 19.9339 0.23969C18.6182 0.119845 17.1829 0 15.8673 0ZM11.6811 2.3969C12.5183 2.3969 13.1163 3.11597 13.1163 3.83503C13.1163 4.67395 12.5183 5.27317 11.6811 5.27317C10.8439 5.27317 10.2458 4.5541 10.2458 3.83503C10.2458 2.99612 10.8439 2.3969 11.6811 2.3969Z" fill="url(#paint0_linear)"/>
<path d="M24.8375 8.26965V11.7452C24.8375 14.3817 22.565 16.6588 19.9337 16.6588H12.1593C10.0064 16.6588 8.33191 18.4565 8.33191 20.6137V28.044C8.33191 30.2013 10.126 31.3997 12.1593 31.9989C14.671 32.718 16.9435 32.8378 19.9337 31.9989C21.8473 31.3997 23.7611 30.3211 23.7611 28.044V25.0479H15.9867V24.0892H27.5884C29.8609 24.0892 30.6982 22.5312 31.4158 20.1343C32.253 17.7374 32.1334 15.3405 31.4158 12.2245C30.8178 9.94748 29.7413 8.26965 27.5884 8.26965H24.8375ZM20.4121 27.0853C21.2493 27.0853 21.8474 27.8044 21.8474 28.5234C21.8474 29.3623 21.2493 29.9616 20.4121 29.9616C19.5748 29.9616 18.9768 29.2425 18.9768 28.5234C18.9768 27.6845 19.5748 27.0853 20.4121 27.0853Z" fill="url(#paint1_linear)"/>
<path opacity="0.444" d="M5.69934 37.032C5.69934 35.9534 10.3639 34.9946 16.105 34.9946C21.846 34.9946 26.5107 35.9534 26.5107 37.032" fill="url(#paint2_radial)"/>
<defs>
<linearGradient id="paint0_linear" x1="-0.768704" y1="1.00594" x2="17.1609" y2="16.2516" gradientUnits="userSpaceOnUse">
<stop stop-color="#5A9FD4"/>
<stop offset="1" stop-color="#306998"/>
</linearGradient>
<linearGradient id="paint1_linear" x1="23.8428" y1="25.8122" x2="17.4038" y2="16.8081" gradientUnits="userSpaceOnUse">
<stop stop-color="#FFD43B"/>
<stop offset="1" stop-color="#FFE873"/>
</linearGradient>
<radialGradient id="paint2_radial" cx="0" cy="0" r="1" gradientUnits="userSpaceOnUse" gradientTransform="translate(16.0308 36.119) rotate(-90) scale(1.68162 7.37811)">
<stop stop-color="#B8B8B8" stop-opacity="0.498"/>
<stop offset="1" stop-color="#7F7F7F" stop-opacity="0"/>
</radialGradient>
</defs>
</svg>
