<svg width="29" height="28" viewBox="0 0 29 28" fill="none" xmlns="http://www.w3.org/2000/svg">
<path fill-rule="evenodd" clip-rule="evenodd" d="M22.1046 18.2903L6.55594 27.6382L26.6496 26.2L28.2045 5.82642L22.1046 18.2903Z" fill="url(#paint0_linear)"/>
<path fill-rule="evenodd" clip-rule="evenodd" d="M26.6503 26.2005L24.9759 14.2161L20.1916 20.448L26.6503 26.2005Z" fill="url(#paint1_linear)"/>
<path fill-rule="evenodd" clip-rule="evenodd" d="M26.7693 26.2006L13.9715 25.2418L6.55594 27.5189L26.7693 26.2006Z" fill="url(#paint2_linear)"/>
<path fill-rule="evenodd" clip-rule="evenodd" d="M6.55441 27.5189L9.78376 17.2123L2.72704 18.6504L6.55441 27.5189Z" fill="url(#paint3_linear)"/>
<path fill-rule="evenodd" clip-rule="evenodd" d="M20.1929 20.4482L17.3224 9.06299L8.95002 16.8529L20.1929 20.4482Z" fill="url(#paint4_linear)"/>
<path fill-rule="evenodd" clip-rule="evenodd" d="M27.6055 9.1828L19.7115 2.71118L17.439 9.90187L27.6055 9.1828Z" fill="url(#paint5_linear)"/>
<path fill-rule="evenodd" clip-rule="evenodd" d="M23.8975 0.43396L19.2329 2.9507L16.2427 0.43396H23.8975Z" fill="url(#paint6_linear)"/>
<path fill-rule="evenodd" clip-rule="evenodd" d="M0.934395 22.126L2.84808 18.5306L1.29321 14.3361L0.934395 22.126Z" fill="url(#paint7_linear)"/>
<path fill-rule="evenodd" clip-rule="evenodd" d="M1.17268 14.216L2.72755 18.7701L9.66466 17.2121L17.5586 9.90155L19.8311 2.83071L16.3626 0.313965L10.2627 2.59102C8.349 4.38869 4.76084 7.74434 4.64123 7.86419C4.52163 7.86419 2.24913 12.1786 1.17268 14.216Z" fill="white"/>
<path fill-rule="evenodd" clip-rule="evenodd" d="M6.79551 6.18654C10.8621 2.11182 16.1247 -0.165234 18.0384 1.75228C20.0717 3.78965 17.9188 8.70328 13.8522 12.778C9.78565 16.8527 4.64261 19.3695 2.60932 17.3321C0.695633 15.1749 2.72893 10.1414 6.79551 6.18654Z" fill="url(#paint8_linear)"/>
<path fill-rule="evenodd" clip-rule="evenodd" d="M6.55594 27.5188L9.66568 17.0923L20.0714 20.4479C16.3636 24.0433 12.1774 27.0394 6.55594 27.5188Z" fill="url(#paint9_linear)"/>
<path fill-rule="evenodd" clip-rule="evenodd" d="M17.559 9.78169L20.1904 20.4479C23.3001 17.0922 26.1706 13.4969 27.6059 9.06262L17.559 9.78169Z" fill="url(#paint10_linear)"/>
<path fill-rule="evenodd" clip-rule="evenodd" d="M27.6056 9.18263C28.6821 5.94682 28.9213 1.27287 23.8979 0.43396L19.7117 2.71101L27.6056 9.18263Z" fill="url(#paint11_linear)"/>
<path fill-rule="evenodd" clip-rule="evenodd" d="M0.934395 22.126C1.054 27.5191 5.00098 27.5191 6.55585 27.6389L2.72848 18.7704L0.934395 22.126Z" fill="#9E1209"/>
<path fill-rule="evenodd" clip-rule="evenodd" d="M17.559 9.90169C19.9511 11.3398 24.855 14.4558 24.9746 14.4558C25.0942 14.5756 27.1275 11.1001 27.4863 9.18262L17.559 9.90169Z" fill="url(#paint12_radial)"/>
<path fill-rule="evenodd" clip-rule="evenodd" d="M9.78596 17.0923L13.9721 25.2417C16.4839 23.9234 18.3976 22.2456 20.1916 20.4479L9.78596 17.0923Z" fill="url(#paint13_radial)"/>
<path fill-rule="evenodd" clip-rule="evenodd" d="M2.72873 18.6504L2.1307 25.8411C3.20715 27.399 4.76202 27.5189 6.43649 27.399C5.24044 24.4029 2.96794 18.5305 2.72873 18.6504Z" fill="url(#paint14_linear)"/>
<path fill-rule="evenodd" clip-rule="evenodd" d="M19.7117 2.71101L28.084 3.90946C27.6056 1.99194 26.29 0.793494 23.8979 0.43396L19.7117 2.71101Z" fill="url(#paint15_linear)"/>
<defs>
<linearGradient id="paint0_linear" x1="24.913" y1="30.0759" x2="19.138" y2="19.9002" gradientUnits="userSpaceOnUse">
<stop stop-color="#FB7655"/>
<stop offset="0.41" stop-color="#E42B1E"/>
<stop offset="0.99" stop-color="#990000"/>
<stop offset="1" stop-color="#990000"/>
</linearGradient>
<linearGradient id="paint1_linear" x1="27.7818" y1="21.52" x2="20.3524" y2="16.5445" gradientUnits="userSpaceOnUse">
<stop stop-color="#871101"/>
<stop offset="0.99" stop-color="#911209"/>
<stop offset="1" stop-color="#911209"/>
</linearGradient>
<linearGradient id="paint2_linear" x1="21.8441" y1="30.3848" x2="14.415" y2="25.4093" gradientUnits="userSpaceOnUse">
<stop stop-color="#871101"/>
<stop offset="0.99" stop-color="#911209"/>
<stop offset="1" stop-color="#911209"/>
</linearGradient>
<linearGradient id="paint3_linear" x1="6.26329" y1="17.9083" x2="7.41816" y2="25.3985" gradientUnits="userSpaceOnUse">
<stop stop-color="white"/>
<stop offset="0.23" stop-color="#E57252"/>
<stop offset="0.46" stop-color="#DE3B20"/>
<stop offset="0.99" stop-color="#A60003"/>
<stop offset="1" stop-color="#A60003"/>
</linearGradient>
<linearGradient id="paint4_linear" x1="14.1787" y1="10.9139" x2="14.6043" y2="18.5586" gradientUnits="userSpaceOnUse">
<stop stop-color="white"/>
<stop offset="0.23" stop-color="#E4714E"/>
<stop offset="0.56" stop-color="#BE1A0D"/>
<stop offset="0.99" stop-color="#A80D00"/>
<stop offset="1" stop-color="#A80D00"/>
</linearGradient>
<linearGradient id="paint5_linear" x1="21.1969" y1="3.84779" x2="22.4705" y2="9.32561" gradientUnits="userSpaceOnUse">
<stop stop-color="white"/>
<stop offset="0.18" stop-color="#E46342"/>
<stop offset="0.4" stop-color="#C82410"/>
<stop offset="0.99" stop-color="#A80D00"/>
<stop offset="1" stop-color="#A80D00"/>
</linearGradient>
<linearGradient id="paint6_linear" x1="17.3222" y1="1.91824" x2="22.7942" y2="-0.8123" gradientUnits="userSpaceOnUse">
<stop stop-color="white"/>
<stop offset="0.54" stop-color="#C81F11"/>
<stop offset="0.99" stop-color="#BF0905"/>
<stop offset="1" stop-color="#BF0905"/>
</linearGradient>
<linearGradient id="paint7_linear" x1="1.47214" y1="15.9989" x2="1.92388" y2="20.5128" gradientUnits="userSpaceOnUse">
<stop stop-color="white"/>
<stop offset="0.31" stop-color="#DE4024"/>
<stop offset="0.99" stop-color="#BF190B"/>
<stop offset="1" stop-color="#BF190B"/>
</linearGradient>
<linearGradient id="paint8_linear" x1="-1.62124" y1="21.7337" x2="19.5765" y2="-0.0201658" gradientUnits="userSpaceOnUse">
<stop stop-color="#BD0012"/>
<stop offset="0.07" stop-color="white"/>
<stop offset="0.17" stop-color="white"/>
<stop offset="0.27" stop-color="#C82F1C"/>
<stop offset="0.33" stop-color="#820C01"/>
<stop offset="0.46" stop-color="#A31601"/>
<stop offset="0.72" stop-color="#B31301"/>
<stop offset="0.99" stop-color="#E82609"/>
<stop offset="1" stop-color="#E82609"/>
</linearGradient>
<linearGradient id="paint9_linear" x1="14.5819" y1="23.932" x2="8.20862" y2="22.362" gradientUnits="userSpaceOnUse">
<stop stop-color="#8C0C01"/>
<stop offset="0.54" stop-color="#990C00"/>
<stop offset="0.99" stop-color="#A80D0E"/>
<stop offset="1" stop-color="#A80D0E"/>
</linearGradient>
<linearGradient id="paint10_linear" x1="25.5257" y1="16.269" x2="19.8551" y2="11.1968" gradientUnits="userSpaceOnUse">
<stop stop-color="#7E110B"/>
<stop offset="0.99" stop-color="#9E0C00"/>
<stop offset="1" stop-color="#9E0C00"/>
</linearGradient>
<linearGradient id="paint11_linear" x1="27.605" y1="6.94201" x2="24.7794" y2="3.92696" gradientUnits="userSpaceOnUse">
<stop stop-color="#79130D"/>
<stop offset="0.99" stop-color="#9E120B"/>
<stop offset="1" stop-color="#9E120B"/>
</linearGradient>
<radialGradient id="paint12_radial" cx="0" cy="0" r="1" gradientUnits="userSpaceOnUse" gradientTransform="translate(20.7465 11.2829) scale(6.93676 6.95064)">
<stop stop-color="#A80D00"/>
<stop offset="0.99" stop-color="#7E0E08"/>
<stop offset="1" stop-color="#7E0E08"/>
</radialGradient>
<radialGradient id="paint13_radial" cx="0" cy="0" r="1" gradientUnits="userSpaceOnUse" gradientTransform="translate(11.1413 20.4425) scale(9.22146 9.23992)">
<stop stop-color="#A30C00"/>
<stop offset="0.99" stop-color="#800E08"/>
<stop offset="1" stop-color="#800E08"/>
</radialGradient>
<linearGradient id="paint14_linear" x1="4.60845" y1="27.5625" x2="2.30212" y2="19.7535" gradientUnits="userSpaceOnUse">
<stop stop-color="#8B2114"/>
<stop offset="0.43" stop-color="#9E100A"/>
<stop offset="0.99" stop-color="#B3100C"/>
<stop offset="1" stop-color="#B3100C"/>
</linearGradient>
<linearGradient id="paint15_linear" x1="22.2353" y1="1.67771" x2="27.3902" y2="3.94823" gradientUnits="userSpaceOnUse">
<stop stop-color="#B31000"/>
<stop offset="0.44" stop-color="#910F08"/>
<stop offset="0.99" stop-color="#791C12"/>
<stop offset="1" stop-color="#791C12"/>
</linearGradient>
</defs>
</svg>
