<svg width="25" height="25" viewBox="0 0 25 25" fill="none" xmlns="http://www.w3.org/2000/svg"><path fill-rule="evenodd" clip-rule="evenodd" d="M12.524.521C5.918.521.56 5.88.56 12.485c0 5.284 3.45 9.761 8.146 11.376.587.073.808-.294.808-.587v-2.055c-3.303.734-4.037-1.615-4.037-1.615-.514-1.394-1.321-1.761-1.321-1.761-1.101-.734.073-.734.073-.734 1.175.073 1.835 1.247 1.835 1.247 1.101 1.835 2.79 1.321 3.45 1.028.073-.808.44-1.321.734-1.615-2.643-.293-5.432-1.32-5.432-5.945 0-1.32.44-2.348 1.248-3.23-.073-.22-.514-1.467.147-3.082 0 0 1.027-.293 3.303 1.248.954-.294 1.981-.367 3.009-.367 1.027 0 2.055.147 3.009.367 2.275-1.541 3.303-1.248 3.303-1.248.66 1.615.22 2.863.147 3.156a4.747 4.747 0 011.247 3.23c0 4.623-2.789 5.578-5.43 5.871.44.367.806 1.101.806 2.202v3.303c0 .293.22.66.808.587a11.976 11.976 0 008.146-11.376C24.488 5.879 19.13.52 12.525.52z" fill="#252937"/></svg>