<svg width="17" height="17" fill="none" xmlns="http://www.w3.org/2000/svg">
  <path fill-rule="evenodd" clip-rule="evenodd" d="M3.81.22a2.25 2.25 0 0 0-2.25 2.25v10.5a2.25 2.25 0 0 0 2.25 2.25h.25a.75.75 0 0 0 0-1.5h-.25a.75.75 0 0 1-.75-.75v-1.5a.75.75 0 0 1 .75-.75h10.25v3h-3a.75.75 0 0 0 0 1.5h3.25c.69 0 1.25-.559 1.25-1.25V1.47c0-.69-.56-1.25-1.25-1.25H3.81Zm10.25 9v-7.5H3.81a.75.75 0 0 0-.75.75V9.35c.235-.083.488-.128.75-.128h10.25Z" fill="#10202E"/>
  <path d="M6.06 12.22a.5.5 0 0 0-.5.5v3a.5.5 0 0 0 .778.417l1.223-.815 1.222.815a.5.5 0 0 0 .778-.416v-3a.5.5 0 0 0-.5-.5h-3Z" fill="#10202E"/>
</svg>