<?xml version="1.0" encoding="UTF-8"?>
<svg width="153px" height="35px" viewBox="0 0 153 35" version="1.1" xmlns="http://www.w3.org/2000/svg" xmlns:xlink="http://www.w3.org/1999/xlink">
    <!-- Generator: Sketch 58 (84663) - https://sketch.com -->
    <title>Group</title>
    <desc>Created with Sketch.</desc>
    <defs>
        <linearGradient x1="76.138721%" y1="15.3866802%" x2="34.7930008%" y2="58.9193894%" id="linearGradient-1">
            <stop stop-color="#0052CC" offset="18%"></stop>
            <stop stop-color="#2684FF" offset="100%"></stop>
        </linearGradient>
    </defs>
    <g id="Page-1" stroke="none" stroke-width="1" fill="none" fill-rule="evenodd">
        <g id="Group">
            <path d="M18.5,0 C8.29024242,0 0,8.02860579 0,17.9404508 C0,25.8697011 5.30333333,32.587491 12.6517576,34.966379 C13.5711515,35.1323479 13.912,34.5813763 13.912,34.097018 C13.912,33.6679826 13.9007879,32.5434585 13.8895758,31.046351 C8.74545455,32.1257135 7.65563636,28.6448822 7.65563636,28.6448822 C6.81472727,26.5742222 5.59933333,26.0243796 5.59933333,26.0243796 C3.91751515,24.9111458 5.72378788,24.9337266 5.72378788,24.9337266 C7.57490909,25.0658244 8.56381818,26.7842237 8.56381818,26.7842237 C10.2097576,29.5255337 12.8905758,28.7329474 13.9456364,28.2711699 C14.1171818,27.1139035 14.593697,26.3213172 15.1161818,25.8697011 C11.004697,25.4180849 6.68915152,23.8769449 6.68915152,17.0044764 C6.68915152,15.0444624 7.40448485,13.4479994 8.59745455,12.1913775 C8.40460606,11.7397613 7.76775758,9.91184506 8.77909091,7.44489193 C8.77909091,7.44489193 10.3353333,6.95940459 13.8671515,9.28409863 C15.37998,8.88667133 16.9365457,8.68296567 18.5,8.67780398 C20.0674545,8.68909438 21.6573333,8.88780548 23.1339697,9.28409863 C26.6657879,6.96053363 28.2220303,7.44489193 28.2220303,7.44489193 C29.2322424,9.91184506 28.5965152,11.7397613 28.4036667,12.1913775 C29.584303,13.4468703 30.2996364,15.0444624 30.2996364,17.0044764 C30.2996364,23.8983967 25.9728788,25.4067945 21.8501818,25.8584107 C22.5094545,26.4093824 23.1115455,27.5101967 23.1115455,29.1845635 C23.1115455,31.5860323 23.0891212,33.5133041 23.0891212,34.1071793 C23.0891212,34.5926667 23.4176364,35.1425093 24.3605758,34.966379 C31.7078788,32.587491 37,25.8697011 37,17.9517412 C37,8.02860579 28.7097576,0 18.5,0 Z" id="Path" fill="#000000"></path>
            <g id="Group-2" transform="translate(59.000000, 1.000000)" fill-rule="nonzero">
                <path d="M38.1964193,19.2114307 L36.0527392,12.9327107 L31.8112992,0.478310602 C31.704123,0.187697889 31.4254998,-0.00388357107 31.1157792,0 C30.8063457,-0.00405430525 30.5278085,0.187019492 30.4202592,0.477190602 L26.1788192,12.9248707 L12.0847391,12.9248707 L7.84329912,0.478310602 C7.73653811,0.187873308 7.4583134,-0.00374274806 7.14889912,0 C6.8390762,-0.00422081944 6.56027707,0.187481643 6.45337912,0.478310602 L2.2186591,12.9248707 L0.0749790916,19.2114307 C-0.118744324,19.7892842 0.0971045348,20.4253739 0.602499094,20.7659907 L19.1340192,33.6000707 L37.6599393,20.7671107 C38.1728993,20.4143107 38.3890593,19.7871107 38.1975393,19.2125507 L38.1964193,19.2114307 Z" id="Path" fill="#FC6D26"></path>
                <polygon id="Path" fill="#E24329" points="19.1328992 33.5888707 26.1776992 12.9248707 12.0880991 12.9248707"></polygon>
                <polygon id="Path" fill="#FC6D26" points="19.1317792 33.5888707 12.0836191 12.9248707 2.2208991 12.9248707 19.1328992 33.5888707"></polygon>
                <path d="M2.2141791,12.9304707 L0.0704990915,19.2080707 C-0.123569533,19.7865078 0.0928248926,20.4233126 0.599139094,20.7637507 L19.1328992,33.6000707 L2.2141791,12.9293507 L2.2141791,12.9304707 Z" id="Path" fill="#FCA326"></path>
                <path d="M2.2175391,12.9293507 L12.0914591,12.9293507 L7.84217912,0.483910602 C7.73462981,0.193739492 7.45609266,0.00266569478 7.14665912,0.00672511142 C6.83722559,0.00266569478 6.55868843,0.193739492 6.45113912,0.483910602 L2.2175391,12.9293507 Z" id="Path" fill="#E24329"></path>
                <polygon id="Path" fill="#FC6D26" points="19.1328992 33.5888707 26.1788192 12.9248707 36.0572192 12.9248707"></polygon>
                <path d="M36.0504992,12.9304707 L38.1941793,19.2091907 C38.3890612,19.7876291 38.1724992,20.4249271 37.6655393,20.7648707 L19.1328992,33.5888707 L36.0448992,12.9304707 L36.0504992,12.9304707 L36.0504992,12.9304707 Z" id="Path" fill="#FCA326"></path>
                <path d="M36.0538592,12.9304707 L26.1810592,12.9304707 L30.4224992,0.483910602 C30.5296338,0.193914948 30.8077723,0.0028068417 31.1168992,0.00672948654 C31.4327392,0.00672948654 31.7127392,0.199430601 31.8124192,0.483910602 L36.0538592,12.9304707 Z" id="Path" fill="#E24329"></path>
            </g>
            <g id="Group-3" transform="translate(121.000000, 4.000000)">
                <path d="M0.242899155,0.348036222 C0.440908346,0.125079115 0.725393997,-0.00173469605 1.02357913,1.79291984e-05 L30.8750183,0.0046762322 C31.1754583,0.0046762322 31.4608183,0.132276229 31.6556983,0.352676222 C31.8505782,0.575396216 31.9340982,0.867716207 31.8853782,1.1553962 L27.5759784,26.9885955 C27.48684,27.4759735 27.0598985,27.828494 26.5644584,27.8238418 L5.696059,27.8238418 C5.03949964,27.8221336 4.47447902,27.3593594 4.34349904,26.7159955 L0.0132191616,1.1495962 C-0.0348334108,0.861811958 0.0495605766,0.567711699 0.242899155,0.349196222 L0.242899155,0.348036222 Z M12.6293788,18.4776757 L19.3074986,18.4776757 L20.9198986,9.35775596 L10.8522588,9.35775596 L12.6293788,18.4776757 Z" id="Shape" fill="#2684FF"></path>
                <path d="M30.5246983,9.35659596 L20.9465786,9.35659596 L19.3504186,18.4776757 L12.6293788,18.4776757 L4.80285902,27.5140754 C5.05109902,27.7228754 5.36777901,27.8377154 5.696059,27.838913 L26.5656184,27.838913 C27.0608899,27.8430982 27.4875647,27.4907979 27.5771384,27.0036755 L30.5246983,9.35659596 L30.5246983,9.35659596 Z" id="Path" fill="url(#linearGradient-1)" fill-rule="nonzero"></path>
            </g>
        </g>
    </g>
</svg>