<svg viewBox="0 0 154 40" fill="none" xmlns="http://www.w3.org/2000/svg">
  <path fill-rule="evenodd" clip-rule="evenodd" d="M19.818 4c-9.106 0-16.5 7.111-16.5 15.89 0 7.023 4.73 12.973 11.284 15.08.82.147 1.124-.341 1.124-.77 0-.38-.01-1.376-.02-2.702-4.588.956-5.56-2.127-5.56-2.127-.75-1.834-1.834-2.321-1.834-2.321-1.5-.986.111-.966.111-.966 1.651.117 2.533 1.639 2.533 1.639 1.468 2.428 3.859 1.726 4.8 1.317.153-1.025.578-1.727 1.044-2.127-3.667-.4-7.516-1.765-7.516-7.852 0-1.736.638-3.15 1.702-4.263-.172-.4-.74-2.019.162-4.204 0 0 1.388-.43 4.538 1.629a16.584 16.584 0 0 1 4.132-.537c1.398.01 2.816.186 4.133.537 3.15-2.058 4.538-1.629 4.538-1.629.901 2.185.334 3.804.162 4.204 1.053 1.112 1.691 2.527 1.691 4.263 0 6.106-3.859 7.442-7.536 7.842.588.488 1.125 1.463 1.125 2.946 0 2.127-.02 3.834-.02 4.36 0 .43.293.917 1.134.761 6.553-2.107 11.273-8.057 11.273-15.07 0-8.789-7.394-15.9-16.5-15.9Z" fill="#000"/>
  <path d="m97.521 22.153-1.914-5.606-3.787-11.12A.653.653 0 0 0 91.199 5a.653.653 0 0 0-.621.426L86.791 16.54H74.207L70.42 5.427A.652.652 0 0 0 69.8 5a.652.652 0 0 0-.621.427L65.398 16.54l-1.914 5.613a1.21 1.21 0 0 0 .471 1.388L80.501 35l16.541-11.458c.458-.315.651-.875.48-1.388Z" fill="#FC6D26"/>
  <path d="m80.5 34.99 6.29-18.45H74.21l6.29 18.45Z" fill="#E24329"/>
  <path d="m80.499 34.99-6.293-18.45H65.4L80.5 34.99Z" fill="#FC6D26"/>
  <path d="M65.394 16.545 63.48 22.15a1.21 1.21 0 0 0 .472 1.389L80.5 35 65.394 16.544Z" fill="#FCA326"/>
  <path d="M65.397 16.544h8.816L70.419 5.432a.653.653 0 0 0-.621-.426.653.653 0 0 0-.621.426l-3.78 11.112Z" fill="#E24329"/>
  <path d="m80.5 34.99 6.291-18.45h8.82L80.5 34.99Z" fill="#FC6D26"/>
  <path d="m95.605 16.545 1.914 5.606a1.208 1.208 0 0 1-.472 1.389L80.5 34.99l15.1-18.445h.005Z" fill="#FCA326"/>
  <path d="M95.608 16.545h-8.815L90.58 5.432a.652.652 0 0 1 .62-.426c.282 0 .532.172.621.426l3.787 11.113Z" fill="#E24329"/>
  <path fill-rule="evenodd" clip-rule="evenodd" d="M123.96 8.3a.893.893 0 0 1 .673-.3l25.734.004c.259 0 .505.11.673.3.168.192.24.444.198.692l-3.715 22.27a.878.878 0 0 1-.872.72h-17.99a1.193 1.193 0 0 1-1.166-.955l-3.733-22.04a.834.834 0 0 1 .198-.69Zm10.678 15.629h5.757l1.39-7.862h-8.679l1.532 7.862Z" fill="#2684FF"/>
  <path d="M150.065 16.066h-8.257l-1.376 7.863h-5.794l-6.747 7.79c.214.18.487.279.77.28h17.991a.879.879 0 0 0 .872-.72l2.541-15.213Z" fill="url(#paint0_linear-921884)"/>
  <defs>
    <linearGradient id="paint0_linear-921884" x1="144.774" y1="13.351" x2="135.606" y2="26.785" gradientUnits="userSpaceOnUse">
      <stop offset=".18" stop-color="#0052CC"/>
      <stop offset="1" stop-color="#2684FF"/>
    </linearGradient>
  </defs>
</svg>