<svg xmlns="http://www.w3.org/2000/svg" viewBox="0 0 328 63"><defs><style>.cls-1{fill:var(--waypoint, #62d4dc);}</style></defs><g id="LOGOS"><path d="M137.82,39.22,145.51,8h7.56l-10,40.28H132.8l-7.38-32.42-7.37,32.42H107.76L97.78,8h7.56L113,39.22,120.34,8h10.17Z"/><path d="M175.8,48.29h-6.05l-.54-2a16.15,16.15,0,0,1-8.77,2.6c-5.38,0-7.68-3.69-7.68-8.77,0-6,2.6-8.29,8.59-8.29h7.07V28.75c0-3.26-.9-4.41-5.62-4.41a40.82,40.82,0,0,0-8.17.91l-.9-5.63a38.26,38.26,0,0,1,10.1-1.39c9.25,0,12,3.27,12,10.65Zm-7.38-11.13H163c-2.42,0-3.08.67-3.08,2.91,0,2,.66,3,3,3a11.65,11.65,0,0,0,5.56-1.51Z"/><path d="M196.49,48.29l-3.93,11.92h-7l3.69-11.92h-2.6l-9.32-29.46h7.56l6.72,22.38,6.77-22.38h7.56Z"/><path d="M232.72,38.49c0,6.53-2.91,10.41-9.74,10.41a41.07,41.07,0,0,1-7.87-.85V60.21l-7.38,1V18.83h5.87l.73,2.48a15.52,15.52,0,0,1,9.31-3.08c5.93,0,9.08,3.51,9.08,10.22Zm-17.61,3.33a33.06,33.06,0,0,0,6.54.79c2.66,0,3.69-1.27,3.69-3.94V28.27c0-2.42-.91-3.75-3.63-3.75a10.48,10.48,0,0,0-6.6,2.66Z"/><path d="M249,48.9c-10.1,0-12.82-5.57-12.82-11.62V29.84c0-6.05,2.72-11.61,12.82-11.61s12.83,5.56,12.83,11.61v7.44C261.87,43.33,259.14,48.9,249,48.9Zm0-24.38c-3.93,0-5.44,1.75-5.44,5.08v7.92c0,3.33,1.51,5.09,5.44,5.09s5.45-1.76,5.45-5.09V29.6C254.49,26.27,253,24.52,249,24.52Z"/><path d="M266.34,14.66V6.13h7.38v8.53Zm0,33.63V18.83h7.38V48.29Z"/><path d="M297.18,48.29V27.73c0-1.58-.66-2.36-2.35-2.36s-5,1.09-7.69,2.48V48.29h-7.38V18.83h5.63l.73,2.48a29.54,29.54,0,0,1,11.79-3.08c4.9,0,6.65,3.45,6.65,8.71V48.29Z"/><path d="M326,47.75a20.57,20.57,0,0,1-6.47,1.15c-5.38,0-8.1-2.54-8.1-7.81V24.7H307V18.83h4.42V11.52l7.37-1v8.34h7.57l-.49,5.87h-7.08V40.13c0,1.57.73,2.6,2.67,2.6a14.34,14.34,0,0,0,3.69-.61Z"/><polygon class="cls-1" points="83.07 1.76 72.9 19.37 62.74 1.76 83.07 1.76"/><polygon class="cls-1" points="28.8 13.52 22.02 13.52 38.97 42.89 32.19 54.64 1.66 1.76 35.58 1.76 52.54 31.14 55.93 25.27 42.37 1.76 55.93 1.76 62.72 13.52 69.5 25.27 52.54 54.64 28.8 13.52"/></g></svg>