<svg width="1152" height="263" viewBox="0 0 1152 263" fill="none" xmlns="http://www.w3.org/2000/svg">
<path d="M845.503 94.2L841.183 101.664L836.839 94.2H833.119L839.503 104.832V111H842.839V104.832L849.199 94.2H845.503Z" fill="black"/>
<path d="M854.122 111.336C857.866 111.336 860.602 108.552 860.602 104.928C860.602 101.28 857.866 98.52 854.122 98.52C850.378 98.52 847.618 101.28 847.618 104.928C847.618 108.552 850.378 111.336 854.122 111.336ZM854.122 108.456C852.082 108.456 850.714 106.944 850.714 104.928C850.714 102.912 852.082 101.4 854.122 101.4C856.138 101.4 857.53 102.912 857.53 104.928C857.53 106.944 856.138 108.456 854.122 108.456Z" fill="black"/>
<path d="M871.482 98.856V104.832C871.482 106.992 870.354 108.384 868.554 108.384C866.802 108.384 865.962 107.184 865.962 105.336V98.856H862.794V105.936C862.794 109.2 864.402 111.336 867.594 111.336C869.346 111.336 870.666 110.544 871.482 109.464V111H874.65V98.856H871.482Z" fill="black"/>
<path d="M880.846 100.656V98.856H877.678V111H880.846V105.72C880.846 102.456 882.262 101.256 884.854 101.664V98.688C882.958 98.424 881.566 99.24 880.846 100.656Z" fill="black"/>
<path d="M901.794 93.48V100.32C900.93 99.216 899.586 98.52 897.882 98.52C894.522 98.52 891.882 101.232 891.882 104.928C891.882 108.6 894.522 111.336 897.882 111.336C899.586 111.336 900.93 110.616 901.794 109.512V111H904.986V93.48H901.794ZM898.434 108.504C896.442 108.504 895.026 107.016 895.026 104.904C895.026 102.816 896.442 101.352 898.434 101.352C900.354 101.352 901.89 102.816 901.89 104.904C901.89 107.016 900.354 108.504 898.434 108.504Z" fill="black"/>
<path d="M913.855 111.336C917.047 111.336 919.015 109.464 919.711 107.88L916.855 107.04C916.375 107.952 915.439 108.648 913.903 108.648C911.695 108.648 910.591 107.448 910.375 105.888H919.807C919.879 105.504 919.879 105.144 919.879 104.76C919.879 101.28 917.599 98.52 913.615 98.52C909.799 98.52 907.255 101.304 907.255 104.928C907.255 108.768 909.967 111.336 913.855 111.336ZM910.375 103.896C910.543 102.504 911.743 101.208 913.591 101.208C915.487 101.208 916.639 102.408 916.783 103.896H910.375Z" fill="black"/>
<path d="M930.255 98.856L926.919 107.496L923.583 98.856H920.103L925.119 111H928.695L933.711 98.856H930.255Z" fill="black"/>
<path d="M940.733 111.336C943.925 111.336 945.893 109.464 946.589 107.88L943.733 107.04C943.253 107.952 942.317 108.648 940.781 108.648C938.573 108.648 937.469 107.448 937.253 105.888H946.685C946.757 105.504 946.757 105.144 946.757 104.76C946.757 101.28 944.477 98.52 940.493 98.52C936.677 98.52 934.133 101.304 934.133 104.928C934.133 108.768 936.845 111.336 940.733 111.336ZM937.253 103.896C937.421 102.504 938.621 101.208 940.469 101.208C942.365 101.208 943.517 102.408 943.661 103.896H937.253Z" fill="black"/>
<path d="M949.055 111H952.223V93.48H949.055V111Z" fill="black"/>
<path d="M961 111.336C964.744 111.336 967.48 108.552 967.48 104.928C967.48 101.28 964.744 98.52 961 98.52C957.256 98.52 954.496 101.28 954.496 104.928C954.496 108.552 957.256 111.336 961 111.336ZM961 108.456C958.96 108.456 957.592 106.944 957.592 104.928C957.592 102.912 958.96 101.4 961 101.4C963.016 101.4 964.408 102.912 964.408 104.928C964.408 106.944 963.016 108.456 961 108.456Z" fill="black"/>
<path d="M976.896 98.52C975.168 98.52 973.848 99.216 972.96 100.32V98.856H969.792V116.04H972.96V109.512C973.848 110.616 975.168 111.336 976.896 111.336C980.256 111.336 982.872 108.6 982.872 104.928C982.872 101.232 980.256 98.52 976.896 98.52ZM976.344 108.504C974.424 108.504 972.888 107.016 972.888 104.904C972.888 102.816 974.424 101.352 976.344 101.352C978.336 101.352 979.752 102.816 979.752 104.904C979.752 107.016 978.336 108.504 976.344 108.504Z" fill="black"/>
<path d="M999.685 98.52C997.741 98.52 996.373 99.336 995.581 100.344C994.837 99.192 993.637 98.52 991.933 98.52C990.325 98.52 989.125 99.264 988.333 100.296V98.856H985.165V111H988.333V104.904C988.333 102.768 989.245 101.472 990.949 101.472C992.581 101.472 993.229 102.648 993.229 104.448V111H996.421V104.808C996.421 102.744 997.285 101.472 998.989 101.472C1000.65 101.472 1001.32 102.624 1001.32 104.448V111H1004.49V103.776C1004.49 100.392 1002.59 98.52 999.685 98.52Z" fill="black"/>
<path d="M1013.24 111.336C1016.43 111.336 1018.4 109.464 1019.09 107.88L1016.24 107.04C1015.76 107.952 1014.82 108.648 1013.29 108.648C1011.08 108.648 1009.97 107.448 1009.76 105.888H1019.19C1019.26 105.504 1019.26 105.144 1019.26 104.76C1019.26 101.28 1016.98 98.52 1013 98.52C1009.18 98.52 1006.64 101.304 1006.64 104.928C1006.64 108.768 1009.35 111.336 1013.24 111.336ZM1009.76 103.896C1009.93 102.504 1011.13 101.208 1012.97 101.208C1014.87 101.208 1016.02 102.408 1016.17 103.896H1009.76Z" fill="black"/>
<path d="M1028.64 98.52C1026.89 98.52 1025.57 99.312 1024.73 100.392V98.856H1021.56V111H1024.73V105C1024.73 102.864 1025.88 101.472 1027.66 101.472C1029.41 101.472 1030.25 102.648 1030.25 104.496V111H1033.42V103.896C1033.42 100.656 1031.81 98.52 1028.64 98.52Z" fill="black"/>
<path d="M1043.26 108.048C1042.78 108.288 1042.37 108.384 1041.82 108.384C1040.81 108.384 1040.33 107.832 1040.33 106.848V101.64H1043.88V98.856H1040.33V94.92H1037.14V98.856H1035.1V101.64H1037.14V106.848C1037.14 109.464 1038.41 111.192 1041.19 111.192C1042.2 111.192 1043.07 111 1044.03 110.616L1043.26 108.048Z" fill="black"/>
<path d="M1059.03 98.52C1057.3 98.52 1055.98 99.216 1055.1 100.32V98.856H1051.93V116.04H1055.1V109.512C1055.98 110.616 1057.3 111.336 1059.03 111.336C1062.39 111.336 1065.01 108.6 1065.01 104.928C1065.01 101.232 1062.39 98.52 1059.03 98.52ZM1058.48 108.504C1056.56 108.504 1055.02 107.016 1055.02 104.904C1055.02 102.816 1056.56 101.352 1058.48 101.352C1060.47 101.352 1061.89 102.816 1061.89 104.904C1061.89 107.016 1060.47 108.504 1058.48 108.504Z" fill="black"/>
<path d="M1067.3 111H1070.47V93.48H1067.3V111Z" fill="black"/>
<path d="M1078.74 111.336C1080.45 111.336 1081.79 110.616 1082.65 109.512V111H1085.85V98.856H1082.65V100.32C1081.79 99.216 1080.45 98.52 1078.74 98.52C1075.38 98.52 1072.74 101.232 1072.74 104.928C1072.74 108.6 1075.38 111.336 1078.74 111.336ZM1079.29 108.504C1077.3 108.504 1075.89 107.016 1075.89 104.904C1075.89 102.816 1077.3 101.352 1079.29 101.352C1081.21 101.352 1082.75 102.816 1082.75 104.904C1082.75 107.016 1081.21 108.504 1079.29 108.504Z" fill="black"/>
<path d="M1095.79 108.048C1095.31 108.288 1094.91 108.384 1094.35 108.384C1093.35 108.384 1092.87 107.832 1092.87 106.848V101.64H1096.42V98.856H1092.87V94.92H1089.67V98.856H1087.63V101.64H1089.67V106.848C1089.67 109.464 1090.95 111.192 1093.73 111.192C1094.74 111.192 1095.6 111 1096.56 110.616L1095.79 108.048Z" fill="black"/>
<path d="M1102.93 97.752C1102.93 96.6 1103.48 95.904 1104.49 95.904C1105.09 95.904 1105.5 96 1106 96.216L1106.77 93.672C1105.95 93.288 1105.09 93.144 1104.03 93.144C1101.2 93.144 1099.76 94.944 1099.76 97.752V98.856H1097.43V101.64H1099.76V111H1102.93V101.64H1106.6V98.856H1102.93V97.752Z" fill="black"/>
<path d="M1113.32 111.336C1117.06 111.336 1119.8 108.552 1119.8 104.928C1119.8 101.28 1117.06 98.52 1113.32 98.52C1109.57 98.52 1106.81 101.28 1106.81 104.928C1106.81 108.552 1109.57 111.336 1113.32 111.336ZM1113.32 108.456C1111.28 108.456 1109.91 106.944 1109.91 104.928C1109.91 102.912 1111.28 101.4 1113.32 101.4C1115.33 101.4 1116.72 102.912 1116.72 104.928C1116.72 106.944 1115.33 108.456 1113.32 108.456Z" fill="black"/>
<path d="M1125.28 100.656V98.856H1122.11V111H1125.28V105.72C1125.28 102.456 1126.69 101.256 1129.29 101.664V98.688C1127.39 98.424 1126 99.24 1125.28 100.656Z" fill="black"/>
<path d="M1145.77 98.52C1143.82 98.52 1142.46 99.336 1141.66 100.344C1140.92 99.192 1139.72 98.52 1138.02 98.52C1136.41 98.52 1135.21 99.264 1134.42 100.296V98.856H1131.25V111H1134.42V104.904C1134.42 102.768 1135.33 101.472 1137.03 101.472C1138.66 101.472 1139.31 102.648 1139.31 104.448V111H1142.5V104.808C1142.5 102.744 1143.37 101.472 1145.07 101.472C1146.73 101.472 1147.4 102.624 1147.4 104.448V111H1150.57V103.776C1150.57 100.392 1148.67 98.52 1145.77 98.52Z" fill="black"/>
<path d="M12.48 94.2001L8.16001 101.664L3.81601 94.2001H0.0960083L6.48001 104.832V111H9.81601V104.832L16.176 94.2001H12.48Z" fill="black"/>
<path d="M21.099 111.336C24.843 111.336 27.579 108.552 27.579 104.928C27.579 101.28 24.843 98.5201 21.099 98.5201C17.355 98.5201 14.595 101.28 14.595 104.928C14.595 108.552 17.355 111.336 21.099 111.336ZM21.099 108.456C19.059 108.456 17.691 106.944 17.691 104.928C17.691 102.912 19.059 101.4 21.099 101.4C23.115 101.4 24.507 102.912 24.507 104.928C24.507 106.944 23.115 108.456 21.099 108.456Z" fill="black"/>
<path d="M38.4594 98.8561V104.832C38.4594 106.992 37.3314 108.384 35.5314 108.384C33.7794 108.384 32.9394 107.184 32.9394 105.336V98.8561H29.7714V105.936C29.7714 109.2 31.3794 111.336 34.5714 111.336C36.3234 111.336 37.6434 110.544 38.4594 109.464V111H41.6274V98.8561H38.4594Z" fill="black"/>
<path d="M47.8228 100.656V98.8561H44.6548V111H47.8228V105.72C47.8228 102.456 49.2388 101.256 51.8308 101.664V98.6881C49.9348 98.4241 48.5428 99.2401 47.8228 100.656Z" fill="black"/>
<path d="M64.8594 111.336C66.5634 111.336 67.9074 110.616 68.7714 109.512V111H71.9634V98.8561H68.7714V100.32C67.9074 99.2161 66.5634 98.5201 64.8594 98.5201C61.4994 98.5201 58.8594 101.232 58.8594 104.928C58.8594 108.6 61.4994 111.336 64.8594 111.336ZM65.4114 108.504C63.4194 108.504 62.0034 107.016 62.0034 104.904C62.0034 102.816 63.4194 101.352 65.4114 101.352C67.3314 101.352 68.8674 102.816 68.8674 104.904C68.8674 107.016 67.3314 108.504 65.4114 108.504Z" fill="black"/>
<path d="M82.0802 98.5201C80.3522 98.5201 79.0322 99.2161 78.1442 100.32V98.8561H74.9762V116.04H78.1442V109.512C79.0322 110.616 80.3522 111.336 82.0802 111.336C85.4402 111.336 88.0562 108.6 88.0562 104.928C88.0562 101.232 85.4402 98.5201 82.0802 98.5201ZM81.5282 108.504C79.6082 108.504 78.0722 107.016 78.0722 104.904C78.0722 102.816 79.6082 101.352 81.5282 101.352C83.5202 101.352 84.9362 102.816 84.9362 104.904C84.9362 107.016 83.5202 108.504 81.5282 108.504Z" fill="black"/>
<path d="M97.4529 98.5201C95.7249 98.5201 94.4049 99.2161 93.5169 100.32V98.8561H90.3489V116.04H93.5169V109.512C94.4049 110.616 95.7249 111.336 97.4529 111.336C100.813 111.336 103.429 108.6 103.429 104.928C103.429 101.232 100.813 98.5201 97.4529 98.5201ZM96.9009 108.504C94.9809 108.504 93.4449 107.016 93.4449 104.904C93.4449 102.816 94.9809 101.352 96.9009 101.352C98.8929 101.352 100.309 102.816 100.309 104.904C100.309 107.016 98.8929 108.504 96.9009 108.504Z" fill="black"/>
<path d="M105.722 111H108.89V93.4801H105.722V111Z" fill="black"/>
<path d="M113.515 97.1521C114.571 97.1521 115.411 96.3361 115.411 95.2801C115.411 94.2721 114.571 93.4561 113.515 93.4561C112.459 93.4561 111.619 94.2721 111.619 95.2801C111.619 96.3361 112.459 97.1521 113.515 97.1521ZM111.883 111H115.075V98.8561H111.883V111Z" fill="black"/>
<path d="M123.851 111.336C127.187 111.336 129.275 109.224 129.755 107.376L126.803 106.56C126.539 107.568 125.411 108.504 123.827 108.504C121.811 108.504 120.515 106.8 120.515 104.904C120.515 102.984 121.811 101.328 123.827 101.328C125.411 101.328 126.539 102.336 126.803 103.344L129.755 102.504C129.275 100.68 127.187 98.5201 123.827 98.5201C120.131 98.5201 117.395 101.28 117.395 104.904C117.395 108.552 120.131 111.336 123.851 111.336Z" fill="black"/>
<path d="M137.221 111.336C138.925 111.336 140.269 110.616 141.133 109.512V111H144.325V98.8561H141.133V100.32C140.269 99.2161 138.925 98.5201 137.221 98.5201C133.861 98.5201 131.221 101.232 131.221 104.928C131.221 108.6 133.861 111.336 137.221 111.336ZM137.773 108.504C135.781 108.504 134.365 107.016 134.365 104.904C134.365 102.816 135.781 101.352 137.773 101.352C139.693 101.352 141.229 102.816 141.229 104.904C141.229 107.016 139.693 108.504 137.773 108.504Z" fill="black"/>
<path d="M154.274 108.048C153.794 108.288 153.386 108.384 152.834 108.384C151.826 108.384 151.346 107.832 151.346 106.848V101.64H154.898V98.8561H151.346V94.9201H148.154V98.8561H146.114V101.64H148.154V106.848C148.154 109.464 149.426 111.192 152.21 111.192C153.218 111.192 154.082 111 155.042 110.616L154.274 108.048Z" fill="black"/>
<path d="M158.74 97.1521C159.796 97.1521 160.636 96.3361 160.636 95.2801C160.636 94.2721 159.796 93.4561 158.74 93.4561C157.684 93.4561 156.844 94.2721 156.844 95.2801C156.844 96.3361 157.684 97.1521 158.74 97.1521ZM157.108 111H160.3V98.8561H157.108V111Z" fill="black"/>
<path d="M169.124 111.336C172.868 111.336 175.604 108.552 175.604 104.928C175.604 101.28 172.868 98.5201 169.124 98.5201C165.38 98.5201 162.62 101.28 162.62 104.928C162.62 108.552 165.38 111.336 169.124 111.336ZM169.124 108.456C167.084 108.456 165.716 106.944 165.716 104.928C165.716 102.912 167.084 101.4 169.124 101.4C171.14 101.4 172.532 102.912 172.532 104.928C172.532 106.944 171.14 108.456 169.124 108.456Z" fill="black"/>
<path d="M184.997 98.5201C183.245 98.5201 181.925 99.3121 181.085 100.392V98.8561H177.917V111H181.085V105C181.085 102.864 182.237 101.472 184.013 101.472C185.765 101.472 186.605 102.648 186.605 104.496V111H189.773V103.896C189.773 100.656 188.165 98.5201 184.997 98.5201Z" fill="black"/>
<path d="M204.203 111.336C207.539 111.336 209.627 109.224 210.107 107.376L207.155 106.56C206.891 107.568 205.763 108.504 204.179 108.504C202.163 108.504 200.867 106.8 200.867 104.904C200.867 102.984 202.163 101.328 204.179 101.328C205.763 101.328 206.891 102.336 207.155 103.344L210.107 102.504C209.627 100.68 207.539 98.5201 204.179 98.5201C200.483 98.5201 197.747 101.28 197.747 104.904C197.747 108.552 200.483 111.336 204.203 111.336Z" fill="black"/>
<path d="M218.076 111.336C221.82 111.336 224.556 108.552 224.556 104.928C224.556 101.28 221.82 98.5201 218.076 98.5201C214.332 98.5201 211.572 101.28 211.572 104.928C211.572 108.552 214.332 111.336 218.076 111.336ZM218.076 108.456C216.036 108.456 214.668 106.944 214.668 104.928C214.668 102.912 216.036 101.4 218.076 101.4C220.092 101.4 221.484 102.912 221.484 104.928C221.484 106.944 220.092 108.456 218.076 108.456Z" fill="black"/>
<path d="M236.037 93.4801V100.32C235.173 99.2161 233.829 98.5201 232.125 98.5201C228.765 98.5201 226.125 101.232 226.125 104.928C226.125 108.6 228.765 111.336 232.125 111.336C233.829 111.336 235.173 110.616 236.037 109.512V111H239.229V93.4801H236.037ZM232.677 108.504C230.685 108.504 229.269 107.016 229.269 104.904C229.269 102.816 230.685 101.352 232.677 101.352C234.597 101.352 236.133 102.816 236.133 104.904C236.133 107.016 234.597 108.504 232.677 108.504Z" fill="black"/>
<path d="M248.098 111.336C251.29 111.336 253.258 109.464 253.954 107.88L251.098 107.04C250.618 107.952 249.682 108.648 248.146 108.648C245.938 108.648 244.834 107.448 244.618 105.888H254.05C254.122 105.504 254.122 105.144 254.122 104.76C254.122 101.28 251.842 98.5201 247.858 98.5201C244.042 98.5201 241.498 101.304 241.498 104.928C241.498 108.768 244.21 111.336 248.098 111.336ZM244.618 103.896C244.786 102.504 245.986 101.208 247.834 101.208C249.73 101.208 250.882 102.408 251.026 103.896H244.618Z" fill="black"/>
<path d="M880.984 156.709H885.698L888.35 158.85L894.978 163.275V172.981C894.978 172.981 890.265 176.978 888.055 178.548C885.845 180.118 880.1 182.83 879.658 182.545C879.216 182.259 873.913 179.404 873.913 179.404L864.633 174.694C864.633 174.694 868.61 166.701 868.757 165.131C868.905 163.703 872.735 159.849 872.735 159.849L880.984 156.709Z" fill="white"/>
<path d="M880.837 151L864.633 160.135L875.534 166.273L877.743 164.988L883.194 167.986V161.848L888.35 158.851V164.988L897.335 160.135L880.837 151Z" fill="#00BC7F"/>
<path d="M888.35 164.988V170.983L884.078 173.41L880.985 171.554V187.255H881.132L897.336 178.263V160.135H897.041L888.35 164.988Z" fill="#009A69"/>
<path d="M878.774 170.412V176.407L873.913 179.405V167.272L875.828 166.273L864.78 160.135H864.633V178.263L880.984 187.255V171.554L878.774 170.412Z" fill="#00BC7F"/>
<path d="M805.579 159.987C805.432 159.416 804.843 158.845 804.254 158.559L792.174 152.992C791.88 152.85 791.438 152.85 791.143 152.85C790.848 152.85 790.407 152.85 790.112 152.992L778.18 158.417C777.591 158.702 777.149 159.273 777.001 159.844L774.055 172.405C773.908 173.119 774.055 173.69 774.497 174.261L782.894 184.252C783.336 184.68 784.072 184.966 784.661 185.109H797.919C798.656 185.251 799.245 184.823 799.687 184.252L808.084 174.261C808.526 173.69 808.673 173.119 808.526 172.405L805.579 159.987Z" fill="#326DE6"/>
<path d="M803.814 171.977C803.814 171.977 803.667 171.977 803.814 171.977C803.667 171.834 803.667 171.834 803.519 171.834C803.372 171.834 803.225 171.834 803.077 171.834C802.93 171.834 802.93 171.834 802.783 171.834C802.341 171.834 801.899 171.691 801.457 171.549C801.31 171.549 801.162 171.406 801.162 171.263L800.868 171.12C801.015 169.979 801.015 168.837 800.721 167.695C800.426 166.553 799.984 165.554 799.395 164.554H799.542C799.542 164.412 799.542 164.269 799.689 164.269C799.984 163.983 800.426 163.698 800.868 163.555C801.015 163.555 801.015 163.413 801.162 163.413C801.162 163.127 801.31 163.127 801.457 162.984C801.457 162.984 801.604 162.984 801.604 162.842C801.604 162.699 801.604 162.842 801.604 162.699C801.899 162.413 802.046 161.985 801.752 161.557C801.604 161.414 801.457 161.271 801.162 161.271C801.015 161.271 800.721 161.414 800.573 161.414L800.426 161.557C800.279 161.7 800.131 161.842 800.131 161.842C800.131 161.985 799.984 161.985 799.984 161.985C799.689 162.271 799.395 162.556 798.953 162.842C798.805 162.842 798.806 162.984 798.658 162.984H798.511L798.216 163.127C797.922 163.127 797.627 162.842 797.185 162.556C795.712 161.414 793.944 160.7 792.029 160.558V160.272C791.882 160.13 791.882 160.13 791.882 159.987C791.882 159.559 791.882 159.13 792.029 158.702C792.029 158.559 792.029 158.559 792.029 158.417C792.029 158.274 792.029 158.131 792.177 157.988V157.703C792.177 157.275 791.882 156.989 791.44 156.847C791.145 156.847 790.998 156.989 790.704 157.132C790.556 157.275 790.409 157.418 790.409 157.703V157.846C790.409 157.988 790.409 158.131 790.556 158.274C790.556 158.417 790.556 158.417 790.556 158.559C790.704 158.988 790.704 159.416 790.704 159.844C790.704 159.987 790.556 160.13 790.556 160.13V160.272V160.558C790.114 160.558 789.672 160.7 789.23 160.7C787.168 161.129 785.548 162.128 784.222 163.413L783.927 163.27H783.78C783.633 163.27 783.633 163.27 783.485 163.127C783.191 162.984 782.896 162.699 782.602 162.413C782.602 162.271 782.454 162.271 782.454 162.271C782.307 162.128 782.16 161.985 782.16 161.842C782.16 161.842 782.012 161.842 782.012 161.7C781.718 161.7 781.57 161.557 781.423 161.557C781.128 161.557 780.981 161.7 780.834 161.842C780.539 162.128 780.687 162.699 780.981 162.842L781.128 162.984C781.276 163.127 781.423 163.127 781.57 163.27C781.718 163.27 781.718 163.413 781.865 163.413C782.16 163.555 782.602 163.841 782.896 164.126C783.043 164.269 783.043 164.412 783.043 164.554L783.338 164.84C783.338 164.983 783.191 164.983 783.191 164.983C782.012 166.838 781.423 169.122 781.865 171.263H781.423C781.423 171.406 781.276 171.406 781.128 171.549C780.687 171.691 780.245 171.691 779.803 171.834C779.655 171.834 779.655 171.834 779.508 171.834C779.361 171.834 779.213 171.834 779.066 171.834H778.919C778.919 171.834 778.919 171.834 778.771 171.834C778.33 171.977 778.035 172.262 778.182 172.691C778.33 172.976 778.624 173.261 778.919 173.261C779.066 173.261 779.066 173.261 779.066 173.261H779.213C779.361 173.261 779.508 173.119 779.655 173.119C779.95 173.119 779.95 172.976 780.097 172.976C780.539 172.833 780.981 172.691 781.423 172.691C781.57 172.691 781.718 172.691 781.718 172.833H782.012C782.602 174.546 783.78 176.116 785.253 177.258C785.548 177.544 785.99 177.686 786.284 177.972L786.137 178.257C786.284 178.4 786.284 178.543 786.137 178.686C785.99 179.114 785.695 179.399 785.548 179.827C785.548 179.97 785.4 179.97 785.4 179.97C785.253 180.113 785.253 180.256 785.106 180.398C785.106 180.398 785.106 180.541 784.958 180.541C784.811 180.969 784.958 181.398 785.253 181.54C785.548 181.683 785.695 181.683 785.842 181.683C786.137 181.683 786.432 181.54 786.579 181.255C786.579 181.255 786.579 181.112 786.726 181.112C786.726 180.969 786.873 180.827 786.873 180.684L787.021 180.398C787.168 179.97 787.315 179.542 787.463 179.257C787.61 179.114 787.61 179.114 787.757 178.971L787.905 178.686C789.083 179.114 790.114 179.257 791.293 179.257C792.029 179.257 792.766 179.114 793.502 178.971C793.944 178.828 794.386 178.686 794.828 178.686L794.975 178.971C795.123 178.971 795.27 179.114 795.27 179.257C795.417 179.685 795.712 179.97 795.712 180.398L795.859 180.684C795.859 180.827 796.007 180.969 796.007 181.112C796.007 181.112 796.007 181.255 796.154 181.255C796.301 181.54 796.596 181.683 796.89 181.683C797.038 181.683 797.038 181.683 797.185 181.54C797.332 181.398 797.48 181.255 797.48 181.112C797.48 180.969 797.48 180.684 797.48 180.541C797.48 180.541 797.48 180.398 797.332 180.398C797.185 180.256 797.185 180.113 797.038 179.97C797.038 179.827 796.89 179.827 796.89 179.827V179.685C796.596 179.399 796.449 178.971 796.301 178.543C796.301 178.4 796.301 178.257 796.301 178.115L796.154 177.829C798.216 176.687 799.689 174.832 800.426 172.548H800.721C800.868 172.405 800.868 172.405 801.015 172.405C801.457 172.548 801.899 172.548 802.341 172.691C802.488 172.691 802.488 172.833 802.636 172.833C802.783 172.976 802.93 172.976 803.077 172.976H803.225C803.225 172.976 803.225 172.976 803.372 172.976C803.519 172.976 803.519 172.976 803.519 172.976C803.814 172.976 804.256 172.691 804.256 172.405C804.403 172.405 804.109 172.12 803.814 171.977ZM792.324 170.835L791.293 171.263L790.262 170.835L789.967 169.693L790.704 168.837H791.882L792.619 169.693L792.324 170.835ZM798.805 168.266C798.953 169.122 799.1 169.836 798.953 170.692L795.123 169.693C794.828 169.55 794.534 169.265 794.681 168.979C794.681 168.837 794.828 168.837 794.828 168.694L797.774 166.125C798.216 166.696 798.658 167.552 798.805 168.266ZM796.596 164.697L793.355 166.981C793.06 167.124 792.619 167.124 792.471 166.838C792.324 166.696 792.324 166.696 792.324 166.553L792.029 162.699C793.944 162.699 795.417 163.555 796.596 164.697ZM789.525 162.699L790.262 162.556L790.114 166.41C790.114 166.696 789.82 166.981 789.378 166.981C789.23 166.981 789.23 166.981 789.083 166.838L785.842 164.697C786.873 163.698 788.052 162.984 789.525 162.699ZM784.664 166.125L787.61 168.694C787.905 168.979 787.905 169.265 787.757 169.55C787.61 169.693 787.61 169.693 787.463 169.693L783.633 170.835C783.338 169.122 783.78 167.409 784.664 166.125ZM783.927 172.548L787.905 171.834C788.199 171.834 788.494 171.977 788.641 172.262C788.641 172.405 788.641 172.548 788.641 172.691L787.168 176.259C785.695 175.403 784.517 174.118 783.927 172.548ZM792.913 177.258C792.324 177.401 791.735 177.401 791.145 177.401C790.262 177.401 789.378 177.258 788.641 176.973L790.556 173.547C790.704 173.261 790.998 173.261 791.293 173.404C791.44 173.547 791.44 173.547 791.587 173.69L793.502 176.973C793.502 177.115 793.208 177.258 792.913 177.258ZM797.774 173.975C797.185 174.832 796.301 175.688 795.417 176.259L793.944 172.691C793.797 172.405 794.092 172.12 794.239 171.977C794.386 171.977 794.534 171.834 794.534 171.834L798.511 172.548C798.364 172.976 798.069 173.547 797.774 173.975Z" fill="white"/>
<path d="M1144.11 172.97C1147.35 172.97 1150 170.258 1150 166.975C1150 164.12 1148.09 161.837 1145.43 161.123C1145.14 157.554 1142.05 154.7 1138.51 154.7C1136.3 154.7 1134.24 155.841 1132.91 157.412C1132.03 156.698 1130.85 156.27 1129.52 156.27C1126.43 156.27 1123.93 158.696 1123.93 161.694C1123.93 162.122 1123.93 162.55 1124.07 162.978C1122.16 163.978 1120.83 165.833 1120.83 167.832C1120.83 170.686 1123.19 172.97 1126.14 172.97H1144.11Z" fill="#83B5FC"/>
<path d="M1138.8 164.548L1135.56 159.267L1132.47 164.548H1134.53V169.544H1136.74V164.548H1138.8Z" fill="white"/>
<path d="M1143.07 184.389H1127.9C1127.46 184.389 1127.17 184.104 1127.17 183.676V167.974C1127.17 167.546 1127.46 167.261 1127.9 167.261H1143.07C1143.52 167.261 1143.81 167.546 1143.81 167.974V183.676C1143.66 184.104 1143.37 184.389 1143.07 184.389Z" fill="#8A21D6"/>
<path d="M1141.01 182.677H1129.82C1129.52 182.677 1129.38 182.392 1129.38 182.249V170.544C1129.38 170.259 1129.67 170.116 1129.82 170.116H1141.01C1141.31 170.116 1141.46 170.402 1141.46 170.544V182.249C1141.6 182.392 1141.31 182.677 1141.01 182.677Z" fill="white"/>
<path d="M1132.91 170.972H1130.56V181.678H1132.91V170.972Z" fill="#8A21D6"/>
<path d="M1136.74 170.972H1134.39V181.678H1136.74V170.972Z" fill="#8A21D6"/>
<path d="M1140.42 170.972H1138.07V181.678H1140.42V170.972Z" fill="#8A21D6"/>
<path d="M976.203 163.811C976.203 163.811 976.203 163.668 976.203 163.811L976.94 159.243L980.475 162.669L976.792 164.239C976.645 163.954 976.498 163.954 976.203 163.811ZM981.506 163.525L985.336 167.237C986.073 167.95 986.515 168.378 986.662 168.807V168.949L977.529 165.238H977.382C977.382 165.238 977.382 165.238 977.529 165.238L981.506 163.525ZM986.515 170.234C986.368 170.662 985.926 170.948 985.336 171.661L981.064 175.801L975.467 174.659H975.319C975.319 174.231 975.025 173.802 974.73 173.517C974.73 173.517 974.73 173.517 974.73 173.374L975.761 167.094V166.951C976.203 166.951 976.645 166.666 976.94 166.38C976.94 166.38 976.94 166.38 977.087 166.38L986.515 170.234ZM980.033 176.8L972.962 183.651L974.141 176.372C974.436 176.229 974.583 176.086 974.877 175.944C974.877 175.944 974.877 175.944 975.025 175.944L980.033 176.8ZM971.342 185.079L970.605 185.793L961.767 173.374C961.767 173.374 961.767 173.232 961.914 173.232L971.784 175.23C971.784 175.23 971.784 175.23 971.931 175.23C972.079 175.801 972.373 176.086 972.962 176.372C972.962 176.372 972.962 176.372 972.962 176.515C972.668 177.085 971.637 183.366 971.342 185.079ZM969.722 186.649C969.132 187.22 968.838 187.505 968.396 187.648C967.954 187.791 967.659 187.791 967.217 187.648C966.775 187.505 966.334 187.077 965.597 186.363L956.758 177.799L959.115 174.373C959.115 174.373 959.115 174.373 959.263 174.373C959.852 174.516 960.294 174.516 960.883 174.231C960.883 174.231 960.883 174.231 961.03 174.231L969.722 186.649ZM955.727 176.943L953.665 174.944L957.642 173.232L957.79 173.374L955.727 176.943ZM952.781 174.088L950.13 171.519C949.688 171.09 949.393 170.805 949.098 170.519L956.906 172.09H957.053C957.053 172.09 957.053 172.09 956.906 172.232L952.781 174.088ZM948.804 169.378C948.804 169.235 948.804 169.092 948.951 168.949C949.098 168.521 949.54 168.093 950.277 167.379L953.518 164.239C954.991 166.38 956.611 168.521 958.084 170.662V170.805C957.937 170.948 957.79 171.09 957.642 171.376L948.804 169.378ZM954.402 163.24L958.821 158.958C959.263 159.1 960.736 159.814 962.062 160.242C963.093 160.671 963.977 161.099 964.271 161.241C964.124 161.812 964.271 162.526 964.86 162.954C964.86 162.954 964.86 162.954 964.86 163.097L960.294 169.806C960.294 169.806 960.294 169.806 960.147 169.806C959.999 169.806 959.852 169.806 959.557 169.806C959.41 169.806 959.263 169.806 958.968 169.806L954.402 163.24ZM959.705 157.959L965.45 152.392C966.186 151.678 966.628 151.25 967.07 151.107C967.512 150.964 967.807 150.964 968.249 151.107C968.69 151.25 969.132 151.678 969.869 152.392L971.047 153.534L966.923 159.671C966.923 159.671 966.923 159.671 966.775 159.671C966.186 159.529 965.45 159.671 964.86 159.957C964.86 159.957 964.86 159.957 964.713 159.957C964.566 159.957 960.294 158.244 959.705 157.959ZM972.079 154.533L975.909 158.244L975.025 163.668C974.877 163.668 974.583 163.811 974.436 163.954L968.543 161.67H968.396C968.396 161.384 968.249 161.099 968.101 160.813V160.671L972.079 154.533ZM968.249 162.669L973.699 164.81C973.699 164.81 973.699 164.81 973.846 164.81C973.846 164.953 973.846 164.953 973.846 165.095V165.238C973.846 165.238 973.846 165.238 973.699 165.238C972.815 165.524 961.767 170.234 961.767 170.234C961.767 170.234 961.767 170.234 961.767 170.091L966.186 163.383C966.186 163.383 966.186 163.24 966.334 163.24C966.481 163.24 966.481 163.24 966.628 163.24C967.07 163.668 967.807 163.383 968.249 162.669C968.101 162.812 968.101 162.812 968.249 162.669C968.101 162.669 968.249 162.669 968.249 162.669ZM962.062 171.519L974.141 166.523L974.288 166.666L973.257 172.803V172.946C972.668 172.946 972.226 173.232 971.931 173.802L962.209 171.804C962.209 172.09 962.062 171.519 962.062 171.519Z" fill="url(#paint0_radial)"/>
<path d="M1047.81 233.315C1046.77 233.315 1045.74 233.886 1045.15 234.743L1038.23 246.305C1037.64 247.161 1037.64 248.303 1038.23 249.159L1045.15 260.864C1045.74 261.72 1046.63 262.434 1047.81 262.434H1061.51C1062.54 262.434 1063.57 261.863 1064.16 260.864L1071.08 249.302C1071.38 248.874 1071.52 248.303 1071.52 247.875C1071.52 247.304 1071.38 246.876 1071.08 246.447L1064.16 234.886C1063.57 234.029 1062.68 233.458 1061.51 233.458H1047.81V233.315Z" fill="#4285F4"/>
<path d="M1068.88 253.013L1064.16 261.007C1063.57 261.863 1062.69 262.577 1061.51 262.577H1056.21L1048.55 255.155L1050.76 248.16L1048.55 241.023L1050.9 242.594L1054 245.591L1052.52 241.023L1063.43 248.16L1068.88 253.013Z" fill="black" fill-opacity="0.07"/>
<path d="M1048.69 240.88L1051.05 242.45L1052.82 248.16L1051.05 253.584L1048.69 255.154L1050.9 248.017L1048.69 240.88ZM1054.58 243.307L1055.76 246.875H1060.03L1054.58 243.307ZM1063.57 247.874L1052.67 255.011L1054.88 247.874L1052.67 240.737L1063.57 247.874Z" fill="white"/>
<path d="M1129.89 249.945C1131.2 249.945 1132.27 248.914 1132.27 247.642C1132.27 246.37 1131.2 245.338 1129.89 245.338C1128.57 245.338 1127.5 246.37 1127.5 247.642C1127.5 248.914 1128.57 249.945 1129.89 249.945Z" fill="#BDBEC2"/>
<path d="M1138.44 249.945C1139.75 249.945 1140.82 248.914 1140.82 247.641C1140.82 246.369 1139.75 245.338 1138.44 245.338C1137.12 245.338 1136.06 246.369 1136.06 247.641C1136.06 248.914 1137.12 249.945 1138.44 249.945Z" fill="#BDBEC2"/>
<path d="M1147.1 249.945C1148.41 249.945 1149.48 248.914 1149.48 247.641C1149.48 246.369 1148.41 245.338 1147.1 245.338C1145.78 245.338 1144.72 246.369 1144.72 247.641C1144.72 248.914 1145.78 249.945 1147.1 249.945Z" fill="#BDBEC2"/>
<path d="M1041.68 179.189L1038.29 179.902V158.349L1041.68 159.062V179.189Z" fill="#F68536"/>
<path d="M1045.95 180.473L1041.68 181.615V156.635L1045.95 157.777V180.473ZM1051.4 181.757L1045.95 183.756V154.637L1051.4 156.635V181.757ZM1066.13 179.188L1051.4 186.325V151.925L1066.13 159.062V179.188Z" fill="#F68536"/>
<path d="M1048.45 153.352L1051.4 151.925V186.468L1048.45 185.04V153.352ZM1043.59 155.636L1045.8 154.494V183.613L1043.59 182.471V155.636ZM1039.76 157.492L1041.53 156.635V181.615L1039.76 180.758V157.492ZM1038.14 158.348L1036.67 159.062V179.331L1038.14 180.044V158.348Z" fill="#9D5025"/>
<path d="M988.233 244.048C988.125 243.962 987.122 243.205 985.006 243.205C984.448 243.207 983.89 243.255 983.339 243.348C982.93 240.542 980.61 239.173 980.506 239.112L979.937 238.784L979.564 239.323C979.096 240.048 978.754 240.846 978.554 241.685C978.175 243.287 978.405 244.792 979.219 246.078C978.236 246.626 976.66 246.761 976.341 246.772H950.24C949.559 246.773 949.005 247.324 949.002 248.006C948.971 250.293 949.359 252.566 950.145 254.713C951.044 257.071 952.382 258.808 954.122 259.871C956.072 261.065 959.24 261.747 962.832 261.747C964.454 261.752 966.074 261.606 967.669 261.309C969.886 260.902 972.02 260.127 973.981 259.016C975.598 258.08 977.053 256.889 978.289 255.489C980.357 253.148 981.589 250.541 982.505 248.224C982.628 248.224 982.751 248.224 982.87 248.224C985.134 248.224 986.527 247.318 987.294 246.559C987.805 246.075 988.203 245.485 988.461 244.831L988.624 244.357L988.233 244.048Z" fill="#2496ED"/>
<path d="M952.662 246.032H956.159C956.328 246.032 956.465 245.895 956.465 245.727V242.611C956.466 242.442 956.33 242.305 956.161 242.304C956.16 242.304 956.16 242.304 956.159 242.304H952.662C952.493 242.304 952.356 242.441 952.356 242.609C952.356 242.61 952.356 242.611 952.356 242.611V245.727C952.356 245.895 952.493 246.032 952.662 246.032Z" fill="#2496ED"/>
<path d="M957.483 246.032H960.981C961.149 246.032 961.286 245.895 961.286 245.727V242.611C961.287 242.442 961.151 242.305 960.982 242.304C960.982 242.304 960.981 242.304 960.981 242.304H957.483C957.313 242.304 957.176 242.442 957.176 242.611V245.727C957.177 245.896 957.314 246.032 957.483 246.032Z" fill="#2496ED"/>
<path d="M962.356 246.032H965.854C966.023 246.032 966.159 245.895 966.159 245.726V242.611C966.16 242.442 966.024 242.305 965.855 242.304C965.855 242.304 965.854 242.304 965.854 242.304H962.356C962.187 242.304 962.051 242.44 962.051 242.609C962.051 242.61 962.051 242.61 962.051 242.611V245.726C962.051 245.895 962.188 246.032 962.356 246.032Z" fill="#2496ED"/>
<path d="M967.173 246.032H970.67C970.839 246.032 970.976 245.895 970.977 245.726V242.611C970.977 242.441 970.84 242.304 970.67 242.304H967.173C967.004 242.304 966.867 242.44 966.867 242.609C966.867 242.61 966.867 242.61 966.867 242.611V245.726C966.867 245.895 967.004 246.032 967.173 246.032Z" fill="#2496ED"/>
<path d="M957.483 241.537H960.981C961.149 241.536 961.286 241.399 961.286 241.23V238.114C961.286 237.946 961.149 237.809 960.981 237.809H957.483C957.314 237.809 957.177 237.945 957.176 238.114V241.23C957.177 241.399 957.314 241.536 957.483 241.537Z" fill="#2496ED"/>
<path d="M962.356 241.536H965.854C966.023 241.536 966.159 241.398 966.159 241.229V238.114C966.159 237.945 966.022 237.809 965.854 237.809H962.356C962.187 237.809 962.051 237.945 962.051 238.114V241.229C962.051 241.398 962.187 241.536 962.356 241.536Z" fill="#2496ED"/>
<path d="M967.173 241.536H970.67C970.839 241.536 970.976 241.399 970.977 241.229V238.114C970.976 237.945 970.839 237.809 970.67 237.809H967.173C967.004 237.809 966.867 237.945 966.867 238.114V241.229C966.867 241.398 967.004 241.536 967.173 241.536Z" fill="#2496ED"/>
<path d="M967.173 237.042H970.67C970.839 237.042 970.976 236.906 970.977 236.737V233.62C970.976 233.451 970.839 233.314 970.67 233.314H967.173C967.004 233.314 966.867 233.451 966.867 233.62V236.737C966.867 236.906 967.004 237.042 967.173 237.042Z" fill="#2496ED"/>
<path d="M972.102 246.032H975.6C975.769 246.032 975.906 245.896 975.907 245.727V242.611C975.907 242.442 975.77 242.304 975.6 242.304H972.102C971.934 242.304 971.797 242.441 971.797 242.609C971.797 242.61 971.797 242.611 971.797 242.611V245.727C971.797 245.895 971.934 246.032 972.102 246.032Z" fill="#2496ED"/>
<path fill-rule="evenodd" clip-rule="evenodd" d="M22.1046 173.29L6.55591 182.638L26.6496 181.2L28.2045 160.826L22.1046 173.29Z" fill="url(#paint1_linear)"/>
<path fill-rule="evenodd" clip-rule="evenodd" d="M26.6503 181.201L24.9759 169.216L20.1917 175.448L26.6503 181.201Z" fill="url(#paint2_linear)"/>
<path fill-rule="evenodd" clip-rule="evenodd" d="M26.7692 181.201L13.9714 180.242L6.55591 182.519L26.7692 181.201Z" fill="url(#paint3_linear)"/>
<path fill-rule="evenodd" clip-rule="evenodd" d="M6.55443 182.519L9.78377 172.212L2.72705 173.65L6.55443 182.519Z" fill="url(#paint4_linear)"/>
<path fill-rule="evenodd" clip-rule="evenodd" d="M20.1929 175.448L17.3224 164.063L8.95001 171.853L20.1929 175.448Z" fill="url(#paint5_linear)"/>
<path fill-rule="evenodd" clip-rule="evenodd" d="M27.6055 164.183L19.7115 157.711L17.439 164.902L27.6055 164.183Z" fill="url(#paint6_linear)"/>
<path fill-rule="evenodd" clip-rule="evenodd" d="M23.8975 155.434L19.2329 157.951L16.2427 155.434H23.8975Z" fill="url(#paint7_linear)"/>
<path fill-rule="evenodd" clip-rule="evenodd" d="M0.934387 177.126L2.84807 173.531L1.2932 169.336L0.934387 177.126Z" fill="url(#paint8_linear)"/>
<path fill-rule="evenodd" clip-rule="evenodd" d="M1.17267 169.216L2.72754 173.77L9.66466 172.212L17.5586 164.902L19.8311 157.831L16.3626 155.314L10.2627 157.591C8.349 159.389 4.76083 162.744 4.64123 162.864C4.52162 162.864 2.24912 167.179 1.17267 169.216Z" fill="white"/>
<path fill-rule="evenodd" clip-rule="evenodd" d="M6.7955 161.187C10.8621 157.112 16.1247 154.835 18.0384 156.752C20.0717 158.79 17.9188 163.703 13.8522 167.778C9.78563 171.853 4.6426 174.369 2.60931 172.332C0.695618 170.175 2.72891 165.141 6.7955 161.187Z" fill="url(#paint9_linear)"/>
<path fill-rule="evenodd" clip-rule="evenodd" d="M6.55591 182.519L9.66565 172.092L20.0713 175.448C16.3636 179.043 12.1774 182.039 6.55591 182.519Z" fill="url(#paint10_linear)"/>
<path fill-rule="evenodd" clip-rule="evenodd" d="M17.559 164.782L20.1903 175.448C23.3001 172.092 26.1706 168.497 27.6059 164.063L17.559 164.782Z" fill="url(#paint11_linear)"/>
<path fill-rule="evenodd" clip-rule="evenodd" d="M27.6056 164.183C28.6821 160.947 28.9213 156.273 23.8979 155.434L19.7117 157.711L27.6056 164.183Z" fill="url(#paint12_linear)"/>
<path fill-rule="evenodd" clip-rule="evenodd" d="M0.934387 177.126C1.05399 182.519 5.00097 182.519 6.55584 182.639L2.72847 173.77L0.934387 177.126Z" fill="#9E1209"/>
<path fill-rule="evenodd" clip-rule="evenodd" d="M17.559 164.902C19.9511 166.34 24.855 169.456 24.9746 169.456C25.0942 169.576 27.1275 166.1 27.4863 164.183L17.559 164.902Z" fill="url(#paint13_radial)"/>
<path fill-rule="evenodd" clip-rule="evenodd" d="M9.78595 172.092L13.9721 180.242C16.4839 178.923 18.3975 177.246 20.1916 175.448L9.78595 172.092Z" fill="url(#paint14_radial)"/>
<path fill-rule="evenodd" clip-rule="evenodd" d="M2.7287 173.65L2.13068 180.841C3.20713 182.399 4.762 182.519 6.43647 182.399C5.24042 179.403 2.96791 173.531 2.7287 173.65Z" fill="url(#paint15_linear)"/>
<path fill-rule="evenodd" clip-rule="evenodd" d="M19.7117 157.711L28.0841 158.909C27.6056 156.992 26.29 155.793 23.8979 155.434L19.7117 157.711Z" fill="url(#paint16_linear)"/>
<path fill-rule="evenodd" clip-rule="evenodd" d="M186.318 157.352C186.198 157.352 186.198 157.352 186.198 157.352C186.079 157.471 186.079 157.471 186.079 157.711V166.58C186.079 166.699 186.079 166.699 185.959 166.819C185.839 166.819 185.839 166.819 185.72 166.819L184.284 165.98C184.045 165.861 183.806 165.861 183.567 165.98L177.826 169.336C177.587 169.456 177.467 169.696 177.467 169.935V176.647C177.467 176.886 177.587 177.126 177.826 177.246L183.567 180.601C183.806 180.721 184.045 180.721 184.284 180.601L190.026 177.246C190.265 177.126 190.384 176.886 190.384 176.647V159.868C190.384 159.629 190.265 159.389 190.026 159.269L186.557 157.352C186.437 157.352 186.318 157.352 186.318 157.352ZM149.001 165.621C148.881 165.621 148.762 165.621 148.642 165.741L142.901 169.096C142.662 169.216 142.542 169.456 142.542 169.696V178.684C142.542 178.804 142.662 178.924 142.662 179.043C142.781 179.163 142.901 179.163 143.021 179.043L146.489 177.126C146.728 177.006 146.848 176.766 146.848 176.527V172.332C146.848 172.092 146.968 171.853 147.207 171.733L148.642 170.894C148.762 170.774 148.881 170.774 149.001 170.774C149.12 170.774 149.24 170.774 149.36 170.894L150.795 171.733C151.034 171.853 151.154 172.092 151.154 172.332V176.527C151.154 176.766 151.273 177.006 151.513 177.126L154.981 179.043C155.101 179.163 155.22 179.163 155.34 179.043C155.46 178.924 155.46 178.924 155.46 178.684V169.696C155.46 169.456 155.34 169.216 155.101 169.096L149.36 165.741C149.36 165.741 149.24 165.621 149.001 165.621ZM201.029 165.741C200.91 165.741 200.79 165.741 200.67 165.861L194.929 169.216C194.69 169.336 194.571 169.576 194.571 169.815V176.527C194.571 176.766 194.69 177.006 194.929 177.126L200.67 180.362C200.91 180.482 201.149 180.482 201.388 180.362L204.857 178.444C204.976 178.324 205.096 178.324 205.096 178.085C205.096 177.965 204.976 177.845 204.976 177.725L199.116 174.37C198.996 174.25 198.876 174.13 198.876 174.01V171.973C198.876 171.853 198.996 171.733 199.116 171.613L200.91 170.534C201.029 170.415 201.149 170.415 201.268 170.534L203.063 171.613C203.182 171.733 203.182 171.733 203.182 171.973V173.65C203.182 173.77 203.302 173.89 203.302 174.01C203.421 174.13 203.541 174.13 203.661 174.01L207.129 171.973C207.368 171.853 207.488 171.613 207.488 171.373V169.815C207.488 169.576 207.368 169.336 207.129 169.216L201.388 165.861C201.268 165.741 201.149 165.741 201.029 165.741ZM183.806 170.774L185.839 171.973L185.959 172.092V174.37C185.959 174.489 185.959 174.489 185.839 174.489L183.806 175.688H183.686L181.653 174.489L181.534 174.37V172.092C181.534 171.973 181.534 171.973 181.653 171.973L183.806 170.774C183.686 170.774 183.686 170.774 183.806 170.774Z" fill="black"/>
<path fill-rule="evenodd" clip-rule="evenodd" d="M218.369 165.621C218.13 165.621 218.01 165.621 217.771 165.741L212.269 168.857C211.91 169.097 211.671 169.456 211.671 169.816V176.167C211.671 176.527 211.91 177.006 212.269 177.126L213.824 177.965C214.542 178.325 214.781 178.325 215.14 178.325C216.216 178.325 216.694 177.725 216.694 176.647V170.415C216.694 170.295 216.575 170.295 216.575 170.295H215.857C215.738 170.295 215.738 170.415 215.738 170.415V176.647C215.738 177.126 215.259 177.606 214.422 177.246L212.987 176.407L212.867 176.287V169.936C212.867 169.816 212.867 169.816 212.987 169.816L218.489 166.7H218.608L224.11 169.816L224.23 169.936V176.287C224.23 176.407 224.23 176.407 224.11 176.407L218.608 179.523H218.489L217.053 178.684H216.934C216.575 178.924 216.455 178.924 216.096 179.044C215.977 179.044 215.857 179.164 216.096 179.283L217.89 180.362C218.01 180.482 218.249 180.482 218.489 180.482C218.728 180.482 218.847 180.482 219.087 180.362L224.588 177.246C224.947 177.006 225.186 176.647 225.186 176.287V169.936C225.186 169.576 224.947 169.097 224.588 168.977L219.087 165.861C218.847 165.621 218.608 165.621 218.369 165.621Z" fill="#83CD29"/>
<path fill-rule="evenodd" clip-rule="evenodd" d="M166.461 165.741C166.341 165.741 166.222 165.741 166.102 165.861L160.361 169.217C160.122 169.336 160.002 169.576 160.002 169.816V176.527C160.002 176.767 160.122 177.007 160.361 177.126L166.102 180.482C166.341 180.602 166.581 180.602 166.82 180.482L172.561 177.126C172.8 177.007 172.92 176.767 172.92 176.527V169.816C172.92 169.576 172.8 169.336 172.561 169.217L166.82 165.861C166.7 165.741 166.581 165.741 166.461 165.741Z" fill="#83CD29"/>
<path fill-rule="evenodd" clip-rule="evenodd" d="M219.923 170.056C218.369 170.056 217.412 170.775 217.412 171.853C217.412 173.052 218.369 173.411 219.804 173.531C221.598 173.651 221.717 174.011 221.717 174.37C221.717 174.969 221.239 175.209 220.043 175.209C218.608 175.209 218.249 174.849 218.129 174.13C218.129 174.011 218.01 174.011 218.01 174.011H217.412C217.292 174.011 217.292 174.13 217.292 174.13C217.292 175.089 217.771 176.168 220.163 176.168C221.837 176.168 222.914 175.449 222.914 174.25C222.914 173.052 222.076 172.692 220.402 172.572C218.727 172.333 218.488 172.213 218.488 171.853C218.488 171.494 218.608 171.134 219.923 171.134C221 171.134 221.478 171.374 221.598 172.093C221.598 172.213 221.717 172.213 221.717 172.213H222.435H222.555V172.093C222.435 170.655 221.598 170.056 219.923 170.056Z" fill="#83CD29"/>
<path fill-rule="evenodd" clip-rule="evenodd" d="M201.029 171.733L199.833 172.452L199.713 172.572V173.89C199.713 173.89 199.713 174.01 199.833 174.01L200.909 174.609H201.029L202.105 174.01L202.225 173.89V172.572C202.225 172.572 202.225 172.452 202.105 172.452L201.029 171.733C201.148 171.733 201.029 171.733 201.029 171.733Z" fill="#83CD29"/>
<path d="M256.409 164.781C256.289 164.781 256.289 164.781 256.289 164.661L256.887 163.942C256.887 163.822 257.126 163.822 257.246 163.822H267.054C267.173 163.822 267.173 163.942 267.173 163.942L266.695 164.661C266.695 164.781 266.455 164.781 266.455 164.781H256.409Z" fill="#2DBCAF"/>
<path d="M252.35 167.299C252.23 167.299 252.23 167.299 252.23 167.179L252.828 166.46C252.828 166.341 253.068 166.341 253.187 166.341H265.746C265.865 166.341 265.865 166.46 265.865 166.46L265.626 167.179C265.626 167.299 265.507 167.299 265.387 167.299H252.35Z" fill="#2DBCAF"/>
<path d="M258.928 169.814C258.809 169.814 258.809 169.694 258.809 169.694L259.167 168.975C259.167 168.855 259.287 168.855 259.407 168.855H264.909C265.028 168.855 265.028 168.975 265.028 169.095V169.814C265.028 169.934 264.909 170.054 264.789 170.054L258.928 169.814Z" fill="#2DBCAF"/>
<path d="M287.384 164.302C285.71 164.781 284.514 165.021 282.72 165.5C282.361 165.62 282.241 165.62 281.883 165.26C281.524 164.781 281.165 164.541 280.567 164.182C278.892 163.343 277.218 163.583 275.544 164.541C273.63 165.74 272.673 167.537 272.793 169.814C272.793 171.972 274.347 173.769 276.5 174.129C278.414 174.369 279.969 173.769 281.165 172.331C281.404 171.972 281.643 171.732 281.883 171.372C280.926 171.372 279.61 171.372 276.62 171.372C276.022 171.372 275.902 171.013 276.142 170.534C276.5 169.695 277.098 168.257 277.577 167.537C277.696 167.418 277.816 167.058 278.294 167.058C279.73 167.058 284.873 167.058 288.222 167.058C288.222 167.777 288.222 168.496 288.102 169.335C287.743 171.372 287.026 173.17 285.83 174.728C283.796 177.365 281.285 178.923 278.055 179.402C275.424 179.762 272.912 179.282 270.64 177.604C268.606 176.046 267.41 174.009 267.171 171.492C266.812 168.496 267.65 165.86 269.444 163.463C271.357 160.946 273.989 159.268 277.098 158.669C279.73 158.19 282.122 158.549 284.394 159.987C285.83 160.946 286.906 162.264 287.624 163.822C287.863 164.062 287.743 164.182 287.384 164.302Z" fill="#2DBCAF"/>
<path d="M296.477 179.522C293.965 179.522 291.693 178.803 289.779 177.125C288.104 175.687 287.148 173.89 286.789 171.852C286.31 168.736 287.148 165.98 289.061 163.583C291.095 160.946 293.487 159.628 296.716 159.029C299.467 158.549 302.098 158.789 304.49 160.467C306.643 161.905 307.959 163.942 308.318 166.579C308.796 170.294 307.72 173.29 305.208 175.927C303.414 177.725 301.141 178.923 298.63 179.402C298.032 179.402 297.194 179.402 296.477 179.522ZM303.055 168.377C303.055 168.017 303.055 167.777 302.935 167.418C302.457 164.661 299.945 163.103 297.314 163.703C294.802 164.302 293.128 165.86 292.53 168.497C292.051 170.654 293.128 172.811 295.042 173.65C296.596 174.369 298.032 174.249 299.467 173.53C301.739 172.571 302.935 170.774 303.055 168.377Z" fill="#2DBCAF"/>
<path d="M359.867 151C358.552 151 357.236 151.12 356.16 151.36C352.93 151.959 352.332 153.157 352.332 155.434V158.43H360.106V159.389H349.462C347.189 159.389 345.275 160.707 344.558 163.344C343.84 166.34 343.84 168.138 344.558 171.254C345.156 173.531 346.471 175.209 348.624 175.209H351.256V171.613C351.256 169.097 353.528 166.82 356.16 166.82H363.934C366.087 166.82 367.761 165.022 367.761 162.865V155.314C367.761 153.157 365.967 151.599 363.934 151.24C362.618 151.12 361.183 151 359.867 151ZM355.681 153.397C356.518 153.397 357.116 154.116 357.116 154.835C357.116 155.674 356.518 156.273 355.681 156.273C354.844 156.273 354.246 155.554 354.246 154.835C354.246 153.996 354.844 153.397 355.681 153.397Z" fill="url(#paint17_linear)"/>
<path d="M368.838 159.27V162.745C368.838 165.382 366.565 167.659 363.934 167.659H356.159C354.006 167.659 352.332 169.456 352.332 171.614V179.044C352.332 181.201 354.126 182.4 356.159 182.999C358.671 183.718 360.944 183.838 363.934 182.999C365.847 182.4 367.761 181.321 367.761 179.044V176.048H359.987V175.089H371.588C373.861 175.089 374.698 173.531 375.416 171.134C376.253 168.737 376.133 166.34 375.416 163.225C374.818 160.947 373.741 159.27 371.588 159.27H368.838ZM364.412 178.085C365.249 178.085 365.847 178.804 365.847 179.523C365.847 180.362 365.249 180.962 364.412 180.962C363.575 180.962 362.977 180.242 362.977 179.523C362.977 178.685 363.575 178.085 364.412 178.085Z" fill="url(#paint18_linear)"/>
<path opacity="0.444" d="M349.699 188.032C349.699 186.953 354.364 185.995 360.105 185.995C365.846 185.995 370.511 186.953 370.511 188.032" fill="url(#paint19_radial)"/>
<path d="M103.911 168.977C103.911 166.82 101.4 164.902 97.4526 163.584C98.4094 159.509 97.931 156.153 96.1369 155.075C95.7781 154.835 95.2997 154.715 94.7017 154.715V156.153C94.9409 156.153 95.1801 156.153 95.4193 156.273C96.2565 156.753 96.6153 158.67 96.3761 161.187C96.2565 161.786 96.1369 162.385 96.0173 163.104C94.8213 162.745 93.386 162.505 91.9507 162.385C91.1135 161.187 90.1566 160.108 89.3194 159.15C91.3527 157.232 93.2664 156.153 94.5821 156.153V154.835C92.788 154.835 90.5155 156.153 88.243 158.311C85.9705 156.153 83.6979 154.835 81.9039 154.835V156.273C83.2195 156.273 85.1332 157.352 87.1665 159.269C86.3293 160.228 85.3724 161.307 84.5352 162.505C83.0999 162.625 81.7843 162.865 80.4686 163.224C80.349 162.625 80.2294 161.906 80.1098 161.307C79.8706 158.79 80.2294 156.873 81.0666 156.393C81.3058 156.273 81.5451 156.273 81.7843 156.273V154.835C81.3058 154.835 80.8274 154.955 80.349 155.195C78.5549 156.273 78.1961 159.509 79.0333 163.584C75.0864 164.782 72.5746 166.82 72.5746 168.977C72.5746 171.134 75.0864 173.052 79.0333 174.37C78.0765 178.445 78.5549 181.8 80.349 182.879C80.7078 183.119 81.1862 183.238 81.7843 183.238C83.5783 183.238 85.8509 181.92 88.1234 179.763C90.3959 181.92 92.6684 183.238 94.4624 183.238C94.9409 183.238 95.4193 183.119 95.8977 182.879C97.6918 181.8 98.0506 178.564 97.2134 174.49C101.4 173.052 103.911 171.014 103.911 168.977ZM95.6585 164.662C95.4193 165.501 95.1801 166.34 94.8213 167.179C94.582 166.7 94.3428 166.101 93.984 165.621C93.7448 165.142 93.386 164.543 93.0272 164.063C93.984 164.303 94.8213 164.423 95.6585 164.662ZM92.788 171.494C92.3095 172.333 91.8311 173.171 91.2331 174.01C90.2763 174.13 89.3194 174.13 88.3626 174.13C87.4057 174.13 86.4489 174.13 85.492 174.01C85.0136 173.291 84.4156 172.452 83.9372 171.494C83.4587 170.655 82.9803 169.816 82.6215 168.857C82.9803 168.018 83.4587 167.059 83.9372 166.22C84.4156 165.382 84.894 164.543 85.492 163.704C86.4489 163.584 87.4057 163.584 88.3626 163.584C89.3194 163.584 90.2763 163.584 91.2331 163.704C91.7115 164.423 92.3095 165.262 92.788 166.22C93.2664 167.059 93.7448 167.898 94.1036 168.857C93.7448 169.816 93.2664 170.655 92.788 171.494ZM94.8213 170.655C95.1801 171.494 95.4193 172.452 95.6585 173.291C94.8213 173.531 93.984 173.651 93.0272 173.771C93.386 173.291 93.6252 172.812 93.984 172.213C94.3428 171.733 94.582 171.254 94.8213 170.655ZM88.4822 177.606C87.8841 177.006 87.2861 176.287 86.6881 175.568C87.2861 175.568 87.8841 175.568 88.4822 175.568C89.0802 175.568 89.6782 175.568 90.2762 175.568C89.5586 176.287 89.0802 177.006 88.4822 177.606ZM83.6979 173.771C82.8607 173.651 81.9039 173.411 81.0666 173.291C81.3058 172.452 81.545 171.613 81.9039 170.775C82.1431 171.254 82.3823 171.853 82.7411 172.333C83.0999 172.812 83.4587 173.291 83.6979 173.771ZM88.3626 160.348C88.9606 160.947 89.5586 161.666 90.1566 162.385C89.5586 162.385 88.9606 162.385 88.3626 162.385C87.7645 162.385 87.1665 162.385 86.5685 162.385C87.2861 161.666 87.8841 160.947 88.3626 160.348ZM83.6979 164.183C83.3391 164.662 83.0999 165.142 82.7411 165.741C82.5019 166.22 82.1431 166.82 81.9039 167.299C81.545 166.46 81.3058 165.501 81.0666 164.662C81.9039 164.423 82.8607 164.303 83.6979 164.183ZM78.0765 172.213C75.804 171.254 74.3687 169.936 74.3687 168.977C74.3687 168.018 75.804 166.7 78.0765 165.741C78.6745 165.501 79.2725 165.262 79.8706 165.142C80.2294 166.46 80.7078 167.778 81.3058 169.097C80.7078 170.415 80.2294 171.733 79.8706 173.052C79.1529 172.692 78.5549 172.452 78.0765 172.213ZM81.4255 181.561C80.5882 181.081 80.2294 179.164 80.4686 176.647C80.5882 176.048 80.7078 175.448 80.8274 174.729C82.0235 175.089 83.4587 175.329 84.894 175.448C85.7312 176.647 86.6881 177.726 87.5253 178.684C85.492 180.602 83.5783 181.68 82.2627 181.68C81.9039 181.68 81.6647 181.68 81.4255 181.561ZM96.3761 176.527C96.6153 179.044 96.2565 180.961 95.4193 181.441C95.1801 181.561 94.9409 181.561 94.7017 181.561C93.386 181.561 91.4723 180.482 89.439 178.564C90.2763 177.606 91.2331 176.527 92.0703 175.329C93.5056 175.209 94.8213 174.969 96.1369 174.61C96.2565 175.329 96.3761 175.928 96.3761 176.527ZM98.8878 172.213C98.2898 172.452 97.6918 172.692 97.0938 172.812C96.7349 171.494 96.2565 170.175 95.6585 168.857C96.2565 167.539 96.7349 166.22 97.0938 164.902C97.6918 165.142 98.2898 165.382 98.8878 165.621C101.16 166.58 102.596 167.898 102.596 168.857C102.476 169.936 101.041 171.254 98.8878 172.213Z" fill="#61DAFB"/>
<path d="M88.3631 171.974C89.9485 171.974 91.2337 170.633 91.2337 168.978C91.2337 167.323 89.9485 165.982 88.3631 165.982C86.7778 165.982 85.4926 167.323 85.4926 168.978C85.4926 170.633 86.7778 171.974 88.3631 171.974Z" fill="#61DAFB"/>
<path d="M101.272 232.375H112.275V233.214H102.348V239.805H111.677V240.644H102.348V247.835H112.395V248.674H101.391V232.375H101.272ZM113.232 232.375H114.428L119.571 239.566L124.834 232.375L132.01 223.267L120.289 240.404L126.389 248.794H125.193L119.691 241.123L114.189 248.794H112.993L119.093 240.404L113.232 232.375ZM126.748 233.334V232.495H139.187V233.334H133.446V248.794H132.489V233.334H126.748ZM87.6367 232.375H88.8328L106.176 258.261L98.9992 248.674L88.5936 233.573V248.674H87.6367V232.375ZM139.067 247.715C138.828 247.715 138.708 247.595 138.708 247.355C138.708 247.116 138.828 246.996 139.067 246.996C139.306 246.996 139.426 247.116 139.426 247.355C139.426 247.475 139.306 247.715 139.067 247.715ZM140.143 246.756H140.622C140.622 246.996 140.861 247.236 141.1 247.236C141.459 247.236 141.698 246.996 141.698 246.636V244.12H142.296V246.636C142.296 247.355 141.938 247.715 141.22 247.715C140.502 247.715 140.143 247.355 140.143 246.756ZM143.014 246.636H143.612C143.612 246.996 143.971 247.236 144.449 247.236C144.928 247.236 145.167 246.996 145.167 246.636C145.167 246.397 144.928 246.157 144.449 246.037L143.971 245.917C143.373 245.797 143.014 245.438 143.014 244.959C143.014 244.359 143.492 243.88 144.33 243.88C145.047 243.88 145.526 244.239 145.645 244.839H145.167C145.167 244.479 144.808 244.359 144.449 244.359C143.971 244.359 143.732 244.599 143.732 244.839C143.732 245.078 143.971 245.198 144.33 245.318L144.688 245.438C145.406 245.558 145.765 245.917 145.765 246.397C145.765 247.116 145.287 247.475 144.449 247.475C143.492 247.715 143.014 247.355 143.014 246.636Z" fill="black"/>
<path d="M17.582 220.216L0 226.448L2.75095 249.817L17.582 258.087L32.5327 249.817L35.164 226.448L17.582 220.216Z" fill="#DD0031"/>
<path d="M17.582 220.216V224.41V243.585V258.087L32.5327 249.817L35.164 226.448L17.582 220.216Z" fill="#C3002F"/>
<path d="M17.5833 224.41L6.69922 249.098H10.7658L12.9187 243.585H22.2479L24.4008 249.098H28.4674L17.5833 224.41ZM20.8126 240.11H14.3539L17.5833 232.32L20.8126 240.11Z" fill="white"/>
<path d="M199.827 243.161C201.281 243.161 202.459 241.98 202.459 240.524C202.459 239.068 201.281 237.887 199.827 237.887C198.374 237.887 197.196 239.068 197.196 240.524C197.196 241.98 198.374 243.161 199.827 243.161Z" fill="#BDBEC2"/>
<path d="M209.277 243.161C210.73 243.161 211.908 241.98 211.908 240.524C211.908 239.068 210.73 237.887 209.277 237.887C207.823 237.887 206.645 239.068 206.645 240.524C206.645 241.98 207.823 243.161 209.277 243.161Z" fill="#BDBEC2"/>
<path d="M218.843 243.161C220.296 243.161 221.474 241.98 221.474 240.524C221.474 239.068 220.296 237.887 218.843 237.887C217.39 237.887 216.212 239.068 216.212 240.524C216.212 241.98 217.39 243.161 218.843 243.161Z" fill="#BDBEC2"/>
<rect y="1" width="56" height="56" fill="#E3FCFD"/>
<rect x="1096" y="1" width="56" height="56" fill="#E3FCFD"/>
<line x1="84" y1="28" x2="1068" y2="28" stroke="#14C6CB" stroke-width="2"/>
<g filter="url(#filter0_d)">
<rect x="549" y="1" width="56" height="56" rx="2" fill="#14C6CB"/>
</g>
<path d="M594.273 18.0909L589.96 25.6667L585.648 18.0909H594.273Z" fill="white"/>
<path d="M571.25 23.1414H568.352L575.563 35.7677L572.688 40.8182L559.727 18.0909H574.125L581.312 30.7172L582.75 28.192L577 18.0909H582.75L585.624 23.1414L588.499 28.192L581.312 40.8182L571.25 23.1414Z" fill="white"/>
<path d="M1080 28L1066.5 35.7942L1066.5 20.2058L1080 28Z" fill="#14C6CB"/>
<path d="M72 28L85.5 20.2058L85.5 35.7942L72 28Z" fill="#14C6CB"/>
<defs>
<filter id="filter0_d" x="546" y="0" width="62" height="62" filterUnits="userSpaceOnUse" color-interpolation-filters="sRGB">
<feFlood flood-opacity="0" result="BackgroundImageFix"/>
<feColorMatrix in="SourceAlpha" type="matrix" values="0 0 0 0 0 0 0 0 0 0 0 0 0 0 0 0 0 0 127 0"/>
<feOffset dy="2"/>
<feGaussianBlur stdDeviation="1.5"/>
<feColorMatrix type="matrix" values="0 0 0 0 0.145098 0 0 0 0 0.160784 0 0 0 0 0.215686 0 0 0 0.08 0"/>
<feBlend mode="normal" in2="BackgroundImageFix" result="effect1_dropShadow"/>
<feBlend mode="normal" in="SourceGraphic" in2="effect1_dropShadow" result="shape"/>
</filter>
<radialGradient id="paint0_radial" cx="0" cy="0" r="1" gradientUnits="userSpaceOnUse" gradientTransform="translate(967.554 150.995) rotate(90) scale(36.7111 43.6453)">
<stop stop-color="#20C6B7"/>
<stop offset="1" stop-color="#4D9ABF"/>
</radialGradient>
<linearGradient id="paint1_linear" x1="24.9129" y1="185.076" x2="19.1379" y2="174.9" gradientUnits="userSpaceOnUse">
<stop stop-color="#FB7655"/>
<stop offset="0.41" stop-color="#E42B1E"/>
<stop offset="0.99" stop-color="#990000"/>
<stop offset="1" stop-color="#990000"/>
</linearGradient>
<linearGradient id="paint2_linear" x1="27.7818" y1="176.52" x2="20.3524" y2="171.544" gradientUnits="userSpaceOnUse">
<stop stop-color="#871101"/>
<stop offset="0.99" stop-color="#911209"/>
<stop offset="1" stop-color="#911209"/>
</linearGradient>
<linearGradient id="paint3_linear" x1="21.8441" y1="185.385" x2="14.4149" y2="180.409" gradientUnits="userSpaceOnUse">
<stop stop-color="#871101"/>
<stop offset="0.99" stop-color="#911209"/>
<stop offset="1" stop-color="#911209"/>
</linearGradient>
<linearGradient id="paint4_linear" x1="6.26331" y1="172.908" x2="7.41817" y2="180.399" gradientUnits="userSpaceOnUse">
<stop stop-color="white"/>
<stop offset="0.23" stop-color="#E57252"/>
<stop offset="0.46" stop-color="#DE3B20"/>
<stop offset="0.99" stop-color="#A60003"/>
<stop offset="1" stop-color="#A60003"/>
</linearGradient>
<linearGradient id="paint5_linear" x1="14.1787" y1="165.914" x2="14.6043" y2="173.559" gradientUnits="userSpaceOnUse">
<stop stop-color="white"/>
<stop offset="0.23" stop-color="#E4714E"/>
<stop offset="0.56" stop-color="#BE1A0D"/>
<stop offset="0.99" stop-color="#A80D00"/>
<stop offset="1" stop-color="#A80D00"/>
</linearGradient>
<linearGradient id="paint6_linear" x1="21.1969" y1="158.848" x2="22.4705" y2="164.326" gradientUnits="userSpaceOnUse">
<stop stop-color="white"/>
<stop offset="0.18" stop-color="#E46342"/>
<stop offset="0.4" stop-color="#C82410"/>
<stop offset="0.99" stop-color="#A80D00"/>
<stop offset="1" stop-color="#A80D00"/>
</linearGradient>
<linearGradient id="paint7_linear" x1="17.3222" y1="156.918" x2="22.7942" y2="154.188" gradientUnits="userSpaceOnUse">
<stop stop-color="white"/>
<stop offset="0.54" stop-color="#C81F11"/>
<stop offset="0.99" stop-color="#BF0905"/>
<stop offset="1" stop-color="#BF0905"/>
</linearGradient>
<linearGradient id="paint8_linear" x1="1.47213" y1="170.999" x2="1.92387" y2="175.513" gradientUnits="userSpaceOnUse">
<stop stop-color="white"/>
<stop offset="0.31" stop-color="#DE4024"/>
<stop offset="0.99" stop-color="#BF190B"/>
<stop offset="1" stop-color="#BF190B"/>
</linearGradient>
<linearGradient id="paint9_linear" x1="-1.62126" y1="176.734" x2="19.5765" y2="154.98" gradientUnits="userSpaceOnUse">
<stop stop-color="#BD0012"/>
<stop offset="0.07" stop-color="white"/>
<stop offset="0.17" stop-color="white"/>
<stop offset="0.27" stop-color="#C82F1C"/>
<stop offset="0.33" stop-color="#820C01"/>
<stop offset="0.46" stop-color="#A31601"/>
<stop offset="0.72" stop-color="#B31301"/>
<stop offset="0.99" stop-color="#E82609"/>
<stop offset="1" stop-color="#E82609"/>
</linearGradient>
<linearGradient id="paint10_linear" x1="14.5819" y1="178.932" x2="8.20859" y2="177.362" gradientUnits="userSpaceOnUse">
<stop stop-color="#8C0C01"/>
<stop offset="0.54" stop-color="#990C00"/>
<stop offset="0.99" stop-color="#A80D0E"/>
<stop offset="1" stop-color="#A80D0E"/>
</linearGradient>
<linearGradient id="paint11_linear" x1="25.5257" y1="171.269" x2="19.8551" y2="166.197" gradientUnits="userSpaceOnUse">
<stop stop-color="#7E110B"/>
<stop offset="0.99" stop-color="#9E0C00"/>
<stop offset="1" stop-color="#9E0C00"/>
</linearGradient>
<linearGradient id="paint12_linear" x1="27.605" y1="161.942" x2="24.7794" y2="158.927" gradientUnits="userSpaceOnUse">
<stop stop-color="#79130D"/>
<stop offset="0.99" stop-color="#9E120B"/>
<stop offset="1" stop-color="#9E120B"/>
</linearGradient>
<radialGradient id="paint13_radial" cx="0" cy="0" r="1" gradientUnits="userSpaceOnUse" gradientTransform="translate(20.7465 166.283) scale(6.93676 6.95064)">
<stop stop-color="#A80D00"/>
<stop offset="0.99" stop-color="#7E0E08"/>
<stop offset="1" stop-color="#7E0E08"/>
</radialGradient>
<radialGradient id="paint14_radial" cx="0" cy="0" r="1" gradientUnits="userSpaceOnUse" gradientTransform="translate(11.1413 175.443) scale(9.22146 9.23992)">
<stop stop-color="#A30C00"/>
<stop offset="0.99" stop-color="#800E08"/>
<stop offset="1" stop-color="#800E08"/>
</radialGradient>
<linearGradient id="paint15_linear" x1="4.60842" y1="182.563" x2="2.3021" y2="174.754" gradientUnits="userSpaceOnUse">
<stop stop-color="#8B2114"/>
<stop offset="0.43" stop-color="#9E100A"/>
<stop offset="0.99" stop-color="#B3100C"/>
<stop offset="1" stop-color="#B3100C"/>
</linearGradient>
<linearGradient id="paint16_linear" x1="22.2353" y1="156.678" x2="27.3902" y2="158.948" gradientUnits="userSpaceOnUse">
<stop stop-color="#B31000"/>
<stop offset="0.44" stop-color="#910F08"/>
<stop offset="0.99" stop-color="#791C12"/>
<stop offset="1" stop-color="#791C12"/>
</linearGradient>
<linearGradient id="paint17_linear" x1="343.231" y1="152.006" x2="361.161" y2="167.252" gradientUnits="userSpaceOnUse">
<stop stop-color="#5A9FD4"/>
<stop offset="1" stop-color="#306998"/>
</linearGradient>
<linearGradient id="paint18_linear" x1="367.843" y1="176.812" x2="361.404" y2="167.808" gradientUnits="userSpaceOnUse">
<stop stop-color="#FFD43B"/>
<stop offset="1" stop-color="#FFE873"/>
</linearGradient>
<radialGradient id="paint19_radial" cx="0" cy="0" r="1" gradientUnits="userSpaceOnUse" gradientTransform="translate(360.031 187.119) rotate(-90) scale(1.68162 7.37811)">
<stop stop-color="#B8B8B8" stop-opacity="0.498"/>
<stop offset="1" stop-color="#7F7F7F" stop-opacity="0"/>
</radialGradient>
</defs>
</svg>
