<svg viewBox="0 0 338 50" fill="none" xmlns="http://www.w3.org/2000/svg">
  <path d="M11.97 21.704c0 .497.051.9.142 1.196.104.296.234.619.415.968a.6.6 0 0 1 .091.31c0 .134-.078.268-.246.402l-.818.565a.61.61 0 0 1-.338.121c-.13 0-.26-.067-.389-.188a4.146 4.146 0 0 1-.467-.632 10.52 10.52 0 0 1-.403-.793c-1.012 1.237-2.284 1.855-3.816 1.855-1.09 0-1.96-.323-2.596-.968-.636-.645-.96-1.505-.96-2.58 0-1.143.389-2.07 1.18-2.77.792-.699 1.844-1.048 3.18-1.048.442 0 .896.04 1.377.107.48.067.973.175 1.492.296v-.981c0-1.022-.207-1.734-.61-2.151-.415-.417-1.116-.619-2.115-.619-.455 0-.922.054-1.402.175-.48.121-.948.27-1.402.457a3.647 3.647 0 0 1-.455.175.77.77 0 0 1-.207.04c-.182 0-.273-.134-.273-.416v-.659c0-.215.026-.376.09-.47.066-.095.183-.189.364-.283.455-.242 1-.443 1.636-.605a7.612 7.612 0 0 1 2.025-.255c1.545 0 2.674.363 3.4 1.089.715.726 1.078 1.828 1.078 3.307v4.355h.026ZM6.7 23.747c.427 0 .869-.08 1.336-.242a2.89 2.89 0 0 0 1.233-.86 2.16 2.16 0 0 0 .442-.86 4.99 4.99 0 0 0 .13-1.17v-.565a10.512 10.512 0 0 0-1.195-.228 9.444 9.444 0 0 0-1.22-.08c-.87 0-1.506.174-1.934.537-.428.363-.636.874-.636 1.546 0 .632.156 1.102.48 1.425.312.336.766.497 1.363.497Zm10.423 1.452c-.234 0-.39-.04-.494-.135-.104-.08-.194-.268-.272-.524l-3.05-10.39c-.079-.27-.118-.444-.118-.538 0-.215.104-.336.312-.336h1.272c.247 0 .415.04.506.134.104.08.182.269.26.524l2.18 8.899 2.026-8.899c.065-.269.142-.443.246-.524.104-.08.286-.134.52-.134h1.038c.247 0 .415.04.52.134.103.08.194.269.246.524l2.05 9.007 2.247-9.007c.077-.269.168-.443.26-.524.103-.08.272-.134.505-.134h1.208c.207 0 .324.107.324.336 0 .067-.013.134-.026.215-.013.08-.039.188-.09.336l-3.13 10.39c-.077.27-.168.444-.272.525-.103.08-.272.134-.493.134h-1.116c-.247 0-.416-.04-.52-.134-.103-.094-.194-.27-.246-.538l-2.012-8.67-2 8.657c-.064.268-.142.443-.246.537-.104.094-.285.135-.52.135h-1.115Zm16.68.363a8.31 8.31 0 0 1-2-.242c-.648-.162-1.155-.336-1.492-.538-.208-.12-.35-.255-.402-.376a.978.978 0 0 1-.078-.377v-.685c0-.283.104-.417.298-.417.078 0 .156.014.234.04.078.027.195.081.324.135.442.201.922.363 1.428.47a7.54 7.54 0 0 0 1.545.162c.818 0 1.454-.148 1.895-.444.441-.296.675-.726.675-1.277 0-.376-.117-.686-.35-.941-.234-.255-.675-.484-1.311-.699l-1.883-.605c-.947-.309-1.648-.766-2.076-1.371a3.277 3.277 0 0 1-.65-1.95c0-.564.117-1.061.351-1.491.234-.43.545-.807.935-1.102.389-.31.83-.538 1.35-.7a5.476 5.476 0 0 1 1.635-.228c.286 0 .584.014.87.054.298.04.571.094.844.148.26.067.506.134.74.215.233.08.415.161.545.242.181.107.311.215.39.336.077.107.116.255.116.443v.632c0 .282-.104.43-.299.43-.103 0-.272-.053-.493-.161-.74-.35-1.57-.524-2.492-.524-.74 0-1.324.12-1.727.376-.402.256-.61.645-.61 1.197 0 .376.13.698.39.954.26.255.74.51 1.428.74l1.843.604c.934.31 1.61.74 2.012 1.29.402.552.597 1.183.597 1.883 0 .578-.117 1.102-.337 1.559a3.59 3.59 0 0 1-.948 1.183c-.403.336-.883.578-1.441.752a5.976 5.976 0 0 1-1.856.283Z" fill="#000"/>
  <path fill-rule="evenodd" clip-rule="evenodd" d="M36.256 32.095c-4.27 3.266-10.475 5-15.81 5-7.477 0-14.214-2.863-19.303-7.621-.402-.377-.039-.888.442-.592 5.504 3.307 12.293 5.31 19.315 5.31 4.738 0 9.943-1.022 14.733-3.119.714-.336 1.324.484.623 1.022Z" fill="#F90"/>
  <path fill-rule="evenodd" clip-rule="evenodd" d="M38.035 29.998c-.546-.726-3.61-.35-4.998-.175-.415.054-.48-.323-.104-.605 2.44-1.774 6.452-1.264 6.919-.672.467.605-.13 4.758-2.415 6.748-.35.31-.688.148-.532-.255.52-1.331 1.675-4.329 1.13-5.041Z" fill="#F90"/>
  <path d="M78.868 6.174a2.5 2.5 0 0 0-.968.25l-13.21 6.447c-.342.167-.643.41-.88.71-.236.301-.403.652-.487 1.027l-3.26 14.48a2.59 2.59 0 0 0 .487 2.166l9.144 11.612c.237.3.537.543.879.71.342.167.717.253 1.096.253l14.664-.003a2.5 2.5 0 0 0 1.096-.253c.341-.166.642-.408.879-.709l9.14-11.613a2.575 2.575 0 0 0 .489-2.166l-3.265-14.481a2.575 2.575 0 0 0-.487-1.026 2.532 2.532 0 0 0-.88-.71L80.094 6.425a2.499 2.499 0 0 0-1.225-.25Z" fill="#326CE5"/>
  <path d="M78.999 11.103c-.437 0-.79.401-.79.897v.022c0 .068-.003.149 0 .207.01.286.07.505.107.768.067.564.123 1.031.088 1.465-.033.164-.151.314-.257.418l-.018.342a10.124 10.124 0 0 0-6.596 3.239c-.088-.061-.24-.173-.286-.207-.141.02-.284.064-.47-.047-.353-.243-.676-.58-1.066-.984-.178-.193-.308-.377-.52-.564-.048-.042-.122-.1-.176-.143a.929.929 0 0 0-.55-.212.755.755 0 0 0-.63.284c-.273.35-.186.882.194 1.191l.011.009c.053.043.116.098.164.134.226.17.431.257.656.392.473.298.865.546 1.176.844.121.132.142.365.159.466l.253.231a10.628 10.628 0 0 0-1.613 7.285l-.332.099c-.087.115-.21.296-.34.35-.406.131-.864.18-1.417.238-.26.022-.483.01-.758.063-.06.011-.145.034-.212.05l-.006.001-.012.004c-.466.115-.766.552-.67.983.097.431.552.694 1.021.59l.012-.001.015-.005c.066-.015.148-.031.205-.047.27-.074.466-.183.71-.278.522-.192.956-.352 1.378-.414.176-.014.362.111.454.164l.345-.06a10.47 10.47 0 0 0 4.56 5.815l-.143.352c.052.137.109.322.07.457-.154.406-.416.835-.716 1.313-.145.221-.293.393-.424.646-.031.06-.071.153-.101.217-.203.444-.054.956.336 1.148.393.193.88-.01 1.091-.456l.002-.002v-.001c.03-.063.073-.146.098-.206.112-.262.15-.486.228-.74.21-.537.324-1.1.612-1.45.08-.097.208-.134.341-.17l.18-.332a10.017 10.017 0 0 0 7.297.02c.05.09.143.266.168.31.136.045.284.068.404.25.216.376.363.821.543 1.358.078.254.117.478.23.74.025.06.067.144.097.208.211.446.7.65 1.094.457.39-.192.54-.704.336-1.148-.03-.064-.072-.157-.103-.217-.131-.253-.28-.423-.424-.644-.3-.478-.548-.875-.702-1.282-.064-.21.011-.34.061-.476-.03-.035-.094-.233-.132-.326 2.188-1.32 3.801-3.425 4.559-5.857.102.016.28.049.338.06.119-.08.228-.184.442-.167.423.062.856.223 1.38.414.242.095.438.206.709.28.057.015.139.03.204.045.005 0 .01.004.015.005.004 0 .009 0 .012.002.47.103.924-.16 1.02-.59.097-.432-.202-.87-.668-.984-.068-.016-.164-.043-.23-.055-.275-.054-.5-.04-.759-.063-.552-.059-1.01-.107-1.417-.238-.166-.066-.284-.267-.341-.35l-.32-.095a10.646 10.646 0 0 0-.165-3.77 10.57 10.57 0 0 0-1.482-3.498l.28-.257c.013-.145.002-.297.149-.458.31-.298.703-.545 1.176-.843.224-.135.432-.222.657-.392.051-.039.12-.1.174-.143.38-.31.467-.842.195-1.191-.273-.349-.8-.382-1.18-.073-.054.044-.127.101-.176.144-.212.186-.343.37-.522.564-.39.404-.712.742-1.066.985-.153.091-.378.06-.48.054l-.3.219c-1.715-1.837-4.05-3.011-6.564-3.24a20.783 20.783 0 0 1-.019-.36c-.103-.1-.227-.186-.258-.404-.035-.434.023-.901.09-1.465.036-.263.097-.482.107-.768.003-.064-.001-.159-.001-.229 0-.496-.354-.897-.791-.897Zm-.99 6.264-.235 4.236-.017.009a.704.704 0 0 1-.696.681.684.684 0 0 1-.41-.136l-.007.003-3.401-2.462a8.098 8.098 0 0 1 4.766-2.331Zm1.982 0a8.147 8.147 0 0 1 4.737 2.333l-3.379 2.447-.012-.006a.688.688 0 0 1-.956-.13.717.717 0 0 1-.152-.413l-.004-.002-.234-4.23Zm-7.982 3.913 3.106 2.837-.004.017c.28.25.322.681.088.98a.697.697 0 0 1-.361.244l-.004.014-3.98 1.173a8.461 8.461 0 0 1 1.155-5.265Zm13.958.002c.461.764.81 1.617 1.019 2.542.205.914.257 1.826.172 2.707l-4.001-1.176-.004-.018a.714.714 0 0 1-.495-.845.71.71 0 0 1 .222-.378l-.002-.009 3.089-2.823Zm-7.605 3.054h1.272l.79 1.01-.283 1.26-1.142.56-1.146-.562-.283-1.26.792-1.008Zm4.079 3.455a.68.68 0 0 1 .16.012l.007-.009 4.117.712a8.3 8.3 0 0 1-3.296 4.229l-1.598-3.943.005-.007a.72.72 0 0 1 .338-.923.683.683 0 0 1 .266-.07Zm-6.916.017a.7.7 0 0 1 .67.554.72.72 0 0 1-.04.439l.012.015-1.581 3.903a8.333 8.333 0 0 1-3.286-4.2l4.082-.707.006.008a.694.694 0 0 1 .137-.012Zm3.449 1.71a.699.699 0 0 1 .639.375h.014l2.013 3.713a8.19 8.19 0 0 1-.805.23 8.013 8.013 0 0 1-4.462-.235l2.007-3.706h.004a.697.697 0 0 1 .59-.377Z" fill="#fff" stroke="#fff" stroke-width=".219"/>
  <path d="M78.868 6.174a2.5 2.5 0 0 0-.968.25l-13.21 6.447c-.342.167-.643.41-.88.71-.236.301-.403.652-.487 1.027l-3.26 14.48a2.59 2.59 0 0 0 .487 2.166l9.144 11.612c.237.3.537.543.879.71.342.167.717.253 1.096.253l14.664-.003a2.5 2.5 0 0 0 1.096-.253c.341-.166.642-.408.879-.709l9.14-11.613a2.575 2.575 0 0 0 .489-2.166l-3.265-14.481a2.575 2.575 0 0 0-.487-1.026 2.532 2.532 0 0 0-.88-.71L80.094 6.425a2.499 2.499 0 0 0-1.225-.25Z" fill="#326CE5"/>
  <path d="M78.999 11.103c-.437 0-.79.401-.79.897v.022c0 .068-.003.149 0 .207.01.286.07.505.107.768.067.564.123 1.031.088 1.465-.033.164-.151.314-.257.418l-.018.342a10.124 10.124 0 0 0-6.596 3.239c-.088-.061-.24-.173-.286-.207-.141.02-.284.064-.47-.047-.353-.243-.676-.58-1.066-.984-.178-.193-.308-.377-.52-.564-.048-.042-.122-.1-.176-.143a.929.929 0 0 0-.55-.212.755.755 0 0 0-.63.284c-.273.35-.186.882.194 1.191l.011.009c.053.043.116.098.164.134.226.17.431.257.656.392.473.298.865.546 1.176.844.121.132.142.365.159.466l.253.231a10.628 10.628 0 0 0-1.613 7.285l-.332.099c-.087.115-.21.296-.34.35-.406.131-.864.18-1.417.238-.26.022-.483.01-.758.063-.06.011-.145.034-.212.05l-.006.001-.012.004c-.466.115-.766.552-.67.983.097.431.552.694 1.021.59l.012-.001.015-.005c.066-.015.148-.031.205-.047.27-.074.466-.183.71-.278.522-.192.956-.352 1.378-.414.176-.014.362.111.454.164l.345-.06a10.47 10.47 0 0 0 4.56 5.815l-.143.352c.052.137.109.322.07.457-.154.406-.416.835-.716 1.313-.145.221-.293.393-.424.646-.031.06-.071.153-.101.217-.203.444-.054.956.336 1.148.393.193.88-.01 1.091-.456l.002-.002v-.001c.03-.063.073-.146.098-.206.112-.262.15-.486.228-.74.21-.537.324-1.1.612-1.45.08-.097.208-.134.341-.17l.18-.332a10.017 10.017 0 0 0 7.297.02c.05.09.143.266.168.31.136.045.284.068.404.25.216.376.363.821.543 1.358.078.254.117.478.23.74.025.06.067.144.097.208.211.446.7.65 1.094.457.39-.192.54-.704.336-1.148-.03-.064-.072-.157-.103-.217-.131-.253-.28-.423-.424-.644-.3-.478-.548-.875-.702-1.282-.064-.21.011-.34.061-.476-.03-.035-.094-.233-.132-.326 2.188-1.32 3.801-3.425 4.559-5.857.102.016.28.049.338.06.119-.08.228-.184.442-.167.423.062.856.223 1.38.414.242.095.438.206.709.28.057.015.139.03.204.045.005 0 .01.004.015.005.004 0 .009 0 .012.002.47.103.924-.16 1.02-.59.097-.432-.202-.87-.668-.984-.068-.016-.164-.043-.23-.055-.275-.054-.5-.04-.759-.063-.552-.059-1.01-.107-1.417-.238-.166-.066-.284-.267-.341-.35l-.32-.095a10.646 10.646 0 0 0-.165-3.77 10.57 10.57 0 0 0-1.482-3.498l.28-.257c.013-.145.002-.297.149-.458.31-.298.703-.545 1.176-.843.224-.135.432-.222.657-.392.051-.039.12-.1.174-.143.38-.31.467-.842.195-1.191-.273-.349-.8-.382-1.18-.073-.054.044-.127.101-.176.144-.212.186-.343.37-.522.564-.39.404-.712.742-1.066.985-.153.091-.378.06-.48.054l-.3.219c-1.715-1.837-4.05-3.011-6.564-3.24a20.783 20.783 0 0 1-.019-.36c-.103-.1-.227-.186-.258-.404-.035-.434.023-.901.09-1.465.036-.263.097-.482.107-.768.003-.064-.001-.159-.001-.229 0-.496-.354-.897-.791-.897Zm-.99 6.264-.235 4.236-.017.009a.704.704 0 0 1-.696.681.684.684 0 0 1-.41-.136l-.007.003-3.401-2.462a8.098 8.098 0 0 1 4.766-2.331Zm1.982 0a8.147 8.147 0 0 1 4.737 2.333l-3.379 2.447-.012-.006a.688.688 0 0 1-.956-.13.717.717 0 0 1-.152-.413l-.004-.002-.234-4.23Zm-7.982 3.913 3.106 2.837-.004.017c.28.25.322.681.088.98a.697.697 0 0 1-.361.244l-.004.014-3.98 1.173a8.461 8.461 0 0 1 1.155-5.265Zm13.958.002c.461.764.81 1.617 1.019 2.542.205.914.257 1.826.172 2.707l-4.001-1.176-.004-.018a.714.714 0 0 1-.495-.845.71.71 0 0 1 .222-.378l-.002-.009 3.089-2.823Zm-7.605 3.054h1.272l.79 1.01-.283 1.26-1.142.56-1.146-.562-.283-1.26.792-1.008Zm4.079 3.455a.68.68 0 0 1 .16.012l.007-.009 4.117.712a8.3 8.3 0 0 1-3.296 4.229l-1.598-3.943.005-.007a.72.72 0 0 1 .338-.923.683.683 0 0 1 .266-.07Zm-6.916.017a.7.7 0 0 1 .67.554.72.72 0 0 1-.04.439l.012.015-1.581 3.903a8.333 8.333 0 0 1-3.286-4.2l4.082-.707.006.008a.694.694 0 0 1 .137-.012Zm3.449 1.71a.699.699 0 0 1 .639.375h.014l2.013 3.713a8.19 8.19 0 0 1-.805.23 8.013 8.013 0 0 1-4.462-.235l2.007-3.706h.004a.697.697 0 0 1 .59-.377Z" fill="#fff" stroke="#fff" stroke-width=".219"/>
  <path d="M148.436 16.466h1.263l3.598-3.598.177-1.528a16.175 16.175 0 0 0-26.313 7.891c.401-.164.845-.19 1.262-.076l7.197-1.186s.366-.606.556-.569a8.977 8.977 0 0 1 12.285-.934h-.025Z" fill="#EA4335"/>
  <path d="M158.423 19.231a16.21 16.21 0 0 0-4.886-7.879l-5.051 5.051a8.977 8.977 0 0 1 3.296 7.121v.897a4.495 4.495 0 0 1 0 8.99h-8.99l-.896.909v5.391l.896.897h8.99a11.691 11.691 0 0 0 6.641-21.377Z" fill="#4285F4"/>
  <path d="M133.789 40.557h8.99V33.36h-8.99c-.64 0-1.273-.138-1.856-.404l-1.262.391-3.624 3.599-.316 1.263a11.629 11.629 0 0 0 7.058 2.348Z" fill="#34A853"/>
  <path d="M133.789 17.211a11.69 11.69 0 0 0-7.058 20.96l5.215-5.215a4.494 4.494 0 1 1 5.947-5.947l5.215-5.215a11.681 11.681 0 0 0-9.319-4.583Z" fill="#FBBC05"/>
  <path d="M216.755 20.43v6.557l-4.564 2.635L209 27.646V44.76l.089.004 17.205-9.883v-19.74h-.322l-9.217 5.287Z" fill="#1F9967"/>
  <path d="m208.856 5.235-17.15 9.91 11.57 6.798 2.344-1.428 5.686 3.174v-6.591l5.449-3.274v6.605l9.539-5.287v-.024l-17.438-9.883Z" fill="#25BA81"/>
  <path d="M206.694 26.331v6.582l-5.188 3.29v-13.17l1.966-1.21-11.663-6.681-.103.003v19.737L209 44.762V27.645l-2.306-1.315Z" fill="#25BA81"/>
  <path d="M285.239 21.87c-.097-.076-.998-.756-2.898-.756a9.237 9.237 0 0 0-1.497.128c-.368-2.52-2.452-3.75-2.546-3.805l-.51-.294-.336.484a6.844 6.844 0 0 0-.907 2.121c-.34 1.44-.133 2.79.598 3.946-.883.492-2.299.613-2.585.624h-23.444c-.612 0-1.109.496-1.113 1.108a16.88 16.88 0 0 0 1.027 6.024c.808 2.118 2.009 3.678 3.572 4.633 1.752 1.073 4.598 1.686 7.824 1.686a23.353 23.353 0 0 0 4.344-.394 18.16 18.16 0 0 0 5.67-2.06 15.59 15.59 0 0 0 3.87-3.168c1.857-2.102 2.964-4.444 3.786-6.525h.328c2.034 0 3.284-.814 3.974-1.495a4.338 4.338 0 0 0 1.048-1.553l.146-.426-.351-.277Z" fill="#2496ED"/>
  <path d="M253.29 23.653h3.142a.274.274 0 0 0 .274-.274v-2.798a.274.274 0 0 0-.273-.276h-3.143a.274.274 0 0 0-.274.274v2.8c0 .152.123.274.274.274ZM257.621 23.653h3.141a.275.275 0 0 0 .275-.274v-2.798a.275.275 0 0 0-.273-.276h-3.143a.276.276 0 0 0-.276.276v2.798a.276.276 0 0 0 .276.274ZM261.997 23.653h3.141a.274.274 0 0 0 .274-.274v-2.798a.274.274 0 0 0-.272-.276h-3.143a.275.275 0 0 0-.275.274v2.8c0 .152.123.274.275.274ZM266.326 23.653h3.141a.276.276 0 0 0 .276-.274v-2.798a.276.276 0 0 0-.276-.276h-3.141a.275.275 0 0 0-.275.274v2.8c0 .152.123.274.275.274ZM257.621 19.616h3.141a.276.276 0 0 0 .274-.276v-2.798a.274.274 0 0 0-.274-.274h-3.141a.276.276 0 0 0-.276.274v2.798a.278.278 0 0 0 .276.276ZM261.997 19.616h3.141a.276.276 0 0 0 .274-.276v-2.798a.274.274 0 0 0-.274-.274h-3.141a.275.275 0 0 0-.275.274v2.798c0 .152.123.275.275.276ZM266.326 19.616h3.141a.278.278 0 0 0 .276-.276v-2.798a.276.276 0 0 0-.276-.274h-3.141a.275.275 0 0 0-.275.274v2.798c0 .152.123.275.275.276ZM266.326 15.579h3.141a.276.276 0 0 0 .276-.274v-2.8a.276.276 0 0 0-.276-.275h-3.141a.275.275 0 0 0-.275.275v2.8c0 .151.123.274.275.274ZM270.752 23.653h3.142a.275.275 0 0 0 .275-.274v-2.798a.275.275 0 0 0-.275-.276h-3.142a.274.274 0 0 0-.274.274v2.8c0 .152.123.274.274.274Z" fill="#2496ED"/>
  <g clip-path="url(#a)" fill-rule="evenodd" clip-rule="evenodd" fill="#0080FF">
    <path d="M320.375 41v-5.73c6.065 0 10.773-6.015 8.444-12.398a8.564 8.564 0 0 0-5.11-5.11c-6.383-2.312-12.398 2.379-12.398 8.444h-5.713c0-9.666 9.349-17.206 19.485-14.04 4.423 1.391 7.958 4.909 9.332 9.333C337.582 31.651 330.059 41 320.375 41Z"/>
    <path d="M314.695 35.287h5.696V29.59h-5.695l-.001 5.696Zm-4.389 4.39h4.389v-4.39h-4.389v4.39Zm-3.67-4.39h3.67v-3.67h-3.67v3.67Z"/>
  </g>
  <defs>
    <clipPath id="a">
      <path fill="#fff" transform="translate(305.59 9)" d="M0 0h32v32H0z"/>
    </clipPath>
  </defs>
</svg>