<svg viewBox="0 0 338 50" fill="none" xmlns="http://www.w3.org/2000/svg">
  <path d="M11.969 21.703c0 .498.052.901.143 1.197.104.296.233.618.415.968a.6.6 0 0 1 .091.309c0 .134-.078.269-.247.403l-.817.565a.609.609 0 0 1-.338.12c-.13 0-.26-.067-.39-.188a4.15 4.15 0 0 1-.467-.631c-.13-.229-.26-.484-.402-.793-1.012 1.236-2.285 1.855-3.816 1.855-1.09 0-1.96-.323-2.596-.968-.636-.645-.961-1.506-.961-2.581 0-1.143.39-2.07 1.181-2.77.792-.698 1.843-1.048 3.18-1.048.442 0 .896.04 1.376.108.48.067.974.175 1.493.296v-.982c0-1.021-.207-1.734-.61-2.15-.415-.417-1.116-.619-2.116-.619-.454 0-.921.054-1.402.175-.48.121-.947.269-1.402.457a3.647 3.647 0 0 1-.454.175.77.77 0 0 1-.208.04c-.181 0-.272-.134-.272-.417v-.658c0-.215.026-.377.09-.47.066-.095.182-.189.364-.283.454-.242 1-.444 1.636-.605a7.612 7.612 0 0 1 2.025-.255c1.544 0 2.674.363 3.4 1.088.715.726 1.078 1.829 1.078 3.307v4.355h.026Zm-5.27 2.044c.428 0 .87-.08 1.337-.242a2.89 2.89 0 0 0 1.233-.86 2.16 2.16 0 0 0 .441-.86 4.99 4.99 0 0 0 .13-1.17v-.565a10.513 10.513 0 0 0-1.194-.228 9.445 9.445 0 0 0-1.22-.081c-.87 0-1.506.175-1.934.538-.429.363-.636.873-.636 1.546 0 .631.155 1.102.48 1.424.311.336.766.498 1.363.498Zm10.423 1.451c-.233 0-.389-.04-.493-.134-.104-.08-.195-.269-.273-.524l-3.05-10.391c-.078-.269-.117-.444-.117-.538 0-.215.104-.336.312-.336h1.272c.247 0 .415.04.506.135.104.08.182.268.26.524l2.18 8.899 2.025-8.9c.065-.268.143-.443.247-.523.104-.081.286-.135.52-.135h1.038c.246 0 .415.04.519.135.104.08.195.268.247.524l2.05 9.006 2.246-9.006c.078-.269.169-.444.26-.524.104-.081.273-.135.506-.135h1.207c.208 0 .325.108.325.336 0 .067-.013.135-.026.215-.013.081-.04.189-.091.336l-3.128 10.391c-.078.27-.17.444-.273.524-.104.081-.272.135-.493.135h-1.116c-.247 0-.416-.04-.52-.134-.104-.095-.195-.27-.246-.538l-2.012-8.67-2 8.656c-.064.27-.142.444-.246.538-.104.094-.286.134-.52.134h-1.116Zm16.68.363a8.31 8.31 0 0 1-1.998-.242c-.65-.16-1.156-.336-1.493-.537-.208-.121-.35-.256-.403-.377a.976.976 0 0 1-.078-.376v-.686c0-.282.104-.416.299-.416.078 0 .156.013.234.04.078.027.194.08.324.135.441.201.922.362 1.428.47a7.54 7.54 0 0 0 1.545.161c.818 0 1.454-.148 1.895-.443.441-.296.675-.726.675-1.277 0-.377-.117-.686-.35-.941-.234-.256-.675-.484-1.312-.7l-1.882-.604c-.947-.31-1.648-.766-2.077-1.371a3.277 3.277 0 0 1-.649-1.95c0-.564.117-1.061.35-1.491.234-.43.546-.807.935-1.103.39-.309.831-.537 1.35-.699a5.476 5.476 0 0 1 1.636-.228c.285 0 .584.013.87.053.298.04.57.095.843.148a9.8 9.8 0 0 1 .74.215c.234.081.416.162.546.242.181.108.311.216.389.337.078.107.117.255.117.443v.632c0 .282-.104.43-.299.43-.104 0-.272-.054-.493-.161-.74-.35-1.57-.524-2.492-.524-.74 0-1.324.12-1.727.376-.402.255-.61.645-.61 1.196 0 .377.13.7.39.955s.74.51 1.427.739l1.844.605c.934.309 1.61.74 2.012 1.29.402.551.597 1.183.597 1.882 0 .578-.117 1.102-.338 1.56a3.59 3.59 0 0 1-.947 1.182c-.403.336-.883.578-1.441.753a5.976 5.976 0 0 1-1.856.282Z" fill="#000"/>
  <path fill-rule="evenodd" clip-rule="evenodd" d="M36.256 32.096c-4.27 3.266-10.475 5-15.81 5-7.477 0-14.214-2.863-19.302-7.621-.403-.377-.04-.888.441-.592 5.504 3.307 12.293 5.31 19.315 5.31 4.738 0 9.944-1.022 14.733-3.119.714-.336 1.324.484.623 1.022Z" fill="#F90"/>
  <path fill-rule="evenodd" clip-rule="evenodd" d="M38.035 29.998c-.545-.726-3.608-.35-4.997-.175-.416.054-.48-.322-.104-.605 2.44-1.774 6.451-1.263 6.919-.672.467.605-.13 4.759-2.415 6.748-.35.31-.688.148-.532-.255.52-1.33 1.675-4.329 1.13-5.04Z" fill="#F90"/>
  <path d="M78.868 6.175a2.5 2.5 0 0 0-.968.25l-13.21 6.447c-.342.167-.643.41-.88.71-.236.3-.403.651-.487 1.026l-3.26 14.482a2.59 2.59 0 0 0 .487 2.165l9.144 11.612c.237.3.537.543.879.71.342.166.717.253 1.096.253l14.664-.004c.38 0 .754-.086 1.096-.252a2.53 2.53 0 0 0 .879-.709l9.14-11.613a2.575 2.575 0 0 0 .489-2.166l-3.265-14.481a2.575 2.575 0 0 0-.487-1.026 2.532 2.532 0 0 0-.88-.71L80.094 6.425a2.499 2.499 0 0 0-1.225-.25Z" fill="#326CE5"/>
  <path d="M78.999 11.104c-.437 0-.791.401-.791.897l.002.022c-.001.068-.004.149-.002.207.01.286.071.505.108.768.066.564.122 1.031.088 1.465-.034.164-.152.314-.257.418l-.019.342a10.124 10.124 0 0 0-6.596 3.239c-.087-.061-.24-.173-.285-.207-.141.019-.284.063-.47-.047-.354-.243-.676-.58-1.066-.984-.179-.193-.308-.378-.52-.564-.049-.042-.122-.1-.176-.143a.928.928 0 0 0-.55-.212.755.755 0 0 0-.631.284c-.272.349-.185.882.194 1.19l.012.01c.052.043.116.098.164.134.225.17.431.257.656.392.472.298.864.545 1.175.844.122.132.143.365.16.466l.253.23a10.628 10.628 0 0 0-1.614 7.286l-.331.099c-.087.115-.21.296-.34.35-.406.13-.864.179-1.417.238-.26.022-.484.01-.759.062-.06.012-.145.034-.211.05l-.007.002-.012.003c-.466.116-.765.553-.669.984.097.431.552.694 1.02.59l.013-.001.015-.006c.065-.014.147-.03.204-.046.27-.074.467-.183.71-.278.523-.192.957-.352 1.379-.414.176-.014.362.11.454.164l.345-.06a10.47 10.47 0 0 0 4.56 5.815l-.144.352c.052.136.11.321.07.456-.153.407-.416.836-.715 1.314-.145.221-.293.393-.424.646-.032.06-.071.153-.102.217-.203.444-.054.956.337 1.148.392.193.88-.011 1.091-.456l.002-.002v-.002c.03-.063.072-.145.098-.205.112-.262.15-.487.228-.74.21-.537.324-1.1.612-1.451.079-.096.208-.133.34-.17l.18-.33a10.015 10.015 0 0 0 7.297.018c.05.091.144.267.169.31.136.046.283.07.404.251.215.376.363.82.542 1.358.079.254.118.478.23.74.025.06.068.144.098.208.21.446.7.65 1.093.457.39-.192.54-.704.336-1.148-.03-.064-.071-.157-.103-.217-.13-.253-.279-.423-.424-.644-.3-.478-.547-.875-.701-1.282-.064-.21.01-.34.06-.476-.03-.035-.093-.233-.13-.326 2.186-1.32 3.8-3.425 4.558-5.857.102.016.28.048.337.06.12-.08.229-.184.443-.167.422.062.856.222 1.379.414.243.095.439.206.71.28.057.015.138.03.204.044l.015.006.012.001c.469.103.924-.159 1.02-.59.097-.43-.203-.869-.669-.983-.067-.016-.164-.043-.23-.056-.275-.053-.499-.04-.758-.062-.553-.059-1.01-.107-1.418-.238-.165-.066-.284-.267-.341-.35l-.32-.095c.166-1.224.122-2.497-.165-3.77a10.57 10.57 0 0 0-1.482-3.498c.082-.076.237-.216.28-.258.014-.145.003-.296.15-.457.31-.298.703-.545 1.175-.844.225-.134.432-.221.658-.391.05-.039.12-.1.174-.144.379-.309.466-.842.194-1.19-.272-.349-.8-.382-1.18-.073-.053.044-.126.1-.175.143-.212.187-.343.371-.522.565-.39.404-.712.742-1.066.985-.154.091-.378.06-.48.054l-.3.219c-1.716-1.837-4.05-3.011-6.565-3.24a20.83 20.83 0 0 1-.018-.36c-.103-.1-.228-.186-.259-.404-.034-.434.023-.901.09-1.465.036-.263.097-.482.108-.768.002-.065-.001-.159-.002-.23 0-.495-.354-.896-.79-.896Zm-.99 6.264-.235 4.236-.017.009a.704.704 0 0 1-.696.681.683.683 0 0 1-.411-.136l-.007.003-3.4-2.462a8.098 8.098 0 0 1 4.765-2.332Zm1.981 0a8.147 8.147 0 0 1 4.738 2.333l-3.38 2.447-.011-.006a.688.688 0 0 1-.956-.13.716.716 0 0 1-.153-.413l-.003-.002-.235-4.23ZM72.01 21.28l3.105 2.837-.003.017c.28.25.322.681.088.98a.696.696 0 0 1-.362.244l-.003.014-3.98 1.173a8.461 8.461 0 0 1 1.155-5.265Zm13.957.002c.462.764.811 1.617 1.02 2.542.205.913.256 1.826.171 2.707l-4-1.177-.004-.017a.714.714 0 0 1-.495-.845.71.71 0 0 1 .221-.378l-.001-.009 3.088-2.823Zm-7.604 3.054h1.272l.79 1.01-.283 1.26-1.142.56-1.146-.562-.284-1.26.793-1.008Zm4.078 3.455a.685.685 0 0 1 .16.012l.007-.009 4.118.711a8.3 8.3 0 0 1-3.296 4.23l-1.599-3.943.005-.007a.72.72 0 0 1 .338-.923.685.685 0 0 1 .267-.071Zm-6.915.017a.7.7 0 0 1 .669.554.719.719 0 0 1-.039.438l.012.016-1.582 3.903a8.332 8.332 0 0 1-3.286-4.2l4.082-.707.007.008a.694.694 0 0 1 .137-.012Zm3.448 1.71a.7.7 0 0 1 .639.374h.015l2.012 3.714c-.26.09-.53.166-.804.23a8.014 8.014 0 0 1-4.462-.235l2.007-3.706h.004a.696.696 0 0 1 .59-.377Z" fill="#fff" stroke="#fff" stroke-width=".219"/>
  <path d="M78.868 6.175a2.5 2.5 0 0 0-.968.25l-13.21 6.447c-.342.167-.643.41-.88.71-.236.3-.403.651-.487 1.026l-3.26 14.482a2.59 2.59 0 0 0 .487 2.165l9.144 11.612c.237.3.537.543.879.71.342.166.717.253 1.096.253l14.664-.004c.38 0 .754-.086 1.096-.252a2.53 2.53 0 0 0 .879-.709l9.14-11.613a2.575 2.575 0 0 0 .489-2.166l-3.265-14.481a2.575 2.575 0 0 0-.487-1.026 2.532 2.532 0 0 0-.88-.71L80.094 6.425a2.499 2.499 0 0 0-1.225-.25Z" fill="#326CE5"/>
  <path d="M78.999 11.104c-.437 0-.791.401-.791.897l.002.022c-.001.068-.004.149-.002.207.01.286.071.505.108.768.066.564.122 1.031.088 1.465-.034.164-.152.314-.257.418l-.019.342a10.124 10.124 0 0 0-6.596 3.239c-.087-.061-.24-.173-.285-.207-.141.019-.284.063-.47-.047-.354-.243-.676-.58-1.066-.984-.179-.193-.308-.378-.52-.564-.049-.042-.122-.1-.176-.143a.928.928 0 0 0-.55-.212.755.755 0 0 0-.631.284c-.272.349-.185.882.194 1.19l.012.01c.052.043.116.098.164.134.225.17.431.257.656.392.472.298.864.545 1.175.844.122.132.143.365.16.466l.253.23a10.628 10.628 0 0 0-1.614 7.286l-.331.099c-.087.115-.21.296-.34.35-.406.13-.864.179-1.417.238-.26.022-.484.01-.759.062-.06.012-.145.034-.211.05l-.007.002-.012.003c-.466.116-.765.553-.669.984.097.431.552.694 1.02.59l.013-.001.015-.006c.065-.014.147-.03.204-.046.27-.074.467-.183.71-.278.523-.192.957-.352 1.379-.414.176-.014.362.11.454.164l.345-.06a10.47 10.47 0 0 0 4.56 5.815l-.144.352c.052.136.11.321.07.456-.153.407-.416.836-.715 1.314-.145.221-.293.393-.424.646-.032.06-.071.153-.102.217-.203.444-.054.956.337 1.148.392.193.88-.011 1.091-.456l.002-.002v-.002c.03-.063.072-.145.098-.205.112-.262.15-.487.228-.74.21-.537.324-1.1.612-1.451.079-.096.208-.133.34-.17l.18-.33a10.015 10.015 0 0 0 7.297.018c.05.091.144.267.169.31.136.046.283.07.404.251.215.376.363.82.542 1.358.079.254.118.478.23.74.025.06.068.144.098.208.21.446.7.65 1.093.457.39-.192.54-.704.336-1.148-.03-.064-.071-.157-.103-.217-.13-.253-.279-.423-.424-.644-.3-.478-.547-.875-.701-1.282-.064-.21.01-.34.06-.476-.03-.035-.093-.233-.13-.326 2.186-1.32 3.8-3.425 4.558-5.857.102.016.28.048.337.06.12-.08.229-.184.443-.167.422.062.856.222 1.379.414.243.095.439.206.71.28.057.015.138.03.204.044l.015.006.012.001c.469.103.924-.159 1.02-.59.097-.43-.203-.869-.669-.983-.067-.016-.164-.043-.23-.056-.275-.053-.499-.04-.758-.062-.553-.059-1.01-.107-1.418-.238-.165-.066-.284-.267-.341-.35l-.32-.095c.166-1.224.122-2.497-.165-3.77a10.57 10.57 0 0 0-1.482-3.498c.082-.076.237-.216.28-.258.014-.145.003-.296.15-.457.31-.298.703-.545 1.175-.844.225-.134.432-.221.658-.391.05-.039.12-.1.174-.144.379-.309.466-.842.194-1.19-.272-.349-.8-.382-1.18-.073-.053.044-.126.1-.175.143-.212.187-.343.371-.522.565-.39.404-.712.742-1.066.985-.154.091-.378.06-.48.054l-.3.219c-1.716-1.837-4.05-3.011-6.565-3.24a20.83 20.83 0 0 1-.018-.36c-.103-.1-.228-.186-.259-.404-.034-.434.023-.901.09-1.465.036-.263.097-.482.108-.768.002-.065-.001-.159-.002-.23 0-.495-.354-.896-.79-.896Zm-.99 6.264-.235 4.236-.017.009a.704.704 0 0 1-.696.681.683.683 0 0 1-.411-.136l-.007.003-3.4-2.462a8.098 8.098 0 0 1 4.765-2.332Zm1.981 0a8.147 8.147 0 0 1 4.738 2.333l-3.38 2.447-.011-.006a.688.688 0 0 1-.956-.13.716.716 0 0 1-.153-.413l-.003-.002-.235-4.23ZM72.01 21.28l3.105 2.837-.003.017c.28.25.322.681.088.98a.696.696 0 0 1-.362.244l-.003.014-3.98 1.173a8.461 8.461 0 0 1 1.155-5.265Zm13.957.002c.462.764.811 1.617 1.02 2.542.205.913.256 1.826.171 2.707l-4-1.177-.004-.017a.714.714 0 0 1-.495-.845.71.71 0 0 1 .221-.378l-.001-.009 3.088-2.823Zm-7.604 3.054h1.272l.79 1.01-.283 1.26-1.142.56-1.146-.562-.284-1.26.793-1.008Zm4.078 3.455a.685.685 0 0 1 .16.012l.007-.009 4.118.711a8.3 8.3 0 0 1-3.296 4.23l-1.599-3.943.005-.007a.72.72 0 0 1 .338-.923.685.685 0 0 1 .267-.071Zm-6.915.017a.7.7 0 0 1 .669.554.719.719 0 0 1-.039.438l.012.016-1.582 3.903a8.332 8.332 0 0 1-3.286-4.2l4.082-.707.007.008a.694.694 0 0 1 .137-.012Zm3.448 1.71a.7.7 0 0 1 .639.374h.015l2.012 3.714c-.26.09-.53.166-.804.23a8.014 8.014 0 0 1-4.462-.235l2.007-3.706h.004a.696.696 0 0 1 .59-.377Z" fill="#fff" stroke="#fff" stroke-width=".219"/>
  <path d="M148.435 16.465h1.263l3.599-3.598.176-1.528a16.174 16.174 0 0 0-26.313 7.892 1.958 1.958 0 0 1 1.263-.076l7.197-1.187s.366-.606.555-.568a8.978 8.978 0 0 1 12.286-.935h-.026Z" fill="#EA4335"/>
  <path d="M158.422 19.23a16.21 16.21 0 0 0-4.886-7.878l-5.051 5.05a8.977 8.977 0 0 1 3.296 7.121v.897a4.495 4.495 0 0 1 0 8.99h-8.99l-.896.909v5.391l.896.897h8.99a11.691 11.691 0 0 0 6.641-21.377Z" fill="#4285F4"/>
  <path d="M133.789 40.556h8.989V33.36h-8.989a4.473 4.473 0 0 1-1.857-.404l-1.262.392-3.624 3.598-.316 1.263a11.632 11.632 0 0 0 7.059 2.348Z" fill="#34A853"/>
  <path d="M133.789 17.211a11.692 11.692 0 0 0-7.058 20.96l5.214-5.215a4.494 4.494 0 1 1 5.947-5.947l5.215-5.215a11.68 11.68 0 0 0-9.318-4.583Z" fill="#FBBC05"/>
  <path d="M216.755 20.43v6.558l-4.564 2.635L209 27.646v17.116l.089.004 17.205-9.883v-19.74h-.322l-9.217 5.287Z" fill="#1F9967"/>
  <path d="m208.855 5.234-17.15 9.91 11.571 6.798 2.343-1.428 5.686 3.174v-6.591l5.449-3.274v6.605l9.539-5.287v-.024l-17.438-9.883Z" fill="#25BA81"/>
  <path d="M206.693 26.332v6.582l-5.188 3.29v-13.17l1.966-1.21-11.663-6.681-.103.003v19.737l17.294 9.88V27.646l-2.306-1.315Z" fill="#25BA81"/>
  <path d="M285.239 21.87c-.097-.076-.998-.757-2.898-.757a9.237 9.237 0 0 0-1.497.129c-.368-2.521-2.452-3.75-2.546-3.805l-.51-.294-.336.484a6.842 6.842 0 0 0-.907 2.12c-.34 1.44-.133 2.791.598 3.947-.883.492-2.299.613-2.585.624h-23.444c-.612 0-1.109.495-1.113 1.108a16.88 16.88 0 0 0 1.027 6.024c.808 2.118 2.009 3.678 3.572 4.632 1.752 1.073 4.598 1.686 7.824 1.686a23.344 23.344 0 0 0 4.344-.394 18.157 18.157 0 0 0 5.67-2.06 15.59 15.59 0 0 0 3.87-3.167c1.857-2.103 2.964-4.444 3.786-6.525h.328c2.034 0 3.284-.814 3.974-1.496a4.338 4.338 0 0 0 1.048-1.552l.146-.426-.351-.278Z" fill="#2496ED"/>
  <path d="M253.29 23.653h3.141a.275.275 0 0 0 .275-.274V20.58a.275.275 0 0 0-.273-.275h-3.143a.274.274 0 0 0-.274.274v2.8c0 .151.122.274.274.274ZM257.622 23.653h3.141a.274.274 0 0 0 .274-.274V20.58a.274.274 0 0 0-.272-.275h-3.143a.276.276 0 0 0-.276.276v2.798a.276.276 0 0 0 .276.274ZM261.997 23.653h3.142a.274.274 0 0 0 .274-.274V20.58a.274.274 0 0 0-.273-.275h-3.143a.274.274 0 0 0-.274.274v2.8c0 .151.123.274.274.274ZM266.325 23.653h3.142a.275.275 0 0 0 .275-.274V20.58a.275.275 0 0 0-.275-.275h-3.142a.274.274 0 0 0-.274.274v2.8c0 .151.123.274.274.274ZM257.622 19.616h3.141a.276.276 0 0 0 .274-.276v-2.798a.274.274 0 0 0-.274-.274h-3.141a.276.276 0 0 0-.276.274v2.798a.278.278 0 0 0 .276.276ZM261.997 19.616h3.141a.276.276 0 0 0 .275-.276v-2.798a.275.275 0 0 0-.275-.274h-3.141a.274.274 0 0 0-.274.274v2.798c0 .152.122.275.274.276ZM266.325 19.616h3.142a.276.276 0 0 0 .275-.276v-2.798a.275.275 0 0 0-.275-.274h-3.142a.274.274 0 0 0-.274.274v2.798c0 .152.122.275.274.276ZM266.325 15.579h3.142a.275.275 0 0 0 .275-.274v-2.8a.275.275 0 0 0-.275-.275h-3.142a.274.274 0 0 0-.274.275v2.8c0 .151.123.274.274.274ZM270.753 23.653h3.141a.276.276 0 0 0 .276-.274V20.58a.276.276 0 0 0-.276-.275h-3.141a.274.274 0 0 0-.274.274v2.8c0 .151.122.274.274.274Z" fill="#2496ED"/>
  <g clip-path="url(#clip0-216595)" fill-rule="evenodd" clip-rule="evenodd" fill="#0080FF">
    <path d="M320.375 41v-5.73c6.065 0 10.773-6.014 8.444-12.398a8.563 8.563 0 0 0-5.11-5.11c-6.383-2.312-12.398 2.38-12.398 8.444h-5.713c0-9.666 9.349-17.206 19.485-14.04 4.423 1.392 7.958 4.91 9.332 9.333C337.582 31.651 330.059 41 320.375 41Z"/>
    <path d="M314.696 35.288h5.696v-5.696h-5.696v5.696Zm-4.39 4.39h4.389v-4.39h-4.389v4.39Zm-3.669-4.39h3.669v-3.67h-3.669v3.67Z"/>
  </g>
  <defs>
    <clipPath id="clip0-216595">
      <path fill="#fff" transform="translate(305.59 9)" d="M0 0h32v32H0z"/>
    </clipPath>
  </defs>
</svg>