<svg viewBox="0 0 24 24" fill="none" xmlns="http://www.w3.org/2000/svg"><path  d="M21.8134641,11.2889557 L19.8716027,13.2298973 L19.8716027,13.2298973 C19.6373246,13.4641269 19.2575358,13.4641269 19.0232581,13.2298973 L18.2179087,12.4249079 L18.2179087,12.4249078 C18.0913441,12.2902946 18.0370487,12.1031312 18.0719251,11.9216845 L18.0719251,11.9216844 C18.1086286,11.3990072 17.8889789,10.8911044 17.4829914,10.5598777 C16.8579417,9.93506797 16.2008957,9.78448492 15.8885708,10.0966898 L15.2105271,10.7744535 L15.2105271,10.7744535 C14.8981623,11.0867239 14.3918193,11.0867239 14.0794544,10.7744536 L11.817229,8.51338798 L11.817229,8.51338796 C11.5050353,8.20125029 11.5049901,7.69512804 11.8171279,7.38293517 C11.8171616,7.38290147 11.8171953,7.38286777 11.817229,7.38283407 L13.0108947,6.18980832 L13.0108947,6.18980831 C13.1603107,6.03756305 13.1595264,5.79347171 13.0091349,5.64218994 C11.4667084,4.06292765 9.66703096,4.54067389 8.31566303,5.34686317 L8.31566305,5.34686316 C8.16374814,5.4264458 7.97814143,5.40143102 7.85271514,5.28447018 L7.67865473,5.11052975 L7.67865474,5.11052976 C7.56107997,4.99045568 7.56310574,4.79780335 7.68317991,4.68023018 C7.68388128,4.67954341 7.68458597,4.67886004 7.68529395,4.67818009 C9.62347585,2.74111806 13.7314536,2.3630806 15.5684069,4.19891402 L18.4072474,7.03647472 L18.4072474,7.03647472 C18.533894,7.17104118 18.5882019,7.35824691 18.553231,7.5396981 L18.553231,7.53969873 C18.5165411,8.06236392 18.7361896,8.57024677 19.1421647,8.90146549 L19.1421647,8.90146545 C19.4737526,9.30733978 19.9818382,9.52683908 20.5046513,9.49007922 L20.5046513,9.49007923 C20.6861817,9.45509736 20.873471,9.50938425 21.0081546,9.6360228 L21.813464,10.4409322 L21.813464,10.4409323 C22.0476393,10.6748647 22.0478361,11.0543392 21.8139037,11.2885169 C21.8137571,11.2886636 21.8136104,11.2888103 21.8134637,11.288957 L21.8134641,11.2889557 Z M11.6766848,9.5773483 L13.0234932,10.9233968 L13.0234932,10.9233968 C13.2581916,11.1580136 13.2624024,11.5371678 13.0329722,11.7769408 L5.07750742,20.0900453 L5.07750745,20.0900453 C4.45530146,20.7399722 3.42403351,20.7624416 2.77410664,20.1402336 C2.76573455,20.1322186 2.75744824,20.1241145 2.74924912,20.1159226 L2.47979944,19.8466729 L2.4797995,19.8466729 C1.84410303,19.2115564 1.84363509,18.1813603 2.47875004,17.5456679 C2.48763664,17.5367731 2.49662603,17.5279818 2.50571644,17.5192954 L10.8227406,9.56787018 L10.8227405,9.56787023 C11.0626971,9.33852044 11.4418788,9.34272916 11.6766844,9.57734908 L11.6766848,9.5773483 Z" fill-rule="evenodd" fill="currentColor"/></svg>
