<svg xmlns="http://www.w3.org/2000/svg" viewBox="0 0 24 24">
  <defs>
    <linearGradient id="logo-netlify-color" x1="25%" x2="75%" y1="0%" y2="100%">
      <stop offset="0%" stop-color="#23C4B8"/>
      <stop offset="100%" stop-color="#4A9CBD"/>
    </linearGradient>
  </defs>
  <path fill="url(#logo-netlify-color)" d="M16.72395,8.77425 L16.71625,8.77095 C16.71185,8.7693 16.70745,8.76765 16.7036,8.7638 C16.69081,8.75006206 16.6851208,8.73116578 16.6882,8.71265 L17.11335,6.11335 L19.1071,8.10765 L17.0336,8.98985 C17.0278376,8.9921737 17.0216615,8.99329663 17.01545,8.99316271 L17.0072,8.99316271 C17.00445,8.9915 17.0017,8.9893 16.9962,8.9838 C16.9190345,8.897882 16.826756,8.82685549 16.72395,8.77425 Z M19.61585,8.61585 L21.74765,10.74765 C22.1904,11.19095 22.41205,11.41205 22.4929,11.66835 C22.505,11.7063 22.5149,11.74425 22.5226,11.7833 L17.42795,9.62565 C17.4252123,9.62451952 17.4224621,9.62341945 17.4197,9.62235 C17.39935,9.6141 17.3757,9.60475 17.3757,9.58385 C17.3757,9.56295 17.3999,9.55305 17.42025,9.5448 L17.42685,9.54205 L19.61585,8.61585 L19.61585,8.61585 Z M22.4357,12.4675 C22.3257,12.6743 22.1112,12.8888 21.7482,13.25235 L19.3447,15.6553 L16.2361,15.00795 L16.2196,15.00465 C16.1921,15.00025 16.16295,14.9953 16.16295,14.97055 C16.1390849,14.71133 16.0086034,14.4736744 15.8027,14.3144 C15.79005,14.30175 15.79335,14.28195 15.7972,14.2638 C15.7972,14.26105 15.7972,14.2583 15.7983,14.2561 L16.38295,10.6668 L16.38515,10.6547 C16.38845,10.6272 16.3934,10.5953 16.41815,10.5953 C16.6712401,10.5638154 16.9010959,10.4320447 17.05615,10.22955 C17.0611,10.22405 17.0644,10.218 17.071,10.2147 C17.0886,10.20645 17.1095,10.2147 17.12765,10.2224 L22.43515,12.4675 L22.4357,12.4675 Z M18.79195,16.20805 L14.83965,20.16035 L15.51615,16.00235 L15.51725,15.99685 C15.5178,15.99135 15.5189,15.98585 15.52055,15.9809 C15.52605,15.9677 15.54035,15.9622 15.5541,15.9567 L15.5607,15.95395 C15.7088237,15.8907521 15.8398311,15.7932976 15.94295,15.6696 C15.95615,15.6542 15.9721,15.63935 15.99245,15.6366 C15.9977317,15.6357378 16.0031183,15.6357378 16.0084,15.6366 L18.7914,16.2086 L18.79195,16.20805 Z M14.0031,20.9969 L13.5576,21.4424 L8.63235,14.3243 C8.63056893,14.3216964 8.62873522,14.3191292 8.62685,14.3166 C8.61915,14.30615 8.6109,14.2957 8.61255,14.2836 C8.6131,14.2748 8.6186,14.2671 8.62465,14.2605 L8.63015,14.25335 C8.645,14.23135 8.65765,14.20935 8.6714,14.1857 L8.6824,14.16645 L8.68405,14.1648 C8.69175,14.1516 8.6989,14.13895 8.7121,14.1318 C8.72365,14.1263 8.7396,14.1285 8.75225,14.13125 L14.2088,15.25655 C14.2240571,15.2589226 14.2384498,15.265172 14.2506,15.2747 C14.25775,15.28185 14.2594,15.28955 14.26105,15.29835 C14.3382044,15.5902682 14.5473708,15.8293446 14.82645,15.9446 C14.84185,15.9523 14.83525,15.96935 14.8281,15.9875 C14.8245327,15.9954547 14.821769,16.0037459 14.81985,16.01225 C14.7511,16.43025 14.1615,20.02615 14.0031,20.9969 Z M13.0725,21.92695 C12.74415,22.252 12.55055,22.42415 12.33165,22.49345 C12.1158169,22.5616996 11.8841831,22.5616996 11.66835,22.49345 C11.41205,22.41205 11.1904,22.19095 10.74765,21.74765 L5.8015,16.8015 L7.09345,14.79785 C7.0995,14.78795 7.10555,14.77915 7.11545,14.772 C7.1292,14.7621 7.149,14.7665 7.1655,14.772 C7.46203825,14.8614637 7.78042395,14.8453307 8.0664,14.72635 C8.08125,14.7208753 8.0961,14.717 8.10765,14.72745 C8.11342569,14.732722 8.11859136,14.7386256 8.12305,14.74505 L13.0725,21.9275 L13.0725,21.92695 Z M5.32465,16.32465 L4.19,15.19 L6.4307,14.2341 C6.43642741,14.2316025 6.4426019,14.2302928 6.44885,14.23025 C6.46755,14.23025 6.47855,14.24895 6.48845,14.266 C6.5109681,14.3006436 6.5348193,14.3344022 6.55995,14.3672 L6.5671,14.376 C6.5737,14.38535 6.5693,14.3947 6.5627,14.4035 L5.3252,16.32465 L5.32465,16.32465 Z M3.68785,14.68785 L2.25235,13.25235 C2.00815,13.00815 1.83105,12.83105 1.70785,12.6787 L6.07265,13.584 C6.07813295,13.5850162 6.08363385,13.585933 6.08915,13.58675 C6.1161,13.59115 6.1458,13.5961 6.1458,13.6214 C6.1458,13.6489 6.11335,13.66155 6.08585,13.672 L6.0732,13.6775 L3.68785,14.68785 Z M1.45705,11.9406 C1.46202429,11.8481282 1.47865585,11.7566546 1.50655,11.66835 C1.58795,11.41205 1.80905,11.19095 2.25235,10.74765 L4.08935,8.91065 C4.93515822,10.1381838 5.7832597,11.364136 6.63365,12.5885 C6.6485,12.6083 6.665,12.6303 6.64795,12.6468 C6.56765,12.73535 6.48735,12.83215 6.4307,12.9372 C6.42455432,12.950703 6.41509455,12.9624332 6.4032,12.9713 C6.39605,12.9757 6.38835,12.97405 6.3801,12.9724 L6.379,12.9724 L1.45705,11.94005 L1.45705,11.9406 Z M4.58105,8.41895 L7.0511,5.9489 C7.2832,6.05065 8.128,6.4076 8.8837,6.7266 C9.4557,6.9686 9.9771,7.1886 10.141,7.2601 C10.1575,7.2667 10.17235,7.2733 10.1795,7.2898 C10.1839,7.2997 10.1817,7.31235 10.1795,7.3228 C10.100075,7.68498609 10.2081783,8.06283093 10.46715,8.3282 C10.48365,8.3447 10.46715,8.36835 10.45285,8.3887 L10.44515,8.40025 L7.93715,12.2849 C7.93055,12.2959 7.9245,12.30525 7.9135,12.3124 C7.9003,12.32065 7.8816,12.3168 7.8662,12.31295 C7.76865472,12.2873936 7.66837672,12.2737277 7.56755,12.27225 C7.47735,12.27225 7.37945,12.28875 7.28045,12.3069 L7.2799,12.3069 C7.2689,12.30855 7.259,12.31075 7.2502,12.30415 C7.24048061,12.296207 7.23212099,12.2867328 7.22545,12.2761 L4.58105,8.41895 L4.58105,8.41895 Z M7.54995,5.45005 L10.74765,2.25235 C11.1904,1.8096 11.41205,1.58795 11.66835,1.5071 C11.8841831,1.43885039 12.1158169,1.43885039 12.33165,1.5071 C12.58795,1.58795 12.8096,1.8096 13.25235,2.25235 L13.94535,2.94535 L11.6711,6.46755 C11.6654739,6.47780369 11.657798,6.48679003 11.64855,6.49395 C11.6348,6.5033 11.61555,6.49945 11.59905,6.49395 C11.2350299,6.38348036 10.8399491,6.45961573 10.54305,6.69745 C10.5282,6.71285 10.5062,6.70405 10.4875,6.6958 C10.1905,6.56655 7.8805,5.5903 7.54995,5.45005 L7.54995,5.45005 Z M14.42825,3.42825 L16.52815,5.52815 L16.02215,8.66205 L16.02215,8.6703 C16.0216982,8.67744231 16.0202162,8.68448179 16.01775,8.6912 C16.01225,8.7022 16.00125,8.7044 15.99025,8.7077 C15.8820645,8.74046983 15.7801722,8.79123005 15.68885,8.85785 C15.6849239,8.86064793 15.6812439,8.86377596 15.67785,8.8672 C15.6718,8.8738 15.66575,8.87985 15.65585,8.88097991 C15.6477925,8.88119895 15.6397625,8.87989175 15.6322,8.8771 L12.4323,7.5175 L12.42625,7.51475 C12.4059,7.5065 12.3817,7.4966 12.3817,7.4757 C12.3628918,7.29738134 12.3046518,7.12547957 12.2112,6.97245 C12.1958,6.94715 12.17875,6.92075 12.19195,6.8949 L14.42825,3.42825 L14.42825,3.42825 Z M12.26565,8.16155 L15.26535,9.43205 C15.28185,9.43975 15.3,9.4469 15.30715,9.46395 C15.3100124,9.47420399 15.3100124,9.48504601 15.30715,9.4953 C15.29835,9.5393 15.29065,9.58935 15.29065,9.63995 L15.29065,9.7241 C15.29065,9.745 15.2692,9.7538 15.2494,9.76205 L15.24335,9.76425 C14.76815,9.9672 8.57185,12.6094 8.5625,12.6094 C8.55315,12.6094 8.54325,12.6094 8.5339,12.60005 C8.5174,12.58355 8.5339,12.56045 8.54875,12.53955 C8.5513754,12.5359248 8.55394239,12.5322577 8.55645,12.52855 L11.02155,8.71155 L11.02595,8.70495 C11.04025,8.68185 11.05675,8.656 11.08315,8.656 L11.1079,8.65985 C11.164,8.66755 11.2135,8.6747 11.26355,8.6747 C11.63755,8.6747 11.98405,8.49265 12.19305,8.18135 C12.1980295,8.1730371 12.2043479,8.16560373 12.21175,8.15935 C12.2266,8.14835 12.2486,8.15385 12.26565,8.16155 L12.26565,8.16155 Z M8.83035,13.2133 L15.58435,10.33295 C15.58435,10.33295 15.59425,10.33295 15.6036,10.3423 C15.64045,10.37915 15.6718,10.4039 15.70205,10.427 L15.7169,10.43635 C15.73065,10.44405 15.7444,10.45285 15.7455,10.46715 C15.7455,10.47265 15.7455,10.47595 15.7444,10.4809 L15.1658,14.035 L15.1636,14.0493 C15.15975,14.0768 15.1559,14.10815 15.13005,14.10815 C14.8168767,14.1292884 14.5343073,14.3036046 14.3749,14.574 L14.37215,14.5784 C14.36445,14.59105 14.3573,14.60315 14.34465,14.60975 C14.3331,14.61525 14.31825,14.61305 14.30615,14.6103 L8.92,13.4993 C8.9145,13.4982 8.8364,13.21385 8.83035,13.2133 Z"/>
</svg>
