<svg viewBox="0 0 24 24" fill="none" xmlns="http://www.w3.org/2000/svg"><path d="M16,3 C17.1045695,3 18,3.8954305 18,5 L18,8.412 L21.5718028,11.9837186 L18,15.555 L18,19 C18,20.1045695 17.1045695,21 16,21 L6,21 C4.8954305,21 4,20.1045695 4,19 L4,5 C4,3.8954305 4.8954305,3 6,3 L16,3 Z M16,5 L6,5 L6,19 L16,19 L16,18 L18,18 L17.999,15.556 L17.699472,15.8560493 L16.5930918,14.7496691 L17.999,13.343 L17.999,12.764 L12.1978639,12.7753943 L12.1978639,11.2153982 L17.999,11.204 L17.999,10.623 L16.5930918,9.21776801 L17.699472,8.1113878 L17.999,8.411 L18,6 L16,6 L16,5 Z M18.5790443,12.7637166 L18,12.764 L18,13.342 L18.5790443,12.7637166 Z M18,10.624 L18,11.204 L18.5790443,11.2037205 L18,10.624 Z" fill="currentColor"/></svg>
