<svg viewBox="0 0 24 24" fill="none" xmlns="http://www.w3.org/2000/svg"><path fill="#2396ED" d="M18.8411528,7.43840962 L19.0470361,7.12989135 L19.4042813,7.34553501 L19.4042813,7.34553501 L19.5617062,7.45807573 C19.944179,7.75089528 20.7472444,8.50046154 20.9215889,9.74142885 C21.2251278,9.68824808 21.5323028,9.66083269 21.8401194,9.65943654 C22.5687167,9.65943654 23.0578705,9.82874994 23.3367341,9.96765727 L23.4790507,10.0457552 L23.4790507,10.0457552 L23.5722969,10.1069691 L23.5722969,10.1069691 L23.8331972,10.3184212 L23.7438833,10.5898144 C23.6014639,10.964174 23.3819833,11.3016942 23.1008417,11.5787673 C22.7060028,11.9842315 22.0114,12.4628616 20.9062594,12.5248768 L20.6631194,12.5316106 L20.4619417,12.5316106 C19.9571333,13.8573538 19.2783417,15.3491125 18.138925,16.6885635 C17.4573833,17.4895115 16.6557889,18.1708981 15.765125,18.7065135 C14.6841917,19.3422077 13.5085056,19.7856769 12.2867111,20.0186442 C11.4077806,20.1884356 10.5154667,20.2724587 9.62147222,20.2696829 C7.64254167,20.2696829 5.89675,19.8790288 4.82220278,19.1956433 C3.86327778,18.5874279 3.12621667,17.5935885 2.63078889,16.2443644 C2.19760278,15.0156221 1.98414167,13.7150413 2.00091667,12.4066548 C2.00279329,12.049094 2.25908501,11.7544037 2.59113342,11.7073563 L2.68343611,11.7008038 L17.0652944,11.7008038 L17.1919106,11.6920582 L17.1919106,11.6920582 L17.3946379,11.6697019 C17.7446694,11.624147 18.2763615,11.5204217 18.65125,11.3034712 C18.2028167,10.567349 18.0758889,9.70630288 18.2846139,8.78956923 C18.373005,8.40567769 18.5111454,8.03650923 18.6948738,7.69200649 L18.8411528,7.43840962 Z M5.94421806,9.13029423 L5.99782413,9.13951037 C6.04787786,9.15713694 6.08731679,9.19854864 6.10373349,9.25073002 L6.11201657,9.30601923 L6.11201657,11.0887173 L6.10343947,11.1439438 C6.08674682,11.1960209 6.04709219,11.2372094 5.99693755,11.2545489 L5.94374444,11.2634587 L4.01651389,11.2634587 C3.94215389,11.2634587 3.87907744,11.2133799 3.85682127,11.1439276 L3.84824444,11.0886856 L3.84824444,9.3055274 L3.85682127,9.24980906 C3.8735134,9.19773202 3.91316693,9.15654345 3.96332107,9.13920398 L4.01651389,9.13029423 L5.94421806,9.13029423 Z M8.60001528,9.13029423 L8.65363627,9.13951037 C8.70370173,9.15713694 8.74314359,9.19854864 8.75956102,9.25073002 L8.76784435,9.30601923 L8.76784435,11.0887173 L8.75926725,11.1439438 C8.7425746,11.1960209 8.70291997,11.2372094 8.65276532,11.2545489 L8.59957222,11.2634587 L6.67234167,11.2634587 C6.59785944,11.2634587 6.53458256,11.2134814 6.51196949,11.1439885 L6.50309444,11.0886856 L6.50309444,9.30601923 C6.50309444,9.22836769 6.55157267,9.16249462 6.61882031,9.13925145 L6.67231111,9.13029423 L8.60001528,9.13029423 Z M11.2962375,9.13029423 L11.3498585,9.13951037 C11.399924,9.15713694 11.4393658,9.19854864 11.4557832,9.25073002 L11.4640666,9.30601923 L11.4640666,11.0887173 L11.4554895,11.1439438 C11.4387968,11.1960209 11.3991422,11.2372094 11.3489875,11.2545489 L11.2957944,11.2634587 L9.36856389,11.2634587 C9.29422833,11.2634587 9.23113722,11.2133799 9.20885856,11.1439276 L9.20026389,11.0886856 L9.20026389,9.3055274 L9.20884071,9.24980906 C9.22553284,9.19773202 9.26518638,9.15654345 9.31534051,9.13920398 L9.36853333,9.13029423 L11.2962375,9.13029423 Z M13.9600861,9.13029423 L14.0135769,9.13925145 C14.0640126,9.15668382 14.1038906,9.19809552 14.1206773,9.25047109 L14.1293028,9.30601923 L14.1293028,11.0887173 C14.1288872,11.1660642 14.0804237,11.2314905 14.0133862,11.2545672 L13.9600861,11.2634587 L12.0328556,11.2634587 C11.95852,11.2634587 11.8954289,11.2133799 11.8731659,11.1439276 L11.8645861,11.0886856 L11.8645861,9.3055274 L11.8731629,9.24980906 C11.8898551,9.19773202 11.9295086,9.15654345 11.9796627,9.13920398 L12.0328556,9.13029423 L13.9600861,9.13029423 Z M16.647875,9.13029423 L16.7013658,9.13925145 C16.7518015,9.15668382 16.7916795,9.19809552 16.8084662,9.25047109 L16.8170917,9.30601923 L16.8170917,11.0887173 C16.8166761,11.1660642 16.7682126,11.2314905 16.7011751,11.2545672 L16.647875,11.2634587 L14.7206444,11.2634587 C14.6463089,11.2634587 14.5832178,11.2133799 14.5609548,11.1439276 L14.552375,11.0886856 L14.552375,9.3055274 L14.5609548,9.24980906 C14.577652,9.19773202 14.6173151,9.15654345 14.6674634,9.13920398 L14.7206444,9.13029423 L16.647875,9.13029423 Z M8.59957222,6.56565481 L8.65275331,6.57456151 C8.70290158,6.59189565 8.74256464,6.63307432 8.75926191,6.68515745 L8.76784167,6.74039615 L8.76784167,8.5230625 C8.76784167,8.60038404 8.71971544,8.66610988 8.65281198,8.68958355 L8.59957222,8.6987875 L6.67234167,8.6987875 C6.59773722,8.69835596 6.53453367,8.64812996 6.51197047,8.57847356 L6.503125,8.5230625 L6.503125,6.74039615 C6.50354056,6.66304923 6.55202367,6.59762292 6.61905327,6.57454628 L6.67234167,6.56565481 L8.59957222,6.56565481 Z M11.2957944,6.56565481 L11.3489755,6.57456151 C11.3991238,6.59189565 11.4387869,6.63307432 11.4554841,6.68515745 L11.4640639,6.74039615 L11.4640639,8.5230625 C11.4640639,8.60038404 11.4159377,8.66610988 11.3490342,8.68958355 L11.2957944,8.6987875 L9.36856389,8.6987875 C9.29410611,8.69835596 9.23108833,8.64800812 9.20885953,8.57840045 L9.20029444,8.5230625 L9.20029444,6.74039615 L9.20887127,6.68516964 C9.2255634,6.63309259 9.26521693,6.59190402 9.31537107,6.57456455 L9.36856389,6.56565481 L11.2957944,6.56565481 Z M13.9600861,6.56565481 C14.0345683,6.56565481 14.0978452,6.61561173 14.1204426,6.68509653 L14.1293028,6.74039615 L14.1293028,8.5230625 C14.1288872,8.60053635 14.0805214,8.66617081 14.0134449,8.68960182 L13.9600861,8.6987875 L12.0328556,8.6987875 C11.9583978,8.69835596 11.89538,8.64800812 11.8731512,8.57840045 L11.8645861,8.5230625 L11.8645861,6.74039615 L11.8731629,6.68516964 C11.8898551,6.63309259 11.9295086,6.59190402 11.9796627,6.57456455 L12.0328556,6.56565481 L13.9600861,6.56565481 Z M13.9600861,4 C14.0345683,4 14.0978452,4.04995692 14.1204426,4.11944172 L14.1293028,4.17474135 L14.1293028,5.95842308 C14.1288872,6.03574462 14.0804237,6.10118615 14.0133862,6.12426991 L13.9600861,6.13316442 L12.0328556,6.13316442 C11.95852,6.13316442 11.8954289,6.08308565 11.8731659,6.01363335 L11.8645861,5.95839135 L11.8645861,4.17474135 L11.8731629,4.11950265 C11.8898551,4.06741951 11.9295086,4.02624084 11.9796627,4.0089067 L12.0328556,4 L13.9600861,4 Z"/></svg>
