<svg xmlns="http://www.w3.org/2000/svg" viewBox="0 0 24 24">
  <g fill="none" transform="translate(2 1)">
    <path fill="#00BC7F" d="M9.907173,0 L20,5.36392405 L14.4810127,8.24367089 L14.4810127,4.65189873 L11.3248945,6.42405063 L11.3248945,10 L8.03375527,8.29113924 L6.792,8.989 L6.80743243,8.997633 L5.65878378,9.860355 L5.65878378,17.3767258 L8.66554054,15.6094675 L8.66554054,12.0433925 L10,12.7534517 L10,22 L0,16.6666667 L0,5.4 L0.038,5.4 L0,5.37974684 L9.907173,0 Z"/>
    <polygon fill="#009A69" points="14.486 8.066 14.486 12.394 11.855 13.827 10 12.756 10 21.984 10.051 22 20 16.661 20 5.2 19.815 5.2"/>
  </g>
</svg>
