<svg xmlns="http://www.w3.org/2000/svg" viewBox="0 0 24 24">
  <g fill="none">
    <path fill="#252960" d="M5.12131148,2.52 L1.15409836,0.234 C0.81147541,0.036 0.360655738,0.144 0.162295082,0.504 C0.0901639344,0.612 0.0721311475,0.738 0.0721311475,0.864 L0.0721311475,5.436 C0.0721311475,5.688 0.216393443,5.922 0.432786885,6.066 L5.12131148,8.766 C5.33770492,8.892 5.62622951,8.892 5.84262295,8.766 L10.5311475,6.066 C10.747541,5.94 10.8918033,5.706 10.8918033,5.436 L10.8918033,0.864 C10.8918033,0.468 10.5672131,0.144 10.1704918,0.144 C10.0442623,0.144 9.91803279,0.18 9.80983607,0.234 L5.84262295,2.52 C5.62622951,2.646 5.3557377,2.646 5.12131148,2.52 Z" transform="translate(1 12)"/>
    <path fill="url(#logo-pack-color-a)" d="M5.48196721,3.15 L5.48196721,7.722 C5.48196721,8.118 5.80655738,8.442 6.20327869,8.442 C6.3295082,8.442 6.4557377,8.406 6.56393443,8.352 L10.5311475,6.066 C10.747541,5.94 10.8918033,5.706 10.8918033,5.436 L10.8918033,0.864 C10.8918033,0.468 10.5672131,0.144 10.1704918,0.144 C10.0442623,0.144 9.91803279,0.18 9.80983607,0.234 L5.84262295,2.52 C5.62622951,2.646 5.48196721,2.898 5.48196721,3.15 Z" transform="translate(1 12)"/>
    <path fill="#DE156C" d="M5.12131148,2.52 L1.15409836,0.234 C0.81147541,0.036 0.360655738,0.144 0.162295082,0.504 C0.0901639344,0.612 0.0721311475,0.738 0.0721311475,0.864 L0.0721311475,5.436 C0.0721311475,5.688 0.216393443,5.922 0.432786885,6.066 L5.12131148,8.766 C5.33770492,8.892 5.62622951,8.892 5.84262295,8.766 L10.5311475,6.066 C10.747541,5.94 10.8918033,5.706 10.8918033,5.436 L10.8918033,0.864 C10.8918033,0.468 10.5672131,0.144 10.1704918,0.144 C10.0442623,0.144 9.91803279,0.18 9.80983607,0.234 L5.84262295,2.52 C5.62622951,2.646 5.3557377,2.646 5.12131148,2.52 Z" transform="translate(12 12)"/>
    <path fill="url(#logo-pack-color-b)" d="M5.48196721,3.15 L5.48196721,7.722 C5.48196721,8.118 5.80655738,8.442 6.20327869,8.442 C6.3295082,8.442 6.4557377,8.406 6.56393443,8.352 L10.5311475,6.066 C10.747541,5.94 10.8918033,5.706 10.8918033,5.436 L10.8918033,0.864 C10.8918033,0.468 10.5672131,0.144 10.1704918,0.144 C10.0442623,0.144 9.91803279,0.18 9.80983607,0.234 L5.84262295,2.52 C5.62622951,2.646 5.48196721,2.898 5.48196721,3.15 Z" transform="translate(12 12)"/>
    <path fill="#47529D" d="M9.80983607,0.234 L5.84262295,2.52 C5.62622951,2.646 5.33770492,2.646 5.12131148,2.52 L1.15409836,0.234 C0.81147541,0.036 0.360655738,0.144 0.162295082,0.504 C0.0901639344,0.612 0.0721311475,0.738 0.0721311475,0.864 L0.0721311475,5.436 C0.0721311475,5.688 0.216393443,5.922 0.432786885,6.066 L5.12131148,8.766 C5.33770492,8.892 5.62622951,8.892 5.84262295,8.766 L10.5311475,6.066 C10.747541,5.94 10.8918033,5.706 10.8918033,5.436 L10.8918033,0.864 C10.8918033,0.468 10.5672131,0.144 10.1704918,0.144 C10.0442623,0.144 9.91803279,0.18 9.80983607,0.234 Z" transform="translate(7 3)"/>
    <path fill="url(#logo-pack-color-c)" d="M9.80983607,0.234 L5.84262295,2.52 C5.62622951,2.646 5.48196721,2.88 5.48196721,3.15 L5.48196721,7.722 C5.48196721,8.118 5.80655738,8.442 6.20327869,8.442 C6.3295082,8.442 6.4557377,8.406 6.56393443,8.352 L10.5311475,6.066 C10.747541,5.94 10.8918033,5.706 10.8918033,5.436 L10.8918033,0.864 C10.8918033,0.468 10.5672131,0.144 10.1704918,0.144 C10.0442623,0.144 9.91803279,0.18 9.80983607,0.234 Z" transform="translate(7 3)"/>
  </g>
</svg>
