<svg width="1600" height="703" viewBox="0 0 1600 703" fill="none" xmlns="http://www.w3.org/2000/svg">
<mask id="mask0" mask-type="alpha" maskUnits="userSpaceOnUse" x="0" y="0" width="1600" height="703">
<rect width="1600" height="702.409" fill="#F7F7F9"/>
</mask>
<g mask="url(#mask0)">
<g opacity="0.7">
<path d="M1573.1 423.6L1599 468.6" stroke="#14C6CB" stroke-width="2.25" stroke-linecap="round"/>
<path d="M1547.1 423.6L1599 513.6" stroke="#14C6CB" stroke-width="2.25" stroke-linecap="round"/>
<path d="M1521.1 423.6L1599 558.6" stroke="#14C6CB" stroke-width="2.25" stroke-linecap="round"/>
<path d="M1495.1 423.6L1599 603.6" stroke="#14C6CB" stroke-width="2.25" stroke-linecap="round"/>
<path d="M1469.1 423.6L1599 648.6" stroke="#14C6CB" stroke-width="2.25" stroke-linecap="round"/>
<path d="M1443.2 423.6L1599 693.6" stroke="#14C6CB" stroke-width="2.25" stroke-linecap="round"/>
<path d="M1508.1 -138.9L1599 18.6001" stroke="#14C6CB" stroke-width="2.25" stroke-linecap="round"/>
<path d="M1482.1 -138.9L1599 63.6001" stroke="#14C6CB" stroke-width="2.25" stroke-linecap="round"/>
<path d="M1456.1 -138.9L1599 108.6" stroke="#14C6CB" stroke-width="2.25" stroke-linecap="round"/>
<path d="M1599 153.6L1430.2 -138.9" stroke="#14C6CB" stroke-width="2.25" stroke-linecap="round"/>
<path d="M1599 198.6L1404.2 -138.9" stroke="#14C6CB" stroke-width="2.25" stroke-linecap="round"/>
<path d="M1573.1 198.6L1520.5 107.7" stroke="#14C6CB" stroke-width="2.25" stroke-linecap="round"/>
<path d="M1378.2 -138.9L1520.5 107.7" stroke="#14C6CB" stroke-width="2.25" stroke-linecap="round"/>
<path d="M1456.1 41.1001L1430.2 86.1001" stroke="#14C6CB" stroke-width="2.25" stroke-linecap="round"/>
<path d="M1534.1 221.1L1456.1 86.1001" stroke="#14C6CB" stroke-width="2.25" stroke-linecap="round"/>
<path d="M1443.2 18.6001L1404.2 86.1001" stroke="#14C6CB" stroke-width="2.25" stroke-linecap="round"/>
<path d="M1391.2 -71.3999L1300.3 86.1001" stroke="#14C6CB" stroke-width="2.25" stroke-linecap="round"/>
<path d="M1404.2 -48.8999L1326.3 86.1001" stroke="#14C6CB" stroke-width="2.25" stroke-linecap="round"/>
<path d="M1378.2 -93.8999L1274.3 86.1001" stroke="#14C6CB" stroke-width="2.25" stroke-linecap="round"/>
<path d="M1547.1 198.6L1482.1 86.1001" stroke="#14C6CB" stroke-width="2.25" stroke-linecap="round"/>
<path d="M1469.1 63.6001L1456.1 86.1001" stroke="#14C6CB" stroke-width="2.25" stroke-linecap="round"/>
<path d="M1417.2 -26.3999L1352.2 86.1001" stroke="#14C6CB" stroke-width="2.25" stroke-linecap="round"/>
<path d="M1430.2 -3.8999L1378.2 86.1001" stroke="#14C6CB" stroke-width="2.25" stroke-linecap="round"/>
<path d="M1482.1 311.1L1352.2 86.1001" stroke="#14C6CB" stroke-width="2.25" stroke-linecap="round"/>
<path d="M1430.2 401.1L1248.3 86.1001L1365.2 -116.4" stroke="#14C6CB" stroke-width="2.25" stroke-linecap="round"/>
<path d="M1443.2 378.6L1274.3 86.1001" stroke="#14C6CB" stroke-width="2.25" stroke-linecap="round"/>
<path d="M1469.1 333.6L1326.2 86.1001" stroke="#14C6CB" stroke-width="2.25" stroke-linecap="round"/>
<path d="M1495.1 288.6L1378.2 86.1001" stroke="#14C6CB" stroke-width="2.25" stroke-linecap="round"/>
<path d="M1456.1 356.1L1300.3 86.1001" stroke="#14C6CB" stroke-width="2.25" stroke-linecap="round"/>
<path d="M1508.1 266.1L1404.2 86.1001" stroke="#14C6CB" stroke-width="2.25" stroke-linecap="round"/>
<path d="M1521.1 243.6L1430.2 86.1001" stroke="#14C6CB" stroke-width="2.25" stroke-linecap="round"/>
<path d="M1573.1 423.6L1599 378.6" stroke="#14C6CB" stroke-width="2.25" stroke-linecap="round"/>
<path d="M1599 333.6L1547.1 423.6" stroke="#14C6CB" stroke-width="2.25" stroke-linecap="round"/>
<path d="M1599 288.6L1521.1 423.6" stroke="#14C6CB" stroke-width="2.25" stroke-linecap="round"/>
<path d="M1599 243.6L1495.1 423.6" stroke="#14C6CB" stroke-width="2.25" stroke-linecap="round"/>
<path d="M1599 198.6L1469.1 423.6" stroke="#14C6CB" stroke-width="2.25" stroke-linecap="round"/>
<path d="M1443.2 423.6L1573.1 198.6" stroke="#14C6CB" stroke-width="2.25" stroke-linecap="round"/>
<path d="M1521.1 108.6L1520.5 107.7" stroke="#14C6CB" stroke-width="2.25" stroke-linecap="round"/>
<path d="M1508.1 86.1001L1520.5 107.7" stroke="#14C6CB" stroke-width="2.25" stroke-linecap="round"/>
<path d="M11.0194 135.679L224.467 -234.049" stroke="#14C6CB" stroke-width="2.25" stroke-linecap="round"/>
<path d="M33.5057 174.598L269.44 -234.049" stroke="#14C6CB" stroke-width="2.25" stroke-linecap="round"/>
<path d="M-33.8655 57.8416L134.609 -234.049" stroke="#14C6CB" stroke-width="2.25" stroke-linecap="round"/>
<path d="M-11.467 96.7603L179.581 -234.049" stroke="#14C6CB" stroke-width="2.25" stroke-linecap="round"/>
<path d="M246.953 -234.049L22.2626 155.138" stroke="#14C6CB" stroke-width="2.25" stroke-linecap="round"/>
<path d="M-0.223816 116.22L202.067 -234.049" stroke="#14C6CB" stroke-width="2.25" stroke-linecap="round"/>
<path d="M-22.7101 77.301L157.094 -234.049" stroke="#14C6CB" stroke-width="2.25" stroke-linecap="round"/>
<path d="M-45.1087 38.3823L112.123 -234.049" stroke="#14C6CB" stroke-width="2.25" stroke-linecap="round"/>
<path d="M-144.047 15.1176L-0.221115 -234.049" stroke="#14C6CB" stroke-width="2.25" stroke-linecap="round"/>
<path d="M-135.054 38.3823L22.2639 -234.049" stroke="#14C6CB" stroke-width="2.25" stroke-linecap="round"/>
<path d="M-112.568 38.3823L44.7503 -234.049" stroke="#14C6CB" stroke-width="2.25" stroke-linecap="round"/>
<path d="M-67.595 38.3823L89.723 -234.049" stroke="#14C6CB" stroke-width="2.25" stroke-linecap="round"/>
<path d="M-90.0814 38.3823L67.2366 -234.049" stroke="#14C6CB" stroke-width="2.25" stroke-linecap="round"/>
<path d="M-144.047 482.142L-0.221115 232.976" stroke="#14C6CB" stroke-width="2.25" stroke-linecap="round"/>
<path d="M44.7516 232.976L-144.047 559.979" stroke="#14C6CB" stroke-width="2.25" stroke-linecap="round"/>
<path d="M-144.047 521.061L22.2652 232.976" stroke="#14C6CB" stroke-width="2.25" stroke-linecap="round"/>
<path d="M44.7503 232.976L-67.595 38.3823" stroke="#14C6CB" stroke-width="2.25" stroke-linecap="round"/>
<path d="M-112.568 38.3823L-0.222456 232.976" stroke="#14C6CB" stroke-width="2.25" stroke-linecap="round"/>
<path d="M-90.0814 38.3823L22.2639 232.976" stroke="#14C6CB" stroke-width="2.25" stroke-linecap="round"/>
<path d="M100.878 485.947L11.0194 330.272" stroke="#14C6CB" stroke-width="2.25" stroke-linecap="round"/>
<path d="M123.365 485.947L-0.223816 700" stroke="#14C6CB" stroke-width="2.25" stroke-linecap="round"/>
<path d="M11.0207 485.947L-112.568 700" stroke="#14C6CB" stroke-width="2.25" stroke-linecap="round"/>
<path d="M78.4798 485.947L-45.1087 700" stroke="#14C6CB" stroke-width="2.25" stroke-linecap="round"/>
<path d="M55.9934 485.947L-67.595 700" stroke="#14C6CB" stroke-width="2.25" stroke-linecap="round"/>
<path d="M33.5071 485.947L-90.0814 700" stroke="#14C6CB" stroke-width="2.25" stroke-linecap="round"/>
<path d="M100.878 485.947L-22.7101 700" stroke="#14C6CB" stroke-width="2.25" stroke-linecap="round"/>
<path d="M22.2626 310.813L123.365 485.947" stroke="#14C6CB" stroke-width="2.25" stroke-linecap="round"/>
<path d="M-0.223816 349.732L78.4784 485.947" stroke="#14C6CB" stroke-width="2.25" stroke-linecap="round"/>
<path d="M-11.467 369.191L55.9921 485.947" stroke="#14C6CB" stroke-width="2.25" stroke-linecap="round"/>
<path d="M-22.7101 388.651L33.5057 485.947" stroke="#14C6CB" stroke-width="2.25" stroke-linecap="round"/>
<path d="M-33.8655 408.11L11.0207 485.947" stroke="#14C6CB" stroke-width="2.25" stroke-linecap="round"/>
</g>
</g>
</svg>
