<svg width="600" height="360" viewBox="0 0 600 360" fill="none" xmlns="http://www.w3.org/2000/svg"><g opacity=".5"><mask id="a" maskUnits="userSpaceOnUse" x="0" y="0" width="600" height="360"><path fill="var(--nomad, #60dea9)" d="M0 0h600v360H0z"/></mask><g mask="url(#a)"><path opacity=".8" d="M417.339 324.572c-.24 0-.401-.08-.481-.321-.16-.321-.08-.641.241-.802l18.677-10.823c.32-.161.641-.08.801.24.16.321.08.642-.24.802l-18.677 10.824c-.08.08-.16.08-.321.08z" fill="url(#paint0_linear)"/><path opacity=".9" d="M436.096 313.828c-.24 0-.401-.08-.481-.32-.16-.321-.08-.642.241-.802l18.676-10.823c.321-.161.641-.081.802.24.16.321.08.642-.241.802l-18.676 10.823c-.161 0-.241.08-.321.08z" fill="url(#paint1_linear)"/><path opacity=".6" d="M454.773 324.572c-.241 0-.401-.08-.481-.321-.16-.321-.08-.641.24-.802l18.677-10.823c.32-.161.641-.08.801.24.161.321.081.642-.24.802l-18.676 10.824c-.161.08-.241.08-.321.08z" fill="url(#paint2_linear)"/><path opacity=".6" d="M454.773 303.005c-.241 0-.401-.08-.481-.321-.16-.32-.08-.641.24-.801l18.677-10.824c.32-.16.641-.08.801.241.161.321.081.641-.24.802l-18.676 10.823c-.161.08-.241.08-.321.08z" fill="url(#paint3_linear)"/><path opacity=".4" d="M342.633 367.785c-.241 0-.401-.08-.481-.321-.161-.32-.081-.641.24-.801l18.677-10.824c.32-.16.641-.08.801.241.161.32.081.641-.24.801l-18.677 10.824c-.16 0-.24.08-.32.08z" fill="url(#paint4_linear)"/><path opacity=".5" d="M361.309 356.962c-.24 0-.401-.081-.481-.321-.16-.321-.08-.642.241-.802l18.676-10.823c.321-.161.642-.08.802.24.16.321.08.642-.24.802l-18.677 10.823c-.08.081-.241.081-.321.081z" fill="url(#paint5_linear)"/><path opacity=".6" d="M379.986 367.785c-.241 0-.401-.08-.481-.321-.16-.32-.08-.641.24-.801l18.677-10.824c.321-.16.641-.08.802.241.16.32.08.641-.241.801l-18.676 10.824c-.081 0-.241.08-.321.08z" fill="url(#paint6_linear)"/><path opacity=".6" d="M379.986 346.138c-.241 0-.401-.08-.481-.32-.16-.321-.08-.642.24-.802l18.677-10.824c.321-.16.641-.08.802.241.16.321.08.641-.241.802l-18.676 10.823c-.081.08-.241.08-.321.08z" fill="url(#paint7_linear)"/><path opacity=".7" d="M398.663 356.962c-.241 0-.401-.081-.481-.321-.161-.321-.081-.642.24-.802l18.677-10.823c.32-.161.641-.08.801.24.161.321.08.642-.24.802l-18.677 10.823c-.08.081-.16.081-.32.081z" fill="url(#paint8_linear)"/><path opacity=".8" d="M417.339 367.785c-.24 0-.401-.08-.481-.321-.16-.32-.08-.641.241-.801l18.677-10.824c.32-.16.641-.08.801.241.16.32.08.641-.24.801l-18.677 10.824c-.08 0-.16.08-.321.08z" fill="url(#paint9_linear)"/><path opacity=".7" d="M398.663 335.395c-.241 0-.401-.08-.481-.321-.161-.32-.081-.641.24-.801l18.677-10.824c.32-.16.641-.08.801.241.161.321.08.641-.24.802l-18.677 10.823c-.08 0-.16.08-.32.08z" fill="url(#paint10_linear)"/><path opacity=".8" d="M417.339 346.138c-.24 0-.401-.08-.481-.32-.16-.321-.08-.642.241-.802l18.677-10.824c.32-.16.641-.08.801.241.16.321.08.641-.24.802l-18.677 10.823c-.08.08-.16.08-.321.08z" fill="url(#paint11_linear)"/><path opacity=".9" d="M436.096 356.962c-.24 0-.401-.081-.481-.321-.16-.321-.08-.642.241-.802l18.676-10.823c.321-.161.641-.08.802.24.16.321.08.642-.241.802l-18.676 10.823c-.161.081-.241.081-.321.081z" fill="url(#paint12_linear)"/><path opacity=".6" d="M454.773 367.785c-.241 0-.401-.08-.481-.321-.16-.32-.08-.641.24-.801l18.677-10.824c.32-.16.641-.08.801.241.161.32.081.641-.24.801l-18.676 10.824c-.161 0-.241.08-.321.08z" fill="url(#paint13_linear)"/><path opacity=".9" d="M436.096 335.395c-.24 0-.401-.08-.481-.321-.16-.32-.08-.641.241-.801l18.676-10.824c.321-.16.641-.08.802.241.16.321.08.641-.241.802l-18.676 10.823c-.161 0-.241.08-.321.08z" fill="url(#paint14_linear)"/><path opacity=".6" d="M454.773 346.138c-.241 0-.401-.08-.481-.32-.16-.321-.08-.642.24-.802l18.677-10.824c.32-.16.641-.08.801.241.161.321.081.641-.24.802l-18.676 10.823c-.161.08-.241.08-.321.08z" fill="url(#paint15_linear)"/><path opacity=".8" d="M641.62 389.351c-.241 0-.401-.08-.481-.32-.161-.321-.08-.642.24-.802l18.677-10.823c.321-.161.641-.081.802.24.16.321.08.642-.241.802l-18.677 10.823c-.08 0-.16.08-.32.08zm-18.677-10.823c-.24 0-.401-.08-.481-.321-.16-.32-.08-.641.241-.801l37.353-21.567c.321-.16.641-.08.802.241.16.32.08.641-.241.801l-37.353 21.567c-.08.08-.241.08-.321.08zm-18.677-10.743c-.24 0-.4-.08-.48-.321-.161-.321-.081-.641.24-.802l56.03-32.389c.321-.161.641-.081.802.24.16.321.08.641-.241.802l-56.03 32.39c-.08 0-.24.08-.321.08zm-18.676-10.823c-.241 0-.401-.081-.481-.321-.16-.321-.08-.642.24-.802l74.787-43.133c.321-.16.641-.08.802.241.16.32.08.641-.241.801l-74.787 43.133c-.16.081-.24.081-.32.081zm-18.677-10.824c-.24 0-.401-.08-.481-.321-.16-.32-.08-.641.241-.801l93.463-53.957c.321-.16.641-.08.802.241.16.321.08.641-.241.802l-93.463 53.956c-.161.08-.241.08-.321.08zm-18.677-10.743c-.24 0-.4-.08-.481-.321-.16-.32-.08-.641.241-.801l112.14-64.78c.321-.161.641-.08.802.24.16.321.08.642-.241.802l-112.14 64.78c-.16 0-.24.08-.321.08zm-18.756-10.823c-.241 0-.401-.08-.481-.321-.161-.321-.08-.641.24-.802l130.817-75.523c.321-.16.641-.08.802.241.16.321.08.641-.241.802L529.8 324.491c-.08.081-.16.081-.32.081zm-18.677-10.744c-.24 0-.401-.08-.481-.32-.16-.321-.08-.642.24-.802l149.494-86.346c.321-.161.641-.08.802.24.16.321.08.642-.241.802l-149.493 86.346c-.081 0-.241.08-.321.08zm-18.677-10.823c-.24 0-.401-.08-.481-.321-.16-.32-.08-.641.241-.801l168.17-97.09c.321-.16.641-.08.802.241.16.32.08.641-.241.802l-168.17 97.089c-.08.08-.241.08-.321.08zm-18.676-10.823c-.241 0-.401-.08-.481-.321-.161-.321-.081-.641.24-.802l186.927-107.912c.321-.161.641-.081.802.24.16.321.08.641-.241.802L473.77 292.102c-.16.08-.24.08-.32.08z" fill="var(--gray-4, #bfbfc0)"/><path opacity=".6" d="M660.297 680.7c-.081 0-.241 0-.321-.08L473.049 572.707c-.321-.16-.401-.561-.241-.802.161-.32.562-.401.802-.24l186.927 107.913c.321.16.401.561.24.801 0 .241-.24.321-.48.321zm0-21.567c-.081 0-.241 0-.321-.08L473.049 551.141c-.321-.161-.401-.562-.241-.802.161-.321.562-.401.802-.241l186.927 107.913c.321.16.401.561.24.802 0 .24-.24.32-.48.32zm0-21.566c-.081 0-.241 0-.321-.08L473.129 529.574c-.32-.16-.401-.561-.24-.802.16-.32.561-.401.801-.24l186.927 107.913c.321.16.401.561.241.801-.08.161-.321.321-.561.321zm0-21.567c-.081 0-.241 0-.321-.08L473.129 507.927c-.32-.16-.401-.561-.24-.801.16-.321.561-.401.801-.241l186.927 107.913c.321.16.401.561.241.802-.08.24-.321.4-.561.4zm0-21.646c-.081 0-.241 0-.321-.08L473.049 486.361c-.321-.161-.401-.561-.241-.802.161-.321.562-.401.802-.241l186.927 107.913c.321.161.401.562.24.802 0 .241-.24.321-.48.321zm0-21.567c-.081 0-.241 0-.321-.08L473.049 464.794c-.321-.16-.401-.561-.241-.801.161-.321.562-.401.802-.241l186.927 107.913c.321.16.401.561.24.802 0 .24-.24.32-.48.32zm0-21.566c-.081 0-.241 0-.321-.08L473.049 443.228c-.321-.161-.401-.562-.241-.802.161-.321.562-.401.802-.241l186.927 107.913c.321.161.401.561.24.802 0 .241-.24.321-.48.321zm0-21.567c-.081 0-.241 0-.321-.08L473.049 421.661c-.321-.16-.401-.561-.241-.802.161-.32.562-.4.802-.24l186.927 107.913c.321.16.401.561.24.801 0 .161-.24.321-.48.321zm0-21.566c-.081 0-.241 0-.321-.081L473.049 400.095c-.321-.161-.401-.562-.241-.802.161-.321.562-.401.802-.241l186.927 107.913c.321.161.401.561.24.802 0 .16-.24.321-.48.321zm0-21.647c-.081 0-.241 0-.321-.08L473.049 378.448c-.321-.16-.401-.561-.241-.802.161-.32.562-.401.802-.24l186.927 107.912c.321.161.401.562.24.802 0 .241-.24.321-.48.321zm0-21.567c-.081 0-.241 0-.321-.08L473.049 356.881c-.321-.16-.401-.561-.241-.801.161-.321.562-.401.802-.241l186.927 107.913c.321.16.401.561.24.802 0 .24-.24.32-.48.32zm0-21.566c-.081 0-.241 0-.321-.08L473.049 335.315c-.321-.16-.401-.561-.241-.802.161-.321.562-.401.802-.24l187.007 107.912c.321.161.401.562.241.802-.08.241-.321.321-.561.321zm0-21.567c-.081 0-.241 0-.321-.08L473.049 313.748c-.321-.16-.401-.561-.241-.801.161-.321.562-.401.802-.241l186.927 107.913c.321.16.401.561.24.802 0 .16-.24.32-.48.32zm0-21.646c-.081 0-.241 0-.321-.08L473.049 292.102c-.321-.161-.401-.562-.241-.802.161-.321.562-.401.802-.241l186.927 107.913c.321.161.401.561.24.802 0 .24-.24.321-.48.321z" fill="url(#paint16_linear)"/><g opacity=".75"><path d="M128.311 94.342c.24 0 .401.08.481.32.16.321.08.642-.241.802l-18.676 10.823c-.321.161-.642.081-.802-.24-.16-.321-.08-.641.24-.802l18.677-10.823c.08-.08.16-.08.321-.08z" fill="url(#paint17_linear)"/><path d="M109.554 105.085c.24 0 .401.08.481.321.16.32.08.641-.241.801l-18.676 10.824c-.32.16-.641.08-.802-.241-.16-.321-.08-.641.24-.802l18.677-10.823c.161 0 .241-.08.321-.08z" fill="url(#paint18_linear)"/><path d="M90.877 94.342c.24 0 .4.08.481.32.16.321.08.642-.24.802L72.44 106.287c-.32.161-.641.081-.801-.24-.16-.321-.08-.641.24-.802l18.677-10.823c.16-.08.24-.08.32-.08z" fill="url(#paint19_linear)"/><path d="M90.877 115.908c.24 0 .4.08.481.321.16.321.08.641-.24.802L72.44 127.854c-.32.16-.641.08-.801-.241-.16-.32-.08-.641.24-.801l18.677-10.824c.16-.08.24-.08.32-.08z" fill="url(#paint20_linear)"/><path d="M203.017 51.128c.241 0 .401.08.481.321.161.32.081.642-.24.802l-18.677 10.823c-.32.16-.641.08-.801-.24-.161-.321-.081-.642.24-.802l18.677-10.823c.16 0 .24-.08.32-.08z" fill="url(#paint21_linear)"/><path d="M184.341 61.952c.24 0 .401.08.481.32.16.321.08.642-.241.802l-18.676 10.823c-.321.16-.642.08-.802-.24-.16-.32-.08-.641.24-.802l18.677-10.823c.08-.08.241-.08.321-.08z" fill="url(#paint22_linear)"/><path d="M165.664 51.128c.241 0 .401.08.481.321.16.32.08.642-.24.802l-18.677 10.823c-.321.16-.641.08-.802-.24-.16-.321-.08-.642.241-.802l18.676-10.823c.081 0 .241-.08.321-.08z" fill="url(#paint23_linear)"/><path d="M165.664 72.775c.241 0 .401.08.481.32.16.321.08.642-.24.802l-18.677 10.824c-.321.16-.641.08-.802-.24-.16-.321-.08-.642.241-.802l18.676-10.824c.081-.08.241-.08.321-.08z" fill="url(#paint24_linear)"/><path d="M146.987 61.952c.241 0 .401.08.481.32.161.321.081.642-.24.802l-18.677 10.823c-.32.16-.641.08-.801-.24-.161-.32-.08-.641.24-.802l18.677-10.823c.08-.08.16-.08.32-.08z" fill="url(#paint25_linear)"/><path d="M128.311 51.128c.24 0 .401.08.481.321.16.32.08.642-.241.802l-18.676 10.823c-.321.16-.642.08-.802-.24-.16-.321-.08-.642.24-.802l18.677-10.823c.08 0 .16-.08.321-.08z" fill="url(#paint26_linear)"/><path d="M146.987 83.518c.241 0 .401.08.481.32.161.322.081.642-.24.803l-18.677 10.823c-.32.16-.641.08-.801-.24-.161-.321-.08-.642.24-.802l18.677-10.824c.08 0 .16-.08.32-.08z" fill="url(#paint27_linear)"/><path d="M128.311 72.775c.24 0 .401.08.481.32.16.321.08.642-.241.802l-18.676 10.824c-.321.16-.642.08-.802-.24-.16-.321-.08-.642.24-.802l18.677-10.824c.08-.08.16-.08.321-.08z" fill="url(#paint28_linear)"/><path d="M109.554 61.952c.24 0 .401.08.481.32.16.321.08.642-.241.802L91.118 73.897c-.32.16-.641.08-.802-.24-.16-.32-.08-.641.24-.802l18.677-10.823c.161-.08.241-.08.321-.08z" fill="url(#paint29_linear)"/><path d="M90.877 51.128c.24 0 .4.08.481.321.16.32.08.642-.24.802L72.44 63.074c-.32.16-.641.08-.801-.24-.16-.321-.08-.642.24-.802l18.677-10.823c.16 0 .24-.08.32-.08z" fill="url(#paint30_linear)"/><path d="M109.554 83.518c.24 0 .401.08.481.32.16.322.08.642-.241.803L91.118 95.464c-.32.16-.641.08-.802-.24-.16-.321-.08-.642.24-.802l18.677-10.824c.161 0 .241-.08.321-.08z" fill="url(#paint31_linear)"/><path d="M90.877 72.775c.24 0 .4.08.481.32.16.321.08.642-.24.802L72.44 84.721c-.32.16-.641.08-.801-.24-.16-.321-.08-.642.24-.802l18.677-10.824c.16-.08.24-.08.32-.08z" fill="url(#paint32_linear)"/><path d="M277.804 7.995c.241 0 .401.08.481.321.161.32.081.641-.24.802L259.368 19.94c-.32.16-.641.08-.801-.24-.161-.321-.081-.642.24-.802l18.677-10.824c.08-.08.16-.08.32-.08z" fill="url(#paint33_linear)"/><path d="M259.128 18.819c.24 0 .4.08.481.32.16.321.08.642-.241.802l-18.677 10.824c-.32.16-.641.08-.801-.241-.161-.32-.08-.641.24-.802L258.807 18.9c.08-.08.16-.08.321-.08z" fill="url(#paint34_linear)"/><path d="M240.371 7.995c.24 0 .401.08.481.321.16.32.08.641-.241.802L221.935 19.94c-.321.16-.642.08-.802-.24-.16-.321-.08-.642.241-.802L240.05 8.075c.16-.08.241-.08.321-.08z" fill="url(#paint35_linear)"/><path d="M240.371 29.562c.24 0 .401.08.481.32.16.321.08.642-.241.802l-18.676 10.824c-.321.16-.642.08-.802-.24-.16-.322-.08-.642.241-.803l18.676-10.823c.16 0 .241-.08.321-.08z" fill="url(#paint36_linear)"/><path d="M221.694 18.819c.241 0 .401.08.481.32.161.321.08.642-.24.802l-18.677 10.824c-.321.16-.641.08-.802-.241-.16-.32-.08-.641.241-.802L221.374 18.9c.16-.08.24-.08.32-.08z" fill="url(#paint37_linear)"/><path d="M203.017 7.995c.241 0 .401.08.481.321.161.32.081.641-.24.802L184.581 19.94c-.32.16-.641.08-.801-.24-.161-.321-.081-.642.24-.802l18.677-10.824c.16-.08.24-.08.32-.08z" fill="url(#paint38_linear)"/><path d="M221.694 40.385c.241 0 .401.08.481.32.161.322.08.642-.24.803L203.258 52.33c-.321.16-.641.08-.802-.24-.16-.321-.08-.642.241-.802l18.677-10.824c.16-.08.24-.08.32-.08z" fill="url(#paint39_linear)"/><path d="M203.017 29.562c.241 0 .401.08.481.32.161.321.081.642-.24.802l-18.677 10.824c-.32.16-.641.08-.801-.24-.161-.322-.081-.642.24-.803l18.677-10.823c.16 0 .24-.08.32-.08z" fill="url(#paint40_linear)"/><path d="M184.341 18.819c.24 0 .401.08.481.32.16.321.08.642-.241.802l-18.676 10.824c-.321.16-.642.08-.802-.241-.16-.32-.08-.641.24-.802L184.02 18.9c.08-.08.241-.08.321-.08z" fill="url(#paint41_linear)"/><path d="M165.664 7.995c.241 0 .401.08.481.321.16.32.08.641-.24.802L147.228 19.94c-.321.16-.641.08-.802-.24-.16-.321-.08-.642.241-.802l18.676-10.824c.081-.08.241-.08.321-.08z" fill="url(#paint42_linear)"/><path d="M184.341 40.385c.24 0 .401.08.481.32.16.322.08.642-.241.803L165.905 52.33c-.321.16-.642.08-.802-.24-.16-.321-.08-.642.24-.802l18.677-10.824c.08-.08.241-.08.321-.08z" fill="url(#paint43_linear)"/><path d="M165.664 29.562c.241 0 .401.08.481.32.16.321.08.642-.24.802l-18.677 10.824c-.321.16-.641.08-.802-.24-.16-.322-.08-.642.241-.803l18.676-10.823c.081 0 .241-.08.321-.08z" fill="url(#paint44_linear)"/><path d="M146.987 18.819c.241 0 .401.08.481.32.161.321.081.642-.24.802l-18.677 10.824c-.32.16-.641.08-.801-.241-.161-.32-.08-.641.24-.802L146.667 18.9c.08-.08.16-.08.32-.08z" fill="url(#paint45_linear)"/><path d="M128.311 7.995c.24 0 .401.08.481.321.16.32.08.641-.241.802L109.875 19.94c-.321.16-.642.08-.802-.24-.16-.321-.08-.642.24-.802L127.99 8.075c.08-.08.16-.08.321-.08z" fill="url(#paint46_linear)"/><path d="M146.987 40.385c.241 0 .401.08.481.32.161.322.081.642-.24.803L128.551 52.33c-.32.16-.641.08-.801-.24-.161-.321-.08-.642.24-.802l18.677-10.824c.08-.08.16-.08.32-.08z" fill="url(#paint47_linear)"/><path d="M128.311 29.562c.24 0 .401.08.481.32.16.321.08.642-.241.802l-18.676 10.824c-.321.16-.642.08-.802-.24-.16-.322-.08-.642.24-.803l18.677-10.823c.08 0 .16-.08.321-.08z" fill="url(#paint48_linear)"/><path d="M109.554 18.819c.24 0 .401.08.481.32.16.321.08.642-.241.802L91.118 30.765c-.32.16-.641.08-.802-.241-.16-.32-.08-.641.24-.802L109.234 18.9c.161-.08.241-.08.321-.08z" fill="url(#paint49_linear)"/><path d="M90.877 7.995c.24 0 .4.08.481.321.16.32.08.641-.24.802L72.44 19.94c-.32.16-.641.08-.801-.24-.16-.321-.08-.642.24-.802L90.557 8.075c.16-.08.24-.08.32-.08z" fill="url(#paint50_linear)"/><path d="M109.554 40.385c.24 0 .401.08.481.32.16.322.08.642-.241.803L91.118 52.33c-.32.16-.641.08-.802-.24-.16-.321-.08-.642.24-.802l18.677-10.824c.161-.08.241-.08.321-.08z" fill="url(#paint51_linear)"/><path d="M90.877 29.562c.24 0 .4.08.481.32.16.321.08.642-.24.802L72.44 41.508c-.32.16-.641.08-.801-.24-.16-.322-.08-.642.24-.803l18.677-10.823c.16 0 .24-.08.32-.08z" fill="url(#paint52_linear)"/><path d="M296.481-2.828c.24 0 .401.08.481.32.16.321.08.642-.241.802L278.045 9.118c-.321.16-.641.08-.802-.24-.16-.321-.08-.642.241-.802L296.16-2.748c.08 0 .241-.08.321-.08z" fill="url(#paint53_linear)"/><path d="M259.128-2.828c.24 0 .4.08.481.32.16.321.08.642-.241.802L240.691 9.118c-.32.16-.641.08-.801-.24-.161-.321-.08-.642.24-.802l18.677-10.824c.08 0 .16-.08.321-.08z" fill="url(#paint54_linear)"/><path d="M221.694-2.828c.241 0 .401.08.481.32.161.321.08.642-.24.802L203.258 9.118c-.321.16-.641.08-.802-.24-.16-.321-.08-.642.241-.802l18.677-10.824c.16 0 .24-.08.32-.08z" fill="url(#paint55_linear)"/><path d="M184.341-2.828c.24 0 .401.08.481.32.16.321.08.642-.241.802L165.905 9.118c-.321.16-.642.08-.802-.24-.16-.321-.08-.642.24-.802L184.02-2.748c.08 0 .241-.08.321-.08z" fill="url(#paint56_linear)"/><path d="M146.987-2.828c.241 0 .401.08.481.32.161.321.081.642-.24.802L128.551 9.118c-.32.16-.641.08-.801-.24-.161-.321-.08-.642.24-.802l18.677-10.824c.08 0 .16-.08.32-.08z" fill="url(#paint57_linear)"/><path d="M109.554-2.828c.24 0 .401.08.481.32.16.321.08.642-.241.802L91.118 9.118c-.32.16-.641.08-.802-.24-.16-.321-.08-.642.24-.802l18.677-10.824c.161 0 .241-.08.321-.08z" fill="url(#paint58_linear)"/></g><path opacity=".8" d="M-95.97 29.562c.24 0 .401.08.481.32.16.321.08.642-.24.802l-18.677 10.824c-.321.16-.641.08-.802-.24-.16-.322-.08-.642.241-.803l18.677-10.823c.08 0 .16-.08.32-.08zm18.677 10.823c.24 0 .4.08.48.32.161.322.081.642-.24.803l-37.353 21.566c-.321.16-.641.08-.802-.24-.16-.321-.08-.642.241-.802l37.353-21.567c.08-.08.24-.08.32-.08zm18.677 10.743c.24 0 .4.08.48.321.16.32.08.641-.24.802l-56.03 32.39c-.321.16-.641.08-.802-.24-.16-.322-.08-.642.241-.803l56.03-32.39c.08 0 .24-.08.32-.08zm18.676 10.824c.24 0 .401.08.481.32.16.321.08.642-.24.802l-74.787 43.133c-.321.16-.641.08-.802-.24-.16-.321-.08-.642.241-.802l74.787-43.133c.16-.08.24-.08.32-.08zm18.677 10.823c.24 0 .4.08.48.32.161.321.081.642-.24.802l-93.463 53.957c-.321.16-.641.08-.802-.241-.16-.32-.08-.641.241-.801l93.463-53.957c.16-.08.24-.08.32-.08zm18.677 10.743c.24 0 .4.08.48.32.16.322.08.642-.24.803l-112.14 64.779c-.321.161-.641.081-.802-.24-.16-.321-.08-.642.241-.802l112.14-64.78c.16 0 .24-.08.32-.08zM16.17 94.342c.241 0 .401.08.481.32.16.32.08.642-.24.802l-130.817 75.523c-.321.16-.641.08-.802-.241-.16-.32-.08-.641.241-.801L15.85 94.422c.08-.08.16-.08.32-.08zm18.677 10.743c.24 0 .4.08.481.32.16.321.08.642-.24.802l-149.494 86.346c-.321.161-.641.081-.802-.24-.16-.321-.08-.641.241-.802l149.493-86.346c.08 0 .24-.08.321-.08zm18.677 10.823c.24 0 .4.08.48.321.161.32.08.641-.24.802l-168.17 97.089c-.321.16-.641.08-.802-.241-.16-.32-.08-.641.241-.801l168.17-97.09c.08-.08.24-.08.32-.08zM72.2 126.731c.24 0 .401.081.481.321.16.321.08.642-.24.802l-186.927 107.913c-.321.16-.641.08-.802-.241-.16-.321-.08-.641.241-.802L71.88 126.812c.16-.081.24-.081.32-.081z" fill="url(#paint59_linear)"/><path d="M-114.647-261.787c.081 0 .241 0 .321.08L72.601-153.794c.32.161.4.562.24.802-.16.321-.56.401-.801.241l-186.927-107.913c-.321-.161-.401-.561-.24-.802 0-.24.24-.321.48-.321zm0 21.567c.081 0 .241 0 .321.08L72.601-132.227c.32.16.4.561.24.802-.16.32-.56.4-.801.24l-186.927-107.913c-.321-.16-.401-.561-.24-.801 0-.241.24-.321.48-.321zm0 21.566c.081 0 .241 0 .321.081L72.521-110.661c.32.161.4.562.24.802-.16.321-.56.401-.801.241l-186.927-107.913c-.321-.161-.401-.561-.241-.802.08-.16.321-.321.561-.321zm0 21.567c.081 0 .241 0 .321.08L72.521-89.014c.32.16.4.561.24.802-.16.32-.56.4-.801.24l-186.927-107.913c-.321-.16-.401-.561-.241-.801a.602.602 0 01.561-.401zm0 21.647c.081 0 .241 0 .321.08L72.601-67.447c.32.16.4.56.24.801-.16.321-.56.401-.801.24l-186.927-107.912c-.321-.16-.401-.561-.24-.802 0-.24.24-.32.48-.32zm0 21.566c.081 0 .241 0 .321.08L72.601-45.881c.32.16.4.561.24.802-.16.32-.56.4-.801.24L-114.887-152.75c-.321-.161-.401-.562-.24-.802 0-.241.24-.321.48-.321zm0 21.567c.081 0 .241 0 .321.08L72.601-24.314c.32.16.4.56.24.801-.16.321-.56.401-.801.24l-186.927-107.912c-.321-.16-.401-.561-.24-.802 0-.24.24-.32.48-.32zm0 21.566c.081 0 .241 0 .321.08L72.601-2.748c.32.16.4.561.24.802-.16.32-.56.4-.801.24l-186.927-107.912c-.321-.161-.401-.562-.24-.802 0-.16.24-.321.48-.321zm0 21.567c.081 0 .241 0 .321.08L72.601 18.819c.32.16.4.56.24.801-.16.321-.56.401-.801.24L-114.887-88.051c-.321-.16-.401-.561-.24-.802 0-.16.24-.32.48-.32zm0 21.646c.081 0 .241 0 .321.08L72.601 40.466c.32.16.4.562.24.802-.16.32-.56.401-.801.24L-114.887-66.404c-.321-.16-.401-.561-.24-.802 0-.24.24-.32.48-.32zm0 21.567c.081 0 .241 0 .321.08L72.601 62.032c.32.16.4.561.24.802-.16.32-.56.4-.801.24L-114.887-44.839c-.321-.16-.401-.56-.24-.801 0-.24.24-.321.48-.321zm0 21.566c.081 0 .241 0 .321.08L72.601 83.599c.32.16.4.562.24.802-.16.32-.56.401-.801.24L-114.967-23.271c-.321-.16-.401-.561-.241-.802.08-.24.321-.32.561-.32zm0 21.567c.081 0 .241 0 .321.08L72.601 105.165c.32.16.4.561.24.802-.16.32-.56.401-.801.24L-114.887-1.706c-.321-.16-.401-.56-.24-.801 0-.16.24-.321.48-.321zm0 21.647c.081 0 .241 0 .321.08L72.601 126.812c.32.16.4.561.24.801-.16.321-.56.401-.801.241L-114.887 19.941c-.321-.16-.401-.561-.24-.802 0-.24.24-.32.48-.32z" fill="url(#paint60_linear)"/></g></g><defs><linearGradient id="paint30_linear" x1="86.469" y1="48.499" x2="76.52" y2="65.727" gradientUnits="userSpaceOnUse"><stop offset=".302" stop-color="var(--gray-4, #bfbfc0)" stop-opacity="0"/><stop offset=".825" stop-color="var(--gray-4, #bfbfc0)"/></linearGradient><linearGradient id="paint0_linear" x1="421.748" y1="327.201" x2="431.696" y2="309.973" gradientUnits="userSpaceOnUse"><stop offset=".302" stop-color="var(--gray-4, #bfbfc0)" stop-opacity="0"/><stop offset=".825" stop-color="var(--gray-4, #bfbfc0)"/></linearGradient><linearGradient id="paint2_linear" x1="459.181" y1="327.201" x2="469.13" y2="309.973" gradientUnits="userSpaceOnUse"><stop offset=".302" stop-color="var(--gray-4, #bfbfc0)" stop-opacity="0"/><stop offset=".825" stop-color="var(--gray-4, #bfbfc0)"/></linearGradient><linearGradient id="paint3_linear" x1="459.181" y1="305.634" x2="469.13" y2="288.407" gradientUnits="userSpaceOnUse"><stop offset=".302" stop-color="var(--gray-4, #bfbfc0)" stop-opacity="0"/><stop offset=".825" stop-color="var(--gray-4, #bfbfc0)"/></linearGradient><linearGradient id="paint4_linear" x1="347.041" y1="370.414" x2="356.99" y2="353.186" gradientUnits="userSpaceOnUse"><stop offset=".302" stop-color="var(--gray-4, #bfbfc0)" stop-opacity="0"/><stop offset=".825" stop-color="var(--gray-4, #bfbfc0)"/></linearGradient><linearGradient id="paint5_linear" x1="365.718" y1="359.591" x2="375.666" y2="342.363" gradientUnits="userSpaceOnUse"><stop offset=".302" stop-color="var(--gray-4, #bfbfc0)" stop-opacity="0"/><stop offset=".825" stop-color="var(--gray-4, #bfbfc0)"/></linearGradient><linearGradient id="paint6_linear" x1="384.395" y1="370.414" x2="394.343" y2="353.186" gradientUnits="userSpaceOnUse"><stop offset=".302" stop-color="var(--gray-4, #bfbfc0)" stop-opacity="0"/><stop offset=".825" stop-color="var(--gray-4, #bfbfc0)"/></linearGradient><linearGradient id="paint7_linear" x1="384.395" y1="348.768" x2="394.343" y2="331.54" gradientUnits="userSpaceOnUse"><stop offset=".302" stop-color="var(--gray-4, #bfbfc0)" stop-opacity="0"/><stop offset=".825" stop-color="var(--gray-4, #bfbfc0)"/></linearGradient><linearGradient id="paint8_linear" x1="403.071" y1="359.591" x2="413.02" y2="342.363" gradientUnits="userSpaceOnUse"><stop offset=".302" stop-color="var(--gray-4, #bfbfc0)" stop-opacity="0"/><stop offset=".825" stop-color="var(--gray-4, #bfbfc0)"/></linearGradient><linearGradient id="paint9_linear" x1="421.748" y1="370.414" x2="431.696" y2="353.186" gradientUnits="userSpaceOnUse"><stop offset=".302" stop-color="var(--gray-4, #bfbfc0)" stop-opacity="0"/><stop offset=".825" stop-color="var(--gray-4, #bfbfc0)"/></linearGradient><linearGradient id="paint10_linear" x1="403.071" y1="338.024" x2="413.02" y2="320.797" gradientUnits="userSpaceOnUse"><stop offset=".302" stop-color="var(--gray-4, #bfbfc0)" stop-opacity="0"/><stop offset=".825" stop-color="var(--gray-4, #bfbfc0)"/></linearGradient><linearGradient id="paint11_linear" x1="421.748" y1="348.768" x2="431.696" y2="331.54" gradientUnits="userSpaceOnUse"><stop offset=".302" stop-color="var(--gray-4, #bfbfc0)" stop-opacity="0"/><stop offset=".825" stop-color="var(--gray-4, #bfbfc0)"/></linearGradient><linearGradient id="paint12_linear" x1="440.505" y1="359.591" x2="450.453" y2="342.363" gradientUnits="userSpaceOnUse"><stop offset=".302" stop-color="var(--gray-4, #bfbfc0)" stop-opacity="0"/><stop offset=".825" stop-color="var(--gray-4, #bfbfc0)"/></linearGradient><linearGradient id="paint13_linear" x1="459.181" y1="370.414" x2="469.13" y2="353.186" gradientUnits="userSpaceOnUse"><stop offset=".302" stop-color="var(--gray-4, #bfbfc0)" stop-opacity="0"/><stop offset=".825" stop-color="var(--gray-4, #bfbfc0)"/></linearGradient><linearGradient id="paint14_linear" x1="440.505" y1="338.024" x2="450.453" y2="320.797" gradientUnits="userSpaceOnUse"><stop offset=".302" stop-color="var(--gray-4, #bfbfc0)" stop-opacity="0"/><stop offset=".825" stop-color="var(--gray-4, #bfbfc0)"/></linearGradient><linearGradient id="paint15_linear" x1="459.181" y1="348.768" x2="469.13" y2="331.54" gradientUnits="userSpaceOnUse"><stop offset=".302" stop-color="var(--gray-4, #bfbfc0)" stop-opacity="0"/><stop offset=".825" stop-color="var(--gray-4, #bfbfc0)"/></linearGradient><linearGradient id="paint16_linear" x1="566.886" y1="680.721" x2="566.886" y2="291.005" gradientUnits="userSpaceOnUse"><stop stop-color="var(--gray-4, #bfbfc0)" stop-opacity=".5"/><stop offset="1" stop-color="var(--gray-4, #bfbfc0)"/></linearGradient><linearGradient id="paint17_linear" x1="123.902" y1="91.712" x2="113.954" y2="108.94" gradientUnits="userSpaceOnUse"><stop offset=".302" stop-color="var(--gray-4, #bfbfc0)" stop-opacity="0"/><stop offset=".825" stop-color="var(--gray-4, #bfbfc0)"/></linearGradient><linearGradient id="paint18_linear" x1="105.145" y1="102.456" x2="95.197" y2="119.683" gradientUnits="userSpaceOnUse"><stop offset=".302" stop-color="var(--gray-4, #bfbfc0)" stop-opacity="0"/><stop offset=".825" stop-color="var(--gray-4, #bfbfc0)"/></linearGradient><linearGradient id="paint19_linear" x1="86.469" y1="91.712" x2="76.52" y2="108.94" gradientUnits="userSpaceOnUse"><stop offset=".302" stop-color="var(--gray-4, #bfbfc0)" stop-opacity="0"/><stop offset=".825" stop-color="var(--gray-4, #bfbfc0)"/></linearGradient><linearGradient id="paint20_linear" x1="86.469" y1="113.279" x2="76.52" y2="130.507" gradientUnits="userSpaceOnUse"><stop offset=".302" stop-color="var(--gray-4, #bfbfc0)" stop-opacity="0"/><stop offset=".825" stop-color="var(--gray-4, #bfbfc0)"/></linearGradient><linearGradient id="paint21_linear" x1="198.609" y1="48.499" x2="188.66" y2="65.727" gradientUnits="userSpaceOnUse"><stop offset=".302" stop-color="var(--gray-4, #bfbfc0)" stop-opacity="0"/><stop offset=".825" stop-color="var(--gray-4, #bfbfc0)"/></linearGradient><linearGradient id="paint22_linear" x1="179.932" y1="59.322" x2="169.984" y2="76.55" gradientUnits="userSpaceOnUse"><stop offset=".302" stop-color="var(--gray-4, #bfbfc0)" stop-opacity="0"/><stop offset=".825" stop-color="var(--gray-4, #bfbfc0)"/></linearGradient><linearGradient id="paint23_linear" x1="161.255" y1="48.499" x2="151.307" y2="65.727" gradientUnits="userSpaceOnUse"><stop offset=".302" stop-color="var(--gray-4, #bfbfc0)" stop-opacity="0"/><stop offset=".825" stop-color="var(--gray-4, #bfbfc0)"/></linearGradient><linearGradient id="paint24_linear" x1="161.255" y1="70.146" x2="151.307" y2="87.374" gradientUnits="userSpaceOnUse"><stop offset=".302" stop-color="var(--gray-4, #bfbfc0)" stop-opacity="0"/><stop offset=".825" stop-color="var(--gray-4, #bfbfc0)"/></linearGradient><linearGradient id="paint25_linear" x1="142.579" y1="59.322" x2="132.63" y2="76.55" gradientUnits="userSpaceOnUse"><stop offset=".302" stop-color="var(--gray-4, #bfbfc0)" stop-opacity="0"/><stop offset=".825" stop-color="var(--gray-4, #bfbfc0)"/></linearGradient><linearGradient id="paint26_linear" x1="123.902" y1="48.499" x2="113.954" y2="65.727" gradientUnits="userSpaceOnUse"><stop offset=".302" stop-color="var(--gray-4, #bfbfc0)" stop-opacity="0"/><stop offset=".825" stop-color="var(--gray-4, #bfbfc0)"/></linearGradient><linearGradient id="paint27_linear" x1="142.579" y1="80.889" x2="132.63" y2="98.117" gradientUnits="userSpaceOnUse"><stop offset=".302" stop-color="var(--gray-4, #bfbfc0)" stop-opacity="0"/><stop offset=".825" stop-color="var(--gray-4, #bfbfc0)"/></linearGradient><linearGradient id="paint28_linear" x1="123.902" y1="70.146" x2="113.954" y2="87.374" gradientUnits="userSpaceOnUse"><stop offset=".302" stop-color="var(--gray-4, #bfbfc0)" stop-opacity="0"/><stop offset=".825" stop-color="var(--gray-4, #bfbfc0)"/></linearGradient><linearGradient id="paint29_linear" x1="105.145" y1="59.322" x2="95.197" y2="76.55" gradientUnits="userSpaceOnUse"><stop offset=".302" stop-color="var(--gray-4, #bfbfc0)" stop-opacity="0"/><stop offset=".825" stop-color="var(--gray-4, #bfbfc0)"/></linearGradient><linearGradient id="paint1_linear" x1="440.505" y1="316.458" x2="450.453" y2="299.23" gradientUnits="userSpaceOnUse"><stop offset=".302" stop-color="var(--gray-4, #bfbfc0)" stop-opacity="0"/><stop offset=".825" stop-color="var(--gray-4, #bfbfc0)"/></linearGradient><linearGradient id="paint31_linear" x1="105.145" y1="80.889" x2="95.197" y2="98.117" gradientUnits="userSpaceOnUse"><stop offset=".302" stop-color="var(--gray-4, #bfbfc0)" stop-opacity="0"/><stop offset=".825" stop-color="var(--gray-4, #bfbfc0)"/></linearGradient><linearGradient id="paint32_linear" x1="86.469" y1="70.146" x2="76.52" y2="87.374" gradientUnits="userSpaceOnUse"><stop offset=".302" stop-color="var(--gray-4, #bfbfc0)" stop-opacity="0"/><stop offset=".825" stop-color="var(--gray-4, #bfbfc0)"/></linearGradient><linearGradient id="paint33_linear" x1="273.396" y1="5.366" x2="263.447" y2="22.594" gradientUnits="userSpaceOnUse"><stop offset=".302" stop-color="var(--gray-4, #bfbfc0)" stop-opacity="0"/><stop offset=".825" stop-color="var(--gray-4, #bfbfc0)"/></linearGradient><linearGradient id="paint34_linear" x1="254.719" y1="16.189" x2="244.77" y2="33.417" gradientUnits="userSpaceOnUse"><stop offset=".302" stop-color="var(--gray-4, #bfbfc0)" stop-opacity="0"/><stop offset=".825" stop-color="var(--gray-4, #bfbfc0)"/></linearGradient><linearGradient id="paint35_linear" x1="235.962" y1="5.366" x2="226.014" y2="22.594" gradientUnits="userSpaceOnUse"><stop offset=".302" stop-color="var(--gray-4, #bfbfc0)" stop-opacity="0"/><stop offset=".825" stop-color="var(--gray-4, #bfbfc0)"/></linearGradient><linearGradient id="paint36_linear" x1="235.962" y1="26.933" x2="226.014" y2="44.16" gradientUnits="userSpaceOnUse"><stop offset=".302" stop-color="var(--gray-4, #bfbfc0)" stop-opacity="0"/><stop offset=".825" stop-color="var(--gray-4, #bfbfc0)"/></linearGradient><linearGradient id="paint37_linear" x1="217.286" y1="16.189" x2="207.337" y2="33.417" gradientUnits="userSpaceOnUse"><stop offset=".302" stop-color="var(--gray-4, #bfbfc0)" stop-opacity="0"/><stop offset=".825" stop-color="var(--gray-4, #bfbfc0)"/></linearGradient><linearGradient id="paint38_linear" x1="198.609" y1="5.366" x2="188.66" y2="22.594" gradientUnits="userSpaceOnUse"><stop offset=".302" stop-color="var(--gray-4, #bfbfc0)" stop-opacity="0"/><stop offset=".825" stop-color="var(--gray-4, #bfbfc0)"/></linearGradient><linearGradient id="paint39_linear" x1="217.286" y1="37.756" x2="207.337" y2="54.984" gradientUnits="userSpaceOnUse"><stop offset=".302" stop-color="var(--gray-4, #bfbfc0)" stop-opacity="0"/><stop offset=".825" stop-color="var(--gray-4, #bfbfc0)"/></linearGradient><linearGradient id="paint40_linear" x1="198.609" y1="26.933" x2="188.66" y2="44.161" gradientUnits="userSpaceOnUse"><stop offset=".302" stop-color="var(--gray-4, #bfbfc0)" stop-opacity="0"/><stop offset=".825" stop-color="var(--gray-4, #bfbfc0)"/></linearGradient><linearGradient id="paint41_linear" x1="179.932" y1="16.189" x2="169.983" y2="33.417" gradientUnits="userSpaceOnUse"><stop offset=".302" stop-color="var(--gray-4, #bfbfc0)" stop-opacity="0"/><stop offset=".825" stop-color="var(--gray-4, #bfbfc0)"/></linearGradient><linearGradient id="paint42_linear" x1="161.255" y1="5.366" x2="151.307" y2="22.594" gradientUnits="userSpaceOnUse"><stop offset=".302" stop-color="var(--gray-4, #bfbfc0)" stop-opacity="0"/><stop offset=".825" stop-color="var(--gray-4, #bfbfc0)"/></linearGradient><linearGradient id="paint43_linear" x1="179.932" y1="37.756" x2="169.984" y2="54.984" gradientUnits="userSpaceOnUse"><stop offset=".302" stop-color="var(--gray-4, #bfbfc0)" stop-opacity="0"/><stop offset=".825" stop-color="var(--gray-4, #bfbfc0)"/></linearGradient><linearGradient id="paint44_linear" x1="161.255" y1="26.933" x2="151.307" y2="44.161" gradientUnits="userSpaceOnUse"><stop offset=".302" stop-color="var(--gray-4, #bfbfc0)" stop-opacity="0"/><stop offset=".825" stop-color="var(--gray-4, #bfbfc0)"/></linearGradient><linearGradient id="paint45_linear" x1="142.579" y1="16.189" x2="132.63" y2="33.417" gradientUnits="userSpaceOnUse"><stop offset=".302" stop-color="var(--gray-4, #bfbfc0)" stop-opacity="0"/><stop offset=".825" stop-color="var(--gray-4, #bfbfc0)"/></linearGradient><linearGradient id="paint46_linear" x1="123.902" y1="5.366" x2="113.954" y2="22.594" gradientUnits="userSpaceOnUse"><stop offset=".302" stop-color="var(--gray-4, #bfbfc0)" stop-opacity="0"/><stop offset=".825" stop-color="var(--gray-4, #bfbfc0)"/></linearGradient><linearGradient id="paint47_linear" x1="142.579" y1="37.756" x2="132.63" y2="54.984" gradientUnits="userSpaceOnUse"><stop offset=".302" stop-color="var(--gray-4, #bfbfc0)" stop-opacity="0"/><stop offset=".825" stop-color="var(--gray-4, #bfbfc0)"/></linearGradient><linearGradient id="paint48_linear" x1="123.902" y1="26.933" x2="113.954" y2="44.161" gradientUnits="userSpaceOnUse"><stop offset=".302" stop-color="var(--gray-4, #bfbfc0)" stop-opacity="0"/><stop offset=".825" stop-color="var(--gray-4, #bfbfc0)"/></linearGradient><linearGradient id="paint49_linear" x1="105.145" y1="16.189" x2="95.197" y2="33.417" gradientUnits="userSpaceOnUse"><stop offset=".302" stop-color="var(--gray-4, #bfbfc0)" stop-opacity="0"/><stop offset=".825" stop-color="var(--gray-4, #bfbfc0)"/></linearGradient><linearGradient id="paint50_linear" x1="86.469" y1="5.366" x2="76.52" y2="22.594" gradientUnits="userSpaceOnUse"><stop offset=".302" stop-color="var(--gray-4, #bfbfc0)" stop-opacity="0"/><stop offset=".825" stop-color="var(--gray-4, #bfbfc0)"/></linearGradient><linearGradient id="paint51_linear" x1="105.145" y1="37.756" x2="95.197" y2="54.984" gradientUnits="userSpaceOnUse"><stop offset=".302" stop-color="var(--gray-4, #bfbfc0)" stop-opacity="0"/><stop offset=".825" stop-color="var(--gray-4, #bfbfc0)"/></linearGradient><linearGradient id="paint52_linear" x1="86.469" y1="26.933" x2="76.52" y2="44.16" gradientUnits="userSpaceOnUse"><stop offset=".302" stop-color="var(--gray-4, #bfbfc0)" stop-opacity="0"/><stop offset=".825" stop-color="var(--gray-4, #bfbfc0)"/></linearGradient><linearGradient id="paint53_linear" x1="292.072" y1="-5.457" x2="282.124" y2="11.771" gradientUnits="userSpaceOnUse"><stop offset=".302" stop-color="var(--gray-4, #bfbfc0)" stop-opacity="0"/><stop offset=".825" stop-color="var(--gray-4, #bfbfc0)"/></linearGradient><linearGradient id="paint54_linear" x1="254.719" y1="-5.457" x2="244.77" y2="11.771" gradientUnits="userSpaceOnUse"><stop offset=".302" stop-color="var(--gray-4, #bfbfc0)" stop-opacity="0"/><stop offset=".825" stop-color="var(--gray-4, #bfbfc0)"/></linearGradient><linearGradient id="paint55_linear" x1="217.286" y1="-5.457" x2="207.337" y2="11.771" gradientUnits="userSpaceOnUse"><stop offset=".302" stop-color="var(--gray-4, #bfbfc0)" stop-opacity="0"/><stop offset=".825" stop-color="var(--gray-4, #bfbfc0)"/></linearGradient><linearGradient id="paint56_linear" x1="179.932" y1="-5.457" x2="169.984" y2="11.771" gradientUnits="userSpaceOnUse"><stop offset=".302" stop-color="var(--gray-4, #bfbfc0)" stop-opacity="0"/><stop offset=".825" stop-color="var(--gray-4, #bfbfc0)"/></linearGradient><linearGradient id="paint57_linear" x1="142.579" y1="-5.457" x2="132.63" y2="11.771" gradientUnits="userSpaceOnUse"><stop offset=".302" stop-color="var(--gray-4, #bfbfc0)" stop-opacity="0"/><stop offset=".825" stop-color="var(--gray-4, #bfbfc0)"/></linearGradient><linearGradient id="paint58_linear" x1="105.145" y1="-5.457" x2="95.197" y2="11.771" gradientUnits="userSpaceOnUse"><stop offset=".302" stop-color="var(--gray-4, #bfbfc0)" stop-opacity="0"/><stop offset=".825" stop-color="var(--gray-4, #bfbfc0)"/></linearGradient><linearGradient id="paint59_linear" x1="65.071" y1="202.35" x2="-.052" y2="145.203" gradientUnits="userSpaceOnUse"><stop offset="0" stop-color="var(--gray-4, #bfbfc0)" stop-opacity="0"/><stop offset="1" stop-color="var(--gray-4, #bfbfc0)" stop-opacity=".8"/></linearGradient><linearGradient id="paint60_linear" x1="72.805" y1="-66.327" x2="-115.887" y2="-66.327" gradientUnits="userSpaceOnUse"><stop offset="0" stop-color="var(--gray-4, #bfbfc0)" stop-opacity=".9"/><stop offset="1" stop-color="var(--gray-4, #bfbfc0)" stop-opacity="0"/></linearGradient></defs></svg>