<svg width="156" height="61" viewBox="0 0 156 61" xmlns="http://www.w3.org/2000/svg">
	<path
    d="M106.167 6.237v40.95h12.226V40.93h-4.04V0h-8.187v6.237zM0 40.93h4.156V21.174H0V15.74l4.156-.687v-5.5C4.156 2.891 5.597 0 14.042 0c1.824 0 3.986.271 5.879.614l-1.122 6.697c-1.283-.204-1.918-.24-2.728-.24-2.976 0-3.728.298-3.728 3.222v4.76h6.177v6.12h-6.177V40.93h4.113v6.255L0 47.187V40.93zm102.002-1.977c-1.28.272-2.4.239-3.211.259-3.368.083-3.077-1.03-3.077-4.226V21.174h6.41v-6.121h-6.41V0h-8.187v36.694c0 7.204 1.767 10.492 9.469 10.492 1.824 0 4.33-.472 6.223-.88l-1.217-7.353zm-24.695-17.79v-1.096c-2.477-.455-4.937-.461-6.27-.461-3.811 0-4.276 2.032-4.276 3.134 0 1.56.53 2.402 4.657 3.31 6.033 1.363 12.093 2.784 12.093 10.31 0 7.139-3.652 10.826-11.338 10.826-5.143 0-10.134-1.11-13.941-2.082v-6.151h6.2l-.004 1.092c2.668.519 5.465.467 6.926.467 4.064 0 4.721-2.198 4.721-3.367 0-1.622-1.165-2.4-4.975-3.178-7.177-1.234-12.873-3.699-12.873-11.033 0-6.943 4.616-9.666 12.302-9.666 5.207 0 9.166.812 12.976 1.785v6.11h-6.198zm-41.475 17.77v-.967h-.98v.965c-4.395-.257-7.91-3.81-8.139-8.237h.975v-.987h-.97c.26-4.397 3.761-7.915 8.133-8.171v.97h.981v-.973c4.31.232 7.782 3.633 8.157 7.928v.283h-.983v.987h.983v.27c-.373 4.298-3.846 7.701-8.157 7.933zm16.347.02l-.006-25.632h-8.186v2.404a16.673 16.673 0 00-5.567-2.119h.046v-2.844h1V8.671H31.22v2.091h1v2.845h.056c-7.83 1.45-13.764 8.348-13.764 16.646 0 9.35 7.534 16.93 16.828 16.93a16.674 16.674 0 008.672-2.419l1.474 2.423h8.648v-8.234h-1.957.001zm86.935-23.9H156v6.115h-4.037L141.607 46.8c-2.967 7.2-7.843 13.977-15.266 13.977-1.826 0-4.257-.203-5.942-.61l.74-7.476c1.082.203 2.499.337 3.242.337 3.443 0 7.326-2.146 8.541-5.883L122.43 21.168h-4.036v-6.115h16.895v6.115h-4.036l5.945 14.713 5.944-14.713h-4.027v-6.115zM39.639 26.569l-.623-.627-3.164 2.774a1.494 1.494 0 00-.51-.09c-.853 0-1.544.716-1.544 1.598 0 .883.69 1.598 1.545 1.598.853 0 1.546-.715 1.546-1.598 0-.168-.025-.33-.071-.481l2.82-3.174z"
    fill="#000"
    fill-rule="nonzero"
  />
</svg>