<svg width="25" height="7" viewBox="0 0 25 7" fill="none" xmlns="http://www.w3.org/2000/svg">
<path d="M2.82735 6.16062C4.28057 6.16062 5.45863 4.98018 5.45863 3.52403C5.45863 2.06789 4.28057 0.887451 2.82735 0.887451C1.37414 0.887451 0.196075 2.06789 0.196075 3.52403C0.196075 4.98018 1.37414 6.16062 2.82735 6.16062Z" fill="var(--gray-4, #bfbfc0)"/>
<path d="M12.2766 6.16062C13.7299 6.16062 14.908 4.98018 14.908 3.52403C14.908 2.06789 13.7299 0.887451 12.2766 0.887451C10.8234 0.887451 9.64529 2.06789 9.64529 3.52403C9.64529 4.98018 10.8234 6.16062 12.2766 6.16062Z" fill="var(--gray-4, #bfbfc0)"/>
<path d="M21.843 6.16062C23.2962 6.16062 24.4743 4.98018 24.4743 3.52403C24.4743 2.06789 23.2962 0.887451 21.843 0.887451C20.3898 0.887451 19.2117 2.06789 19.2117 3.52403C19.2117 4.98018 20.3898 6.16062 21.843 6.16062Z" fill="var(--gray-4, #bfbfc0)"/>
</svg>
