<svg width="45" height="27" viewBox="0 0 45 27" fill="none" xmlns="http://www.w3.org/2000/svg">
<path d="M12.4117 9.57351C12.4117 10.116 12.4703 10.5558 12.5728 10.8783C12.69 11.2009 12.8365 11.5527 13.0416 11.9339C13.1148 12.0512 13.1441 12.1685 13.1441 12.2711C13.1441 12.4177 13.0562 12.5643 12.8658 12.7109L11.9429 13.3267C11.8111 13.4146 11.6793 13.4586 11.5621 13.4586C11.4156 13.4586 11.2691 13.3853 11.1226 13.2534C10.9176 13.0335 10.7418 12.7989 10.5953 12.5643C10.4488 12.3151 10.3023 12.0365 10.1412 11.6993C8.99866 13.0481 7.56313 13.7225 5.83464 13.7225C4.6042 13.7225 3.62277 13.3707 2.905 12.6669C2.18724 11.9632 1.82104 11.0249 1.82104 9.85207C1.82104 8.6059 2.26048 7.5943 3.15402 6.83194C4.04756 6.06958 5.23407 5.68839 6.74283 5.68839C7.24087 5.68839 7.75356 5.73238 8.29554 5.80568C8.83753 5.87898 9.39416 5.99627 9.98009 6.12822V5.05798C9.98009 3.94376 9.74571 3.16673 9.29162 2.71225C8.82288 2.25776 8.03187 2.03785 6.90396 2.03785C6.39128 2.03785 5.86394 2.0965 5.32196 2.22844C4.77997 2.36039 4.25264 2.52166 3.73995 2.72691C3.50558 2.82954 3.3298 2.88818 3.22726 2.9175C3.12473 2.94682 3.05149 2.96148 2.99289 2.96148C2.78782 2.96148 2.68528 2.81488 2.68528 2.507V1.78862C2.68528 1.55405 2.71458 1.37812 2.78782 1.27549C2.86106 1.17286 2.99289 1.07024 3.19797 0.967613C3.71066 0.703719 4.32588 0.483807 5.04364 0.307877C5.7614 0.117286 6.52311 0.0293216 7.32876 0.0293216C9.0719 0.0293216 10.3463 0.425163 11.1666 1.21685C11.9722 2.00853 12.3824 3.21072 12.3824 4.82341V9.57351H12.4117ZM6.46452 11.802C6.94791 11.802 7.44595 11.714 7.97328 11.5381C8.50062 11.3621 8.96936 11.0396 9.36486 10.5998C9.59923 10.3212 9.77501 10.0133 9.8629 9.66147C9.95079 9.30961 10.0094 8.88445 10.0094 8.38598V7.77023C9.58458 7.6676 9.13049 7.57964 8.66175 7.521C8.193 7.46235 7.73891 7.43303 7.28482 7.43303C6.30339 7.43303 5.58563 7.62362 5.10223 8.01946C4.61884 8.41531 4.38447 8.97242 4.38447 9.70546C4.38447 10.3945 4.56025 10.9076 4.92646 11.2595C5.27801 11.626 5.7907 11.802 6.46452 11.802ZM18.227 13.3853C17.9634 13.3853 17.7876 13.3413 17.6704 13.2387C17.5532 13.1507 17.4507 12.9455 17.3628 12.6669L13.9205 1.33413C13.8326 1.04092 13.7886 0.850327 13.7886 0.747701C13.7886 0.513128 13.9058 0.381181 14.1402 0.381181H15.5757C15.854 0.381181 16.0444 0.425163 16.147 0.527789C16.2642 0.615754 16.3521 0.821005 16.4399 1.09956L18.9008 10.805L21.186 1.09956C21.2592 0.806345 21.3471 0.615754 21.4643 0.527789C21.5815 0.439824 21.7865 0.381181 22.0502 0.381181H23.2221C23.5004 0.381181 23.6908 0.425163 23.808 0.527789C23.9252 0.615754 24.0277 0.821005 24.0863 1.09956L26.4007 10.9223L28.9349 1.09956C29.0227 0.806345 29.1253 0.615754 29.2278 0.527789C29.345 0.439824 29.5354 0.381181 29.7991 0.381181H31.1614C31.3958 0.381181 31.5276 0.498468 31.5276 0.747701C31.5276 0.821005 31.5129 0.894309 31.4983 0.982274C31.4836 1.07024 31.4543 1.18753 31.3958 1.34879L27.8655 12.6816C27.7776 12.9748 27.6751 13.1654 27.5579 13.2534C27.4407 13.3413 27.2503 13.4 27.0013 13.4H25.7415C25.4632 13.4 25.2728 13.356 25.1556 13.2534C25.0384 13.1507 24.9359 12.9602 24.8773 12.6669L22.6068 3.21072L20.351 12.6523C20.2778 12.9455 20.1899 13.1361 20.0727 13.2387C19.9555 13.3413 19.7504 13.3853 19.4868 13.3853H18.227ZM37.05 13.7812C36.2883 13.7812 35.5266 13.6932 34.7941 13.5173C34.0617 13.3413 33.4904 13.1507 33.1096 12.9308C32.8752 12.7989 32.7141 12.6523 32.6555 12.5203C32.5969 12.3884 32.5676 12.2418 32.5676 12.1098V11.3621C32.5676 11.0543 32.6848 10.9076 32.9045 10.9076C32.9924 10.9076 33.0803 10.9223 33.1682 10.9516C33.2561 10.9809 33.3879 11.0396 33.5344 11.0982C34.0324 11.3181 34.5744 11.4941 35.1457 11.6114C35.7316 11.7286 36.3029 11.7873 36.8888 11.7873C37.8117 11.7873 38.5294 11.626 39.0275 11.3035C39.5255 10.9809 39.7892 10.5118 39.7892 9.91071C39.7892 9.50021 39.6573 9.16301 39.3937 8.88445C39.13 8.6059 38.632 8.35666 37.9142 8.12209L35.7902 7.46235C34.7209 7.12515 33.9299 6.62669 33.4465 5.96695C32.9631 5.32187 32.7141 4.60349 32.7141 3.84113C32.7141 3.22538 32.8459 2.68293 33.1096 2.21378C33.3733 1.74464 33.7248 1.33413 34.1643 1.0116C34.6037 0.674397 35.1018 0.425163 35.6877 0.249234C36.2736 0.073304 36.8888 0 37.5334 0C37.8556 0 38.1925 0.0146608 38.5148 0.0586432C38.8517 0.102626 39.1593 0.161269 39.4669 0.219912C39.7599 0.293216 40.0382 0.36652 40.3019 0.454485C40.5655 0.54245 40.7706 0.630415 40.9171 0.71838C41.1222 0.835666 41.2686 0.952953 41.3565 1.0849C41.4444 1.20219 41.4884 1.36346 41.4884 1.56871V2.25776C41.4884 2.56564 41.3712 2.72691 41.1515 2.72691C41.0343 2.72691 40.8438 2.66827 40.5948 2.55098C39.7599 2.1698 38.8224 1.97921 37.7824 1.97921C36.9474 1.97921 36.2883 2.11116 35.8342 2.38971C35.3801 2.66827 35.1457 3.09343 35.1457 3.69452C35.1457 4.10503 35.2922 4.45689 35.5851 4.73544C35.8781 5.014 36.4201 5.29255 37.1964 5.54179L39.2765 6.20152C40.3312 6.53872 41.0929 7.00787 41.547 7.60896C42.0011 8.21005 42.2208 8.89911 42.2208 9.66147C42.2208 10.2919 42.0889 10.8637 41.8399 11.3621C41.5763 11.8606 41.2247 12.3004 40.7706 12.6523C40.3165 13.0188 39.7745 13.2827 39.1447 13.4733C38.4855 13.6785 37.797 13.7812 37.05 13.7812Z" fill="#252F3E"/>
<path fill-rule="evenodd" clip-rule="evenodd" d="M39.8185 20.9063C34.9992 24.4689 27.9974 26.3601 21.977 26.3601C13.5396 26.3601 5.93721 23.2374 0.195117 18.0474C-0.258978 17.6369 0.151172 17.0798 0.693155 17.4024C6.90399 21.0089 14.565 23.1934 22.4897 23.1934C27.8363 23.1934 33.7102 22.0792 39.1154 19.7921C39.921 19.4256 40.6095 20.3199 39.8185 20.9063Z" fill="#FF9900"/>
<path fill-rule="evenodd" clip-rule="evenodd" d="M41.8253 18.6193C41.2101 17.8276 37.7531 18.2381 36.1857 18.4287C35.717 18.4873 35.6438 18.0768 36.0686 17.7689C38.8224 15.8337 43.3487 16.3908 43.8761 17.0359C44.4034 17.6956 43.7296 22.2258 41.1515 24.3956C40.756 24.7328 40.3751 24.5569 40.5509 24.1171C41.1368 22.6656 42.4405 19.3963 41.8253 18.6193Z" fill="#FF9900"/>
</svg>
