<svg width="95" height="28" viewBox="0 0 95 28" fill="none" xmlns="http://www.w3.org/2000/svg">
<path d="M39.1404 16.2588L43.2359 27.1324H41.1559L40.1948 24.4211H35.9092L34.9839 27.1216H32.9218L37.0173 16.248L39.1404 16.2588ZM38.0179 18.2779L36.4113 22.8539H39.6712L38.0717 18.2779H38.0179Z" fill="#737373"/>
<path d="M44.1538 19.3395H50.3795V20.0747L46.2912 25.6764H50.401V27.1324H43.8669V26.261L47.8906 20.7919H44.1538V19.3395Z" fill="#737373"/>
<path d="M58.2087 19.3395V27.1324H56.3617V26.1068H56.3295C56.0819 26.4621 55.7456 26.7465 55.354 26.9316C54.9282 27.1371 54.4603 27.2403 53.9876 27.2328C53.6082 27.2594 53.2275 27.2043 52.8712 27.0713C52.5148 26.9383 52.1912 26.7305 51.9219 26.4618C51.4438 25.9502 51.2047 25.1528 51.2047 24.0698V19.3395H53.0803V23.8582C53.042 24.3816 53.1796 24.9029 53.4712 25.3393C53.6147 25.5092 53.7965 25.6427 54.0016 25.7288C54.2067 25.8148 54.4293 25.8509 54.6511 25.8342C54.8871 25.8434 55.1221 25.7988 55.3384 25.7038C55.5546 25.6087 55.7464 25.4657 55.8991 25.2855C56.2271 24.8814 56.3956 24.371 56.3725 23.851V19.3395H58.2087Z" fill="#737373"/>
<path d="M63.7349 19.2103C63.867 19.2081 63.999 19.2177 64.1294 19.239C64.2292 19.2564 64.3276 19.2815 64.4235 19.3143V21.172C64.2943 21.0848 64.1529 21.0171 64.0039 20.9712C63.7871 20.903 63.5604 20.8715 63.3332 20.8779C63.1124 20.8782 62.8945 20.9295 62.6967 21.0278C62.4989 21.1261 62.3264 21.2687 62.1928 21.4446C61.8422 21.959 61.6777 22.5777 61.7266 23.1983V27.1431H59.894V19.3394H61.7302V20.5659H61.7589C61.9077 20.1655 62.1724 19.8184 62.5192 19.569C62.8761 19.3234 63.3019 19.1978 63.7349 19.2103Z" fill="#737373"/>
<path d="M71.0294 25.1671V26.6769C70.6605 26.8961 70.2584 27.0535 69.8388 27.1432C69.3241 27.2648 68.7968 27.325 68.268 27.3225C67.7582 27.3525 67.2478 27.274 66.7706 27.0923C66.2934 26.9105 65.8601 26.6296 65.4994 26.2681C64.8395 25.5652 64.5096 24.5874 64.5096 23.3346C64.4678 22.2413 64.8464 21.1735 65.5675 20.3508C65.9006 19.9707 66.3133 19.6685 66.7763 19.4659C67.2393 19.2632 67.7412 19.1649 68.2465 19.1781C68.7116 19.1521 69.1767 19.2272 69.6101 19.398C70.0434 19.5689 70.4346 19.8315 70.7569 20.1679C71.3546 20.8278 71.6534 21.7387 71.6534 22.9006V23.79H66.3206C66.4031 24.5718 66.6542 25.1205 67.0738 25.4289C67.554 25.7573 68.1279 25.9209 68.7091 25.8951C69.1369 25.8984 69.5623 25.8306 69.9679 25.6943C70.3458 25.5719 70.7035 25.3943 71.0294 25.1671ZM69.8531 22.4452C69.8875 21.9468 69.7383 21.4531 69.4335 21.0573C69.2826 20.8957 69.0981 20.7693 68.893 20.6868C68.6879 20.6044 68.4672 20.5681 68.2465 20.5803C67.8058 20.5801 67.382 20.7496 67.063 21.0537C66.6845 21.4285 66.44 21.9175 66.3673 22.4452H69.8531Z" fill="#737373"/>
<path d="M45.3374 1.31121V12.1848H43.4475V3.66022H43.4188L40.0441 12.1848H38.7925L35.3353 3.66022H35.3138V12.1848H33.5673V1.31121H36.2749L39.3986 9.35879H39.4524L42.7481 1.30046L45.3374 1.31121ZM46.9154 2.13605C46.9121 1.99301 46.94 1.85097 46.9969 1.71971C47.0539 1.58846 47.1386 1.47112 47.2453 1.37577C47.461 1.17485 47.7449 1.06315 48.0397 1.06315C48.3345 1.06315 48.6183 1.17485 48.834 1.37577C48.936 1.47269 49.017 1.58957 49.0719 1.71913C49.1268 1.84869 49.1545 1.98817 49.1532 2.12888C49.1554 2.27039 49.1274 2.41073 49.0711 2.54058C49.0149 2.67043 48.9316 2.78682 48.8268 2.882C48.6107 3.08205 48.3251 3.1901 48.0307 3.18324C47.885 3.18743 47.7399 3.16264 47.6038 3.11031C47.4678 3.05798 47.3435 2.97916 47.2381 2.87841C47.1354 2.78412 47.0536 2.66934 46.998 2.54146C46.9424 2.41359 46.9143 2.27548 46.9154 2.13605ZM48.938 4.38823V12.1848H47.1054V4.38823H48.938ZM54.5039 10.8435C54.8142 10.8352 55.1203 10.7708 55.4076 10.6534C55.732 10.5291 56.0374 10.3601 56.315 10.1514V11.8692C56.0028 12.0435 55.667 12.1715 55.318 12.2493C54.9166 12.3388 54.5063 12.3821 54.0951 12.3784C53.5795 12.4029 53.0644 12.3195 52.5828 12.1337C52.1013 11.9478 51.6638 11.6636 51.2982 11.2991C50.9327 10.9346 50.6473 10.4979 50.4601 10.0168C50.2729 9.53574 50.1881 9.02094 50.2111 8.50526C50.1726 7.37116 50.569 6.26522 51.3193 5.4139C52.0533 4.60101 53.0921 4.19457 54.4358 4.19457C54.7877 4.19674 55.1381 4.24129 55.4794 4.32726C55.7698 4.39433 56.0506 4.49796 56.315 4.63568V6.39295C56.0476 6.19606 55.7559 6.03453 55.4471 5.91239C55.1586 5.80168 54.8523 5.74456 54.5434 5.74384C54.2169 5.73214 53.8917 5.79004 53.5893 5.91371C53.287 6.03737 53.0144 6.22397 52.7897 6.46109C52.3256 6.98348 52.086 7.66762 52.1226 8.3654C52.1027 8.69981 52.1492 9.03485 52.2594 9.35122C52.3696 9.66758 52.5412 9.95902 52.7646 10.2087C52.996 10.4309 53.2711 10.6027 53.5723 10.7132C53.8735 10.8237 54.1944 10.8705 54.5147 10.8507L54.5039 10.8435ZM61.5402 4.25195C61.6724 4.25057 61.8044 4.26137 61.9346 4.28423C62.0364 4.29819 62.1362 4.32345 62.2323 4.35954V6.21722C62.1018 6.13001 61.9592 6.06235 61.8091 6.01639C61.5923 5.94825 61.3657 5.91674 61.1385 5.92315C60.9176 5.92342 60.6998 5.9747 60.502 6.07298C60.3041 6.17127 60.1317 6.3139 59.9981 6.48978C59.6476 7.00549 59.4844 7.62564 59.5354 8.24705V12.1919H57.6993V4.38823H59.5354V5.61832H59.5641C59.713 5.21789 59.9776 4.87082 60.3244 4.62134C60.6812 4.37518 61.1068 4.24838 61.5402 4.25912V4.25195ZM62.3291 8.39409C62.2997 7.8366 62.3812 7.27882 62.569 6.75308C62.7567 6.22734 63.047 5.74411 63.4229 5.33142C64.1402 4.5783 65.1503 4.20174 66.4533 4.20174C66.9804 4.16814 67.5087 4.24665 68.0032 4.4321C68.4977 4.61755 68.9473 4.90573 69.3223 5.27762C70.0379 6.08349 70.4076 7.13854 70.3516 8.21477C70.3793 8.76555 70.2968 9.31631 70.109 9.83481C69.9212 10.3533 69.6318 10.8291 69.2578 11.2344C68.8676 11.617 68.4021 11.9143 67.891 12.1075C67.3798 12.3008 66.8341 12.3857 66.2884 12.3569C65.7623 12.3809 65.2367 12.2979 64.7436 12.113C64.2505 11.928 63.8 11.645 63.4194 11.281C63.0538 10.8986 62.769 10.4466 62.5817 9.95191C62.3944 9.45718 62.3085 8.92984 62.3291 8.40126V8.39409ZM64.2406 8.33312C64.1944 9.00093 64.3905 9.66301 64.7929 10.198C64.992 10.4173 65.2378 10.5892 65.5121 10.7009C65.7864 10.8126 66.0823 10.8614 66.378 10.8435C66.6648 10.8619 66.9519 10.8131 67.2165 10.701C67.4811 10.589 67.7159 10.4167 67.9022 10.198C68.2902 9.6381 68.475 8.96232 68.4258 8.28291C68.4752 7.6064 68.2834 6.93426 67.8843 6.38578C67.6922 6.17311 67.4541 6.00726 67.188 5.90095C66.9219 5.79465 66.635 5.75072 66.3493 5.77253C66.0542 5.75653 65.7593 5.8087 65.4875 5.925C65.2157 6.04129 64.9744 6.21859 64.7821 6.44316C64.3883 6.99418 64.197 7.66439 64.2406 8.34029V8.33312ZM73.0664 6.42881C73.06 6.5438 73.0792 6.65877 73.1226 6.76544C73.166 6.87211 73.2326 6.96781 73.3174 7.04565C73.655 7.28908 74.0274 7.48011 74.422 7.61228C75.0108 7.81008 75.5417 8.15006 75.9677 8.60209C76.2659 8.98033 76.4219 9.45115 76.4088 9.93259C76.4182 10.273 76.3468 10.6107 76.2002 10.9181C76.0537 11.2254 75.8364 11.4936 75.566 11.7006C74.9017 12.1773 74.0944 12.4127 73.278 12.3677C72.9163 12.3639 72.5559 12.3243 72.2021 12.2493C71.8598 12.1855 71.5255 12.0845 71.2051 11.9481V10.1549C71.5372 10.3867 71.8991 10.5725 72.281 10.7072C72.6154 10.8368 72.9697 10.9072 73.3282 10.9152C73.6441 10.9349 73.9599 10.8745 74.2463 10.7395C74.3449 10.6791 74.4247 10.5924 74.4767 10.4891C74.5286 10.3859 74.5507 10.2701 74.5404 10.1549C74.5411 10.0319 74.5141 9.91027 74.4613 9.79912C74.4086 9.68797 74.3314 9.59017 74.2355 9.513C73.8769 9.259 73.4846 9.05622 73.07 8.91051C72.5214 8.7138 72.029 8.38637 71.6355 7.95656C71.3422 7.56983 71.1926 7.0931 71.2123 6.60813C71.2064 6.2738 71.2793 5.94278 71.4251 5.64186C71.5709 5.34094 71.7855 5.07856 72.0515 4.87596C72.6717 4.4 73.4402 4.15865 74.2212 4.19457C74.5294 4.19857 74.8366 4.22977 75.1393 4.28781C75.43 4.33544 75.7149 4.41357 75.9892 4.52092V6.26743C75.7239 6.09364 75.4385 5.95274 75.1393 5.84784C74.8311 5.73596 74.506 5.67774 74.1782 5.6757C73.8911 5.65907 73.6059 5.73038 73.3605 5.88011C73.2684 5.94026 73.1931 6.02283 73.1416 6.12006C73.0902 6.21729 73.0643 6.326 73.0664 6.43599V6.42881ZM77.1978 8.39409C77.1683 7.8366 77.2498 7.27882 77.4376 6.75308C77.6254 6.22734 77.9156 5.74411 78.2916 5.33142C79.0088 4.5783 80.0273 4.20174 81.322 4.20174C81.8491 4.16814 82.3773 4.24665 82.8718 4.4321C83.3664 4.61755 83.816 4.90573 84.191 5.27762C84.9065 6.08349 85.2762 7.13854 85.2203 8.21477C85.2479 8.76555 85.1655 9.31631 84.9776 9.83481C84.7898 10.3533 84.5004 10.8291 84.1264 11.2344C83.7362 11.617 83.2708 11.9143 82.7596 12.1075C82.2485 12.3008 81.7027 12.3857 81.157 12.3569C80.6309 12.3809 80.1054 12.2979 79.6123 12.113C79.1191 11.928 78.6686 11.645 78.288 11.281C77.9225 10.8986 77.6376 10.4466 77.4503 9.95191C77.263 9.45718 77.1771 8.92984 77.1978 8.40126V8.39409ZM79.1093 8.33312C79.0631 9.00093 79.2592 9.66301 79.6615 10.198C79.8603 10.4177 80.106 10.5899 80.3804 10.7016C80.6549 10.8134 80.9509 10.8619 81.2467 10.8435C81.5334 10.8619 81.8205 10.8131 82.0851 10.701C82.3497 10.589 82.5845 10.4167 82.7708 10.198C83.1589 9.6381 83.3436 8.96232 83.2944 8.28291C83.3439 7.6064 83.152 6.93426 82.7529 6.38578C82.5624 6.1751 82.3266 6.01043 82.0632 5.9042C81.7998 5.79797 81.5157 5.75294 81.2323 5.77253C80.9371 5.75626 80.6421 5.8083 80.3703 5.92462C80.0985 6.04093 79.8572 6.21838 79.6651 6.44316C79.2662 6.99231 79.0698 7.66268 79.1093 8.34029V8.33312ZM91.3026 5.8837H88.5698V12.1848H86.7121V5.89087H85.4103V4.38823H86.7121V3.31235C86.6984 2.93909 86.762 2.56703 86.8991 2.21955C87.0361 1.87208 87.2435 1.55671 87.5083 1.29328C87.78 1.03141 88.1017 0.826908 88.4541 0.691976C88.8065 0.557044 89.1825 0.494438 89.5596 0.507891C89.7574 0.506502 89.955 0.517281 90.1514 0.540167C90.3062 0.5602 90.4587 0.595027 90.6068 0.644169V2.2293C90.5046 2.17657 90.3978 2.13335 90.2876 2.10019C90.1183 2.04727 89.9415 2.02184 89.764 2.02488C89.599 2.01452 89.4337 2.04137 89.2804 2.10344C89.127 2.16551 88.9896 2.26122 88.8783 2.38351C88.6468 2.69221 88.5358 3.07474 88.5662 3.45939V4.39899H91.299V2.63813L93.1423 2.07509V4.38823H95V5.89087H93.1423V9.5381C93.1072 9.8967 93.1999 10.2562 93.4041 10.553C93.5114 10.659 93.6403 10.7405 93.7821 10.7919C93.9239 10.8433 94.0751 10.8633 94.2254 10.8507C94.3569 10.8467 94.4867 10.82 94.6091 10.7718C94.7464 10.7287 94.8777 10.6684 95 10.5925V12.1095C94.816 12.197 94.6203 12.2574 94.419 12.2888C94.1562 12.3454 93.8881 12.3742 93.6193 12.3748C93.3021 12.3986 92.9835 12.3557 92.6839 12.2488C92.3843 12.142 92.1105 11.9736 91.88 11.7544C91.4552 11.2312 91.2472 10.5651 91.299 9.89314L91.3026 5.8837Z" fill="#737373"/>
<path d="M12.2722 1.31128H0V13.5835H12.2722V1.31128Z" fill="#F25022"/>
<path d="M25.8213 1.31131H13.5491V13.5835H25.8213V1.31131Z" fill="#7FBA00"/>
<path d="M12.2723 14.8602H7.62939e-05V27.1324H12.2723V14.8602Z" fill="#00A4EF"/>
<path d="M25.8213 14.8602H13.5491V27.1324H25.8213V14.8602Z" fill="#FFB900"/>
</svg>
