<svg width="314" height="86" viewBox="0 0 314 86" fill="none" xmlns="http://www.w3.org/2000/svg">
<path fill-rule="evenodd" clip-rule="evenodd" d="M153.993 21.6227L139.309 30.4529L158.285 29.0944L159.754 9.84912L153.993 21.6227Z" fill="url(#paint0_linear)"/>
<path fill-rule="evenodd" clip-rule="evenodd" d="M158.285 29.0944L156.704 17.7737L152.186 23.6605L158.285 29.0944Z" fill="url(#paint1_linear)"/>
<path fill-rule="evenodd" clip-rule="evenodd" d="M158.398 29.0945L146.312 28.1888L139.309 30.3398L158.398 29.0945Z" fill="url(#paint2_linear)"/>
<path fill-rule="evenodd" clip-rule="evenodd" d="M139.309 30.3397L142.359 20.6039L135.694 21.9624L139.309 30.3397Z" fill="url(#paint3_linear)"/>
<path fill-rule="evenodd" clip-rule="evenodd" d="M152.185 23.6605L149.475 12.9058L141.568 20.2643L152.185 23.6605Z" fill="url(#paint4_linear)"/>
<path fill-rule="evenodd" clip-rule="evenodd" d="M159.189 13.019L151.734 6.90576L149.588 13.6982L159.189 13.019Z" fill="url(#paint5_linear)"/>
<path fill-rule="evenodd" clip-rule="evenodd" d="M155.687 4.75488L151.282 7.13224L148.458 4.75488H155.687Z" fill="url(#paint6_linear)"/>
<path fill-rule="evenodd" clip-rule="evenodd" d="M134 25.2453L135.807 21.8491L134.339 17.8868L134 25.2453Z" fill="url(#paint7_linear)"/>
<path fill-rule="evenodd" clip-rule="evenodd" d="M134.226 17.7737L135.695 22.0756L142.246 20.6039L149.701 13.6982L151.847 7.01896L148.571 4.6416L142.811 6.79255C141.003 8.49066 137.615 11.6605 137.502 11.7737C137.389 11.7737 135.243 15.8491 134.226 17.7737Z" fill="white"/>
<path fill-rule="evenodd" clip-rule="evenodd" d="M139.535 10.1888C143.375 6.33974 148.345 4.1888 150.152 6.00012C152.073 7.92465 150.039 12.5662 146.199 16.4152C142.359 20.2643 137.502 22.6416 135.581 20.7171C133.774 18.6794 135.694 13.9246 139.535 10.1888Z" fill="url(#paint8_linear)"/>
<path fill-rule="evenodd" clip-rule="evenodd" d="M139.309 30.3397L142.246 20.4906L152.073 23.6604C148.571 27.0566 144.618 29.8868 139.309 30.3397Z" fill="url(#paint9_linear)"/>
<path fill-rule="evenodd" clip-rule="evenodd" d="M149.7 13.585L152.185 23.6605C155.122 20.4907 157.833 17.0944 159.188 12.9058L149.7 13.585Z" fill="url(#paint10_linear)"/>
<path fill-rule="evenodd" clip-rule="evenodd" d="M159.189 13.019C160.205 9.96243 160.431 5.54734 155.687 4.75488L151.734 6.90583L159.189 13.019Z" fill="url(#paint11_linear)"/>
<path fill-rule="evenodd" clip-rule="evenodd" d="M134 25.2454C134.113 30.3397 137.84 30.3397 139.309 30.4529L135.694 22.0756L134 25.2454Z" fill="#9E1209"/>
<path fill-rule="evenodd" clip-rule="evenodd" d="M149.7 13.6982C151.959 15.0567 156.591 18.0001 156.703 18.0001C156.816 18.1133 158.737 14.8302 159.076 13.0189L149.7 13.6982Z" fill="url(#paint12_radial)"/>
<path fill-rule="evenodd" clip-rule="evenodd" d="M142.358 20.4907L146.312 28.1888C148.684 26.9436 150.491 25.3587 152.186 23.6605L142.358 20.4907Z" fill="url(#paint13_radial)"/>
<path fill-rule="evenodd" clip-rule="evenodd" d="M135.695 21.9624L135.13 28.7548C136.146 30.2265 137.615 30.3398 139.196 30.2265C138.067 27.3964 135.92 21.8492 135.695 21.9624Z" fill="url(#paint14_linear)"/>
<path fill-rule="evenodd" clip-rule="evenodd" d="M151.734 6.90583L159.64 8.0379C159.189 6.22658 157.946 5.09451 155.687 4.75488L151.734 6.90583Z" fill="url(#paint15_linear)"/>
<path fill-rule="evenodd" clip-rule="evenodd" d="M45.3412 55C45.2283 55 45.2283 55 45.2283 55C45.1153 55.1132 45.1153 55.1132 45.1153 55.3396V63.717C45.1153 63.8302 45.1153 63.8302 45.0024 63.9434C44.8894 63.9434 44.8894 63.9434 44.7765 63.9434L43.421 63.1509C43.1951 63.0377 42.9692 63.0377 42.7433 63.1509L37.3215 66.3208C37.0956 66.434 36.9826 66.6604 36.9826 66.8868V73.2264C36.9826 73.4528 37.0956 73.6792 37.3215 73.7924L42.7433 76.9623C42.9692 77.0755 43.1951 77.0755 43.421 76.9623L48.8428 73.7924C49.0687 73.6792 49.1817 73.4528 49.1817 73.2264V57.3774C49.1817 57.1509 49.0687 56.9245 48.8428 56.8113L45.5672 55C45.4542 55 45.3412 55 45.3412 55ZM10.0995 62.8113C9.98658 62.8113 9.87362 62.8113 9.76066 62.9245L4.33886 66.0943C4.11295 66.2075 4 66.434 4 66.6604V75.1509C4 75.2641 4.11295 75.3774 4.11295 75.4906C4.22591 75.6038 4.33886 75.6038 4.45182 75.4906L7.72748 73.6792C7.95339 73.566 8.06635 73.3396 8.06635 73.1132V69.1509C8.06635 68.9245 8.17931 68.6981 8.40522 68.5849L9.76066 67.7925C9.87362 67.6792 9.98658 67.6792 10.0995 67.6792C10.2125 67.6792 10.3254 67.6792 10.4384 67.7925L11.7938 68.5849C12.0198 68.6981 12.1327 68.9245 12.1327 69.1509V73.1132C12.1327 73.3396 12.2457 73.566 12.4716 73.6792L15.7472 75.4906C15.8602 75.6038 15.9732 75.6038 16.0861 75.4906C16.1991 75.3774 16.1991 75.3774 16.1991 75.1509V66.6604C16.1991 66.434 16.0861 66.2075 15.8602 66.0943L10.4384 62.9245C10.4384 62.9245 10.3254 62.8113 10.0995 62.8113ZM59.2346 62.9245C59.1217 62.9245 59.0087 62.9245 58.8958 63.0377L53.4739 66.2075C53.248 66.3208 53.1351 66.5472 53.1351 66.7736V73.1132C53.1351 73.3396 53.248 73.566 53.4739 73.6792L58.8958 76.7358C59.1217 76.8491 59.3476 76.8491 59.5735 76.7358L62.8491 74.9245C62.9621 74.8113 63.0751 74.8113 63.0751 74.5849C63.0751 74.4717 62.9621 74.3585 62.9621 74.2453L57.4273 71.0755C57.3144 70.9623 57.2014 70.8491 57.2014 70.7358V68.8113C57.2014 68.6981 57.3144 68.5849 57.4273 68.4717L59.1217 67.4528C59.2346 67.3396 59.3476 67.3396 59.4605 67.4528L61.1548 68.4717C61.2678 68.5849 61.2678 68.5849 61.2678 68.8113V70.3962C61.2678 70.5094 61.3807 70.6226 61.3807 70.7358C61.4937 70.8491 61.6067 70.8491 61.7196 70.7358L64.9953 68.8113C65.2212 68.6981 65.3341 68.4717 65.3341 68.2453V66.7736C65.3341 66.5472 65.2212 66.3208 64.9953 66.2075L59.5735 63.0377C59.4605 62.9245 59.3476 62.9245 59.2346 62.9245ZM42.9692 67.6792L44.8894 68.8113L45.0024 68.9245V71.0755C45.0024 71.1887 45.0024 71.1887 44.8894 71.1887L42.9692 72.3208H42.8563L40.936 71.1887L40.8231 71.0755V68.9245C40.8231 68.8113 40.8231 68.8113 40.936 68.8113L42.9692 67.6792C42.8562 67.6792 42.8562 67.6792 42.9692 67.6792Z" fill="black"/>
<path fill-rule="evenodd" clip-rule="evenodd" d="M75.6129 62.8113C75.387 62.8113 75.274 62.8113 75.0481 62.9245L69.8522 65.8679C69.5134 66.0943 69.2875 66.4339 69.2875 66.7735V72.7735C69.2875 73.1132 69.5134 73.566 69.8522 73.6792L71.3207 74.4717C71.9984 74.8113 72.2243 74.8113 72.5632 74.8113C73.5797 74.8113 74.0315 74.2452 74.0315 73.2264V67.3396C74.0315 67.2264 73.9186 67.2264 73.9186 67.2264H73.2409C73.1279 67.2264 73.1279 67.3396 73.1279 67.3396V73.2264C73.1279 73.6792 72.6761 74.132 71.8854 73.7924L70.53 73L70.417 72.8868V66.8868C70.417 66.7735 70.417 66.7735 70.53 66.7735L75.7259 63.8301H75.8388L81.0347 66.7735L81.1476 66.8868V72.8868C81.1476 73 81.1477 73 81.0347 73L75.8388 75.9434H75.7259L74.3704 75.1509H74.2575C73.9186 75.3773 73.8056 75.3773 73.4668 75.4905C73.3538 75.4905 73.2409 75.6037 73.4668 75.7169L75.1611 76.7358C75.274 76.849 75.4999 76.849 75.7259 76.849C75.9518 76.849 76.0647 76.849 76.2906 76.7358L81.4865 73.7924C81.8254 73.566 82.0513 73.2264 82.0513 72.8868V66.8868C82.0513 66.5471 81.8254 66.0943 81.4865 65.9811L76.2906 63.0377C76.0647 62.8113 75.8388 62.8113 75.6129 62.8113Z" fill="#83CD29"/>
<path fill-rule="evenodd" clip-rule="evenodd" d="M26.5908 62.9246C26.4778 62.9246 26.3649 62.9246 26.2519 63.0378L20.8301 66.2076C20.6042 66.3208 20.4913 66.5472 20.4913 66.7736V73.1132C20.4913 73.3397 20.6042 73.5661 20.8301 73.6793L26.2519 76.8491C26.4778 76.9623 26.7037 76.9623 26.9297 76.8491L32.3515 73.6793C32.5774 73.5661 32.6903 73.3397 32.6903 73.1132V66.7736C32.6903 66.5472 32.5774 66.3208 32.3515 66.2076L26.9297 63.0378C26.8167 62.9246 26.7037 62.9246 26.5908 62.9246Z" fill="#83CD29"/>
<path fill-rule="evenodd" clip-rule="evenodd" d="M77.0811 67C75.6127 67 74.709 67.6792 74.709 68.6981C74.709 69.8302 75.6127 70.1698 76.9681 70.283C78.6624 70.3962 78.7754 70.7359 78.7754 71.0755C78.7754 71.6415 78.3235 71.8679 77.194 71.8679C75.8386 71.8679 75.4997 71.5283 75.3868 70.8491C75.3868 70.7359 75.2738 70.7359 75.2738 70.7359H74.709C74.5961 70.7359 74.5961 70.8491 74.5961 70.8491C74.5961 71.7547 75.0479 72.7736 77.307 72.7736C78.8883 72.7736 79.9049 72.0943 79.9049 70.9623C79.9049 69.8302 79.1142 69.4906 77.5329 69.3774C75.9515 69.1509 75.7256 69.0377 75.7256 68.6981C75.7256 68.3585 75.8386 68.0189 77.0811 68.0189C78.0976 68.0189 78.5494 68.2453 78.6624 68.9245C78.6624 69.0377 78.7754 69.0377 78.7754 69.0377H79.4531H79.566V68.9245C79.4531 67.566 78.6624 67 77.0811 67Z" fill="#83CD29"/>
<path fill-rule="evenodd" clip-rule="evenodd" d="M59.2346 68.585L58.1051 69.2642L57.9921 69.3774V70.6227C57.9921 70.6227 57.9921 70.7359 58.1051 70.7359L59.1217 71.3019H59.2346L60.2512 70.7359L60.3642 70.6227V69.3774C60.3642 69.3774 60.3641 69.2642 60.2512 69.2642L59.2346 68.585C59.3476 68.585 59.2346 68.585 59.2346 68.585Z" fill="#83CD29"/>
<path d="M263.953 10.9627C263.84 10.9627 263.84 10.9627 263.84 10.8495L264.405 10.1702C264.405 10.057 264.631 10.057 264.744 10.057H274.006C274.119 10.057 274.119 10.1702 274.119 10.1702L273.667 10.8495C273.667 10.9627 273.442 10.9627 273.442 10.9627H263.953Z" fill="#2DBCAF"/>
<path d="M260.113 13.3401C260 13.3401 260 13.3401 260 13.2269L260.565 12.5477C260.565 12.4344 260.791 12.4344 260.904 12.4344H272.764C272.877 12.4344 272.877 12.5477 272.877 12.5477L272.651 13.2269C272.651 13.3401 272.538 13.3401 272.425 13.3401H260.113Z" fill="#2DBCAF"/>
<path d="M266.326 15.7174C266.213 15.7174 266.213 15.6042 266.213 15.6042L266.551 14.925C266.551 14.8118 266.664 14.8118 266.777 14.8118H271.973C272.086 14.8118 272.086 14.925 272.086 15.0382V15.7174C272.086 15.8306 271.973 15.9438 271.86 15.9438L266.326 15.7174Z" fill="#2DBCAF"/>
<path d="M293.208 10.5098C291.627 10.9627 290.497 11.1891 288.803 11.6419C288.464 11.7551 288.351 11.7551 288.012 11.4155C287.674 10.9627 287.335 10.7363 286.77 10.3966C285.189 9.60418 283.607 9.8306 282.026 10.7363C280.219 11.8683 279.315 13.5664 279.428 15.7174C279.428 17.7551 280.896 19.4532 282.93 19.7929C284.737 20.0193 286.205 19.4532 287.335 18.0947C287.561 17.7551 287.787 17.5287 288.012 17.1891C287.109 17.1891 285.866 17.1891 283.042 17.1891C282.478 17.1891 282.365 16.8495 282.591 16.3966C282.93 15.6042 283.494 14.2457 283.946 13.5664C284.059 13.4532 284.172 13.1136 284.624 13.1136C285.979 13.1136 290.836 13.1136 293.999 13.1136C293.999 13.7929 293.999 14.4721 293.886 15.2646C293.547 17.1891 292.869 18.8872 291.74 20.3589C289.82 22.8495 287.448 24.3212 284.398 24.774C281.913 25.1136 279.541 24.6608 277.395 23.0759C275.475 21.6042 274.345 19.6797 274.119 17.3023C273.78 14.4721 274.571 11.9815 276.265 9.71739C278.073 7.34003 280.557 5.75513 283.494 5.18909C285.979 4.73626 288.238 5.07588 290.385 6.43437C291.74 7.34003 292.757 8.58531 293.434 10.057C293.66 10.2834 293.547 10.3966 293.208 10.5098Z" fill="#2DBCAF"/>
<path d="M301.793 24.8873C299.421 24.8873 297.275 24.208 295.468 22.6231C293.886 21.2646 292.983 19.5665 292.644 17.642C292.192 14.6986 292.983 12.0948 294.79 9.83067C296.71 7.3401 298.969 6.09482 302.019 5.52878C304.617 5.07595 307.102 5.30236 309.361 6.88727C311.394 8.24576 312.637 10.1703 312.975 12.6609C313.427 16.1703 312.411 19.0005 310.039 21.491C308.344 23.1892 306.198 24.3212 303.826 24.7741C303.261 24.7741 302.471 24.7741 301.793 24.8873ZM308.005 14.359C308.005 14.0193 308.005 13.7929 307.892 13.4533C307.441 10.8495 305.069 9.37784 302.584 9.94387C300.212 10.5099 298.63 11.9816 298.065 14.4722C297.614 16.5099 298.63 18.5476 300.438 19.3401C301.906 20.0193 303.261 19.9061 304.617 19.2269C306.763 18.3212 307.893 16.6231 308.005 14.359Z" fill="#2DBCAF"/>
<path d="M220.966 2C219.724 2 218.481 2.11321 217.465 2.33962C214.415 2.90566 213.85 4.03774 213.85 6.18868V9.01887H221.192V9.92453H211.139C208.993 9.92453 207.186 11.1698 206.508 13.6604C205.831 16.4906 205.831 18.1887 206.508 21.1321C207.073 23.283 208.316 24.8679 210.349 24.8679H212.834V21.4717C212.834 19.0943 214.98 16.9434 217.465 16.9434H224.807C226.84 16.9434 228.421 15.2453 228.421 13.2075V6.07547C228.421 4.03774 226.727 2.56604 224.807 2.22642C223.564 2.11321 222.209 2 220.966 2ZM217.013 4.26415C217.804 4.26415 218.368 4.9434 218.368 5.62264C218.368 6.41509 217.804 6.98113 217.013 6.98113C216.222 6.98113 215.658 6.30189 215.658 5.62264C215.658 4.83019 216.222 4.26415 217.013 4.26415Z" fill="url(#paint16_linear)"/>
<path d="M229.438 9.81128V13.0943C229.438 15.5849 227.292 17.7358 224.807 17.7358H217.465C215.432 17.7358 213.85 19.4339 213.85 21.4717V28.4905C213.85 30.5283 215.545 31.6603 217.465 32.2264C219.837 32.9056 221.983 33.0188 224.807 32.2264C226.614 31.6603 228.422 30.6415 228.422 28.4905V25.6603H221.08V24.7547H232.036C234.182 24.7547 234.973 23.283 235.651 21.0188C236.441 18.7547 236.328 16.4905 235.651 13.5471C235.086 11.3962 234.069 9.81128 232.036 9.81128H229.438ZM225.259 27.5849C226.05 27.5849 226.614 28.2641 226.614 28.9434C226.614 29.7358 226.05 30.3018 225.259 30.3018C224.468 30.3018 223.903 29.6226 223.903 28.9434C223.903 28.1509 224.468 27.5849 225.259 27.5849Z" fill="url(#paint17_linear)"/>
<path opacity="0.444" d="M211.365 36.9812C211.365 35.9623 215.77 35.0566 221.192 35.0566C226.614 35.0566 231.019 35.9623 231.019 36.9812" fill="url(#paint18_radial)"/>
<path d="M98.8206 17.5471C98.8206 15.5094 96.4485 13.6981 92.721 12.4528C93.6247 8.60374 93.1728 5.43393 91.4785 4.41506C91.1397 4.18865 90.6879 4.07544 90.1231 4.07544V5.43393C90.349 5.43393 90.5749 5.43393 90.8008 5.54714C91.5915 5.99997 91.9304 7.81129 91.7044 10.1886C91.5915 10.7547 91.4785 11.3207 91.3656 12C90.236 11.6603 88.8806 11.4339 87.5251 11.3207C86.7345 10.1886 85.8308 9.16978 85.0401 8.26412C86.9604 6.4528 88.7676 5.43393 90.0101 5.43393V4.18865C88.3158 4.18865 86.1697 5.43393 84.0236 7.47167C81.8774 5.43393 79.7313 4.18865 78.037 4.18865V5.54714C79.2795 5.54714 81.0867 6.56601 83.007 8.37733C82.2163 9.28299 81.3127 10.3019 80.522 11.4339C79.1665 11.5471 77.924 11.7736 76.6815 12.1132C76.5686 11.5471 76.4556 10.8679 76.3427 10.3019C76.1168 7.9245 76.4556 6.11318 77.2463 5.66035C77.4722 5.54714 77.6981 5.54714 77.924 5.54714V4.18865C77.4722 4.18865 77.0204 4.30185 76.5686 4.52827C74.8743 5.54714 74.5354 8.60374 75.3261 12.4528C71.5986 13.5849 69.2266 15.5094 69.2266 17.5471C69.2266 19.5849 71.5986 21.3962 75.3261 22.6415C74.4225 26.4905 74.8743 29.6603 76.5686 30.6792C76.9074 30.9056 77.3593 31.0188 77.924 31.0188C79.6183 31.0188 81.7645 29.7736 83.9106 27.7358C86.0567 29.7736 88.2029 31.0188 89.8972 31.0188C90.349 31.0188 90.8008 30.9056 91.2526 30.6792C92.9469 29.6603 93.2858 26.6037 92.4951 22.7547C96.4485 21.3962 98.8206 19.4717 98.8206 17.5471ZM91.0267 13.4717C90.8008 14.2641 90.5749 15.0566 90.236 15.849C90.0101 15.3962 89.7842 14.8302 89.4454 14.3773C89.2195 13.9245 88.8806 13.3585 88.5417 12.9056C89.4454 13.132 90.236 13.2452 91.0267 13.4717ZM88.3158 19.9245C87.864 20.7169 87.4122 21.5094 86.8474 22.3019C85.9438 22.4151 85.0401 22.4151 84.1365 22.4151C83.2329 22.4151 82.3292 22.4151 81.4256 22.3019C80.9738 21.6226 80.409 20.8302 79.9572 19.9245C79.5054 19.132 79.0536 18.3396 78.7147 17.4339C79.0536 16.6415 79.5054 15.7358 79.9572 14.9434C80.409 14.1509 80.8608 13.3585 81.4256 12.566C82.3292 12.4528 83.2329 12.4528 84.1365 12.4528C85.0401 12.4528 85.9438 12.4528 86.8474 12.566C87.2992 13.2453 87.864 14.0377 88.3158 14.9434C88.7676 15.7358 89.2195 16.5283 89.5583 17.4339C89.2195 18.3396 88.7676 19.132 88.3158 19.9245ZM90.236 19.132C90.5749 19.9245 90.8008 20.8302 91.0267 21.6226C90.236 21.849 89.4454 21.9622 88.5417 22.0754C88.8806 21.6226 89.1065 21.1698 89.4454 20.6037C89.7842 20.1509 90.0101 19.6981 90.236 19.132ZM84.2495 25.6981C83.6847 25.132 83.1199 24.4528 82.5552 23.7736C83.1199 23.7736 83.6847 23.7736 84.2495 23.7736C84.8142 23.7736 85.379 23.7736 85.9438 23.7736C85.2661 24.4528 84.8142 25.132 84.2495 25.6981ZM79.7313 22.0754C78.9406 21.9622 78.037 21.7358 77.2463 21.6226C77.4722 20.8302 77.6981 20.0377 78.037 19.2452C78.2629 19.6981 78.4888 20.2641 78.8277 20.7169C79.1665 21.1698 79.5054 21.6226 79.7313 22.0754ZM84.1365 9.39619C84.7013 9.96223 85.2661 10.6415 85.8308 11.3207C85.2661 11.3207 84.7013 11.3207 84.1365 11.3207C83.5717 11.3207 83.007 11.3207 82.4422 11.3207C83.1199 10.6415 83.6847 9.96223 84.1365 9.39619ZM79.7313 13.0188C79.3924 13.4717 79.1665 13.9245 78.8277 14.4905C78.6018 14.9434 78.2629 15.5094 78.037 15.9622C77.6981 15.1698 77.4722 14.2641 77.2463 13.4717C78.037 13.2452 78.9406 13.132 79.7313 13.0188ZM74.4225 20.6037C72.2763 19.6981 70.9209 18.4528 70.9209 17.5471C70.9209 16.6415 72.2763 15.3962 74.4225 14.4905C74.9872 14.2641 75.552 14.0377 76.1168 13.9245C76.4556 15.1698 76.9074 16.4151 77.4722 17.6603C76.9074 18.9056 76.4556 20.1509 76.1168 21.3962C75.439 21.0566 74.8743 20.8302 74.4225 20.6037ZM77.5852 29.4339C76.7945 28.9811 76.4556 27.1698 76.6815 24.7924C76.7945 24.2264 76.9074 23.6603 77.0204 22.9811C78.1499 23.3207 79.5054 23.5471 80.8608 23.6603C81.6515 24.7924 82.5552 25.8113 83.3458 26.7169C81.4256 28.5283 79.6183 29.5471 78.3758 29.5471C78.037 29.5471 77.8111 29.5471 77.5852 29.4339ZM91.7044 24.6792C91.9304 27.0566 91.5915 28.8679 90.8008 29.3207C90.5749 29.4339 90.349 29.4339 90.1231 29.4339C88.8806 29.4339 87.0733 28.4151 85.1531 26.6037C85.9438 25.6981 86.8474 24.6792 87.6381 23.5471C88.9935 23.4339 90.236 23.2075 91.4785 22.8679C91.5915 23.5471 91.7044 24.1132 91.7044 24.6792ZM94.0765 20.6037C93.5117 20.8302 92.9469 21.0566 92.3822 21.1698C92.0433 19.9245 91.5915 18.6792 91.0267 17.4339C91.5915 16.1886 92.0433 14.9434 92.3822 13.6981C92.9469 13.9245 93.5117 14.1509 94.0765 14.3773C96.2226 15.283 97.5781 16.5283 97.5781 17.4339C97.4651 18.4528 96.1097 19.6981 94.0765 20.6037Z" fill="#61DAFB"/>
<path d="M84.1367 20.3773C85.6339 20.3773 86.8476 19.1102 86.8476 17.5471C86.8476 15.984 85.6339 14.7169 84.1367 14.7169C82.6395 14.7169 81.4258 15.984 81.4258 17.5471C81.4258 19.1102 82.6395 20.3773 84.1367 20.3773Z" fill="#61DAFB"/>
<path d="M117.037 60.9342H127.429V61.7267H118.054V67.9531H126.864V68.7455H118.054V75.538H127.542V76.3304H117.15V60.9342H117.037ZM128.332 60.9342H129.462L134.319 67.7267L139.289 60.9342L146.066 52.3304L134.997 68.5191L140.757 76.4437H139.628L134.432 69.1984L129.236 76.4437H128.106L133.867 68.5191L128.332 60.9342ZM141.096 61.8399V61.0474H152.843V61.8399H147.422V76.4437H146.518V61.8399H141.096ZM104.16 60.9342H105.29L121.668 85.3871L114.891 76.3304L105.064 62.0663V76.3304H104.16V60.9342ZM152.73 75.4248C152.505 75.4248 152.392 75.3116 152.392 75.0852C152.392 74.8587 152.505 74.7455 152.73 74.7455C152.956 74.7455 153.069 74.8587 153.069 75.0852C153.069 75.1984 152.956 75.4248 152.73 75.4248ZM153.747 74.5191H154.199C154.199 74.7455 154.425 74.972 154.651 74.972C154.989 74.972 155.215 74.7455 155.215 74.4059V72.0286H155.78V74.4059C155.78 75.0852 155.441 75.4248 154.764 75.4248C154.086 75.4248 153.747 75.0852 153.747 74.5191ZM156.458 74.4059H157.023C157.023 74.7455 157.362 74.972 157.813 74.972C158.265 74.972 158.491 74.7455 158.491 74.4059C158.491 74.1795 158.265 73.9531 157.813 73.8399L157.362 73.7267C156.797 73.6135 156.458 73.2738 156.458 72.821C156.458 72.255 156.91 71.8021 157.7 71.8021C158.378 71.8021 158.83 72.1418 158.943 72.7078H158.491C158.491 72.3682 158.152 72.255 157.813 72.255C157.362 72.255 157.136 72.4814 157.136 72.7078C157.136 72.9342 157.362 73.0474 157.7 73.1606L158.039 73.2738C158.717 73.3871 159.056 73.7267 159.056 74.1795C159.056 74.8587 158.604 75.1984 157.813 75.1984C156.91 75.4248 156.458 75.0852 156.458 74.4059Z" fill="black"/>
<path d="M17.3973 0L0.792969 5.88679L3.39094 27.9623L17.3973 35.7736L31.5166 27.9623L34.0015 5.88679L17.3973 0Z" fill="#DD0031"/>
<path d="M17.3973 0V3.96226V22.0755V35.7736L31.5166 27.9623L34.0016 5.88679L17.3973 0Z" fill="#C3002F"/>
<path d="M17.3972 3.96228L7.11835 27.283H10.9588L12.992 22.0755H21.8024L23.8355 27.283H27.676L17.3972 3.96228ZM20.4469 18.7925H14.3474L17.3972 11.434L20.4469 18.7925Z" fill="white"/>
<path d="M190.848 72.3898C192.221 72.3898 193.333 71.2748 193.333 69.8993C193.333 68.5238 192.221 67.4087 190.848 67.4087C189.476 67.4087 188.363 68.5238 188.363 69.8993C188.363 71.2748 189.476 72.3898 190.848 72.3898Z" fill="#BDBEC2"/>
<path d="M199.772 72.3898C201.144 72.3898 202.257 71.2748 202.257 69.8993C202.257 68.5238 201.144 67.4087 199.772 67.4087C198.399 67.4087 197.287 68.5238 197.287 69.8993C197.287 71.2748 198.399 72.3898 199.772 72.3898Z" fill="#BDBEC2"/>
<path d="M208.808 72.3898C210.18 72.3898 211.293 71.2748 211.293 69.8993C211.293 68.5238 210.18 67.4087 208.808 67.4087C207.436 67.4087 206.323 68.5238 206.323 69.8993C206.323 71.2748 207.436 72.3898 208.808 72.3898Z" fill="#BDBEC2"/>
<defs>
<linearGradient id="paint0_linear" x1="156.645" y1="32.7556" x2="151.189" y2="23.1446" gradientUnits="userSpaceOnUse">
<stop stop-color="#FB7655"/>
<stop offset="0.41" stop-color="#E42B1E"/>
<stop offset="0.99" stop-color="#990000"/>
<stop offset="1" stop-color="#990000"/>
</linearGradient>
<linearGradient id="paint1_linear" x1="159.354" y1="24.6731" x2="152.336" y2="19.9747" gradientUnits="userSpaceOnUse">
<stop stop-color="#871101"/>
<stop offset="0.99" stop-color="#911209"/>
<stop offset="1" stop-color="#911209"/>
</linearGradient>
<linearGradient id="paint2_linear" x1="153.747" y1="33.047" x2="146.73" y2="28.3486" gradientUnits="userSpaceOnUse">
<stop stop-color="#871101"/>
<stop offset="0.99" stop-color="#911209"/>
<stop offset="1" stop-color="#911209"/>
</linearGradient>
<linearGradient id="paint3_linear" x1="139.034" y1="21.2614" x2="140.125" y2="28.3367" gradientUnits="userSpaceOnUse">
<stop stop-color="white"/>
<stop offset="0.23" stop-color="#E57252"/>
<stop offset="0.46" stop-color="#DE3B20"/>
<stop offset="0.99" stop-color="#A60003"/>
<stop offset="1" stop-color="#A60003"/>
</linearGradient>
<linearGradient id="paint4_linear" x1="146.506" y1="14.6541" x2="146.908" y2="21.8754" gradientUnits="userSpaceOnUse">
<stop stop-color="white"/>
<stop offset="0.23" stop-color="#E4714E"/>
<stop offset="0.56" stop-color="#BE1A0D"/>
<stop offset="0.99" stop-color="#A80D00"/>
<stop offset="1" stop-color="#A80D00"/>
</linearGradient>
<linearGradient id="paint5_linear" x1="153.137" y1="7.97942" x2="154.34" y2="13.1537" gradientUnits="userSpaceOnUse">
<stop stop-color="white"/>
<stop offset="0.18" stop-color="#E46342"/>
<stop offset="0.4" stop-color="#C82410"/>
<stop offset="0.99" stop-color="#A80D00"/>
<stop offset="1" stop-color="#A80D00"/>
</linearGradient>
<linearGradient id="paint6_linear" x1="149.477" y1="6.15696" x2="154.646" y2="3.57864" gradientUnits="userSpaceOnUse">
<stop stop-color="white"/>
<stop offset="0.54" stop-color="#C81F11"/>
<stop offset="0.99" stop-color="#BF0905"/>
<stop offset="1" stop-color="#BF0905"/>
</linearGradient>
<linearGradient id="paint7_linear" x1="134.508" y1="19.4576" x2="134.935" y2="23.7215" gradientUnits="userSpaceOnUse">
<stop stop-color="white"/>
<stop offset="0.31" stop-color="#DE4024"/>
<stop offset="0.99" stop-color="#BF190B"/>
<stop offset="1" stop-color="#BF190B"/>
</linearGradient>
<linearGradient id="paint8_linear" x1="131.586" y1="24.8749" x2="151.61" y2="4.33066" gradientUnits="userSpaceOnUse">
<stop stop-color="#BD0012"/>
<stop offset="0.07" stop-color="white"/>
<stop offset="0.17" stop-color="white"/>
<stop offset="0.27" stop-color="#C82F1C"/>
<stop offset="0.33" stop-color="#820C01"/>
<stop offset="0.46" stop-color="#A31601"/>
<stop offset="0.72" stop-color="#B31301"/>
<stop offset="0.99" stop-color="#E82609"/>
<stop offset="1" stop-color="#E82609"/>
</linearGradient>
<linearGradient id="paint9_linear" x1="146.889" y1="26.9515" x2="140.87" y2="25.4692" gradientUnits="userSpaceOnUse">
<stop stop-color="#8C0C01"/>
<stop offset="0.54" stop-color="#990C00"/>
<stop offset="0.99" stop-color="#A80D0E"/>
<stop offset="1" stop-color="#A80D0E"/>
</linearGradient>
<linearGradient id="paint10_linear" x1="157.224" y1="19.713" x2="151.868" y2="14.9231" gradientUnits="userSpaceOnUse">
<stop stop-color="#7E110B"/>
<stop offset="0.99" stop-color="#9E0C00"/>
<stop offset="1" stop-color="#9E0C00"/>
</linearGradient>
<linearGradient id="paint11_linear" x1="159.188" y1="10.9025" x2="156.519" y2="8.05508" gradientUnits="userSpaceOnUse">
<stop stop-color="#79130D"/>
<stop offset="0.99" stop-color="#9E120B"/>
<stop offset="1" stop-color="#9E120B"/>
</linearGradient>
<radialGradient id="paint12_radial" cx="0" cy="0" r="1" gradientUnits="userSpaceOnUse" gradientTransform="translate(152.711 15.0029) scale(6.551 6.5657)">
<stop stop-color="#A80D00"/>
<stop offset="0.99" stop-color="#7E0E08"/>
<stop offset="1" stop-color="#7E0E08"/>
</radialGradient>
<radialGradient id="paint13_radial" cx="0" cy="0" r="1" gradientUnits="userSpaceOnUse" gradientTransform="translate(143.638 23.6554) scale(8.70866 8.72819)">
<stop stop-color="#A30C00"/>
<stop offset="0.99" stop-color="#800E08"/>
<stop offset="1" stop-color="#800E08"/>
</radialGradient>
<linearGradient id="paint14_linear" x1="137.47" y1="30.381" x2="135.291" y2="23.0047" gradientUnits="userSpaceOnUse">
<stop stop-color="#8B2114"/>
<stop offset="0.43" stop-color="#9E100A"/>
<stop offset="0.99" stop-color="#B3100C"/>
<stop offset="1" stop-color="#B3100C"/>
</linearGradient>
<linearGradient id="paint15_linear" x1="154.117" y1="5.92975" x2="158.986" y2="8.07366" gradientUnits="userSpaceOnUse">
<stop stop-color="#B31000"/>
<stop offset="0.44" stop-color="#910F08"/>
<stop offset="0.99" stop-color="#791C12"/>
<stop offset="1" stop-color="#791C12"/>
</linearGradient>
<linearGradient id="paint16_linear" x1="205.256" y1="2.95023" x2="222.192" y2="17.3475" gradientUnits="userSpaceOnUse">
<stop stop-color="#5A9FD4"/>
<stop offset="1" stop-color="#306998"/>
</linearGradient>
<linearGradient id="paint17_linear" x1="228.499" y1="26.3823" x2="222.416" y2="17.8782" gradientUnits="userSpaceOnUse">
<stop stop-color="#FFD43B"/>
<stop offset="1" stop-color="#FFE873"/>
</linearGradient>
<radialGradient id="paint18_radial" cx="0" cy="0" r="1" gradientUnits="userSpaceOnUse" gradientTransform="translate(221.122 36.1187) rotate(-90) scale(1.58849 6.96781)">
<stop stop-color="#B8B8B8" stop-opacity="0.498"/>
<stop offset="1" stop-color="#7F7F7F" stop-opacity="0"/>
</radialGradient>
</defs>
</svg>
