<svg width="31" height="32" viewBox="0 0 31 32" fill="none" xmlns="http://www.w3.org/2000/svg">
<g clip-path="url(#clip0)">
<path d="M11.5184 15.9968C11.5184 13.8952 13.1932 12.186 15.2665 12.186C17.3336 12.186 19.0147 13.8888 19.0147 15.9968C19.0147 18.0985 17.3398 19.8077 15.2665 19.8077C13.1932 19.8077 11.5184 18.1048 11.5184 15.9968ZM15.2665 0C7.91966 0 1.75577 5.11493 0.0186785 12.034C0.00622615 12.0847 0 12.1353 0 12.1923C0 12.6101 0.336212 12.9519 0.747138 12.9519H7.09158C7.39667 12.9519 7.65194 12.7683 7.77024 12.5088C9.0715 9.62216 11.9355 7.62176 15.2603 7.62176C19.8116 7.62176 23.5037 11.3757 23.5037 16.0032C23.5037 20.6307 19.8116 24.3846 15.2603 24.3846C11.9355 24.3846 9.0715 22.3778 7.77024 19.4975C7.65194 19.238 7.39044 19.0544 7.09158 19.0544H0.747138C0.336212 19.0544 0 19.3962 0 19.814C0 19.8647 0.00622615 19.9153 0.0186785 19.966C1.75577 26.8851 7.91966 32.0063 15.2665 32.0063C23.9582 32.0063 31 24.8404 31 16.0095C31 7.16597 23.952 0 15.2665 0Z" fill="#171717"/>
</g>
<defs>
<clipPath id="clip0">
<rect width="31" height="32" fill="white"/>
</clipPath>
</defs>
</svg>
