<svg width="39" height="32" viewBox="0 0 39 32" fill="none" xmlns="http://www.w3.org/2000/svg">
<path d="M25.0011 9.1488H26.1627L29.4733 5.83819L29.6359 4.43264C25.7802 1.02944 20.4405 -0.141573 15.5144 1.33577C10.5884 2.81311 6.77438 6.72935 5.42783 11.6927C5.79664 11.5416 6.2052 11.5171 6.58944 11.623L13.2107 10.5311C13.2107 10.5311 13.5475 9.97355 13.7218 10.0084C16.667 6.77372 21.6237 6.39675 25.0243 9.1488H25.0011Z" fill="#EA4335"/>
<path d="M34.1894 11.6927C33.4285 8.89049 31.8661 6.3713 29.694 4.44424L25.0475 9.09071C27.0096 10.6939 28.1272 13.1089 28.0793 15.6422V16.467C30.3632 16.467 32.2147 18.3184 32.2147 20.6023C32.2147 22.8862 30.3632 24.7377 28.0793 24.7377H19.8086L18.9839 25.574V30.5341L19.8086 31.3589H28.0793C32.8215 31.3958 37.0283 28.3229 38.4353 23.7941C39.8423 19.2654 38.1176 14.3496 34.1894 11.6927Z" fill="#4285F4"/>
<path d="M11.5263 31.3124H19.797V24.6912H11.5263C10.9371 24.6911 10.3547 24.5643 9.81873 24.3195L8.65711 24.6796L5.32327 27.9902L5.03287 29.1518C6.90241 30.5636 9.18365 31.3226 11.5263 31.3124Z" fill="#34A853"/>
<path d="M11.5263 9.83414C6.93221 9.86159 2.86265 12.8038 1.39648 17.1577C-0.0696991 21.5116 1.39119 26.3162 5.03287 29.117L9.83035 24.3195C8.15417 23.5622 7.17963 21.7889 7.43893 19.9679C7.69823 18.147 9.12905 16.7162 10.95 16.4569C12.7709 16.1976 14.5443 17.1721 15.3016 18.8483L20.099 14.0508C18.0578 11.3823 14.886 9.82217 11.5263 9.83414Z" fill="#FBBC05"/>
</svg>
