<svg width="34" height="31" viewBox="0 0 34 31" fill="none" xmlns="http://www.w3.org/2000/svg">
<path fill-rule="evenodd" clip-rule="evenodd" d="M16.8189 0C7.71303 0 0.318924 7.11096 0.318924 15.8899C0.318924 22.9131 5.04913 28.8633 11.6025 30.9702C12.423 31.1165 12.7268 30.6288 12.7268 30.1996C12.7268 29.8192 12.7167 28.8243 12.7066 27.4977C8.11819 28.4536 7.1458 25.3712 7.1458 25.3712C6.39626 23.5374 5.31247 23.0497 5.31247 23.0497C3.81339 22.0645 5.42389 22.084 5.42389 22.084C7.07491 22.201 7.95612 23.7227 7.95612 23.7227C9.42481 26.1515 11.8152 25.4492 12.7572 25.0396C12.9092 24.0153 13.3346 23.313 13.8005 22.9131C10.1338 22.5132 6.28486 21.1475 6.28486 15.0608C6.28486 13.3245 6.92297 11.9101 7.98651 10.7981C7.81431 10.3982 7.2471 8.77896 8.14857 6.59398C8.14857 6.59398 9.53623 6.16478 12.6863 8.22296C14.0031 7.8718 15.411 7.69622 16.8189 7.68647C18.2167 7.69622 19.6348 7.8718 20.9515 8.22296C24.1016 6.16478 25.4893 6.59398 25.4893 6.59398C26.3907 8.77896 25.8235 10.3982 25.6513 10.7981C26.7047 11.9101 27.3429 13.3245 27.3429 15.0608C27.3429 21.1671 23.4837 22.5034 19.807 22.9033C20.3944 23.3911 20.9313 24.3665 20.9313 25.8492C20.9313 27.9756 20.911 29.6826 20.911 30.2094C20.911 30.6386 21.2048 31.1263 22.0455 30.9702C28.5989 28.8633 33.3189 22.9131 33.3189 15.8997C33.3189 7.11096 25.9248 0 16.8189 0Z" fill="black"/>
</svg>
