<svg width="338" height="311" fill="none" xmlns="http://www.w3.org/2000/svg"><path d="M169.026 310.983l62.199-191.322H106.918l62.108 191.322z" fill="#E24329"/><path d="M19.798 119.662L.857 177.788c-1.714 5.278.137 11.104 4.661 14.394l163.509 118.801L19.798 119.662z" fill="#FCA326"/><path d="M19.798 119.662h87.12L69.424 4.438c-1.919-5.895-10.282-5.895-12.27 0L19.798 119.662z" fill="#E24329"/><path d="M318.346 119.662l18.873 58.126c1.714 5.278-.137 11.104-4.661 14.394L169.026 310.983l149.32-191.321z" fill="#FCA326"/><path d="M318.346 119.662h-87.12L268.651 4.438c1.919-5.895 10.282-5.895 12.27 0l37.425 115.224z" fill="#E24329"/><path d="M169.026 310.983l62.199-191.321h87.121l-149.32 191.321zM169.026 310.983L19.798 119.662h87.12l62.108 191.321z" fill="#FC6D26"/></svg>