<svg width="35" height="34" viewBox="0 0 35 34" fill="none" xmlns="http://www.w3.org/2000/svg">
<path d="M31.5793 7.98666C31.432 7.41571 30.8428 6.84475 30.2536 6.55927L18.1742 0.99247C17.8796 0.849731 17.4377 0.849731 17.1431 0.849731C16.8485 0.849731 16.4065 0.849731 16.1119 0.99247L4.17989 6.41653C3.59065 6.70201 3.14873 7.27297 3.00142 7.84392L0.0552408 20.4049C-0.0920681 21.1186 0.0552408 21.6896 0.497168 22.2605L8.89377 32.2522C9.3357 32.6804 10.0722 32.9659 10.6615 33.1086H23.9193C24.6558 33.2514 25.2451 32.8232 25.687 32.2522L34.0836 22.2605C34.5255 21.6896 34.6728 21.1186 34.5255 20.4049L31.5793 7.98666Z" fill="#326DE6"/>
<path d="M29.814 19.9768C29.814 19.9768 29.6667 19.9768 29.814 19.9768C29.6667 19.8341 29.6667 19.8341 29.5194 19.8341C29.3721 19.8341 29.2248 19.8341 29.0774 19.8341C28.9301 19.8341 28.9301 19.8341 28.7828 19.8341C28.3409 19.8341 27.899 19.6914 27.457 19.5486C27.3097 19.5486 27.1624 19.4059 27.1624 19.2632L26.8678 19.1204C27.0151 17.9785 27.0151 16.8366 26.7205 15.6947C26.4259 14.5528 25.984 13.5536 25.3947 12.5544H25.542C25.542 12.4117 25.542 12.269 25.6893 12.269C25.984 11.9835 26.4259 11.698 26.8678 11.5553C27.0151 11.5553 27.0151 11.4125 27.1624 11.4125C27.1624 11.1271 27.3097 11.1271 27.457 10.9843C27.457 10.9843 27.6044 10.9843 27.6044 10.8416C27.6044 10.6988 27.6044 10.8416 27.6044 10.6988C27.899 10.4134 28.0463 9.98515 27.7517 9.55693C27.6044 9.41419 27.457 9.27145 27.1624 9.27145C27.0151 9.27145 26.7205 9.41419 26.5732 9.41419L26.4259 9.55693C26.2786 9.69967 26.1313 9.84241 26.1313 9.84241C26.1313 9.98514 25.984 9.98514 25.984 9.98514C25.6893 10.2706 25.3947 10.5561 24.9528 10.8416C24.8055 10.8416 24.8055 10.9843 24.6582 10.9843H24.5109L24.2162 11.1271C23.9216 11.1271 23.627 10.8416 23.1851 10.5561C21.712 9.41419 19.9443 8.7005 18.0293 8.55776V8.27228C17.882 8.12954 17.882 8.12954 17.882 7.98681C17.882 7.55859 17.882 7.13037 18.0293 6.70216C18.0293 6.55942 18.0293 6.55942 18.0293 6.41668C18.0293 6.27394 18.0293 6.1312 18.1766 5.98847V5.70299C18.1766 5.27477 17.882 4.9893 17.44 4.84656C17.1454 4.84656 16.9981 4.9893 16.7035 5.13203C16.5562 5.27477 16.4089 5.41751 16.4089 5.70299V5.84573C16.4089 5.98847 16.4089 6.1312 16.5562 6.27394C16.5562 6.41668 16.5562 6.41668 16.5562 6.55942C16.7035 6.98764 16.7035 7.41585 16.7035 7.84407C16.7035 7.98681 16.5562 8.12954 16.5562 8.12954V8.27228V8.55776C16.1143 8.55776 15.6723 8.7005 15.2304 8.7005C13.1681 9.12871 11.5477 10.1279 10.2219 11.4125L9.92729 11.2698H9.77998C9.63267 11.2698 9.63267 11.2698 9.48536 11.1271C9.19074 10.9843 8.89612 10.6988 8.60151 10.4134C8.60151 10.2706 8.4542 10.2706 8.4542 10.2706C8.30689 10.1279 8.15958 9.98514 8.15958 9.84241C8.15958 9.84241 8.01227 9.84241 8.01227 9.69967C7.71765 9.69967 7.57034 9.55693 7.42304 9.55693C7.12842 9.55693 6.98111 9.69967 6.8338 9.84241C6.53918 10.1279 6.68649 10.6988 6.98111 10.8416L7.12842 10.9843C7.27573 11.1271 7.42304 11.1271 7.57034 11.2698C7.71765 11.2698 7.71765 11.4125 7.86496 11.4125C8.15958 11.5553 8.60151 11.8407 8.89612 12.1262C9.04343 12.269 9.04343 12.4117 9.04343 12.5544L9.33805 12.8399C9.33805 12.9827 9.19074 12.9827 9.19074 12.9827C8.01227 14.8383 7.42304 17.1221 7.86496 19.2632H7.42304C7.42304 19.4059 7.27573 19.4059 7.12842 19.5486C6.68649 19.6914 6.24456 19.6914 5.80264 19.8341C5.65533 19.8341 5.65533 19.8341 5.50802 19.8341C5.36071 19.8341 5.2134 19.8341 5.06609 19.8341H4.91878C4.91878 19.8341 4.91878 19.8341 4.77148 19.8341C4.32955 19.9768 4.03493 20.2623 4.18224 20.6905C4.32955 20.976 4.62417 21.2615 4.91878 21.2615C5.06609 21.2615 5.06609 21.2615 5.06609 21.2615H5.2134C5.36071 21.2615 5.50802 21.1187 5.65533 21.1187C5.94995 21.1187 5.94995 20.976 6.09726 20.976C6.53918 20.8333 6.98111 20.6905 7.42304 20.6905C7.57034 20.6905 7.71765 20.6905 7.71765 20.8333H8.01227C8.60151 22.5461 9.77998 24.1163 11.2531 25.2582C11.5477 25.5436 11.9896 25.6864 12.2842 25.9719L12.1369 26.2573C12.2842 26.4001 12.2842 26.5428 12.1369 26.6856C11.9896 27.1138 11.695 27.3992 11.5477 27.8275C11.5477 27.9702 11.4004 27.9702 11.4004 27.9702C11.2531 28.1129 11.2531 28.2557 11.1058 28.3984C11.1058 28.3984 11.1058 28.5412 10.9584 28.5412C10.8111 28.9694 10.9584 29.3976 11.2531 29.5403C11.5477 29.6831 11.695 29.6831 11.8423 29.6831C12.1369 29.6831 12.4315 29.5403 12.5788 29.2548C12.5788 29.2548 12.5788 29.1121 12.7262 29.1121C12.7262 28.9694 12.8735 28.8266 12.8735 28.6839L13.0208 28.3984C13.1681 27.9702 13.3154 27.542 13.4627 27.2565C13.61 27.1138 13.61 27.1138 13.7573 26.971L13.9046 26.6856C15.0831 27.1138 16.1143 27.2565 17.2927 27.2565C18.0293 27.2565 18.7658 27.1138 19.5024 26.971C19.9443 26.8283 20.3862 26.6856 20.8281 26.6856L20.9755 26.971C21.1228 26.971 21.2701 27.1138 21.2701 27.2565C21.4174 27.6847 21.712 27.9702 21.712 28.3984L21.8593 28.6839C21.8593 28.8266 22.0066 28.9694 22.0066 29.1121C22.0066 29.1121 22.0066 29.2548 22.1539 29.2548C22.3012 29.5403 22.5958 29.6831 22.8905 29.6831C23.0378 29.6831 23.0378 29.6831 23.1851 29.5403C23.3324 29.3976 23.4797 29.2548 23.4797 29.1121C23.4797 28.9694 23.4797 28.6839 23.4797 28.5412C23.4797 28.5412 23.4797 28.3984 23.3324 28.3984C23.1851 28.2557 23.1851 28.1129 23.0378 27.9702C23.0378 27.8275 22.8905 27.8275 22.8905 27.8275V27.6847C22.5958 27.3992 22.4485 26.971 22.3012 26.5428C22.3012 26.4001 22.3012 26.2573 22.3012 26.1146L22.1539 25.8291C24.2162 24.6872 25.6893 22.8316 26.4259 20.5478H26.7205C26.8678 20.4051 26.8678 20.4051 27.0151 20.4051C27.457 20.5478 27.899 20.5478 28.3409 20.6905C28.4882 20.6905 28.4882 20.8333 28.6355 20.8333C28.7828 20.976 28.9301 20.976 29.0774 20.976H29.2247C29.2247 20.976 29.2247 20.976 29.3721 20.976C29.5194 20.976 29.5194 20.976 29.5194 20.976C29.814 20.976 30.2559 20.6905 30.2559 20.4051C30.4032 20.4051 30.1086 20.1196 29.814 19.9768ZM18.3239 18.8349L17.2927 19.2632L16.2616 18.8349L15.967 17.693L16.7035 16.8366H17.882L18.6185 17.693L18.3239 18.8349ZM24.8055 16.2656C24.9528 17.1221 25.1001 17.8358 24.9528 18.6922L21.1228 17.693C20.8281 17.5503 20.5335 17.2648 20.6808 16.9793C20.6808 16.8366 20.8281 16.8366 20.8281 16.6939L23.7743 14.1246C24.2162 14.6955 24.6582 15.5519 24.8055 16.2656ZM22.5958 12.6972L19.3551 14.981C19.0604 15.1237 18.6185 15.1237 18.4712 14.8383C18.3239 14.6955 18.3239 14.6955 18.3239 14.5528L18.0293 10.6988C19.9443 10.6988 21.4174 11.5553 22.5958 12.6972ZM15.525 10.6988L16.2616 10.5561L16.1143 14.41C16.1143 14.6955 15.8196 14.981 15.3777 14.981C15.2304 14.981 15.2304 14.981 15.0831 14.8383L11.8423 12.6972C12.8735 11.698 14.0519 10.9843 15.525 10.6988ZM10.6638 14.1246L13.61 16.6939C13.9046 16.9793 13.9046 17.2648 13.7573 17.5503C13.61 17.693 13.61 17.693 13.4627 17.693L9.63267 18.8349C9.33805 17.1221 9.77998 15.4092 10.6638 14.1246ZM9.92729 20.5478L13.9046 19.8341C14.1992 19.8341 14.4939 19.9768 14.6412 20.2623C14.6412 20.4051 14.6412 20.5478 14.6412 20.6905L13.1681 24.259C11.695 23.4026 10.5165 22.1179 9.92729 20.5478ZM18.9131 25.2582C18.3239 25.4009 17.7347 25.4009 17.1454 25.4009C16.2616 25.4009 15.3777 25.2582 14.6412 24.9727L16.5562 21.547C16.7035 21.2615 16.9981 21.2615 17.2927 21.4042C17.44 21.547 17.44 21.547 17.5873 21.6897L19.5024 24.9727C19.5024 25.1154 19.2077 25.2582 18.9131 25.2582ZM23.7743 21.9752C23.1851 22.8316 22.3012 23.688 21.4174 24.259L19.9443 20.6905C19.797 20.4051 20.0916 20.1196 20.2389 19.9768C20.3862 19.9768 20.5335 19.8341 20.5335 19.8341L24.5109 20.5478C24.3636 20.976 24.0689 21.547 23.7743 21.9752Z" fill="white"/>
</svg>
