<svg width="32" height="30" viewBox="0 0 32 30" fill="none" xmlns="http://www.w3.org/2000/svg">
<path d="M31.9113 14.9769C31.9113 12.8197 29.3995 10.9021 25.4526 9.58385C26.4094 5.50912 25.931 2.15347 24.1369 1.07487C23.7781 0.835177 23.2997 0.715332 22.7016 0.715332V2.15347C22.9409 2.15347 23.1801 2.15347 23.4193 2.27331C24.2565 2.75269 24.6153 4.67021 24.3761 7.18695C24.2565 7.78618 24.1369 8.3854 24.0173 9.10447C22.8212 8.74494 21.386 8.50524 19.9507 8.3854C19.1135 7.18695 18.1566 6.10835 17.3194 5.14959C19.3527 3.23207 21.2664 2.15347 22.582 2.15347V0.835177C20.788 0.835177 18.5155 2.15347 16.2429 4.31068C13.9704 2.15347 11.6979 0.835177 9.90386 0.835177V2.27331C11.2195 2.27331 13.1332 3.35192 15.1665 5.26943C14.3293 6.22819 13.3724 7.3068 12.5352 8.50525C11.0999 8.62509 9.78426 8.86478 8.4686 9.22431C8.34899 8.62509 8.22938 7.90602 8.10978 7.3068C7.87056 4.79006 8.22938 2.87254 9.06662 2.39316C9.30583 2.27331 9.54504 2.27331 9.78425 2.27331V0.835177C9.30583 0.835177 8.82741 0.955022 8.34899 1.19471C6.55491 2.27331 6.1961 5.50912 7.03333 9.58385C3.08635 10.7823 0.574638 12.8197 0.574638 14.9769C0.574638 17.1341 3.08635 19.0516 7.03333 20.3699C6.07649 24.4446 6.55491 27.8003 8.34899 28.8789C8.70781 29.1186 9.18623 29.2384 9.78425 29.2384C11.5783 29.2384 13.8508 27.9201 16.1233 25.7629C18.3958 27.9201 20.6683 29.2384 22.4624 29.2384C22.9409 29.2384 23.4193 29.1186 23.8977 28.8789C25.6918 27.8003 26.0506 24.5644 25.2134 20.4897C29.3995 19.0516 31.9113 17.0142 31.9113 14.9769ZM23.6585 10.6624C23.4193 11.5014 23.1801 12.3403 22.8212 13.1792C22.582 12.6998 22.3428 12.1006 21.984 11.6212C21.7448 11.1418 21.386 10.5426 21.0272 10.0632C21.984 10.3029 22.8212 10.4228 23.6585 10.6624ZM20.788 17.4936C20.3095 18.3325 19.8311 19.1714 19.2331 20.0103C18.2762 20.1302 17.3194 20.1302 16.3626 20.1302C15.4057 20.1302 14.4489 20.1302 13.492 20.0103C13.0136 19.2913 12.4156 18.4524 11.9372 17.4936C11.4587 16.6547 10.9803 15.8158 10.6215 14.857C10.9803 14.0181 11.4587 13.0593 11.9372 12.2204C12.4156 11.3815 12.894 10.5426 13.492 9.70369C14.4489 9.58385 15.4057 9.58385 16.3626 9.58385C17.3194 9.58385 18.2762 9.58385 19.2331 9.70369C19.7115 10.4228 20.3095 11.2617 20.788 12.2204C21.2664 13.0593 21.7448 13.8983 22.1036 14.857C21.7448 15.8158 21.2664 16.6547 20.788 17.4936ZM22.8212 16.6547C23.1801 17.4936 23.4193 18.4524 23.6585 19.2913C22.8212 19.531 21.984 19.6508 21.0272 19.7707C21.386 19.2913 21.6252 18.8119 21.984 18.2127C22.3428 17.7333 22.582 17.2539 22.8212 16.6547ZM16.4822 23.6057C15.8841 23.0065 15.2861 22.2874 14.6881 21.5683C15.2861 21.5683 15.8841 21.5683 16.4822 21.5683C17.0802 21.5683 17.6782 21.5683 18.2762 21.5683C17.5586 22.2874 17.0802 23.0065 16.4822 23.6057ZM11.6979 19.7707C10.8607 19.6508 9.90386 19.4111 9.06662 19.2913C9.30583 18.4524 9.54504 17.6134 9.90386 16.7745C10.1431 17.2539 10.3823 17.8531 10.7411 18.3325C11.0999 18.8119 11.4587 19.2913 11.6979 19.7707ZM16.3626 6.34804C16.9606 6.94726 17.5586 7.66633 18.1566 8.3854C17.5586 8.3854 16.9606 8.3854 16.3626 8.3854C15.7645 8.3854 15.1665 8.3854 14.5685 8.3854C15.2861 7.66633 15.8841 6.94726 16.3626 6.34804ZM11.6979 10.1831C11.3391 10.6625 11.0999 11.1418 10.7411 11.7411C10.5019 12.2204 10.1431 12.8197 9.90386 13.299C9.54504 12.4601 9.30583 11.5014 9.06662 10.6624C9.90386 10.4228 10.8607 10.3029 11.6979 10.1831ZM6.07649 18.2127C3.80398 17.2539 2.36872 15.9356 2.36872 14.9769C2.36872 14.0181 3.80398 12.6998 6.07649 11.7411C6.67451 11.5014 7.27254 11.2617 7.87057 11.1418C8.22938 12.4601 8.7078 13.7784 9.30583 15.0967C8.7078 16.415 8.22938 17.7333 7.87057 19.0516C7.15294 18.6921 6.55491 18.4524 6.07649 18.2127ZM9.42544 27.5606C8.58821 27.0812 8.22938 25.1637 8.4686 22.6469C8.5882 22.0477 8.70781 21.4485 8.82742 20.7294C10.0235 21.0889 11.4587 21.3286 12.894 21.4485C13.7312 22.6469 14.6881 23.7255 15.5253 24.6843C13.492 26.6018 11.5783 27.6804 10.2627 27.6804C9.90386 27.6804 9.66465 27.6804 9.42544 27.5606ZM24.3761 22.5271C24.6153 25.0438 24.2565 26.9613 23.4193 27.4407C23.1801 27.5606 22.9409 27.5606 22.7016 27.5606C21.386 27.5606 19.4723 26.482 17.439 24.5644C18.2762 23.6057 19.2331 22.5271 20.0703 21.3286C21.5056 21.2088 22.8212 20.9691 24.1369 20.6096C24.2565 21.3286 24.3761 21.9279 24.3761 22.5271ZM26.8878 18.2127C26.2898 18.4524 25.6918 18.6921 25.0938 18.8119C24.7349 17.4936 24.2565 16.1753 23.6585 14.857C24.2565 13.5387 24.7349 12.2204 25.0938 10.9021C25.6918 11.1418 26.2898 11.3815 26.8878 11.6212C29.1603 12.58 30.5956 13.8983 30.5956 14.857C30.476 15.9356 29.0407 17.2539 26.8878 18.2127Z" fill="#61DAFB"/>
<path d="M16.3631 17.9742C17.9485 17.9742 19.2337 16.6328 19.2337 14.9781C19.2337 13.3233 17.9485 11.9819 16.3631 11.9819C14.7778 11.9819 13.4926 13.3233 13.4926 14.9781C13.4926 16.6328 14.7778 17.9742 16.3631 17.9742Z" fill="#61DAFB"/>
</svg>
