<svg width="31" height="31" viewBox="0 0 31 31" fill="none" xmlns="http://www.w3.org/2000/svg">
<path fill-rule="evenodd" clip-rule="evenodd" d="M11.3659 0C9.65229 0.00126401 8.26543 1.38914 8.2667 3.09935C8.26543 4.80955 9.65356 6.19743 11.3672 6.1987H14.4677V3.10061C14.4689 1.39041 13.0808 0.00252802 11.3659 0C11.3672 0 11.3672 0 11.3659 0ZM11.3659 8.26661H3.10049C1.38686 8.26788 -0.00126308 9.65576 3.46129e-06 11.366C-0.00252962 13.0762 1.3856 14.464 3.09922 14.4666H11.3659C13.0795 14.4653 14.4677 13.0774 14.4664 11.3672C14.4677 9.65576 13.0795 8.26788 11.3659 8.26661Z" fill="#36C5F0"/>
<path fill-rule="evenodd" clip-rule="evenodd" d="M31 11.366C31.0013 9.65576 29.6131 8.26788 27.8995 8.26661C26.1859 8.26788 24.7978 9.65576 24.799 11.366V14.4666H27.8995C29.6131 14.4653 31.0013 13.0774 31 11.366ZM22.7333 11.366V3.09935C22.7346 1.39041 21.3477 0.00252802 19.6341 0C17.9204 0.00126401 16.5323 1.38914 16.5336 3.09935V11.366C16.5311 13.0762 17.9192 14.464 19.6328 14.4666C21.3464 14.4653 22.7346 13.0774 22.7333 11.366Z" fill="#2EB67D"/>
<path fill-rule="evenodd" clip-rule="evenodd" d="M19.6328 30.9998C21.3464 30.9985 22.7346 29.6106 22.7333 27.9004C22.7346 26.1902 21.3464 24.8024 19.6328 24.8011H16.5323V27.9004C16.5311 29.6094 17.9192 30.9973 19.6328 30.9998ZM19.6328 22.7319H27.8995C29.6131 22.7306 31.0013 21.3428 31 19.6326C31.0025 17.9224 29.6144 16.5345 27.9008 16.532H19.6341C17.9204 16.5332 16.5323 17.9211 16.5336 19.6313C16.5323 21.3428 17.9192 22.7306 19.6328 22.7319Z" fill="#ECB22E"/>
<path fill-rule="evenodd" clip-rule="evenodd" d="M0.00019923 19.6326C-0.00106731 21.3428 1.38706 22.7307 3.10068 22.7319C4.81431 22.7307 6.20244 21.3428 6.20117 19.6326V16.5332H3.10068C1.38706 16.5345 -0.00106731 17.9224 0.00019923 19.6326ZM8.26689 19.6326V27.8992C8.26436 29.6094 9.65249 30.9973 11.3661 30.9998C13.0797 30.9985 14.4679 29.6107 14.4666 27.9005V19.6351C14.4691 17.9249 13.081 16.537 11.3674 16.5345C9.65249 16.5345 8.26563 17.9224 8.26689 19.6326C8.26689 19.6326 8.26689 19.6338 8.26689 19.6326Z" fill="#E01E5A"/>
</svg>
