<svg width="56" height="56" viewBox="0 0 56 56" fill="none" xmlns="http://www.w3.org/2000/svg">
<path d="M54.5763 0H1.42373C0.637425 0 0 0.637425 0 1.42373V54.5763C0 55.3626 0.637425 56 1.42373 56H54.5763C55.3626 56 56 55.3626 56 54.5763V1.42373C56 0.637425 55.3626 0 54.5763 0Z" fill="var(--waypoint-secondary, #d7f8fa)"/>
<path d="M19.7234 33.7661C19.6455 33.7667 19.5683 33.7514 19.4965 33.7212C19.4247 33.691 19.3598 33.6466 19.3058 33.5905C19.2505 33.5354 19.2067 33.4699 19.1768 33.3979C19.1469 33.3258 19.1315 33.2485 19.1315 33.1705C19.1315 33.0925 19.1469 33.0152 19.1768 32.9431C19.2067 32.8711 19.2505 32.8056 19.3058 32.7505L25.0908 26.9654L19.3058 21.1756C19.2458 21.1216 19.1974 21.056 19.1636 20.9827C19.1299 20.9094 19.1114 20.83 19.1094 20.7493C19.1073 20.6687 19.1218 20.5884 19.1518 20.5136C19.1819 20.4387 19.2269 20.3707 19.2841 20.3138C19.3413 20.2569 19.4096 20.2123 19.4846 20.1827C19.5597 20.153 19.64 20.139 19.7207 20.1415C19.8013 20.144 19.8806 20.1629 19.9537 20.1971C20.0268 20.2313 20.0921 20.28 20.1458 20.3403L26.3485 26.5478C26.4042 26.6022 26.4484 26.6671 26.4786 26.7388C26.5088 26.8106 26.5244 26.8876 26.5244 26.9654C26.5244 27.0432 26.5088 27.1203 26.4786 27.192C26.4484 27.2637 26.4042 27.3287 26.3485 27.383L20.1458 33.5905C20.0905 33.6463 20.0247 33.6905 19.9522 33.7206C19.8797 33.7508 19.8019 33.7662 19.7234 33.7661Z" fill="#22CACF"/>
<path d="M36.2766 35.8352H28C27.842 35.8352 27.6905 35.7725 27.5789 35.6608C27.4672 35.5491 27.4044 35.3976 27.4044 35.2396C27.4044 35.0817 27.4672 34.9302 27.5789 34.8185C27.6905 34.7068 27.842 34.644 28 34.644H36.2766C36.4339 34.644 36.5848 34.7065 36.6961 34.8178C36.8073 34.929 36.8698 35.0799 36.8698 35.2373C36.8698 35.3946 36.8073 35.5455 36.6961 35.6567C36.5848 35.768 36.4339 35.8305 36.2766 35.8305V35.8352Z" fill="#22CACF"/>
</svg>
