<svg width="1153" height="62" viewBox="0 0 1153 62" fill="none" xmlns="http://www.w3.org/2000/svg">
<g clip-path="url(#clip0)">
<path d="M1150.67 1H1097.52C1096.73 1 1096.1 1.63743 1096.1 2.42373V55.5763C1096.1 56.3626 1096.73 57 1097.52 57H1150.67C1151.46 57 1152.1 56.3626 1152.1 55.5763V2.42373C1152.1 1.63743 1151.46 1 1150.67 1Z" fill="var(--waypoint-secondary, #d7f8fa)"/>
<path d="M1124.1 28.644C1124 28.6446 1123.91 28.6234 1123.83 28.5823L1114.42 23.8745C1114.32 23.8263 1114.24 23.7507 1114.18 23.6567C1114.12 23.5626 1114.09 23.4539 1114.09 23.343C1114.09 23.2324 1114.12 23.1241 1114.18 23.0302C1114.24 22.9364 1114.32 22.8607 1114.42 22.8115L1123.83 18.1084C1123.91 18.0664 1124 18.0444 1124.1 18.0444C1124.19 18.0444 1124.28 18.0664 1124.36 18.1084L1133.77 22.8305C1133.87 22.8797 1133.96 22.9554 1134.01 23.0492C1134.07 23.1431 1134.1 23.2513 1134.1 23.362C1134.11 23.4729 1134.07 23.5816 1134.02 23.6757C1133.96 23.7697 1133.87 23.8452 1133.77 23.8935L1124.36 28.5823C1124.28 28.6234 1124.19 28.6446 1124.1 28.644V28.644ZM1116.03 23.343L1124.1 27.3864L1132.16 23.343L1124.1 19.2996L1116.03 23.343Z" fill="#000"/>
<path d="M1114.69 35.2503C1114.61 35.2505 1114.53 35.2347 1114.46 35.2036C1114.39 35.1726 1114.32 35.1271 1114.27 35.0699C1114.21 35.0199 1114.16 34.9565 1114.13 34.8849C1114.1 34.8132 1114.08 34.7355 1114.08 34.6571C1114.08 34.6177 1114.08 34.5778 1114.08 34.5384C1114.09 34.501 1114.1 34.4644 1114.12 34.4293C1114.13 34.3946 1114.15 34.3613 1114.17 34.3296C1114.19 34.2956 1114.21 34.2652 1114.24 34.2394C1114.31 34.1701 1114.4 34.119 1114.49 34.0909C1114.59 34.0627 1114.68 34.0583 1114.78 34.0781C1114.82 34.0841 1114.85 34.0953 1114.89 34.1113C1114.93 34.1219 1114.96 34.1396 1114.99 34.1635C1115.03 34.186 1115.06 34.2114 1115.08 34.2394C1115.11 34.2654 1115.14 34.2958 1115.16 34.3296C1115.18 34.3612 1115.2 34.3945 1115.21 34.4293C1115.21 34.4672 1115.24 34.5052 1115.25 34.5384C1115.25 34.5779 1115.25 34.6176 1115.25 34.6571C1115.25 34.735 1115.23 34.8122 1115.2 34.8849C1115.17 34.9536 1115.13 35.0162 1115.07 35.0699C1114.97 35.1773 1114.83 35.2417 1114.69 35.2503V35.2503Z" fill="#000"/>
<path d="M1121.48 38.7192C1121.34 38.648 1121.23 38.5236 1121.18 38.3732C1121.13 38.2228 1121.14 38.0588 1121.22 37.9172V37.9172C1121.25 37.8473 1121.3 37.785 1121.36 37.7339C1121.42 37.6828 1121.49 37.644 1121.56 37.6197C1121.63 37.5954 1121.71 37.5861 1121.79 37.5924C1121.87 37.5986 1121.94 37.6203 1122.01 37.6562V37.6562C1122.08 37.691 1122.14 37.7392 1122.2 37.7982C1122.25 37.8571 1122.29 37.9256 1122.31 37.9996C1122.34 38.0737 1122.35 38.1519 1122.34 38.2298C1122.33 38.3077 1122.31 38.3837 1122.28 38.4535V38.4535C1122.23 38.5517 1122.15 38.6343 1122.06 38.6921C1121.96 38.7499 1121.86 38.7806 1121.75 38.7809V38.7809C1121.65 38.7815 1121.56 38.7603 1121.48 38.7192ZM1119.11 37.5423C1118.97 37.4663 1118.87 37.3402 1118.83 37.1911C1118.79 37.0421 1118.8 36.8819 1118.88 36.745C1118.95 36.6039 1119.07 36.4963 1119.22 36.4456C1119.37 36.395 1119.53 36.4054 1119.67 36.4745V36.4745C1119.81 36.5457 1119.92 36.6702 1119.97 36.8205C1120.02 36.9709 1120.01 37.1349 1119.94 37.2765V37.2765C1119.89 37.3746 1119.81 37.4568 1119.72 37.5138C1119.63 37.5709 1119.52 37.6004 1119.41 37.5992V37.5992C1119.31 37.6011 1119.22 37.5816 1119.13 37.5423H1119.11ZM1116.74 36.3653C1116.6 36.2884 1116.5 36.1615 1116.46 36.0116C1116.41 35.8618 1116.43 35.7009 1116.5 35.5633V35.5633C1116.54 35.4934 1116.59 35.4311 1116.64 35.38C1116.7 35.3289 1116.77 35.2901 1116.85 35.2658C1116.92 35.2415 1117 35.2322 1117.08 35.2385C1117.15 35.2447 1117.23 35.2664 1117.3 35.3023C1117.37 35.336 1117.44 35.3844 1117.49 35.4445C1117.55 35.5046 1117.59 35.5752 1117.61 35.6517C1117.64 35.7282 1117.65 35.8092 1117.64 35.8895C1117.63 35.9698 1117.61 36.0478 1117.57 36.1186C1117.52 36.2172 1117.45 36.3 1117.35 36.3579C1117.26 36.4157 1117.15 36.4462 1117.04 36.446C1116.95 36.4407 1116.85 36.413 1116.77 36.3653H1116.74Z" fill="#000"/>
<path d="M1124.1 39.9531C1124.02 39.9546 1123.94 39.9398 1123.87 39.9096C1123.79 39.8794 1123.73 39.8344 1123.67 39.7775C1123.62 39.723 1123.57 39.658 1123.55 39.5862C1123.52 39.5144 1123.5 39.4374 1123.5 39.3599C1123.5 39.3235 1123.5 39.2871 1123.5 39.2507C1123.51 39.2122 1123.52 39.1741 1123.54 39.1368C1123.55 39.1012 1123.57 39.0676 1123.59 39.0372C1123.61 39.0034 1123.64 38.9729 1123.66 38.947L1123.75 38.8663C1123.79 38.8458 1123.82 38.8298 1123.86 38.8189C1123.89 38.7992 1123.93 38.7863 1123.97 38.7809C1124.04 38.7667 1124.12 38.7667 1124.2 38.7809C1124.24 38.7863 1124.28 38.7992 1124.31 38.8189C1124.35 38.8298 1124.38 38.8458 1124.41 38.8663L1124.5 38.947C1124.53 38.9728 1124.56 39.0032 1124.58 39.0372C1124.6 39.0688 1124.62 39.1022 1124.63 39.1368C1124.65 39.1734 1124.66 39.2116 1124.67 39.2507C1124.67 39.2869 1124.67 39.3237 1124.67 39.3599C1124.66 39.5128 1124.6 39.6596 1124.5 39.7699C1124.39 39.8803 1124.25 39.9458 1124.1 39.9531V39.9531Z" fill="#000"/>
<path d="M1125.92 38.4535C1125.89 38.3839 1125.87 38.3078 1125.86 38.2298C1125.85 38.1517 1125.86 38.0733 1125.89 37.9991C1125.91 37.9248 1125.95 37.8563 1126 37.7974C1126.06 37.7385 1126.12 37.6905 1126.19 37.6562V37.6562C1126.26 37.6205 1126.33 37.5989 1126.41 37.5927C1126.49 37.5864 1126.57 37.5958 1126.64 37.6201C1126.71 37.6444 1126.78 37.6832 1126.84 37.7342C1126.9 37.7853 1126.95 37.8475 1126.98 37.9173V37.9173C1127.05 38.0583 1127.07 38.2218 1127.02 38.3721C1126.97 38.5224 1126.86 38.6472 1126.72 38.7193V38.7193C1126.64 38.7604 1126.55 38.7815 1126.45 38.781V38.781C1126.34 38.7812 1126.24 38.7507 1126.14 38.6928C1126.05 38.635 1125.97 38.5521 1125.92 38.4535ZM1128.3 37.2766C1128.23 37.1353 1128.21 36.9722 1128.26 36.8223C1128.31 36.6724 1128.42 36.5475 1128.56 36.4745C1128.7 36.4054 1128.86 36.395 1129.01 36.4457C1129.16 36.4964 1129.28 36.6039 1129.35 36.745C1129.39 36.816 1129.41 36.893 1129.41 36.9717C1129.42 37.0504 1129.41 37.1292 1129.38 37.2034C1129.35 37.2777 1129.31 37.3459 1129.26 37.4041C1129.21 37.4622 1129.14 37.5093 1129.07 37.5423C1128.99 37.5797 1128.9 37.5991 1128.8 37.5993C1128.69 37.6013 1128.59 37.572 1128.49 37.5148C1128.4 37.4576 1128.32 37.375 1128.28 37.2766H1128.3ZM1130.67 36.0996C1130.6 35.9585 1130.59 35.7957 1130.64 35.6464C1130.69 35.4972 1130.79 35.3736 1130.93 35.3023V35.3023C1131.08 35.2312 1131.24 35.2188 1131.39 35.2677C1131.54 35.3167 1131.66 35.423 1131.73 35.5634C1131.8 35.705 1131.81 35.869 1131.76 36.0193C1131.72 36.1697 1131.61 36.2942 1131.47 36.3654V36.3654C1131.39 36.4059 1131.3 36.4271 1131.21 36.4271V36.4271C1131.09 36.4377 1130.97 36.4141 1130.87 36.3593C1130.77 36.3045 1130.68 36.2209 1130.63 36.1186L1130.67 36.0996Z" fill="#000"/>
<path d="M1133.51 35.2502C1133.43 35.2505 1133.36 35.2346 1133.28 35.2036C1133.21 35.1725 1133.15 35.127 1133.09 35.0699C1133.04 35.0169 1132.99 34.9529 1132.96 34.8818C1132.93 34.8108 1132.92 34.7342 1132.92 34.657C1132.92 34.5747 1132.94 34.4933 1132.97 34.4181C1133 34.3429 1133.05 34.2755 1133.11 34.2204C1133.18 34.1521 1133.27 34.1018 1133.36 34.0737C1133.45 34.0455 1133.55 34.0405 1133.65 34.059C1133.69 34.0651 1133.72 34.0763 1133.76 34.0923C1133.8 34.1029 1133.83 34.1206 1133.86 34.1445C1133.9 34.1659 1133.93 34.1914 1133.95 34.2204C1134.01 34.2752 1134.05 34.3403 1134.08 34.412C1134.11 34.4837 1134.12 34.5606 1134.12 34.638C1134.12 34.795 1134.06 34.9451 1133.95 35.0561C1133.84 35.1671 1133.69 35.23 1133.53 35.2312L1133.51 35.2502Z" fill="#000"/>
<path d="M1114.69 29.5931C1114.61 29.5934 1114.53 29.578 1114.46 29.5479C1114.39 29.5177 1114.32 29.4734 1114.27 29.4175C1114.24 29.3925 1114.21 29.3637 1114.19 29.3321C1114.17 29.2983 1114.15 29.2634 1114.14 29.2277C1114.12 29.193 1114.11 29.1563 1114.11 29.1185C1114.1 29.0807 1114.1 29.0425 1114.11 29.0046C1114.1 28.9653 1114.1 28.9254 1114.11 28.886C1114.11 28.8483 1114.12 28.8115 1114.14 28.7768C1114.15 28.7407 1114.17 28.7058 1114.19 28.6724C1114.21 28.6403 1114.24 28.6101 1114.27 28.5823C1114.38 28.4762 1114.53 28.4172 1114.69 28.4172C1114.84 28.4172 1114.99 28.4762 1115.11 28.5823C1115.13 28.6102 1115.16 28.6404 1115.18 28.6724C1115.22 28.7368 1115.25 28.8094 1115.27 28.886C1115.28 28.963 1115.28 29.0415 1115.27 29.1185C1115.26 29.1557 1115.25 29.1922 1115.24 29.2277C1115.22 29.2635 1115.2 29.2983 1115.18 29.3321C1115.13 29.395 1115.08 29.4496 1115.02 29.4935L1114.91 29.5504L1114.8 29.5836C1114.76 29.5915 1114.72 29.5947 1114.69 29.5931V29.5931Z" fill="#000"/>
<path d="M1121.48 33.0624C1121.41 33.0277 1121.35 32.9794 1121.3 32.9205C1121.25 32.8615 1121.21 32.7931 1121.18 32.719C1121.16 32.6449 1121.15 32.5667 1121.15 32.4888C1121.16 32.4109 1121.18 32.3349 1121.22 32.2652C1121.29 32.1258 1121.41 32.02 1121.56 31.9704C1121.71 31.9208 1121.87 31.9312 1122.01 31.9994V31.9994C1122.15 32.0706 1122.26 32.1942 1122.31 32.3435C1122.36 32.4927 1122.35 32.6555 1122.28 32.7967V32.7967C1122.23 32.8949 1122.15 32.9775 1122.06 33.0353C1121.96 33.0931 1121.86 33.1238 1121.75 33.1241V33.1241C1121.65 33.1247 1121.56 33.1035 1121.48 33.0624V33.0624ZM1119.11 31.8855C1118.97 31.8095 1118.87 31.6834 1118.83 31.5343C1118.79 31.3853 1118.8 31.2251 1118.88 31.0882C1118.95 30.9489 1119.07 30.8429 1119.22 30.7924C1119.37 30.742 1119.53 30.7511 1119.67 30.8177V30.8177C1119.81 30.8898 1119.92 31.0143 1119.97 31.1643C1120.02 31.3144 1120.01 31.4779 1119.94 31.6197C1119.89 31.7183 1119.81 31.8012 1119.72 31.859C1119.63 31.9169 1119.52 31.9474 1119.41 31.9472V31.9472C1119.31 31.95 1119.21 31.9288 1119.13 31.8855H1119.11ZM1116.74 30.7085C1116.6 30.6325 1116.5 30.5064 1116.46 30.3574C1116.41 30.2083 1116.43 30.0481 1116.5 29.9113V29.9113C1116.57 29.7709 1116.7 29.6646 1116.85 29.6156C1117 29.5667 1117.16 29.5791 1117.3 29.6502C1117.44 29.7187 1117.54 29.8378 1117.59 29.9822C1117.64 30.1266 1117.63 30.285 1117.57 30.4238V30.4238C1117.52 30.5224 1117.45 30.6053 1117.35 30.6631C1117.26 30.7209 1117.15 30.7515 1117.04 30.7513C1116.95 30.7577 1116.86 30.7431 1116.77 30.7085H1116.74Z" fill="#000"/>
<path d="M1124.1 34.301C1124.02 34.3016 1123.94 34.2859 1123.87 34.2549C1123.79 34.2238 1123.73 34.1781 1123.67 34.1206C1123.62 34.0682 1123.58 34.0052 1123.55 33.9356C1123.52 33.8629 1123.5 33.7857 1123.5 33.7078C1123.5 33.6682 1123.5 33.6286 1123.5 33.5891C1123.5 33.5559 1123.5 33.5179 1123.54 33.48C1123.55 33.4443 1123.57 33.4107 1123.59 33.3803C1123.61 33.3472 1123.64 33.3168 1123.66 33.2901C1123.73 33.2215 1123.82 33.1709 1123.91 33.1428C1124.01 33.1147 1124.1 33.1098 1124.2 33.1288C1124.24 33.1348 1124.27 33.146 1124.31 33.162C1124.35 33.1726 1124.38 33.1903 1124.41 33.2142C1124.45 33.2357 1124.48 33.2612 1124.5 33.2901C1124.53 33.318 1124.56 33.3481 1124.58 33.3803C1124.6 33.412 1124.62 33.4453 1124.63 33.48C1124.65 33.5151 1124.66 33.5517 1124.67 33.5891C1124.67 33.6285 1124.67 33.6684 1124.67 33.7078C1124.67 33.7862 1124.65 33.8639 1124.62 33.9356C1124.59 34.0062 1124.55 34.0695 1124.49 34.1206C1124.44 34.1751 1124.38 34.2191 1124.31 34.2501C1124.24 34.281 1124.17 34.2983 1124.1 34.301Z" fill="#000"/>
<path d="M1125.92 32.7967C1125.89 32.7269 1125.87 32.6509 1125.86 32.573C1125.86 32.4952 1125.87 32.4169 1125.89 32.3429C1125.92 32.2688 1125.95 32.2003 1126.01 32.1414C1126.06 32.0824 1126.12 32.0342 1126.19 31.9994V31.9994C1126.26 31.9645 1126.33 31.9436 1126.41 31.9381C1126.49 31.9325 1126.57 31.9424 1126.64 31.9671C1126.71 31.9918 1126.78 32.0309 1126.84 32.082C1126.9 32.1332 1126.95 32.1954 1126.98 32.2652C1127.05 32.4055 1127.07 32.5683 1127.02 32.7179C1126.97 32.8674 1126.86 32.9913 1126.72 33.0624C1126.64 33.1035 1126.55 33.1247 1126.45 33.1241V33.1241C1126.34 33.1244 1126.24 33.0938 1126.14 33.036C1126.05 32.9781 1125.97 32.8953 1125.92 32.7967V32.7967ZM1128.3 31.6197C1128.26 31.5506 1128.24 31.4752 1128.23 31.3979C1128.23 31.3206 1128.24 31.2429 1128.26 31.1692C1128.29 31.0956 1128.32 31.0274 1128.38 30.9687C1128.43 30.91 1128.49 30.8619 1128.56 30.8272V30.8272C1128.69 30.7676 1128.85 30.7614 1128.99 30.8097C1129.13 30.8581 1129.25 30.9574 1129.32 31.0882V31.0882C1129.35 31.158 1129.37 31.234 1129.38 31.3119C1129.38 31.3897 1129.37 31.468 1129.35 31.542C1129.32 31.6161 1129.29 31.6846 1129.23 31.7435C1129.18 31.8024 1129.12 31.8507 1129.05 31.8855C1128.97 31.9266 1128.88 31.9477 1128.78 31.9472C1128.68 31.9447 1128.57 31.9127 1128.48 31.855C1128.4 31.7972 1128.32 31.7158 1128.28 31.6197H1128.3ZM1130.67 30.4428C1130.6 30.3023 1130.59 30.1402 1130.64 29.9917C1130.69 29.8433 1130.79 29.7205 1130.93 29.6502V29.6502C1131.08 29.5791 1131.24 29.5667 1131.39 29.6156C1131.54 29.6646 1131.66 29.7709 1131.73 29.9113C1131.77 29.981 1131.79 30.057 1131.79 30.1349C1131.8 30.2128 1131.79 30.291 1131.76 30.3651C1131.74 30.4392 1131.7 30.5076 1131.65 30.5666C1131.6 30.6255 1131.54 30.6737 1131.47 30.7085V30.7085C1131.38 30.7496 1131.29 30.7708 1131.2 30.7702V30.7702C1131.08 30.7765 1130.96 30.7469 1130.86 30.6851C1130.76 30.6233 1130.68 30.5323 1130.63 30.4238L1130.67 30.4428Z" fill="#000"/>
<path d="M1133.51 29.5932C1133.47 29.5978 1133.44 29.5978 1133.4 29.5932L1133.28 29.56L1133.18 29.4745C1133.15 29.4548 1133.12 29.4291 1133.09 29.3986C1132.98 29.2878 1132.92 29.1378 1132.92 28.981C1132.92 28.8245 1132.98 28.6753 1133.09 28.5634C1133.12 28.5357 1133.15 28.5117 1133.18 28.4922L1133.28 28.4352L1133.4 28.402C1133.47 28.3878 1133.55 28.3878 1133.63 28.402L1133.74 28.4352C1133.78 28.4495 1133.81 28.4686 1133.84 28.4922C1133.88 28.5117 1133.91 28.5357 1133.93 28.5634C1134.04 28.6755 1134.1 28.825 1134.1 28.981C1134.1 29.1383 1134.04 29.2892 1133.93 29.4005C1133.82 29.5117 1133.67 29.5742 1133.51 29.5742V29.5932Z" fill="#000"/>
</g>
<g clip-path="url(#clip1)">
<path d="M54.6723 0H1.51974C0.733433 0 0.0960083 0.637425 0.0960083 1.42373V54.5763C0.0960083 55.3626 0.733433 56 1.51974 56H54.6723C55.4586 56 56.096 55.3626 56.096 54.5763V1.42373C56.096 0.637425 55.4586 0 54.6723 0Z" fill="var(--waypoint-secondary, #d7f8fa)"/>
<path d="M19.8194 33.7662C19.7415 33.7668 19.6643 33.7515 19.5926 33.7213C19.5208 33.6912 19.4559 33.6467 19.4018 33.5906C19.3465 33.5355 19.3027 33.4701 19.2728 33.398C19.2429 33.3259 19.2275 33.2486 19.2275 33.1706C19.2275 33.0926 19.2429 33.0153 19.2728 32.9433C19.3027 32.8712 19.3465 32.8057 19.4018 32.7506L25.1869 26.9655L19.4018 21.1757C19.3418 21.1217 19.2934 21.0561 19.2596 20.9828C19.2259 20.9095 19.2074 20.8301 19.2054 20.7495C19.2034 20.6688 19.2178 20.5886 19.2479 20.5137C19.2779 20.4388 19.3229 20.3708 19.3801 20.3139C19.4374 20.257 19.5056 20.2124 19.5806 20.1828C19.6557 20.1532 19.736 20.1392 19.8167 20.1416C19.8973 20.1441 19.9766 20.163 20.0497 20.1972C20.1228 20.2314 20.1882 20.2801 20.2418 20.3404L26.4445 26.5479C26.5002 26.6023 26.5444 26.6672 26.5746 26.739C26.6048 26.8107 26.6204 26.8877 26.6204 26.9655C26.6204 27.0434 26.6048 27.1204 26.5746 27.1921C26.5444 27.2638 26.5002 27.3288 26.4445 27.3832L20.2418 33.5906C20.1865 33.6464 20.1207 33.6906 20.0482 33.7208C19.9757 33.7509 19.8979 33.7664 19.8194 33.7662Z" fill="#000"/>
<path d="M36.3726 35.8352H28.096C27.9381 35.8352 27.7866 35.7725 27.6749 35.6608C27.5632 35.5491 27.5004 35.3976 27.5004 35.2396C27.5004 35.0817 27.5632 34.9302 27.6749 34.8185C27.7866 34.7068 27.9381 34.644 28.096 34.644H36.3726C36.53 34.644 36.6809 34.7065 36.7921 34.8178C36.9034 34.929 36.9659 35.0799 36.9659 35.2373C36.9659 35.3946 36.9034 35.5455 36.7921 35.6567C36.6809 35.768 36.53 35.8305 36.3726 35.8305V35.8352Z" fill="#000"/>
</g>
<line x1="72.9995" y1="28.4946" x2="1068.1" y2="28.0001" stroke="var(--waypoint, #62d4dc)" stroke-width="2"/>
<g filter="url(#filter0_d)">
<rect x="549.096" y="1" width="56" height="56" rx="2" fill="var(--waypoint, #62d4dc)"/>
</g>
<path d="M594.369 18.0908L590.056 25.6666L585.744 18.0908H594.369Z" fill="#000"/>
<path d="M571.346 23.1413H568.448L575.659 35.7676L572.784 40.8181L559.823 18.0908H574.221L581.408 30.7171L582.846 28.1918L577.096 18.0908H582.846L585.72 23.1413L588.595 28.1918L581.408 40.8181L571.346 23.1413Z" fill="#000"/>
<path d="M1080.1 28L1066.6 35.7942L1066.6 20.2058L1080.1 28Z" fill="var(--waypoint, #62d4dc)"/>
<defs>
<filter id="filter0_d" x="546.096" y="0" width="62" height="62" filterUnits="userSpaceOnUse" color-interpolation-filters="sRGB">
<feFlood flood-opacity="0" result="BackgroundImageFix"/>
<feColorMatrix in="SourceAlpha" type="matrix" values="0 0 0 0 0 0 0 0 0 0 0 0 0 0 0 0 0 0 127 0"/>
<feOffset dy="2"/>
<feGaussianBlur stdDeviation="1.5"/>
<feColorMatrix type="matrix" values="0 0 0 0 0.145098 0 0 0 0 0.160784 0 0 0 0 0.215686 0 0 0 0.08 0"/>
<feBlend mode="normal" in2="BackgroundImageFix" result="effect1_dropShadow"/>
<feBlend mode="normal" in="SourceGraphic" in2="effect1_dropShadow" result="shape"/>
</filter>
<clipPath id="clip0">
<rect width="56" height="56" fill="white" transform="translate(1096.1 1)"/>
</clipPath>
<clipPath id="clip1">
<rect width="56" height="56" fill="white" transform="translate(0.0960083)"/>
</clipPath>
</defs>
</svg>
