<svg width="1152" height="62" viewBox="0 0 1152 62" fill="none" xmlns="http://www.w3.org/2000/svg">
<path d="M1150.58 1H1097.42C1096.64 1 1096 1.63743 1096 2.42373V55.5763C1096 56.3626 1096.64 57 1097.42 57H1150.58C1151.36 57 1152 56.3626 1152 55.5763V2.42373C1152 1.63743 1151.36 1 1150.58 1Z" fill="#E3FCFD"/>
<path d="M1124 28.644C1123.91 28.6446 1123.82 28.6234 1123.73 28.5823L1114.32 23.8745C1114.22 23.8263 1114.14 23.7507 1114.08 23.6567C1114.02 23.5627 1113.99 23.4539 1113.99 23.343C1113.99 23.2324 1114.02 23.1241 1114.08 23.0302C1114.14 22.9364 1114.22 22.8607 1114.32 22.8115L1123.73 18.1084C1123.82 18.0664 1123.91 18.0444 1124 18.0444C1124.09 18.0444 1124.18 18.0664 1124.27 18.1084L1133.68 22.8305C1133.78 22.8797 1133.86 22.9554 1133.92 23.0492C1133.98 23.1431 1134.01 23.2513 1134.01 23.362C1134.01 23.4729 1133.98 23.5816 1133.92 23.6757C1133.86 23.7697 1133.78 23.8452 1133.68 23.8935L1124.27 28.5823C1124.18 28.6234 1124.09 28.6446 1124 28.644ZM1115.93 23.343L1124 27.3864L1132.07 23.343L1124 19.2996L1115.93 23.343Z" fill="#22CACF"/>
<path d="M1114.59 35.2502C1114.51 35.2504 1114.43 35.2345 1114.36 35.2035C1114.29 35.1725 1114.22 35.127 1114.17 35.0698C1114.11 35.0197 1114.06 34.9563 1114.03 34.8847C1114 34.8131 1113.99 34.7354 1113.99 34.6569C1113.98 34.6175 1113.98 34.5777 1113.99 34.5383C1113.99 34.5009 1114 34.4643 1114.02 34.4291C1114.03 34.3945 1114.05 34.3612 1114.07 34.3295C1114.09 34.2955 1114.12 34.2651 1114.15 34.2393C1114.22 34.17 1114.3 34.1189 1114.4 34.0908C1114.49 34.0626 1114.59 34.0582 1114.68 34.078C1114.72 34.084 1114.76 34.0952 1114.79 34.1112C1114.83 34.1218 1114.87 34.1395 1114.9 34.1634C1114.93 34.1859 1114.96 34.2113 1114.99 34.2393C1115.02 34.2653 1115.04 34.2957 1115.06 34.3295C1115.08 34.361 1115.1 34.3944 1115.12 34.4291C1115.12 34.4671 1115.14 34.5051 1115.15 34.5383C1115.15 34.5778 1115.15 34.6174 1115.15 34.6569C1115.15 34.7349 1115.13 34.8121 1115.11 34.8847C1115.07 34.9535 1115.03 35.0161 1114.98 35.0698C1114.88 35.1771 1114.74 35.2416 1114.59 35.2502Z" fill="#22CACF"/>
<path d="M1121.39 38.7194C1121.24 38.6481 1121.14 38.5237 1121.09 38.3733C1121.04 38.2229 1121.05 38.0589 1121.12 37.9173C1121.15 37.8474 1121.2 37.7851 1121.26 37.734C1121.32 37.6829 1121.39 37.6441 1121.46 37.6198C1121.54 37.5955 1121.62 37.5862 1121.69 37.5925C1121.77 37.5988 1121.85 37.6205 1121.92 37.6563C1121.99 37.6911 1122.05 37.7394 1122.1 37.7983C1122.15 37.8572 1122.19 37.9257 1122.22 37.9998C1122.24 38.0738 1122.25 38.1521 1122.24 38.2299C1122.24 38.3078 1122.22 38.3838 1122.18 38.4536C1122.13 38.5518 1122.06 38.6344 1121.96 38.6922C1121.87 38.75 1121.76 38.7807 1121.65 38.7811C1121.56 38.7816 1121.47 38.7605 1121.39 38.7194ZM1119.01 37.5424C1118.88 37.4664 1118.78 37.3403 1118.73 37.1912C1118.69 37.0422 1118.71 36.882 1118.78 36.7451C1118.85 36.604 1118.97 36.4964 1119.12 36.4458C1119.27 36.3951 1119.44 36.4055 1119.58 36.4746C1119.72 36.5458 1119.83 36.6703 1119.88 36.8207C1119.93 36.971 1119.91 37.135 1119.84 37.2766C1119.79 37.3747 1119.72 37.4569 1119.62 37.5139C1119.53 37.571 1119.42 37.6006 1119.31 37.5994C1119.21 37.6012 1119.12 37.5818 1119.03 37.5424H1119.01ZM1116.64 36.3655C1116.5 36.2885 1116.4 36.1616 1116.36 36.0118C1116.32 35.8619 1116.33 35.701 1116.41 35.5634C1116.44 35.4935 1116.49 35.4312 1116.55 35.3801C1116.61 35.329 1116.68 35.2902 1116.75 35.2659C1116.82 35.2416 1116.9 35.2323 1116.98 35.2386C1117.06 35.2449 1117.13 35.2666 1117.2 35.3024C1117.28 35.3361 1117.34 35.3846 1117.4 35.4447C1117.45 35.5048 1117.49 35.5753 1117.52 35.6518C1117.54 35.7284 1117.55 35.8093 1117.54 35.8896C1117.54 35.9699 1117.51 36.0479 1117.47 36.1187C1117.43 36.2173 1117.35 36.3001 1117.26 36.358C1117.16 36.4158 1117.05 36.4464 1116.94 36.4461C1116.85 36.4408 1116.76 36.4132 1116.68 36.3655H1116.64Z" fill="#22CACF"/>
<path d="M1124 39.9532C1123.92 39.9547 1123.84 39.9399 1123.77 39.9097C1123.7 39.8795 1123.63 39.8345 1123.58 39.7776C1123.52 39.7232 1123.48 39.6581 1123.45 39.5863C1123.42 39.5145 1123.41 39.4375 1123.41 39.36C1123.4 39.3237 1123.4 39.2872 1123.41 39.2509C1123.42 39.2123 1123.43 39.1743 1123.44 39.137C1123.45 39.1013 1123.47 39.0677 1123.5 39.0373C1123.52 39.0035 1123.54 38.9731 1123.57 38.9471L1123.66 38.8664C1123.69 38.8459 1123.73 38.8299 1123.76 38.819C1123.8 38.7994 1123.83 38.7865 1123.87 38.781C1123.95 38.7668 1124.03 38.7668 1124.1 38.781C1124.14 38.7865 1124.18 38.7994 1124.21 38.819C1124.25 38.8299 1124.29 38.8459 1124.32 38.8664L1124.41 38.9471C1124.44 38.9729 1124.46 39.0033 1124.48 39.0373C1124.5 39.069 1124.52 39.1023 1124.54 39.137C1124.55 39.1735 1124.56 39.2117 1124.57 39.2509C1124.57 39.2871 1124.57 39.3238 1124.57 39.36C1124.57 39.513 1124.51 39.6597 1124.4 39.77C1124.3 39.8804 1124.15 39.9459 1124 39.9532Z" fill="#22CACF"/>
<path d="M1125.83 38.4535C1125.79 38.3839 1125.77 38.3078 1125.76 38.2298C1125.76 38.1517 1125.77 38.0733 1125.79 37.9991C1125.82 37.9248 1125.86 37.8563 1125.91 37.7974C1125.96 37.7385 1126.02 37.6905 1126.09 37.6562C1126.16 37.6205 1126.24 37.5989 1126.31 37.5927C1126.39 37.5864 1126.47 37.5958 1126.54 37.6201C1126.62 37.6444 1126.69 37.6832 1126.74 37.7342C1126.8 37.7853 1126.85 37.8475 1126.89 37.9173C1126.96 38.0583 1126.97 38.2218 1126.92 38.3721C1126.87 38.5224 1126.77 38.6472 1126.62 38.7193C1126.54 38.7604 1126.45 38.7815 1126.36 38.781C1126.25 38.7812 1126.14 38.7507 1126.05 38.6928C1125.95 38.635 1125.88 38.5521 1125.83 38.4535ZM1128.2 37.2766C1128.13 37.1353 1128.12 36.9722 1128.17 36.8223C1128.22 36.6724 1128.32 36.5475 1128.46 36.4745C1128.6 36.4054 1128.77 36.395 1128.92 36.4457C1129.06 36.4964 1129.19 36.6039 1129.26 36.745C1129.29 36.816 1129.31 36.893 1129.32 36.9717C1129.32 37.0504 1129.31 37.1292 1129.28 37.2034C1129.26 37.2777 1129.22 37.3459 1129.16 37.4041C1129.11 37.4622 1129.05 37.5093 1128.97 37.5423C1128.89 37.5797 1128.8 37.5991 1128.71 37.5993C1128.6 37.6013 1128.49 37.572 1128.4 37.5148C1128.3 37.4576 1128.23 37.375 1128.18 37.2766H1128.2ZM1130.57 36.0996C1130.5 35.9585 1130.49 35.7957 1130.54 35.6464C1130.59 35.4972 1130.7 35.3736 1130.84 35.3023C1130.98 35.2312 1131.14 35.2188 1131.29 35.2677C1131.44 35.3167 1131.56 35.423 1131.64 35.5634C1131.71 35.705 1131.72 35.869 1131.67 36.0193C1131.62 36.1697 1131.51 36.2942 1131.37 36.3654C1131.29 36.4059 1131.2 36.4271 1131.11 36.4271C1130.99 36.4377 1130.88 36.4141 1130.77 36.3593C1130.67 36.3045 1130.59 36.2209 1130.53 36.1186L1130.57 36.0996Z" fill="#22CACF"/>
<path d="M1133.42 35.2501C1133.34 35.2504 1133.26 35.2345 1133.19 35.2034C1133.12 35.1724 1133.05 35.1269 1133 35.0698C1132.94 35.0168 1132.9 34.9527 1132.87 34.8817C1132.84 34.8106 1132.82 34.7341 1132.82 34.6569C1132.82 34.5745 1132.84 34.4931 1132.87 34.4179C1132.91 34.3427 1132.96 34.2754 1133.02 34.2203C1133.09 34.152 1133.17 34.1016 1133.27 34.0735C1133.36 34.0454 1133.46 34.0404 1133.55 34.0589C1133.59 34.065 1133.63 34.0761 1133.66 34.0921C1133.7 34.1027 1133.74 34.1205 1133.77 34.1443C1133.8 34.1658 1133.83 34.1913 1133.86 34.2203C1133.91 34.2751 1133.95 34.3402 1133.98 34.4119C1134.01 34.4836 1134.03 34.5604 1134.03 34.6379C1134.03 34.7949 1133.96 34.945 1133.85 35.056C1133.74 35.167 1133.59 35.2299 1133.43 35.2311L1133.42 35.2501Z" fill="#22CACF"/>
<path d="M1114.59 29.5932C1114.51 29.5936 1114.43 29.5782 1114.36 29.548C1114.29 29.5178 1114.23 29.4735 1114.17 29.4176C1114.14 29.3926 1114.12 29.3639 1114.1 29.3322C1114.08 29.2984 1114.06 29.2635 1114.04 29.2278C1114.03 29.1931 1114.02 29.1564 1114.01 29.1187C1114.01 29.0808 1114.01 29.0426 1114.01 29.0048C1114.01 28.9654 1114.01 28.9255 1114.01 28.8861C1114.02 28.8484 1114.03 28.8117 1114.04 28.777C1114.06 28.7408 1114.08 28.7059 1114.1 28.6726C1114.12 28.6404 1114.14 28.6102 1114.17 28.5824C1114.29 28.4763 1114.44 28.4174 1114.59 28.4174C1114.75 28.4174 1114.9 28.4763 1115.01 28.5824C1115.04 28.6103 1115.06 28.6405 1115.08 28.6726C1115.13 28.7369 1115.16 28.8095 1115.17 28.8861C1115.19 28.9631 1115.19 29.0417 1115.17 29.1187C1115.16 29.1559 1115.15 29.1923 1115.14 29.2278C1115.12 29.2636 1115.1 29.2984 1115.08 29.3322C1115.04 29.3951 1114.98 29.4497 1114.92 29.4936L1114.82 29.5505L1114.71 29.5838C1114.67 29.5916 1114.63 29.5948 1114.59 29.5932Z" fill="#22CACF"/>
<path d="M1121.39 33.0624C1121.32 33.0277 1121.25 32.9794 1121.2 32.9205C1121.15 32.8615 1121.11 32.7931 1121.09 32.719C1121.06 32.6449 1121.05 32.5667 1121.06 32.4888C1121.06 32.4109 1121.08 32.3349 1121.12 32.2652C1121.19 32.1258 1121.32 32.02 1121.46 31.9704C1121.61 31.9208 1121.78 31.9312 1121.92 31.9994C1122.06 32.0706 1122.16 32.1942 1122.21 32.3435C1122.26 32.4927 1122.25 32.6555 1122.18 32.7967C1122.13 32.8949 1122.06 32.9775 1121.96 33.0353C1121.87 33.0931 1121.76 33.1238 1121.65 33.1241C1121.56 33.1247 1121.47 33.1035 1121.39 33.0624ZM1119.01 31.8855C1118.88 31.8095 1118.78 31.6834 1118.73 31.5343C1118.69 31.3853 1118.71 31.2251 1118.78 31.0882C1118.85 30.9489 1118.98 30.8429 1119.12 30.7924C1119.27 30.742 1119.43 30.7511 1119.58 30.8177C1119.72 30.8898 1119.82 31.0143 1119.87 31.1643C1119.92 31.3144 1119.91 31.4779 1119.84 31.6197C1119.79 31.7183 1119.72 31.8012 1119.62 31.859C1119.53 31.9169 1119.42 31.9474 1119.31 31.9472C1119.21 31.95 1119.12 31.9288 1119.03 31.8855H1119.01ZM1116.64 30.7085C1116.5 30.6325 1116.4 30.5064 1116.36 30.3574C1116.32 30.2083 1116.33 30.0481 1116.41 29.9113C1116.48 29.7709 1116.6 29.6646 1116.75 29.6156C1116.9 29.5667 1117.06 29.5791 1117.2 29.6502C1117.34 29.7187 1117.45 29.8378 1117.5 29.9822C1117.55 30.1266 1117.54 30.285 1117.47 30.4238C1117.43 30.5224 1117.35 30.6053 1117.26 30.6631C1117.16 30.7209 1117.05 30.7515 1116.94 30.7513C1116.85 30.7577 1116.76 30.7431 1116.68 30.7085H1116.64Z" fill="#22CACF"/>
<path d="M1124 34.301C1123.92 34.3016 1123.84 34.2859 1123.77 34.2549C1123.7 34.2238 1123.63 34.1781 1123.58 34.1206C1123.52 34.0682 1123.48 34.0052 1123.45 33.9356C1123.42 33.8629 1123.41 33.7857 1123.41 33.7078C1123.4 33.6682 1123.4 33.6286 1123.41 33.5891C1123.41 33.5559 1123.41 33.5179 1123.44 33.48C1123.45 33.4443 1123.47 33.4107 1123.5 33.3803C1123.52 33.3472 1123.54 33.3168 1123.57 33.2901C1123.64 33.2215 1123.72 33.1709 1123.82 33.1428C1123.91 33.1147 1124.01 33.1098 1124.1 33.1288C1124.14 33.1348 1124.18 33.146 1124.21 33.162C1124.25 33.1726 1124.29 33.1903 1124.32 33.2142C1124.35 33.2357 1124.38 33.2612 1124.41 33.2901C1124.44 33.318 1124.46 33.3481 1124.48 33.3803C1124.5 33.412 1124.52 33.4453 1124.54 33.48C1124.55 33.5151 1124.56 33.5517 1124.57 33.5891C1124.57 33.6285 1124.57 33.6684 1124.57 33.7078C1124.57 33.7862 1124.55 33.8639 1124.52 33.9356C1124.49 34.0062 1124.45 34.0695 1124.39 34.1206C1124.34 34.1751 1124.28 34.2191 1124.21 34.2501C1124.15 34.281 1124.07 34.2983 1124 34.301Z" fill="#22CACF"/>
<path d="M1125.83 32.7967C1125.79 32.7269 1125.77 32.6509 1125.77 32.573C1125.76 32.4952 1125.77 32.4169 1125.79 32.3429C1125.82 32.2688 1125.86 32.2003 1125.91 32.1414C1125.96 32.0824 1126.02 32.0342 1126.09 31.9994C1126.16 31.9645 1126.24 31.9436 1126.32 31.9381C1126.39 31.9325 1126.47 31.9424 1126.54 31.9671C1126.62 31.9918 1126.69 32.0309 1126.74 32.082C1126.8 32.1332 1126.85 32.1954 1126.89 32.2652C1126.96 32.4055 1126.97 32.5683 1126.92 32.7179C1126.87 32.8674 1126.76 32.9913 1126.62 33.0624C1126.54 33.1035 1126.45 33.1247 1126.36 33.1241C1126.25 33.1244 1126.14 33.0938 1126.05 33.036C1125.95 32.9781 1125.88 32.8953 1125.83 32.7967ZM1128.2 31.6197C1128.16 31.5506 1128.14 31.4752 1128.14 31.3979C1128.13 31.3206 1128.14 31.2429 1128.17 31.1692C1128.19 31.0956 1128.23 31.0274 1128.28 30.9687C1128.33 30.91 1128.39 30.8619 1128.46 30.8272C1128.6 30.7676 1128.75 30.7614 1128.89 30.8097C1129.03 30.8581 1129.15 30.9574 1129.22 31.0882C1129.26 31.158 1129.28 31.234 1129.28 31.3119C1129.29 31.3897 1129.28 31.468 1129.25 31.542C1129.23 31.6161 1129.19 31.6846 1129.14 31.7435C1129.09 31.8024 1129.02 31.8507 1128.95 31.8855C1128.87 31.9266 1128.78 31.9477 1128.69 31.9472C1128.58 31.9447 1128.48 31.9127 1128.39 31.855C1128.3 31.7972 1128.23 31.7158 1128.18 31.6197H1128.2ZM1130.57 30.4428C1130.5 30.3023 1130.49 30.1402 1130.54 29.9917C1130.59 29.8433 1130.7 29.7205 1130.84 29.6502C1130.98 29.5791 1131.14 29.5667 1131.29 29.6156C1131.44 29.6646 1131.56 29.7709 1131.64 29.9113C1131.67 29.981 1131.69 30.057 1131.7 30.1349C1131.7 30.2128 1131.69 30.291 1131.67 30.3651C1131.64 30.4392 1131.6 30.5076 1131.55 30.5666C1131.5 30.6255 1131.44 30.6737 1131.37 30.7085C1131.29 30.7496 1131.2 30.7708 1131.1 30.7702C1130.99 30.7765 1130.87 30.7469 1130.76 30.6851C1130.66 30.6233 1130.58 30.5323 1130.53 30.4238L1130.57 30.4428Z" fill="#22CACF"/>
<path d="M1133.42 29.5933C1133.38 29.5979 1133.34 29.5979 1133.3 29.5933L1133.19 29.5601L1133.09 29.4747C1133.05 29.4549 1133.02 29.4292 1133 29.3987C1132.89 29.2879 1132.82 29.138 1132.82 28.9811C1132.83 28.8247 1132.89 28.6754 1133 28.5635C1133.02 28.5358 1133.06 28.5118 1133.09 28.4923L1133.19 28.4353L1133.3 28.4021C1133.38 28.3879 1133.46 28.3879 1133.53 28.4021L1133.64 28.4353C1133.68 28.4496 1133.72 28.4687 1133.75 28.4923C1133.78 28.5118 1133.81 28.5358 1133.84 28.5635C1133.95 28.6756 1134.01 28.8251 1134.01 28.9811C1134.01 29.1384 1133.95 29.2893 1133.84 29.4006C1133.72 29.5118 1133.57 29.5743 1133.42 29.5743V29.5933Z" fill="#22CACF"/>
<path d="M54.5763 0H1.42373C0.637425 0 0 0.637425 0 1.42373V54.5763C0 55.3626 0.637425 56 1.42373 56H54.5763C55.3626 56 56 55.3626 56 54.5763V1.42373C56 0.637425 55.3626 0 54.5763 0Z" fill="#E3FCFD"/>
<path d="M19.7234 33.7661C19.6455 33.7667 19.5683 33.7514 19.4965 33.7212C19.4247 33.691 19.3598 33.6466 19.3058 33.5905C19.2505 33.5354 19.2067 33.4699 19.1768 33.3979C19.1469 33.3258 19.1315 33.2485 19.1315 33.1705C19.1315 33.0925 19.1469 33.0152 19.1768 32.9431C19.2067 32.8711 19.2505 32.8056 19.3058 32.7505L25.0908 26.9654L19.3058 21.1756C19.2458 21.1216 19.1974 21.056 19.1636 20.9827C19.1299 20.9094 19.1114 20.83 19.1094 20.7493C19.1073 20.6687 19.1218 20.5884 19.1518 20.5136C19.1819 20.4387 19.2269 20.3707 19.2841 20.3138C19.3413 20.2569 19.4096 20.2123 19.4846 20.1827C19.5597 20.153 19.64 20.139 19.7207 20.1415C19.8013 20.144 19.8806 20.1629 19.9537 20.1971C20.0268 20.2313 20.0921 20.28 20.1458 20.3403L26.3485 26.5478C26.4042 26.6022 26.4484 26.6671 26.4786 26.7388C26.5088 26.8106 26.5244 26.8876 26.5244 26.9654C26.5244 27.0432 26.5088 27.1203 26.4786 27.192C26.4484 27.2637 26.4042 27.3287 26.3485 27.383L20.1458 33.5905C20.0905 33.6463 20.0247 33.6905 19.9522 33.7206C19.8797 33.7508 19.8019 33.7662 19.7234 33.7661Z" fill="#22CACF"/>
<path d="M36.2766 35.8352H28C27.842 35.8352 27.6905 35.7725 27.5789 35.6608C27.4672 35.5491 27.4044 35.3976 27.4044 35.2396C27.4044 35.0817 27.4672 34.9302 27.5789 34.8185C27.6905 34.7068 27.842 34.644 28 34.644H36.2766C36.4339 34.644 36.5848 34.7065 36.6961 34.8178C36.8073 34.929 36.8698 35.0799 36.8698 35.2373C36.8698 35.3946 36.8073 35.5455 36.6961 35.6567C36.5848 35.768 36.4339 35.8305 36.2766 35.8305V35.8352Z" fill="#22CACF"/>
<line x1="84" y1="28" x2="1068" y2="28" stroke="#14C6CB" stroke-width="2"/>
<g filter="url(#filter0_d)">
<rect x="549" y="1" width="56" height="56" rx="2" fill="#14C6CB"/>
</g>
<path d="M594.273 18.0909L589.96 25.6667L585.648 18.0909H594.273Z" fill="white"/>
<path d="M571.25 23.1414H568.352L575.563 35.7677L572.688 40.8182L559.727 18.0909H574.125L581.312 30.7172L582.75 28.192L577 18.0909H582.75L585.624 23.1414L588.499 28.192L581.312 40.8182L571.25 23.1414Z" fill="white"/>
<path d="M1080 28L1066.5 35.7942L1066.5 20.2058L1080 28Z" fill="#14C6CB"/>
<path d="M72 28L85.5 20.2058L85.5 35.7942L72 28Z" fill="#14C6CB"/>
<defs>
<filter id="filter0_d" x="546" y="0" width="62" height="62" filterUnits="userSpaceOnUse" color-interpolation-filters="sRGB">
<feFlood flood-opacity="0" result="BackgroundImageFix"/>
<feColorMatrix in="SourceAlpha" type="matrix" values="0 0 0 0 0 0 0 0 0 0 0 0 0 0 0 0 0 0 127 0"/>
<feOffset dy="2"/>
<feGaussianBlur stdDeviation="1.5"/>
<feColorMatrix type="matrix" values="0 0 0 0 0.145098 0 0 0 0 0.160784 0 0 0 0 0.215686 0 0 0 0.08 0"/>
<feBlend mode="normal" in2="BackgroundImageFix" result="effect1_dropShadow"/>
<feBlend mode="normal" in="SourceGraphic" in2="effect1_dropShadow" result="shape"/>
</filter>
</defs>
</svg>
