<svg width="56" height="56" viewBox="0 0 56 56" fill="none" xmlns="http://www.w3.org/2000/svg">
<path d="M54.5763 0H1.42373C0.637425 0 0 0.637425 0 1.42373V54.5763C0 55.3626 0.637425 56 1.42373 56H54.5763C55.3626 56 56 55.3626 56 54.5763V1.42373C56 0.637425 55.3626 0 54.5763 0Z" fill="var(--waypoint-secondary, #d7f8fa)"/>
<path d="M28 27.644C27.9078 27.6446 27.8168 27.6234 27.7343 27.5823L18.3234 22.8745C18.2236 22.8263 18.1394 22.7507 18.0807 22.6567C18.0219 22.5627 17.9909 22.4539 17.9912 22.343C17.992 22.2324 18.0234 22.1241 18.0821 22.0302C18.1407 21.9364 18.2243 21.8607 18.3234 21.8115L27.7343 17.1084C27.8165 17.0664 27.9076 17.0444 28 17.0444C28.0924 17.0444 28.1835 17.0664 28.2658 17.1084L37.6766 21.8305C37.7758 21.8797 37.8593 21.9554 37.918 22.0492C37.9766 22.1431 38.0081 22.2513 38.0088 22.362C38.0092 22.4729 37.9782 22.5816 37.9194 22.6757C37.8606 22.7697 37.7765 22.8452 37.6766 22.8935L28.2658 27.5823C28.1833 27.6234 28.0922 27.6446 28 27.644ZM19.9322 22.343L28 26.3864L36.0678 22.343L28 18.2996L19.9322 22.343Z" fill="#22CACF"/>
<path d="M18.5891 34.2502C18.5108 34.2504 18.4334 34.2345 18.3615 34.2035C18.2896 34.1725 18.225 34.127 18.1715 34.0698C18.1118 34.0197 18.0646 33.9563 18.0338 33.8847C18.0018 33.8131 17.9856 33.7354 17.9864 33.6569C17.9814 33.6175 17.9814 33.5777 17.9864 33.5383C17.9937 33.5009 18.0049 33.4643 18.0196 33.4291C18.0341 33.3945 18.0516 33.3612 18.0718 33.3295C18.0921 33.2955 18.1177 33.2651 18.1477 33.2393C18.2167 33.17 18.3018 33.1189 18.3955 33.0908C18.4891 33.0626 18.5883 33.0582 18.684 33.078C18.7217 33.084 18.7585 33.0952 18.7932 33.1112C18.831 33.1218 18.8664 33.1395 18.8976 33.1634C18.9299 33.1859 18.9601 33.2113 18.9877 33.2393C19.0163 33.2653 19.0403 33.2957 19.0589 33.3295C19.0807 33.361 19.0997 33.3944 19.1159 33.4291C19.1159 33.4671 19.1396 33.5051 19.1491 33.5383C19.1516 33.5778 19.1516 33.6174 19.1491 33.6569C19.1492 33.7349 19.1347 33.8121 19.1064 33.8847C19.0748 33.9535 19.0315 34.0161 18.9783 34.0698C18.8761 34.1771 18.737 34.2416 18.5891 34.2502Z" fill="#22CACF"/>
<path d="M25.3851 37.7194C25.2436 37.6481 25.1361 37.5237 25.0863 37.3733C25.0365 37.2229 25.0483 37.0589 25.1193 36.9173C25.154 36.8474 25.2023 36.7851 25.2614 36.734C25.3204 36.6829 25.3891 36.6441 25.4633 36.6198C25.5375 36.5955 25.6158 36.5862 25.6936 36.5925C25.7714 36.5988 25.8472 36.6205 25.9166 36.6563C25.9865 36.6911 26.0488 36.7394 26.1 36.7983C26.1512 36.8572 26.1903 36.9257 26.215 36.9998C26.2397 37.0738 26.2495 37.1521 26.2439 37.2299C26.2383 37.3078 26.2174 37.3838 26.1824 37.4536C26.1325 37.5518 26.0565 37.6344 25.9627 37.6922C25.8689 37.75 25.761 37.7807 25.6508 37.7811C25.5586 37.7816 25.4676 37.7605 25.3851 37.7194ZM23.0122 36.5424C22.8768 36.4664 22.7766 36.3403 22.7331 36.1912C22.6896 36.0422 22.7063 35.882 22.7796 35.7451C22.85 35.604 22.9733 35.4964 23.1226 35.4458C23.2719 35.3951 23.4352 35.4055 23.5769 35.4746C23.7184 35.5458 23.8259 35.6703 23.8757 35.8207C23.9255 35.971 23.9137 36.135 23.8427 36.2766C23.7931 36.3747 23.717 36.4569 23.623 36.5139C23.5291 36.571 23.4211 36.6006 23.3112 36.5994C23.2148 36.6012 23.1192 36.5818 23.0312 36.5424H23.0122ZM20.6393 35.3655C20.5036 35.2885 20.4033 35.1616 20.3598 35.0118C20.3164 34.8619 20.3332 34.701 20.4068 34.5634C20.4415 34.4935 20.4898 34.4312 20.5488 34.3801C20.6079 34.329 20.6765 34.2902 20.7507 34.2659C20.8249 34.2416 20.9032 34.2323 20.9811 34.2386C21.0589 34.2449 21.1347 34.2666 21.204 34.3024C21.2773 34.3361 21.3428 34.3846 21.3966 34.4447C21.4503 34.5048 21.4911 34.5753 21.5165 34.6518C21.5419 34.7284 21.5512 34.8093 21.544 34.8896C21.5368 34.9699 21.5132 35.0479 21.4746 35.1187C21.4251 35.2173 21.3492 35.3001 21.2554 35.358C21.1615 35.4158 21.0533 35.4464 20.943 35.4461C20.8493 35.4408 20.7581 35.4132 20.6773 35.3655H20.6393Z" fill="#22CACF"/>
<path d="M28 38.9532C27.9213 38.9547 27.8432 38.9399 27.7705 38.9097C27.6978 38.8795 27.6321 38.8345 27.5777 38.7776C27.5225 38.7232 27.4789 38.6581 27.4495 38.5863C27.4201 38.5145 27.4056 38.4375 27.4068 38.36C27.4043 38.3237 27.4043 38.2872 27.4068 38.2509C27.4157 38.2123 27.4268 38.1743 27.44 38.137C27.4543 38.1013 27.4735 38.0677 27.497 38.0373C27.5156 38.0035 27.5397 37.9731 27.5682 37.9471L27.6583 37.8664C27.6908 37.8459 27.7259 37.8299 27.7628 37.819C27.7963 37.7994 27.8334 37.7865 27.8719 37.781C27.9488 37.7668 28.0276 37.7668 28.1045 37.781C28.143 37.7865 28.18 37.7994 28.2136 37.819C28.2504 37.8299 28.2856 37.8459 28.318 37.8664L28.4082 37.9471C28.4382 37.9729 28.4638 38.0033 28.4841 38.0373C28.5043 38.069 28.5218 38.1023 28.5363 38.137C28.5517 38.1735 28.5629 38.2117 28.5695 38.2509C28.5745 38.2871 28.5745 38.3238 28.5695 38.36C28.5685 38.513 28.5089 38.6597 28.4029 38.77C28.297 38.8804 28.1528 38.9459 28 38.9532Z" fill="#22CACF"/>
<path d="M29.8271 37.4535C29.7914 37.3839 29.77 37.3078 29.764 37.2298C29.7581 37.1517 29.7678 37.0733 29.7925 36.9991C29.8173 36.9248 29.8566 36.8563 29.9081 36.7974C29.9597 36.7385 30.0225 36.6905 30.0928 36.6562C30.1619 36.6205 30.2373 36.5989 30.3148 36.5927C30.3923 36.5864 30.4702 36.5958 30.544 36.6201C30.6178 36.6444 30.6861 36.6832 30.7447 36.7342C30.8033 36.7853 30.8511 36.8475 30.8854 36.9173C30.9567 37.0583 30.9693 37.2218 30.9204 37.3721C30.8715 37.5224 30.765 37.6472 30.6244 37.7193C30.5418 37.7604 30.4508 37.7815 30.3586 37.781C30.2483 37.7812 30.1402 37.7507 30.0463 37.6928C29.9524 37.635 29.8765 37.5521 29.8271 37.4535ZM32.2 36.2766C32.1299 36.1353 32.118 35.9722 32.1668 35.8223C32.2156 35.6724 32.3212 35.5475 32.461 35.4745C32.6027 35.4054 32.766 35.395 32.9153 35.4457C33.0646 35.4964 33.1879 35.6039 33.2583 35.745C33.2927 35.816 33.3126 35.893 33.3169 35.9717C33.3211 36.0504 33.3097 36.1292 33.2832 36.2034C33.2567 36.2777 33.2156 36.3459 33.1625 36.4041C33.1093 36.4622 33.0451 36.5093 32.9735 36.5423C32.8899 36.5797 32.7994 36.5991 32.7078 36.5993C32.5983 36.6013 32.4906 36.572 32.3973 36.5148C32.304 36.4576 32.2289 36.375 32.181 36.2766H32.2ZM34.5728 35.0996C34.5034 34.9585 34.4923 34.7957 34.542 34.6464C34.5918 34.4972 34.6983 34.3736 34.8386 34.3023C34.979 34.2312 35.1418 34.2188 35.2913 34.2677C35.4408 34.3167 35.5648 34.423 35.6359 34.5634C35.7069 34.705 35.7187 34.869 35.6689 35.0193C35.6191 35.1697 35.5116 35.2942 35.3701 35.3654C35.2891 35.4059 35.1997 35.4271 35.1091 35.4271C34.9931 35.4377 34.8764 35.4141 34.7735 35.3593C34.6707 35.3045 34.5861 35.2209 34.5301 35.1186L34.5728 35.0996Z" fill="#22CACF"/>
<path d="M37.4155 34.2501C37.3372 34.2504 37.2598 34.2345 37.1879 34.2034C37.1161 34.1724 37.0514 34.1269 36.9979 34.0698C36.9417 34.0168 36.8972 33.9527 36.8669 33.8817C36.8367 33.8106 36.8215 33.7341 36.8223 33.6569C36.8224 33.5745 36.8397 33.4931 36.8733 33.4179C36.9068 33.3427 36.9557 33.2754 37.0169 33.2203C37.0865 33.152 37.1717 33.1016 37.2651 33.0735C37.3585 33.0454 37.4574 33.0404 37.5531 33.0589C37.5909 33.065 37.6276 33.0761 37.6623 33.0921C37.7001 33.1027 37.7355 33.1205 37.7667 33.1443C37.7998 33.1658 37.8301 33.1913 37.8569 33.2203C37.9116 33.2751 37.9549 33.3402 37.9843 33.4119C38.0136 33.4836 38.0284 33.5604 38.0277 33.6379C38.0265 33.7949 37.9636 33.945 37.8526 34.056C37.7416 34.167 37.5914 34.2299 37.4345 34.2311L37.4155 34.2501Z" fill="#22CACF"/>
<path d="M18.5892 28.5932C18.5113 28.5936 18.4342 28.5782 18.3625 28.548C18.2907 28.5178 18.2258 28.4735 18.1715 28.4176C18.1426 28.3926 18.1171 28.3639 18.0956 28.3322C18.0763 28.2984 18.0589 28.2635 18.0434 28.2278C18.0274 28.1931 18.0162 28.1564 18.0102 28.1187C18.0056 28.0808 18.0056 28.0426 18.0102 28.0048C18.0052 27.9654 18.0052 27.9255 18.0102 27.8861C18.0162 27.8484 18.0274 27.8117 18.0434 27.777C18.0579 27.7408 18.0754 27.7059 18.0956 27.6726C18.1183 27.6404 18.1437 27.6102 18.1715 27.5824C18.2857 27.4763 18.4357 27.4174 18.5915 27.4174C18.7474 27.4174 18.8974 27.4763 19.0115 27.5824C19.0379 27.6103 19.0617 27.6405 19.0827 27.6726C19.127 27.7369 19.1577 27.8095 19.1729 27.8861C19.1856 27.9631 19.1856 28.0417 19.1729 28.1187C19.1647 28.1559 19.1536 28.1923 19.1397 28.2278C19.1225 28.2636 19.1035 28.2984 19.0827 28.3322C19.0389 28.3951 18.9843 28.4497 18.9214 28.4936L18.817 28.5505L18.7078 28.5838C18.6688 28.5916 18.629 28.5948 18.5892 28.5932Z" fill="#22CACF"/>
<path d="M25.3851 32.0624C25.3152 32.0277 25.2529 31.9794 25.2017 31.9205C25.1504 31.8615 25.1114 31.7931 25.0867 31.719C25.062 31.6449 25.0522 31.5667 25.0578 31.4888C25.0634 31.4109 25.0843 31.3349 25.1193 31.2652C25.1915 31.1258 25.3151 31.02 25.464 30.9704C25.6129 30.9208 25.7753 30.9312 25.9166 30.9994C26.0569 31.0706 26.1634 31.1942 26.2132 31.3435C26.2629 31.4927 26.2519 31.6555 26.1824 31.7967C26.1326 31.8949 26.0565 31.9775 25.9628 32.0353C25.869 32.0931 25.761 32.1238 25.6509 32.1241C25.5587 32.1247 25.4676 32.1035 25.3851 32.0624ZM23.0122 30.8855C22.8768 30.8095 22.7766 30.6834 22.7332 30.5343C22.6897 30.3853 22.7064 30.2251 22.7797 30.0882C22.8519 29.9489 22.9752 29.8429 23.1239 29.7924C23.2725 29.742 23.4349 29.7511 23.577 29.8177C23.7176 29.8898 23.8242 30.0143 23.8739 30.1643C23.9236 30.3144 23.9124 30.4779 23.8427 30.6197C23.7933 30.7183 23.7174 30.8012 23.6235 30.859C23.5296 30.9169 23.4215 30.9474 23.3112 30.9472C23.2142 30.95 23.118 30.9288 23.0312 30.8855H23.0122ZM20.6393 29.7085C20.5039 29.6325 20.4038 29.5064 20.3603 29.3574C20.3168 29.2083 20.3335 29.0481 20.4068 28.9113C20.4779 28.7709 20.6019 28.6646 20.7514 28.6156C20.9009 28.5667 21.0637 28.5791 21.2041 28.6502C21.3409 28.7187 21.4456 28.8378 21.4961 28.9822C21.5466 29.1266 21.5389 29.285 21.4746 29.4238C21.4252 29.5224 21.3493 29.6053 21.2554 29.6631C21.1615 29.7209 21.0533 29.7515 20.9431 29.7513C20.8524 29.7577 20.7614 29.7431 20.6773 29.7085H20.6393Z" fill="#22CACF"/>
<path d="M28 33.301C27.921 33.3016 27.8427 33.2859 27.77 33.2549C27.6973 33.2238 27.6318 33.1781 27.5776 33.1206C27.5229 33.0682 27.4793 33.0052 27.4495 32.9356C27.4212 32.8629 27.4067 32.7857 27.4068 32.7078C27.4043 32.6682 27.4043 32.6286 27.4068 32.5891C27.4068 32.5559 27.4068 32.5179 27.44 32.48C27.4543 32.4443 27.4735 32.4107 27.4969 32.3803C27.5165 32.3472 27.5404 32.3168 27.5681 32.2901C27.6375 32.2215 27.7227 32.1709 27.8162 32.1428C27.9097 32.1147 28.0086 32.1098 28.1044 32.1288C28.1421 32.1348 28.1788 32.146 28.2135 32.162C28.2513 32.1726 28.2868 32.1903 28.3179 32.2142C28.351 32.2357 28.3813 32.2612 28.4081 32.2901C28.4359 32.318 28.4613 32.3481 28.484 32.3803C28.5043 32.412 28.5217 32.4453 28.5363 32.48C28.551 32.5151 28.5621 32.5517 28.5695 32.5891C28.5744 32.6285 28.5744 32.6684 28.5695 32.7078C28.5702 32.7862 28.554 32.8639 28.522 32.9356C28.494 33.0062 28.4502 33.0695 28.3939 33.1206C28.3433 33.1751 28.2825 33.2191 28.2149 33.2501C28.1473 33.281 28.0743 33.2983 28 33.301Z" fill="#22CACF"/>
<path d="M29.8271 31.7967C29.7921 31.7269 29.7712 31.6509 29.7656 31.573C29.76 31.4952 29.7698 31.4169 29.7945 31.3429C29.8192 31.2688 29.8582 31.2003 29.9095 31.1414C29.9607 31.0824 30.023 31.0342 30.0929 30.9994C30.1623 30.9645 30.238 30.9436 30.3155 30.9381C30.393 30.9325 30.4709 30.9424 30.5446 30.9671C30.6182 30.9918 30.6863 31.0309 30.7448 31.082C30.8033 31.1332 30.8511 31.1954 30.8854 31.2652C30.9566 31.4055 30.969 31.5683 30.92 31.7179C30.8711 31.8674 30.7648 31.9913 30.6244 32.0624C30.5419 32.1035 30.4509 32.1247 30.3587 32.1241C30.2484 32.1244 30.1402 32.0938 30.0463 32.036C29.9524 31.9781 29.8765 31.8953 29.8271 31.7967ZM32.2 30.6197C32.1649 30.5506 32.1438 30.4752 32.1379 30.3979C32.1321 30.3206 32.1415 30.2429 32.1658 30.1692C32.19 30.0956 32.2286 30.0274 32.2793 29.9687C32.3299 29.91 32.3917 29.8619 32.461 29.8272C32.5973 29.7676 32.7509 29.7614 32.8916 29.8097C33.0322 29.8581 33.1495 29.9574 33.2204 30.0882C33.2554 30.158 33.2763 30.234 33.2819 30.3119C33.2875 30.3897 33.2777 30.468 33.253 30.542C33.2283 30.6161 33.1892 30.6846 33.138 30.7435C33.0868 30.8024 33.0245 30.8507 32.9546 30.8855C32.8721 30.9266 32.781 30.9477 32.6888 30.9472C32.5822 30.9447 32.4784 30.9127 32.3888 30.855C32.2992 30.7972 32.2273 30.7158 32.181 30.6197H32.2ZM34.5729 29.4428C34.5036 29.3023 34.4927 29.1402 34.5425 28.9917C34.5923 28.8433 34.6987 28.7205 34.8387 28.6502C34.979 28.5791 35.1418 28.5667 35.2914 28.6156C35.4409 28.6646 35.5648 28.7709 35.6359 28.9113C35.671 28.981 35.6919 29.057 35.6975 29.1349C35.7031 29.2128 35.6933 29.291 35.6686 29.3651C35.6439 29.4392 35.6048 29.5076 35.5536 29.5666C35.5024 29.6255 35.4401 29.6737 35.3702 29.7085C35.2877 29.7496 35.1966 29.7708 35.1044 29.7702C34.985 29.7765 34.8665 29.7469 34.7642 29.6851C34.6618 29.6233 34.5803 29.5323 34.5302 29.4238L34.5729 29.4428Z" fill="#22CACF"/>
<path d="M37.4156 28.5933C37.3778 28.5979 37.3395 28.5979 37.3017 28.5933L37.1878 28.5601L37.0882 28.4747C37.0538 28.4549 37.0233 28.4292 36.998 28.3987C36.8869 28.2879 36.8239 28.138 36.8224 27.9811C36.8258 27.8247 36.8886 27.6754 36.998 27.5635C37.0247 27.5358 37.055 27.5118 37.0882 27.4923L37.1878 27.4353L37.3017 27.4021C37.3786 27.3879 37.4574 27.3879 37.5343 27.4021L37.6434 27.4353C37.6806 27.4496 37.7157 27.4687 37.7478 27.4923C37.7809 27.5118 37.8113 27.5358 37.838 27.5635C37.9464 27.6756 38.0076 27.8251 38.0088 27.9811C38.0088 28.1384 37.9463 28.2893 37.8351 28.4006C37.7238 28.5118 37.5729 28.5743 37.4156 28.5743V28.5933Z" fill="#22CACF"/>
</svg>
