<svg width="116" height="28" viewBox="0 0 116 28" fill="none" xmlns="http://www.w3.org/2000/svg"><path d="M39.408 21.28v-6.19H33.93v6.19h-2.79V6.604h2.79v6.037h5.478V6.604h2.79V21.28h-2.79zM52.423 21.281H50.21l-.201-.726a5.932 5.932 0 01-3.216.948c-1.975 0-2.817-1.345-2.817-3.196 0-2.182.954-3.019 3.149-3.019h2.594v-1.125c0-1.19-.332-1.608-2.062-1.608a15.2 15.2 0 00-2.992.319l-.332-2.048a14.168 14.168 0 013.704-.508c3.392 0 4.39 1.19 4.39 3.88l-.003 7.083zm-2.705-4.055h-1.995c-.886 0-1.13.241-1.13 1.059 0 .748.243 1.08 1.089 1.08a4.278 4.278 0 002.039-.554l-.003-1.585zM57.658 21.5a12.803 12.803 0 01-3.726-.619l.376-2.048c1.046.297 2.128.453 3.216.463 1.197 0 1.375-.277 1.375-1.081 0-.66-.133-.992-1.885-1.411-2.639-.64-2.949-1.3-2.949-3.37 0-2.16.955-3.108 4.037-3.108 1.09.001 2.177.127 3.238.374l-.279 2.138c-.98-.18-1.974-.283-2.97-.308-1.175 0-1.376.277-1.376.926 0 .859.067.925 1.532 1.3 3.023.795 3.313 1.191 3.313 3.384 0 2.082-.644 3.36-3.902 3.36zM69.61 21.28v-7.483c0-.574-.242-.86-.864-.86-.664 0-1.841.397-2.818.904v7.44h-2.705V6.163l2.705-.374v5.574a9.58 9.58 0 013.947-1.036c1.796 0 2.438 1.255 2.438 3.173v7.78H69.61zM74.31 9.03V5.921h2.706v3.107H74.31zm0 12.25V10.549h2.706v10.733H74.31zM78.902 10.637c0-2.689 1.573-4.252 5.255-4.252 1.353 0 2.701.162 4.014.485l-.306 2.4a21.912 21.912 0 00-3.627-.374c-1.93 0-2.55.663-2.55 2.217v5.641c0 1.564.623 2.218 2.55 2.218a21.913 21.913 0 003.627-.375l.31 2.404a16.816 16.816 0 01-4.015.485c-3.682 0-5.255-1.564-5.255-4.252l-.003-6.597zM93.722 21.5c-3.705 0-4.7-2.027-4.7-4.23v-2.711c0-2.204.998-4.23 4.7-4.23 3.701 0 4.7 2.026 4.7 4.23v2.71c-.009 2.204-1.005 4.23-4.7 4.23zm0-8.87c-1.443 0-1.995.64-1.995 1.851v2.877c0 1.212.558 1.852 1.995 1.852 1.436 0 1.994-.64 1.994-1.852V14.47c-.006-1.211-.56-1.851-1.994-1.851v.01zM105.599 12.796c-.993.447-1.95.97-2.862 1.563v6.93h-2.706V10.548h2.285l.178 1.189a12.13 12.13 0 012.84-1.41l.265 2.469zM115.857 17.71c0 2.382-1.065 3.79-3.57 3.79a15.011 15.011 0 01-2.884-.31v4.434l-2.706.374v-15.45h2.151l.279.904a5.709 5.709 0 013.414-1.123c2.173 0 3.325 1.278 3.325 3.726l-.009 3.655zm-6.451 1.212c.787.172 1.59.265 2.396.277.976 0 1.353-.463 1.353-1.433v-3.784c0-.881-.332-1.366-1.331-1.366a3.84 3.84 0 00-2.418.97v5.336zM10.66.4L0 6.512V21.19l4.005 2.298V8.81l6.656-3.82V.4z" fill="#fff"/><path d="M14.915.4v11.69h-4.253V7.725l-4.006 2.298V25l4.006 2.304V15.648h4.253v4.333l4.006-2.295V2.698L14.916.4z" fill="#fff"/><path d="M14.914 27.31l10.66-6.113V6.521L21.57 4.223V18.9l-6.655 3.82v4.59z" fill="#fff"/></svg>