<svg width="418" height="542" viewBox="0 0 418 542" fill="none" xmlns="http://www.w3.org/2000/svg"><g opacity=".3" clip-path="url(#clip0)" fill="#62D4DC"><path d="M418 237.149v-1.684L323.664 181h-2.914l97.175 56.106.075.043zm0-21.795L358.5 181h-2.921L418 217.038v-1.684zm0 11.742v-1.689L341.085 181h-2.92l79.76 46.052.075.044zm0-21.8L375.914 181H373l45 25.985v-1.689zm0-10.053L393.335 181h-2.92L418 196.927v-1.684zm0-10.058L410.75 181h-2.921L418 186.874v-1.689zM418 267.339v-1.731L271.456 181h-2.993l149.462 86.296.075.043zm0 20.111v-1.731L236.626 181h-2.998l184.297 106.407.075.043zm0-30.169v-1.726L288.876 181h-2.998l132.047 76.238.075.043zm0 40.222v-1.725L219.206 181h-2.993l201.712 116.46.075.043zm0-50.275v-1.731L306.291 181h-2.998l114.632 66.185.075.043zm0 30.164v-1.726L254.041 181h-2.998l166.882 96.348.075.044zM261.25 325.894L209 356.058v1.825l52.25-30.169L320.629 362h3.15l-62.454-36.062-.075-.044zm0-10.053L209 346.005v1.82l52.25-30.164L338.05 362h3.149l-79.874-46.115-.075-.044zm0-10.058L209 335.947v1.825l52.25-30.169L355.464 362h3.15l-97.289-56.174-.075-.043zm0-20.111L209 315.836v1.825l52.25-30.169L390.3 362h3.149l-132.124-76.284-.075-.044zm0 10.058L209 325.894v1.82l52.25-30.164L372.879 362h3.15l-114.704-66.226-.075-.044zm0-20.111L209 305.783v1.82l52.25-30.164L407.714 362h3.15l-149.539-86.338-.075-.043z"/></g><g opacity=".3" clip-path="url(#clip1)" fill="#62D4DC"><path d="M339.914 470.815l-.826 1.43 78.837 45.528.075.043v-1.906l-77.956-45.02-.13-.075zm17.427-10.058l-.827 1.43 61.411 35.473.075.043v-1.906l-60.53-34.965-.129-.075zM418 487.64v-1.906l-51.789-29.948-.13-.075-.827 1.429L418 487.64zm-69.373-21.852l-.826 1.43 70.124 40.497.075.043v-1.906l-69.243-39.989-.13-.075zm-26.136 15.089l-.825 1.43 96.259 55.575.075.044v-1.907l-95.379-55.067-.13-.075zm8.714-5.031l-.826 1.43 87.546 50.551.075.044v-1.907l-86.665-50.043-.13-.075zM209.075 375.174l-.075-.044v1.907l86.665 50.042.13.075.826-1.43-87.546-50.55zM209.075 385.228l-.075-.043v1.907l77.956 45.018.13.075.826-1.43-78.837-45.527zM260.919 447.289l.827-1.43L209 415.361v1.907l51.789 29.946.13.075zM209.075 395.286l-.075-.043v1.906l69.243 39.988.13.075.826-1.43-70.124-40.496zM209.075 405.341l-.075-.043v1.907l60.53 34.963.129.075.827-1.43-61.411-35.472zM209.075 365.119l-.075-.043v1.906l95.379 55.066.13.075.825-1.43-96.259-55.574z"/><path d="M209 475.694v1.907l52.071 30.115.075.043L418 417.256v-1.907l-156.853 90.504L209 475.694zm0-50.286v1.906l52.175 30.124.075.043 156.75-90.5v-1.907l-156.75 90.501L209 425.408zm0 10.056v1.906l52.175 30.124.075.043 156.75-90.5v-1.907l-156.75 90.5L209 435.464zm0 10.055v1.907l52.175 30.123.075.043 156.75-90.5v-1.906l-156.75 90.5L209 445.519zm0 20.111v1.907l52.175 30.124.075.044L418 407.203v-1.906l-156.75 90.501L209 465.63zm0-10.055v1.906l52.175 30.124.075.044L418 397.148v-1.907l-156.75 90.501L209 455.575z"/></g><g opacity=".3" clip-path="url(#clip2)" fill="#62D4DC"><path d="M156.825 318.661L209 288.536v-1.906l-52.25 30.168L0 226.297v1.906l156.75 90.501.075-.043zm0-10.056L209 278.481v-1.907l-52.25 30.168L0 216.241v1.907l156.75 90.501.075-.044zm0-10.056L209 268.426v-1.907l-52.25 30.167L0 206.186v1.906l156.75 90.501.075-.044zm0-10.056L209 258.37v-1.906l-52.25 30.166L0 196.13v1.907l156.75 90.5.075-.044zm0-10.055L209 248.314v-1.906l-52.25 30.166L0 186.074v1.907l156.75 90.5.075-.043zM0 238.256l156.854 90.504.075-.044L209 298.601v-1.908l-.075.044-52.072 30.115L0 236.349v1.907z"/><path d="M201.947 182h-3.3l-94.643 54.694.826 1.429.13-.075L201.947 182zM78.794 222.943L149.697 182h-3.302l-68.557 39.589.826 1.429.13-.075zm17.427 10.058L184.526 182h-3.302l-85.96 49.647.826 1.429.13-.075zm-34.85-20.12L114.855 182h-3.303l-51.136 29.527.826 1.429.13-.075zm26.136 15.089L167.11 182h-3.302l-77.258 44.616.826 1.429.13-.075zm-17.422-10.058L132.278 182h-3.303l-59.846 34.558.826 1.43.13-.076zM0 248.279v-1.18l.513.882-.513.298zM44.1 273.148l-.826-1.43-.13.075L0 296.689v1.906l44.1-25.447zM17.965 258.06l-.827-1.43-.13.075L0 266.522v1.906l17.965-10.368zm8.712 5.026l-.825-1.429-.13.075L0 276.579v1.906l26.677-15.399zM9.252 253.029l-.825-1.43L0 256.465v1.906l9.251-5.342zm26.136 15.089l-.826-1.431L0 286.634v1.906l35.386-20.422z"/></g><g opacity=".3" clip-path="url(#clip3)" fill="#62D4DC"><path d="M209 176.925l7.057 4.075h3.303L209 175.019v1.906zm0-10.056L233.474 181h3.303L209 164.964v1.905zm0-10.055L250.89 181h3.303L209 154.908v1.906zm0-10.056L268.307 181h3.303L209 144.852v1.906zm0-11.961v1.906L285.724 181h3.303l-79.952-46.159-.075-.044zm0-10.056v1.907L303.14 181h3.303l-97.368-56.215-.075-.044zM286.962 131.417l.413.238 52.248-30.146 78.302 45.207.075.044v-1.907l-78.302-45.207-.075-.044-52.248 30.147L209 84.518v1.906l77.962 44.993zm.001 10.024l.412.238 52.248-30.114 78.302 45.205.075.044v-1.906l-77.964-45.011-.412-.239-52.249 30.115-78.3-45.16-.075-.044v1.905l77.963 44.967zm0 10.058l.412.238 52.248-30.116 78.302 45.207.075.043v-1.905l-77.964-45.014-.412-.238-52.249 30.117-78.3-45.16-.075-.044v1.905l77.963 44.967zm.337-29.932l.075.043 52.252-30.16 78.298 45.208.075.043v-1.905l-78.298-45.209-.075-.043-52.252 30.159L209 74.461v1.906l78.3 45.2zM418 176.926v-1.907l-77.964-45.011-.412-.238-52.249 30.115-78.3-45.161-.075-.043v1.905l77.963 44.967.412.238 52.248-30.115 78.302 45.206.075.044zM209 64.408v1.906l78.3 45.207.075.044 52.248-30.168 78.302 45.207.075.044v-1.906l-78.302-45.208-.075-.044-52.248 30.168-78.3-45.207-.075-.043zM418 96.392v-1.726L254.041 0h-2.998l166.882 96.348.075.044zm0-30.164v-1.73L306.291 0h-2.998l114.632 66.185.075.043zm0 40.222v-1.731L236.626 0h-2.998l184.297 106.407.075.043zm0 10.053v-1.725L219.206 0h-2.993l201.712 116.46.075.043zm0-40.222v-1.726L288.876 0h-2.998l132.047 76.237.075.044zm0 10.058v-1.73L271.456 0h-2.993l149.462 86.296.075.043z"/></g><defs><clipPath id="clip0"><path fill="#fff" transform="rotate(90 118.5 299.5)" d="M0 0h181v209H0z"/></clipPath><clipPath id="clip1"><path fill="#fff" transform="rotate(90 28.5 389.5)" d="M0 0h181v209H0z"/></clipPath><clipPath id="clip2"><path fill="#fff" transform="rotate(90 13.5 195.5)" d="M0 0h181v209H0z"/></clipPath><clipPath id="clip3"><path fill="#fff" transform="rotate(90 209 209)" d="M0 0h181v209H0z"/></clipPath></defs></svg>