<svg viewBox="0 0 397 42" fill="none" xmlns="http://www.w3.org/2000/svg">
  <g clip-path="url(#clip0-984138)" fill="#00ACD7">
    <path d="M.511 17.84c-.085 0-.107-.043-.064-.105l.45-.563c.043-.063.15-.105.236-.105H8.78c.086 0 .107.063.064.125l-.364.543c-.043.063-.15.125-.214.125l-7.755-.02ZM-2.723 19.758c-.086 0-.107-.042-.064-.104l.45-.563c.043-.063.15-.105.235-.105h9.769c.085 0 .128.063.107.125l-.172.501c-.021.084-.107.125-.192.125l-10.133.021ZM2.463 21.677c-.086 0-.107-.063-.065-.125l.3-.522c.043-.062.129-.125.214-.125h4.285c.085 0 .128.063.128.146l-.043.501c0 .083-.085.146-.15.146l-4.67-.02ZM24.697 17.463c-1.35.334-2.271.585-3.6.918-.32.084-.342.105-.62-.208-.322-.355-.558-.584-1.007-.793-1.35-.647-2.657-.459-3.878.313-1.456.918-2.206 2.274-2.185 3.963.022 1.67 1.2 3.046 2.892 3.276 1.457.187 2.678-.313 3.642-1.377.193-.23.364-.48.578-.772h-4.134c-.45 0-.557-.271-.407-.626a32.9 32.9 0 0 1 1.092-2.274.578.578 0 0 1 .536-.334h7.797c-.042.564-.042 1.127-.128 1.69a8.773 8.773 0 0 1-1.757 4.089c-1.542 1.982-3.556 3.212-6.105 3.546-2.1.271-4.049-.125-5.762-1.377-1.585-1.168-2.485-2.712-2.72-4.63-.28-2.274.406-4.319 1.82-6.113 1.521-1.94 3.535-3.17 5.998-3.609 2.014-.354 3.942-.125 5.677 1.023 1.135.73 1.95 1.731 2.485 2.94.128.189.043.293-.215.355Z"/>
    <path d="M31.787 29c-1.95-.042-3.727-.584-5.227-1.836-1.264-1.064-2.056-2.42-2.313-4.026-.386-2.358.278-4.444 1.735-6.3 1.564-2.003 3.449-3.046 5.998-3.484 2.185-.375 4.241-.167 6.105 1.064 1.692 1.127 2.742 2.65 3.02 4.652.364 2.816-.47 5.11-2.463 7.072-1.414 1.397-3.15 2.274-5.141 2.67-.579.104-1.157.125-1.714.188Zm5.098-8.428c-.021-.271-.021-.48-.064-.688-.386-2.066-2.335-3.234-4.37-2.775-1.992.438-3.277 1.669-3.749 3.63a3.41 3.41 0 0 0 1.971 3.942c1.178.501 2.356.438 3.492-.125 1.692-.855 2.613-2.19 2.72-3.984Z"/>
  </g>
  <g clip-path="url(#clip1-581103)">
    <path d="M79.885 5c-8.124 0-7.617 3.541-7.617 3.541l.01 3.67h7.751v1.1H69.2S64 12.72 64 20.96s4.537 7.947 4.537 7.947h2.708v-3.823s-.146-4.561 4.465-4.561h7.689s4.32.07 4.32-4.197V9.27S88.373 5 79.884 5ZM75.61 7.467c.771 0 1.395.627 1.395 1.402 0 .775-.624 1.402-1.395 1.402a1.397 1.397 0 0 1-1.395-1.402c0-.775.624-1.402 1.395-1.402Z" fill="url(#paint0_linear-527263)"/>
    <path d="M80.115 37c8.124 0 7.616-3.541 7.616-3.541l-.009-3.669H79.97V28.69h10.831S96 29.28 96 21.04s-4.538-7.947-4.538-7.947h-2.707v3.824s.145 4.56-4.465 4.56H76.6s-4.32-.07-4.32 4.197v7.056S71.625 37 80.115 37Zm4.275-2.467a1.397 1.397 0 0 1-1.395-1.402c0-.775.623-1.402 1.394-1.402.772 0 1.395.627 1.395 1.402 0 .776-.623 1.402-1.395 1.402Z" fill="url(#paint1_linear-081121)"/>
  </g>
  <path d="M151.239 17.871c-.097-.076-.998-.757-2.898-.757a9.237 9.237 0 0 0-1.497.129c-.368-2.521-2.452-3.75-2.546-3.805l-.51-.294-.336.484a6.844 6.844 0 0 0-.907 2.12c-.34 1.44-.133 2.791.598 3.947-.883.492-2.299.613-2.585.623h-23.444c-.612.001-1.109.496-1.113 1.108a16.88 16.88 0 0 0 1.027 6.025c.808 2.117 2.009 3.677 3.572 4.632 1.752 1.073 4.598 1.686 7.824 1.686a23.361 23.361 0 0 0 4.344-.394 18.16 18.16 0 0 0 5.67-2.06 15.59 15.59 0 0 0 3.87-3.167c1.857-2.103 2.964-4.444 3.786-6.525h.328c2.034 0 3.284-.814 3.974-1.496a4.338 4.338 0 0 0 1.048-1.552l.146-.426-.351-.278Z" fill="#2496ED"/>
  <path d="M119.29 19.653h3.141a.275.275 0 0 0 .275-.274V16.58a.275.275 0 0 0-.273-.275h-3.143a.274.274 0 0 0-.274.274v2.8c0 .151.122.274.274.274ZM123.622 19.653h3.141a.274.274 0 0 0 .274-.274V16.58a.274.274 0 0 0-.272-.275h-3.143a.276.276 0 0 0-.276.276v2.798a.276.276 0 0 0 .276.274ZM127.997 19.653h3.142a.274.274 0 0 0 .274-.274V16.58a.274.274 0 0 0-.273-.275h-3.143a.274.274 0 0 0-.274.274v2.8c0 .151.123.274.274.274ZM132.325 19.653h3.142a.275.275 0 0 0 .275-.274V16.58a.275.275 0 0 0-.275-.275h-3.142a.274.274 0 0 0-.274.274v2.8c0 .151.123.274.274.274ZM123.622 15.616h3.141a.276.276 0 0 0 .274-.276v-2.798a.274.274 0 0 0-.274-.274h-3.141a.276.276 0 0 0-.276.274v2.798a.278.278 0 0 0 .276.276ZM127.997 15.616h3.141a.276.276 0 0 0 .275-.276v-2.798a.275.275 0 0 0-.275-.274h-3.141a.274.274 0 0 0-.274.274v2.798c0 .152.122.275.274.276ZM132.325 15.616h3.142a.276.276 0 0 0 .275-.276v-2.798a.275.275 0 0 0-.275-.274h-3.142a.274.274 0 0 0-.274.274v2.798c0 .152.122.275.274.276ZM132.325 11.579h3.142a.275.275 0 0 0 .275-.274v-2.8a.275.275 0 0 0-.275-.275h-3.142a.274.274 0 0 0-.274.275v2.8c0 .151.123.274.274.274ZM136.753 19.653h3.141a.276.276 0 0 0 .276-.274V16.58a.276.276 0 0 0-.276-.275h-3.141a.274.274 0 0 0-.274.274v2.8c0 .151.122.274.274.274Z" fill="#2496ED"/>
  <g clip-path="url(#clip2-101194)" fill-rule="evenodd" clip-rule="evenodd">
    <path d="M196.381 26.122 178.111 37l23.657-1.61 1.822-23.92-7.209 14.652Z" fill="url(#paint2_linear-168273)"/>
    <path d="m201.806 35.373-2.033-14.072-5.539 7.333 7.572 6.74Z" fill="url(#paint3_linear-662035)"/>
    <path d="M201.835 35.374 186.939 34.2l-8.748 2.768 23.644-1.595Z" fill="url(#paint4_linear-874947)"/>
    <path d="m178.212 36.973 3.721-12.225-8.189 1.756 4.468 10.469Z" fill="url(#paint5_linear-689889)"/>
    <path d="m194.233 28.676-3.424-13.45-9.799 9.211 13.223 4.239Z" fill="url(#paint6_linear-230154)"/>
    <path d="M202.813 15.416 193.55 7.83l-2.579 8.362 11.842-.776Z" fill="url(#paint7_linear-072898)"/>
    <path d="m198.48 5.124-5.447 3.02-3.437-3.06 8.884.04Z" fill="url(#paint8_linear-064795)"/>
    <path d="m171.59 30.604 2.282-4.174-1.846-4.972-.436 9.146Z" fill="url(#paint9_linear-419605)"/>
    <path d="m171.902 21.301 1.858 5.283 8.07-1.815 9.215-8.587 2.6-8.283L189.55 5l-6.961 2.612c-2.193 2.046-6.449 6.093-6.602 6.17-.152.077-2.81 5.116-4.085 7.52Z" fill="#fff"/>
    <path d="M178.425 11.811c4.754-4.726 10.881-7.518 13.233-5.139 2.35 2.38-.142 8.161-4.895 12.886-4.754 4.724-10.805 7.67-13.155 5.29-2.352-2.377.064-8.313 4.817-13.037Z" fill="url(#paint10_linear-297733)"/>
    <path d="m178.211 36.968 3.692-12.264 12.262 3.95c-4.434 4.17-9.364 7.693-15.954 8.314Z" fill="url(#paint11_linear-245656)"/>
    <path d="m191.061 16.157 3.147 12.503c3.704-3.904 7.028-8.102 8.656-13.295l-11.803.792Z" fill="url(#paint12_linear-949090)"/>
    <path d="M202.833 15.428c1.26-3.812 1.55-9.282-4.39-10.297l-4.875 2.7 9.265 7.597Z" fill="url(#paint13_linear-571701)"/>
    <path d="M171.59 30.55c.174 6.292 4.701 6.385 6.63 6.44l-4.455-10.431-2.175 3.99Z" fill="#9E1209"/>
    <path d="M191.078 16.177c2.846 1.754 8.581 5.276 8.698 5.341.18.102 2.472-3.876 2.992-6.123l-11.69.782Z" fill="url(#paint14_radial-158588)"/>
    <path d="m181.898 24.704 4.936 9.55c2.919-1.588 5.204-3.522 7.297-5.593l-12.233-3.957Z" fill="url(#paint15_radial-329068)"/>
    <path d="m173.746 26.571-.699 8.351c1.319 1.808 3.135 1.965 5.039 1.824-1.378-3.439-4.13-10.314-4.34-10.175Z" fill="url(#paint16_linear-473253)"/>
    <path d="m193.539 7.852 9.805 1.38c-.523-2.223-2.13-3.658-4.869-4.107l-4.936 2.727Z" fill="url(#paint17_linear-916467)"/>
  </g>
  <g clip-path="url(#clip3-850346)" fill="#23C4F0">
    <path d="M259.59 21.004c0-2.442-2.987-4.756-7.566-6.19 1.057-4.78.587-8.58-1.482-9.798-.477-.285-1.035-.42-1.644-.42V6.27c.338 0 .609.067.837.195.998.586 1.431 2.818 1.093 5.688-.08.706-.212 1.45-.374 2.208a34.781 34.781 0 0 0-4.66-.819 36.341 36.341 0 0 0-3.052-3.756c2.392-2.277 4.637-3.524 6.164-3.524V4.588c-2.018 0-4.66 1.472-7.331 4.027-2.671-2.54-5.313-3.997-7.33-3.997v1.675c1.519 0 3.771 1.24 6.163 3.501a35.361 35.361 0 0 0-3.03 3.75c-1.659.18-3.229.458-4.667.826a23.066 23.066 0 0 1-.382-2.179c-.345-2.87.081-5.101 1.072-5.695.22-.135.506-.195.844-.195V4.625c-.617 0-1.175.136-1.659.421-2.062 1.217-2.524 5.011-1.46 9.775-4.564 1.442-7.536 3.749-7.536 6.183 0 2.442 2.986 4.756 7.565 6.19-1.056 4.78-.587 8.58 1.483 9.798.477.285 1.034.42 1.651.42 2.018 0 4.659-1.472 7.33-4.026 2.671 2.539 5.313 3.996 7.331 3.996.616 0 1.174-.135 1.658-.42 2.062-1.217 2.524-5.011 1.46-9.775 4.55-1.435 7.522-3.749 7.522-6.183Zm-9.554-5.011c-.272.969-.609 1.968-.991 2.967a35.843 35.843 0 0 0-.961-1.803 40.825 40.825 0 0 0-1.057-1.758c1.042.158 2.048.353 3.009.594Zm-3.361 8.001a40.065 40.065 0 0 1-1.768 2.87 37.309 37.309 0 0 1-6.619.008 41.44 41.44 0 0 1-1.776-2.855 39.238 39.238 0 0 1-1.526-2.99 39.311 39.311 0 0 1 1.519-2.998 40.065 40.065 0 0 1 1.768-2.87 37.274 37.274 0 0 1 6.619-.008 39.606 39.606 0 0 1 3.302 5.845 42.472 42.472 0 0 1-1.519 2.998Zm2.37-.977a32.846 32.846 0 0 1 1.013 2.99c-.961.241-1.974.444-3.023.602a41.683 41.683 0 0 0 2.01-3.592Zm-7.44 8.017a30.645 30.645 0 0 1-2.04-2.404c.66.03 1.335.052 2.018.052.689 0 1.372-.015 2.039-.052a29.091 29.091 0 0 1-2.017 2.404Zm-5.46-4.425a32.375 32.375 0 0 1-3.008-.594c.271-.969.609-1.968.99-2.968.301.602.617 1.203.961 1.804.345.6.698 1.187 1.057 1.758Zm5.423-15.635a30.862 30.862 0 0 1 2.04 2.404 44.34 44.34 0 0 0-2.018-.052c-.69 0-1.372.015-2.04.052a29.096 29.096 0 0 1 2.018-2.404Zm-5.43 4.425a41.758 41.758 0 0 0-2.011 3.584 32.539 32.539 0 0 1-1.012-2.99 34.832 34.832 0 0 1 3.023-.594Zm-6.641 9.407c-2.598-1.135-4.278-2.623-4.278-3.802 0-1.18 1.68-2.675 4.278-3.802a22.243 22.243 0 0 1 2.033-.759 36.502 36.502 0 0 0 1.651 4.576 35.841 35.841 0 0 0-1.629 4.553 21.86 21.86 0 0 1-2.055-.766Zm3.948 10.736c-.998-.586-1.431-2.818-1.094-5.688.081-.706.213-1.45.375-2.208 1.438.36 3.008.638 4.659.819a36.47 36.47 0 0 0 3.053 3.756c-2.392 2.277-4.638 3.524-6.164 3.524-.33-.008-.609-.075-.829-.203Zm17.405-5.725c.345 2.87-.08 5.101-1.071 5.695-.22.135-.506.195-.844.195-1.519 0-3.772-1.24-6.164-3.501a35.236 35.236 0 0 0 3.031-3.749 33.534 33.534 0 0 0 4.667-.826c.169.758.301 1.487.381 2.186Zm2.825-5.011c-.631.278-1.32.525-2.032.758a36.666 36.666 0 0 0-1.651-4.575 36.155 36.155 0 0 0 1.629-4.553 23 23 0 0 1 2.062.766c2.597 1.135 4.278 2.622 4.278 3.802-.008 1.18-1.688 2.675-4.286 3.802Z"/>
    <path d="M241.582 24.437c1.852 0 3.353-1.537 3.353-3.433s-1.501-3.434-3.353-3.434c-1.852 0-3.353 1.538-3.353 3.434 0 1.896 1.501 3.433 3.353 3.433Z"/>
  </g>
  <g clip-path="url(#clip4-646938)">
    <path d="M302.824 35.01a.912.912 0 0 1-.447-.123l-1.413-.817c-.212-.114-.106-.155-.042-.176.224-.07.438-.167.637-.29a.11.11 0 0 1 .107.011l1.083.62a.142.142 0 0 0 .138 0l4.25-2.377a.134.134 0 0 0 .038-.046.117.117 0 0 0 .015-.057V26.98a.137.137 0 0 0-.019-.06.138.138 0 0 0-.045-.044l-4.249-2.377a.13.13 0 0 0-.117 0l-4.25 2.377a.135.135 0 0 0-.063.104v4.764a.116.116 0 0 0 .015.066c.011.02.028.037.048.048l1.169.651c.637.31 1.02-.051 1.02-.413v-4.703a.106.106 0 0 1 .03-.087.115.115 0 0 1 .087-.037h.531a.123.123 0 0 1 .051.006.117.117 0 0 1 .07.069c.006.015.008.032.006.049v4.703c0 .827-.456 1.292-1.253 1.292-.245 0-.436 0-.978-.259l-1.115-.62a.892.892 0 0 1-.326-.32.857.857 0 0 1-.12-.434V26.99a.839.839 0 0 1 .119-.436.878.878 0 0 1 .327-.319l4.249-2.387a.958.958 0 0 1 .882 0l4.25 2.377a.857.857 0 0 1 .446.765v4.754a.883.883 0 0 1-.436.755l-4.249 2.387a.912.912 0 0 1-.446.114v.01Z" fill="#679E63"/>
    <path d="M304.131 31.723c-1.859 0-2.252-.827-2.252-1.53 0-.015.003-.031.01-.046a.12.12 0 0 1 .117-.068h.553a.12.12 0 0 1 .079.03c.022.02.035.046.038.074.085.538.329.817 1.455.817.893 0 1.275-.207 1.275-.662 0-.268-.106-.465-1.498-.6-1.169-.103-1.88-.361-1.88-1.26 0-.827.722-1.334 1.933-1.334 1.36 0 2.029.466 2.125 1.448.003.019 0 .039-.007.057a.117.117 0 0 1-.036.046.127.127 0 0 1-.085.03h-.552a.12.12 0 0 1-.079-.029.113.113 0 0 1-.038-.074c-.138-.568-.457-.744-1.328-.744-.977 0-1.094.331-1.094.58 0 .299.138.382 1.455.557 1.318.176 1.923.403 1.923 1.292 0 .89-.765 1.416-2.124 1.416h.01Zm6.12-5.002a.78.78 0 0 1-.138.442.817.817 0 0 1-.367.293.84.84 0 0 1-.892-.173.78.78 0 0 1-.177-.867.798.798 0 0 1 .301-.357.836.836 0 0 1 1.033.099c.153.15.24.352.24.563Zm-1.509 0a.664.664 0 0 0 .419.628.71.71 0 0 0 .756-.14.659.659 0 0 0-.1-1.037.706.706 0 0 0-.869.08.665.665 0 0 0-.206.469Zm.382-.445h.319c.106 0 .319 0 .319.238a.207.207 0 0 1-.17.217c.117 0 .127.093.149.207.002.08.017.16.042.237h-.191l-.032-.279c-.011-.051-.032-.082-.106-.082h-.149v.361h-.181v-.899Zm.17.393h.149a.13.13 0 0 0 .128-.074.122.122 0 0 0 .01-.05c0-.124-.085-.124-.138-.124h-.149v.248Z" fill="#679E63"/>
    <path fill-rule="evenodd" clip-rule="evenodd" d="M289.683 16.356a.532.532 0 0 0-.277-.455l-4.504-2.521a.554.554 0 0 0-.245-.063h-.053a.563.563 0 0 0-.244.063l-4.494 2.521a.527.527 0 0 0-.276.466v6.78a.256.256 0 0 0 .149.227.269.269 0 0 0 .265 0l2.677-1.488a.53.53 0 0 0 .277-.465v-3.153a.514.514 0 0 1 .265-.454l1.148-.651a.55.55 0 0 1 .541 0l1.137.64a.539.539 0 0 1 .195.193c.047.08.071.17.071.262v3.163a.528.528 0 0 0 .287.465l2.656 1.488a.268.268 0 0 0 .276 0 .265.265 0 0 0 .138-.227l.011-6.79Zm21.64-9.323a.282.282 0 0 0-.368.106.264.264 0 0 0-.035.132v6.718a.188.188 0 0 1-.107.155.196.196 0 0 1-.18 0l-1.126-.63a.555.555 0 0 0-.531 0l-4.526 2.532a.515.515 0 0 0-.266.455v5.054a.522.522 0 0 0 .276.455l4.494 2.532a.556.556 0 0 0 .542 0l4.505-2.532a.53.53 0 0 0 .276-.455V8.945a.522.522 0 0 0-.287-.454l-2.667-1.458Zm-.425 12.858a.123.123 0 0 1-.016.065.15.15 0 0 1-.047.049l-1.541.868a.143.143 0 0 1-.138 0l-1.54-.868a.135.135 0 0 1-.075-.103v-1.747a.138.138 0 0 1 .064-.104l1.551-.878a.142.142 0 0 1 .138 0l1.541.868a.132.132 0 0 1 .074.114l-.011 1.736Zm15.416-1.778a.523.523 0 0 0 .276-.455v-1.23a.523.523 0 0 0-.276-.454l-4.473-2.533a.554.554 0 0 0-.542 0l-4.504 2.533a.516.516 0 0 0-.266.455v5.064a.522.522 0 0 0 .276.455l4.462 2.48a.555.555 0 0 0 .532 0l2.709-1.467a.268.268 0 0 0 .1-.367.268.268 0 0 0-.1-.098l-4.526-2.522a.266.266 0 0 1-.138-.227v-1.582a.26.26 0 0 1 .138-.227l1.413-.796a.27.27 0 0 1 .265 0l1.413.796a.269.269 0 0 1 .102.095c.024.04.037.086.036.132v1.24a.258.258 0 0 0 .133.23.27.27 0 0 0 .271-.002l2.699-1.52Z" fill="#333"/>
    <path fill-rule="evenodd" clip-rule="evenodd" d="M321.501 17.873a.11.11 0 0 1 .106 0l.872.486a.104.104 0 0 1 .053.083v.971a.105.105 0 0 1-.053.093l-.861.486a.106.106 0 0 1-.053.014.106.106 0 0 1-.053-.014l-.871-.486a.099.099 0 0 1-.034-.04.094.094 0 0 1-.009-.053v-.971c0-.016.004-.032.011-.047a.104.104 0 0 1 .032-.036l.86-.486Z" fill="#679E63"/>
    <path fill-rule="evenodd" clip-rule="evenodd" d="M297.205 13.47a.545.545 0 0 0-.531 0l-4.494 2.523a.515.515 0 0 0-.266.455v5.023a.515.515 0 0 0 .266.454l4.472 2.512a.545.545 0 0 0 .532 0l4.483-2.512a.518.518 0 0 0 .276-.454v-5.034a.52.52 0 0 0-.276-.455l-4.462-2.511Z" fill="url(#paint18_linear-486138)"/>
    <path d="m301.687 15.993-4.483-2.522a.54.54 0 0 0-.138-.052L292.02 21.8c.042.049.092.09.148.124l4.505 2.512c.126.07.274.088.414.052l4.728-8.414a.639.639 0 0 0-.128-.093v.01Z" fill="url(#paint19_linear-181381)"/>
    <path d="m296.513 12.54-.064.041h.085l-.021-.041Z" fill="url(#paint20_linear-132964)"/>
    <path d="M301.686 21.925a.56.56 0 0 0 .266-.33l-4.919-8.186a.563.563 0 0 0-.382.061l-4.452 2.502 4.813 8.537a.569.569 0 0 0 .202-.072l4.472-2.512Z" fill="url(#paint21_linear-586495)"/>
    <path d="m302.112 21.843-.032-.052v.072l.032-.02Z" fill="url(#paint22_linear-468609)"/>
    <path d="m301.686 21.925-4.472 2.512a.569.569 0 0 1-.202.072l.085.155 4.982-2.8v-.073l-.127-.207a.56.56 0 0 1-.266.341Z" fill="url(#paint23_linear-238342)"/>
    <path d="m301.686 21.925-4.472 2.512a.569.569 0 0 1-.202.072l.085.155 4.982-2.8v-.073l-.127-.207a.56.56 0 0 1-.266.341Z" fill="url(#paint24_linear-282077)"/>
  </g>
  <g clip-path="url(#clip5-113444)" fill="#000">
    <path d="M350.379 14.062h7.102c2.085.017 3.595.618 4.532 1.802.936 1.183 1.245 2.8.927 4.849a9.286 9.286 0 0 1-.821 2.756 8.21 8.21 0 0 1-1.696 2.438c-.884.919-1.829 1.502-2.836 1.749a13.052 13.052 0 0 1-3.127.371h-3.18l-1.007 5.035h-3.683l3.789-19Zm3.101 3.02-1.59 7.95c.106.018.212.027.318.027h.371c1.696.017 3.109-.15 4.24-.504 1.13-.37 1.89-1.66 2.279-3.869.318-1.855 0-2.924-.954-3.206-.937-.282-2.111-.415-3.525-.398a7.416 7.416 0 0 1-.609.027h-.557l.027-.027M367.136 9h3.657l-1.033 5.062h3.286c1.802.035 3.144.406 4.028 1.113.901.706 1.166 2.049.795 4.027l-1.776 8.825h-3.71l1.696-8.427c.177-.884.124-1.51-.159-1.882-.282-.37-.892-.556-1.828-.556l-2.942-.026-2.173 10.891h-3.657L367.136 9ZM381.795 14.062h7.102c2.085.017 3.595.618 4.532 1.802.936 1.183 1.245 2.8.927 4.849a9.286 9.286 0 0 1-.821 2.756 8.21 8.21 0 0 1-1.696 2.438c-.884.919-1.829 1.502-2.836 1.749a13.052 13.052 0 0 1-3.127.371h-3.18l-1.007 5.035h-3.683l3.789-19Zm3.101 3.02-1.59 7.95c.106.018.212.027.318.027h.371c1.696.017 3.109-.15 4.24-.504 1.13-.37 1.89-1.66 2.279-3.869.318-1.855 0-2.924-.954-3.206-.937-.282-2.111-.415-3.525-.398a7.416 7.416 0 0 1-.609.027h-.557l.027-.027"/>
  </g>
  <defs>
    <linearGradient id="paint0_linear-527263" x1="67.075" y1="7.797" x2="82.981" y2="23.673" gradientUnits="userSpaceOnUse">
      <stop stop-color="#387EB8"/>
      <stop offset="1" stop-color="#366994"/>
    </linearGradient>
    <linearGradient id="paint1_linear-081121" x1="76.808" y1="17.95" x2="93.887" y2="34.227" gradientUnits="userSpaceOnUse">
      <stop stop-color="#FFE052"/>
      <stop offset="1" stop-color="#FFC331"/>
    </linearGradient>
    <linearGradient id="paint2_linear-168273" x1="199.704" y1="39.911" x2="192.925" y2="27.975" gradientUnits="userSpaceOnUse">
      <stop stop-color="#FB7655"/>
      <stop offset=".41" stop-color="#E42B1E"/>
      <stop offset=".99" stop-color="#900"/>
      <stop offset="1" stop-color="#900"/>
    </linearGradient>
    <linearGradient id="paint3_linear-662035" x1="203.067" y1="29.87" x2="194.352" y2="24.038" gradientUnits="userSpaceOnUse">
      <stop stop-color="#871101"/>
      <stop offset=".99" stop-color="#911209"/>
      <stop offset="1" stop-color="#911209"/>
    </linearGradient>
    <linearGradient id="paint4_linear-874947" x1="196.107" y1="40.272" x2="187.392" y2="34.44" gradientUnits="userSpaceOnUse">
      <stop stop-color="#871101"/>
      <stop offset=".99" stop-color="#911209"/>
      <stop offset="1" stop-color="#911209"/>
    </linearGradient>
    <linearGradient id="paint5_linear-689889" x1="177.839" y1="25.632" x2="179.195" y2="34.421" gradientUnits="userSpaceOnUse">
      <stop stop-color="#fff"/>
      <stop offset=".23" stop-color="#E57252"/>
      <stop offset=".46" stop-color="#DE3B20"/>
      <stop offset=".99" stop-color="#A60003"/>
      <stop offset="1" stop-color="#A60003"/>
    </linearGradient>
    <linearGradient id="paint6_linear-230154" x1="187.115" y1="17.425" x2="187.615" y2="26.395" gradientUnits="userSpaceOnUse">
      <stop stop-color="#fff"/>
      <stop offset=".23" stop-color="#E4714E"/>
      <stop offset=".56" stop-color="#BE1A0D"/>
      <stop offset=".99" stop-color="#A80D00"/>
      <stop offset="1" stop-color="#A80D00"/>
    </linearGradient>
    <linearGradient id="paint7_linear-072898" x1="195.348" y1="9.134" x2="196.844" y2="15.561" gradientUnits="userSpaceOnUse">
      <stop stop-color="#fff"/>
      <stop offset=".18" stop-color="#E46342"/>
      <stop offset=".4" stop-color="#C82410"/>
      <stop offset=".99" stop-color="#A80D00"/>
      <stop offset="1" stop-color="#A80D00"/>
    </linearGradient>
    <linearGradient id="paint8_linear-064795" x1="190.805" y1="6.869" x2="197.223" y2="3.669" gradientUnits="userSpaceOnUse">
      <stop stop-color="#fff"/>
      <stop offset=".54" stop-color="#C81F11"/>
      <stop offset=".99" stop-color="#BF0905"/>
      <stop offset="1" stop-color="#BF0905"/>
    </linearGradient>
    <linearGradient id="paint9_linear-419605" x1="172.22" y1="23.391" x2="172.751" y2="28.688" gradientUnits="userSpaceOnUse">
      <stop stop-color="#fff"/>
      <stop offset=".31" stop-color="#DE4024"/>
      <stop offset=".99" stop-color="#BF190B"/>
      <stop offset="1" stop-color="#BF190B"/>
    </linearGradient>
    <linearGradient id="paint10_linear-297733" x1="168.593" y1="30.121" x2="193.468" y2="4.615" gradientUnits="userSpaceOnUse">
      <stop stop-color="#BD0012"/>
      <stop offset=".07" stop-color="#fff"/>
      <stop offset=".17" stop-color="#fff"/>
      <stop offset=".27" stop-color="#C82F1C"/>
      <stop offset=".33" stop-color="#820C01"/>
      <stop offset=".46" stop-color="#A31601"/>
      <stop offset=".72" stop-color="#B31301"/>
      <stop offset=".99" stop-color="#E82609"/>
      <stop offset="1" stop-color="#E82609"/>
    </linearGradient>
    <linearGradient id="paint11_linear-245656" x1="187.591" y1="32.701" x2="180.117" y2="30.861" gradientUnits="userSpaceOnUse">
      <stop stop-color="#8C0C01"/>
      <stop offset=".54" stop-color="#990C00"/>
      <stop offset=".99" stop-color="#A80D0E"/>
      <stop offset="1" stop-color="#A80D0E"/>
    </linearGradient>
    <linearGradient id="paint12_linear-949090" x1="200.423" y1="23.709" x2="193.769" y2="17.762" gradientUnits="userSpaceOnUse">
      <stop stop-color="#7E110B"/>
      <stop offset=".99" stop-color="#9E0C00"/>
      <stop offset="1" stop-color="#9E0C00"/>
    </linearGradient>
    <linearGradient id="paint13_linear-571701" x1="202.862" y1="12.764" x2="199.547" y2="9.229" gradientUnits="userSpaceOnUse">
      <stop stop-color="#79130D"/>
      <stop offset=".99" stop-color="#9E120B"/>
      <stop offset="1" stop-color="#9E120B"/>
    </linearGradient>
    <linearGradient id="paint16_linear-473253" x1="175.898" y1="36.961" x2="173.19" y2="27.799" gradientUnits="userSpaceOnUse">
      <stop stop-color="#8B2114"/>
      <stop offset=".43" stop-color="#9E100A"/>
      <stop offset=".99" stop-color="#B3100C"/>
      <stop offset="1" stop-color="#B3100C"/>
    </linearGradient>
    <linearGradient id="paint17_linear-916467" x1="196.566" y1="6.587" x2="202.612" y2="9.248" gradientUnits="userSpaceOnUse">
      <stop stop-color="#B31000"/>
      <stop offset=".44" stop-color="#910F08"/>
      <stop offset=".99" stop-color="#791C12"/>
      <stop offset="1" stop-color="#791C12"/>
    </linearGradient>
    <linearGradient id="paint18_linear-486138" x1="298.756" y1="15.341" x2="294.885" y2="23.456" gradientUnits="userSpaceOnUse">
      <stop stop-color="#3F873F"/>
      <stop offset=".3" stop-color="#3F8B3D"/>
      <stop offset=".6" stop-color="#3E9637"/>
      <stop offset=".9" stop-color="#3DA92E"/>
      <stop offset="1" stop-color="#3DAE2B"/>
    </linearGradient>
    <linearGradient id="paint19_linear-181381" x1="296.258" y1="19.538" x2="307.383" y2="11.091" gradientUnits="userSpaceOnUse">
      <stop offset=".1" stop-color="#3F873F"/>
      <stop offset=".4" stop-color="#529F44"/>
      <stop offset=".7" stop-color="#63B649"/>
      <stop offset=".9" stop-color="#6ABF4B"/>
    </linearGradient>
    <linearGradient id="paint20_linear-132964" x1="291.764" y1="12.561" x2="302.112" y2="12.561" gradientUnits="userSpaceOnUse">
      <stop offset=".1" stop-color="#6ABF4B"/>
      <stop offset=".3" stop-color="#63B649"/>
      <stop offset=".6" stop-color="#529F44"/>
      <stop offset=".9" stop-color="#3F873F"/>
    </linearGradient>
    <linearGradient id="paint21_linear-586495" x1="1412.79" y1="1298.92" x2="2362.7" y2="1298.92" gradientUnits="userSpaceOnUse">
      <stop offset=".1" stop-color="#6ABF4B"/>
      <stop offset=".3" stop-color="#63B649"/>
      <stop offset=".6" stop-color="#529F44"/>
      <stop offset=".9" stop-color="#3F873F"/>
    </linearGradient>
    <linearGradient id="paint22_linear-468609" x1="305.733" y1="32.166" x2="308.837" y2="32.166" gradientUnits="userSpaceOnUse">
      <stop offset=".1" stop-color="#6ABF4B"/>
      <stop offset=".3" stop-color="#63B649"/>
      <stop offset=".6" stop-color="#529F44"/>
      <stop offset=".9" stop-color="#3F873F"/>
    </linearGradient>
    <linearGradient id="paint23_linear-238342" x1="879.277" y1="502.081" x2="1372.86" y2="502.081" gradientUnits="userSpaceOnUse">
      <stop offset=".1" stop-color="#6ABF4B"/>
      <stop offset=".3" stop-color="#63B649"/>
      <stop offset=".6" stop-color="#529F44"/>
      <stop offset=".9" stop-color="#3F873F"/>
    </linearGradient>
    <linearGradient id="paint24_linear-282077" x1="1444.82" y1="263.064" x2="1316.65" y2="693.241" gradientUnits="userSpaceOnUse">
      <stop stop-color="#3F873F"/>
      <stop offset=".3" stop-color="#3F8B3D"/>
      <stop offset=".6" stop-color="#3E9637"/>
      <stop offset=".9" stop-color="#3DA92E"/>
      <stop offset="1" stop-color="#3DAE2B"/>
    </linearGradient>
    <clipPath id="clip0-984138">
      <path fill="#fff" transform="translate(0 13)" d="M0 0h44v16H0z"/>
    </clipPath>
    <clipPath id="clip1-581103">
      <path fill="#fff" transform="translate(64 5)" d="M0 0h32v32H0z"/>
    </clipPath>
    <clipPath id="clip2-101194">
      <path fill="#fff" transform="translate(171.59 5)" d="M0 0h32v32H0z"/>
    </clipPath>
    <clipPath id="clip3-850346">
      <path fill="#fff" transform="translate(223.59)" d="M0 0h36v42H0z"/>
    </clipPath>
    <clipPath id="clip4-646938">
      <path fill="#fff" transform="translate(279.59 7)" d="M0 0h47v28H0z"/>
    </clipPath>
    <clipPath id="clip5-113444">
      <path fill="#fff" transform="translate(346.59 8.5)" d="M0 0h50v25H0z"/>
    </clipPath>
    <radialGradient id="paint14_radial-158588" cx="0" cy="0" r="1" gradientUnits="userSpaceOnUse" gradientTransform="matrix(8.13326 0 0 8.1559 194.819 17.858)">
      <stop stop-color="#A80D00"/>
      <stop offset=".99" stop-color="#7E0E08"/>
      <stop offset="1" stop-color="#7E0E08"/>
    </radialGradient>
    <radialGradient id="paint15_radial-329068" cx="0" cy="0" r="1" gradientUnits="userSpaceOnUse" gradientTransform="matrix(10.8121 0 0 10.8422 183.556 28.606)">
      <stop stop-color="#A30C00"/>
      <stop offset=".99" stop-color="#800E08"/>
      <stop offset="1" stop-color="#800E08"/>
    </radialGradient>
  </defs>
</svg>